<svg width="145" height="200" viewBox="0 0 145 200" fill="none" xmlns="http://www.w3.org/2000/svg">
    <path d="M37.2466 177.238C37.1648 177.234 37.0844 177.214 37.0103 177.179C36.9361 177.144 36.8696 177.095 36.8144 177.034C36.7593 176.974 36.7167 176.903 36.689 176.826C36.6613 176.748 36.6491 176.667 36.6531 176.585C37.484 150.795 52.6788 125.926 52.8272 125.659C52.8698 125.588 52.9259 125.527 52.9923 125.478C53.0588 125.43 53.1342 125.395 53.2142 125.375C53.2942 125.356 53.3773 125.353 53.4586 125.366C53.5398 125.379 53.6178 125.408 53.6878 125.451C53.7582 125.493 53.8195 125.55 53.8682 125.616C53.9168 125.682 53.9517 125.758 53.9711 125.838C53.9904 125.918 53.9937 126.001 53.9807 126.082C53.9677 126.164 53.9388 126.241 53.8955 126.312C53.7472 126.549 38.7305 151.151 37.8995 176.614C37.8919 176.774 37.8229 176.925 37.7068 177.036C37.5908 177.147 37.4366 177.208 37.2763 177.208L37.2466 177.238Z" fill="#0A0A0A"/>
    <path d="M29.9162 182.847C29.9162 182.847 28.462 176.199 31.3704 176.021C34.2788 175.843 42.2323 174.982 42.2323 177.475C42.2323 179.968 42.0245 187.832 42.0245 191.156C42.0245 194.48 39.9471 196.35 30.3317 196.142C20.7163 195.934 14.4544 193.441 16.1163 188.456C17.7782 183.47 20.5085 184.716 24.4853 185.132C28.462 185.547 30.124 186.556 29.9162 182.847Z" fill="#E270AD"/>
    <path d="M31.7266 196.439H30.3317C23.0608 196.29 18.075 194.806 16.2944 192.314C15.8916 191.742 15.6373 191.079 15.5544 190.385C15.4715 189.691 15.5626 188.987 15.8196 188.337C16.7692 185.369 18.1047 184.36 20.4195 184.36C21.2549 184.383 22.0878 184.462 22.9124 184.597L24.515 184.805L26.4143 185.043C27.0323 185.153 27.6569 185.222 28.284 185.25C28.4589 185.271 28.6362 185.256 28.8047 185.204C28.9733 185.153 29.1294 185.068 29.2633 184.954C29.5601 184.627 29.6788 183.974 29.6195 182.847C29.6195 182.847 28.6104 178.247 29.9756 176.436C30.1354 176.211 30.3437 176.025 30.5851 175.892C30.8266 175.758 31.095 175.68 31.3704 175.665H32.142C33.4478 175.665 35.2581 175.427 36.9794 175.427C40.7188 175.427 42.5587 176.11 42.5587 177.505C42.5587 178.899 42.5587 181.007 42.5587 183.44C42.5587 186.408 42.5587 189.376 42.5587 191.186C42.351 194.955 39.3833 196.439 31.7266 196.439ZM20.4195 184.983C18.7279 184.983 17.4518 185.577 16.4131 188.545C16.1899 189.101 16.1082 189.704 16.1756 190.3C16.2429 190.895 16.4571 191.465 16.7989 191.957C18.4608 194.272 23.2685 195.667 30.3317 195.815C39.8284 196.023 41.6981 194.183 41.6981 191.156C41.6981 189.376 41.6981 186.348 41.6981 183.41C41.6981 180.947 41.6981 178.632 41.6981 177.475C41.6981 176.318 40.0065 176.05 36.7717 176.05C35.0504 176.05 33.2698 176.05 31.964 176.288H31.1627C30.9763 176.294 30.7938 176.342 30.6291 176.43C30.4644 176.517 30.3221 176.641 30.213 176.792C29.0259 178.365 29.9756 182.728 29.9756 182.728C29.9756 184.123 29.9756 184.894 29.4711 185.339C29.2774 185.51 29.0516 185.64 28.8069 185.721C28.5623 185.803 28.3037 185.834 28.0466 185.814C27.3897 185.79 26.7353 185.72 26.0879 185.607L24.2182 185.369L22.586 185.161C21.8681 185.058 21.1446 184.999 20.4195 184.983Z" fill="#0A0A0A"/>
    <path d="M29.6489 179.463C31.3418 179.848 33.0869 179.948 34.8128 179.76C37.6321 179.463 34.8128 184.627 30.0051 182.728C29.8195 181.648 29.7006 180.558 29.6489 179.463Z" fill="#FFFC0D"/>
    <path d="M31.9042 183.529C31.1824 183.52 30.4684 183.379 29.7971 183.114C29.7437 183.098 29.6959 183.067 29.6591 183.025C29.6224 182.983 29.5982 182.931 29.5894 182.876C29.3968 181.748 29.2779 180.608 29.2333 179.463C29.2169 179.426 29.2085 179.386 29.2085 179.345C29.2085 179.304 29.2169 179.263 29.2333 179.226C29.2753 179.207 29.3208 179.197 29.3668 179.197C29.4129 179.197 29.4584 179.207 29.5004 179.226C30.639 179.488 31.8042 179.618 32.9726 179.612C33.5063 179.643 34.0414 179.643 34.5752 179.612C34.776 179.57 34.9833 179.573 35.183 179.619C35.3828 179.665 35.5702 179.754 35.7326 179.879C35.8368 179.972 35.9199 180.086 35.9762 180.214C36.0325 180.342 36.0607 180.481 36.059 180.621C35.8033 181.508 35.2515 182.28 34.4955 182.809C33.7395 183.338 32.8249 183.592 31.9042 183.529ZM30.2126 182.609C30.756 182.802 31.3277 182.902 31.9042 182.906C32.6999 182.986 33.4989 182.791 34.1683 182.353C34.8378 181.916 35.3374 181.263 35.5842 180.502C35.6055 180.456 35.6166 180.405 35.6166 180.354C35.6166 180.302 35.6055 180.252 35.5842 180.205C35.375 180.12 35.1405 180.12 34.9313 180.205C33.3063 180.372 31.6653 180.292 30.0642 179.968C29.9158 180.324 30.0049 181.125 30.2126 182.609Z" fill="#0A0A0A"/>
    <path d="M37.8694 199.703C39.6068 199.703 41.0152 198.308 41.0152 196.587C41.0152 194.866 39.6068 193.471 37.8694 193.471C36.132 193.471 34.7236 194.866 34.7236 196.587C34.7236 198.308 36.132 199.703 37.8694 199.703Z" fill="#3C1C24"/>
    <path d="M37.87 200C37.1963 199.994 36.5394 199.789 35.9821 199.41C35.4248 199.032 34.9919 198.497 34.7382 197.873C34.4844 197.249 34.421 196.563 34.5561 195.903C34.6911 195.243 35.0184 194.638 35.4969 194.163C35.9754 193.689 36.5835 193.367 37.2447 193.238C37.9059 193.108 38.5906 193.178 39.2125 193.437C39.8344 193.696 40.3657 194.134 40.7394 194.694C41.1131 195.255 41.3126 195.913 41.3126 196.587C41.3048 197.495 40.9386 198.363 40.2938 199.002C39.6491 199.641 38.7779 200 37.87 200ZM37.87 193.768C37.3272 193.802 36.8064 193.995 36.3717 194.322C35.9369 194.649 35.6072 195.096 35.4231 195.607C35.239 196.119 35.2085 196.674 35.3354 197.203C35.4624 197.732 35.7411 198.212 36.1374 198.584C36.5337 198.957 37.0303 199.205 37.566 199.299C38.1018 199.393 38.6533 199.329 39.1527 199.113C39.6522 198.898 40.0778 198.541 40.3772 198.087C40.6765 197.633 40.8366 197.101 40.8377 196.557C40.8343 196.177 40.7538 195.801 40.6011 195.452C40.4485 195.104 40.2268 194.79 39.9495 194.529C39.6722 194.268 39.345 194.066 38.9876 193.936C38.6302 193.805 38.2501 193.748 37.87 193.768Z" fill="#0A0A0A"/>
    <path d="M21.8738 198.605C23.6112 198.605 25.0196 197.21 25.0196 195.489C25.0196 193.768 23.6112 192.373 21.8738 192.373C20.1364 192.373 18.728 193.768 18.728 195.489C18.728 197.21 20.1364 198.605 21.8738 198.605Z" fill="#3C1C24"/>
    <path d="M21.8734 198.932C21.1997 198.926 20.5428 198.721 19.9855 198.342C19.4282 197.964 18.9954 197.428 18.7416 196.804C18.4878 196.18 18.4245 195.495 18.5595 194.835C18.6945 194.175 19.0219 193.57 19.5003 193.095C19.9788 192.621 20.5869 192.299 21.2481 192.169C21.9093 192.04 22.594 192.109 23.2159 192.369C23.8378 192.628 24.3691 193.065 24.7428 193.626C25.1165 194.186 25.316 194.845 25.316 195.519C25.3082 196.427 24.942 197.295 24.2973 197.934C23.6525 198.573 22.7813 198.932 21.8734 198.932ZM21.8734 192.699C21.323 192.705 20.7866 192.874 20.3318 193.184C19.8769 193.494 19.524 193.932 19.3174 194.442C19.1108 194.952 19.0598 195.512 19.1707 196.051C19.2817 196.59 19.5497 197.085 19.941 197.472C20.3323 197.859 20.8294 198.122 21.3697 198.227C21.91 198.332 22.4694 198.275 22.9774 198.063C23.4854 197.851 23.9194 197.494 24.2246 197.036C24.5299 196.578 24.6927 196.04 24.6928 195.489C24.685 194.746 24.3845 194.037 23.8566 193.515C23.3287 192.992 22.6161 192.699 21.8734 192.699Z" fill="#0A0A0A"/>
    <path d="M21.8736 197.21C22.8243 197.21 23.5949 196.44 23.5949 195.489C23.5949 194.538 22.8243 193.768 21.8736 193.768C20.923 193.768 20.1523 194.538 20.1523 195.489C20.1523 196.44 20.923 197.21 21.8736 197.21Z" fill="#FFFC0D"/>
    <path d="M21.8733 197.507C21.4741 197.507 21.084 197.389 20.7521 197.167C20.4202 196.945 20.1616 196.63 20.0088 196.261C19.8561 195.893 19.8161 195.487 19.894 195.095C19.9719 194.704 20.1641 194.344 20.4463 194.062C20.7285 193.78 21.0881 193.588 21.4796 193.51C21.871 193.432 22.2768 193.472 22.6456 193.625C23.0143 193.777 23.3295 194.036 23.5512 194.368C23.773 194.7 23.8913 195.09 23.8913 195.489C23.8913 195.754 23.8391 196.017 23.7377 196.261C23.6363 196.506 23.4876 196.729 23.3003 196.916C23.1129 197.103 22.8904 197.252 22.6456 197.353C22.4007 197.455 22.1383 197.507 21.8733 197.507ZM21.8733 194.094C21.5974 194.094 21.3277 194.176 21.0984 194.329C20.869 194.483 20.6902 194.7 20.5846 194.955C20.4791 195.21 20.4514 195.491 20.5052 195.761C20.5591 196.032 20.6919 196.28 20.887 196.475C21.0821 196.67 21.3306 196.803 21.6012 196.857C21.8717 196.911 22.1522 196.883 22.4071 196.778C22.6619 196.672 22.8798 196.493 23.033 196.264C23.1863 196.035 23.2681 195.765 23.2681 195.489C23.2681 195.119 23.1212 194.764 22.8596 194.503C22.598 194.241 22.2432 194.094 21.8733 194.094Z" fill="#0A0A0A"/>
    <path d="M37.8695 198.308C38.8201 198.308 39.5908 197.538 39.5908 196.587C39.5908 195.636 38.8201 194.866 37.8695 194.866C36.9188 194.866 36.1482 195.636 36.1482 196.587C36.1482 197.538 36.9188 198.308 37.8695 198.308Z" fill="#FFFC0D"/>
    <path d="M37.8697 198.605C37.4719 198.599 37.0847 198.476 36.7568 198.251C36.4288 198.025 36.1748 197.708 36.0266 197.339C35.8784 196.97 35.8426 196.565 35.9238 196.175C36.005 195.786 36.1995 195.429 36.4829 195.15C36.7662 194.871 37.1259 194.681 37.5165 194.606C37.9071 194.53 38.3113 194.572 38.6784 194.726C39.0454 194.879 39.3588 195.138 39.5793 195.469C39.7998 195.8 39.9174 196.189 39.9174 196.587C39.9175 196.855 39.8643 197.119 39.761 197.366C39.6578 197.613 39.5065 197.837 39.3159 198.025C39.1254 198.212 38.8994 198.36 38.6511 198.46C38.4028 198.56 38.1372 198.609 37.8697 198.605ZM37.8697 195.192C37.5952 195.198 37.3285 195.285 37.103 195.442C36.8776 195.598 36.7035 195.818 36.6024 196.074C36.5014 196.329 36.478 196.608 36.5351 196.877C36.5922 197.146 36.7273 197.391 36.9235 197.583C37.1197 197.775 37.3683 197.905 37.638 197.957C37.9077 198.008 38.1867 197.979 38.4398 197.873C38.693 197.766 38.9091 197.588 39.0611 197.359C39.2131 197.13 39.2942 196.862 39.2942 196.587C39.2943 196.401 39.2572 196.218 39.1853 196.046C39.1133 195.875 39.0079 195.72 38.8753 195.59C38.7426 195.46 38.5853 195.358 38.4126 195.29C38.2399 195.221 38.0554 195.188 37.8697 195.192Z" fill="#0A0A0A"/>
    <path d="M101.795 133.464C93.0991 133.464 86.0359 115.361 85.7391 114.619C85.681 114.465 85.6858 114.295 85.7524 114.145C85.8191 113.995 85.9423 113.877 86.0953 113.817C86.2488 113.759 86.4191 113.764 86.5691 113.831C86.7192 113.897 86.8368 114.021 86.8966 114.173C86.8966 114.352 93.9301 132.217 101.735 132.217C109.54 132.217 121.827 118.269 121.945 118.121C122.003 118.061 122.073 118.014 122.149 117.982C122.226 117.95 122.308 117.933 122.39 117.933C122.473 117.933 122.555 117.95 122.632 117.982C122.708 118.014 122.778 118.061 122.836 118.121C122.946 118.236 123.008 118.391 123.008 118.551C123.008 118.711 122.946 118.865 122.836 118.981C122.331 119.575 110.223 133.523 101.676 133.523L101.795 133.464Z" fill="#0A0A0A"/>
    <path d="M127.168 124.739C127.168 124.739 122.509 129.25 120.877 126.994C119.244 124.739 114.585 118.803 116.603 117.616C118.621 116.429 125.12 112.571 127.821 110.909C130.522 109.247 133.074 109.989 137.733 117.764C139.662 120.999 143.669 126.668 141.769 130.585C139.87 134.502 136.338 132.662 134.024 130.229C132.54 128.656 129.839 122.008 127.168 124.739Z" fill="#E270AD"/>
    <path d="M138.743 133.197C136.794 132.957 135.016 131.967 133.787 130.437C133.28 129.821 132.823 129.166 132.421 128.478C131.353 126.757 129.869 124.412 128.504 124.412C128.287 124.423 128.075 124.479 127.881 124.576C127.687 124.673 127.515 124.809 127.376 124.976C127.376 124.976 124.409 127.944 122.123 127.944C121.829 127.955 121.537 127.893 121.273 127.763C121.009 127.634 120.781 127.441 120.61 127.202L120.165 126.608C117.88 123.64 115.476 120.079 115.802 118.239C115.832 118.049 115.903 117.869 116.011 117.71C116.119 117.551 116.26 117.417 116.425 117.319L121.322 114.351L127.584 110.672C128.296 110.192 129.13 109.925 129.988 109.9C132.303 109.9 134.707 112.215 137.941 117.646L138.535 118.625C140.612 122.008 143.728 127.113 142.007 130.733C141.771 131.423 141.334 132.026 140.752 132.465C140.17 132.904 139.47 133.159 138.743 133.197ZM128.504 123.789C130.225 123.789 131.739 126.193 132.956 128.151C133.331 128.807 133.758 129.432 134.232 130.021C135.337 131.427 136.942 132.351 138.713 132.603C139.331 132.58 139.926 132.365 140.416 131.987C140.905 131.609 141.264 131.088 141.443 130.496C143.016 127.172 140.019 122.246 138.001 118.981L137.407 117.972C134.439 112.808 132.036 110.523 129.988 110.523C129.244 110.547 128.523 110.784 127.91 111.206L121.649 114.975L116.752 117.942C116.664 117.998 116.589 118.071 116.533 118.159C116.476 118.246 116.44 118.344 116.425 118.447C116.099 120.139 119.185 124.382 120.669 126.311L121.114 126.935C121.23 127.1 121.386 127.233 121.568 127.322C121.75 127.41 121.951 127.45 122.153 127.439C124.023 127.439 126.931 124.679 126.961 124.649C127.143 124.406 127.375 124.203 127.641 124.055C127.907 123.906 128.201 123.816 128.504 123.789Z" fill="#0A0A0A"/>
    <path d="M124.616 126.757C124.078 125.202 123.286 123.748 122.272 122.453C120.61 120.346 126.248 120.05 127.168 124.768C126.36 125.484 125.508 126.148 124.616 126.757Z" fill="#FFFC0D"/>
    <path d="M124.616 127.083C124.572 127.065 124.533 127.037 124.502 127.001C124.471 126.965 124.449 126.922 124.438 126.875C123.913 125.364 123.141 123.95 122.153 122.691C121.983 122.525 121.866 122.312 121.819 122.079C121.771 121.846 121.794 121.605 121.886 121.385C122.039 121.154 122.253 120.971 122.505 120.855C122.757 120.74 123.036 120.697 123.31 120.732C124.375 120.805 125.382 121.244 126.161 121.974C126.94 122.704 127.443 123.681 127.584 124.739C127.607 124.785 127.619 124.835 127.619 124.887C127.619 124.939 127.607 124.989 127.584 125.035C126.77 125.766 125.907 126.44 125.002 127.053L124.616 127.083ZM123.192 121.326C122.746 121.326 122.42 121.326 122.331 121.623C122.242 121.919 122.331 122.097 122.539 122.246C123.486 123.461 124.247 124.812 124.794 126.252C125.15 125.985 125.803 125.51 126.842 124.65C126.696 123.761 126.252 122.948 125.583 122.344C124.915 121.74 124.061 121.381 123.162 121.326H123.192Z" fill="#0A0A0A"/>
    <path d="M132.748 109.01C133.079 108.802 133.448 108.663 133.833 108.598C134.218 108.534 134.612 108.546 134.993 108.634C135.373 108.722 135.733 108.885 136.05 109.112C136.368 109.34 136.637 109.628 136.843 109.959C137.252 110.625 137.382 111.426 137.204 112.187C137.027 112.949 136.556 113.609 135.894 114.025C135.563 114.232 135.194 114.372 134.809 114.437C134.423 114.501 134.029 114.489 133.649 114.4C133.268 114.312 132.909 114.15 132.591 113.922C132.274 113.695 132.004 113.407 131.798 113.075C131.389 112.409 131.259 111.609 131.437 110.847C131.615 110.086 132.086 109.426 132.748 109.01Z" fill="#3C1C24"/>
    <path d="M134.351 114.797C133.667 114.771 133.01 114.532 132.47 114.112C131.93 113.692 131.536 113.114 131.342 112.458C131.149 111.803 131.166 111.103 131.392 110.457C131.617 109.812 132.04 109.254 132.6 108.861C133.116 108.539 133.712 108.364 134.321 108.357C134.879 108.354 135.428 108.495 135.917 108.765C136.405 109.035 136.816 109.426 137.111 109.9C137.341 110.262 137.497 110.666 137.568 111.089C137.639 111.513 137.625 111.946 137.526 112.363C137.429 112.779 137.25 113.171 137.001 113.518C136.751 113.864 136.435 114.158 136.072 114.381C135.547 114.674 134.951 114.818 134.351 114.797ZM134.351 108.861C133.859 108.861 133.377 108.994 132.956 109.247C132.36 109.613 131.933 110.2 131.769 110.879C131.689 111.216 131.676 111.565 131.732 111.906C131.788 112.248 131.912 112.574 132.095 112.868C132.333 113.251 132.666 113.567 133.06 113.785C133.455 114.003 133.899 114.116 134.351 114.114C134.842 114.115 135.324 113.982 135.745 113.728C136.339 113.361 136.765 112.775 136.932 112.096C137.012 111.76 137.025 111.411 136.969 111.069C136.913 110.728 136.789 110.401 136.606 110.108C136.362 109.726 136.023 109.413 135.623 109.2C135.223 108.987 134.774 108.881 134.321 108.891L134.351 108.861Z" fill="#0A0A0A"/>
    <path d="M139.9 122.364C140.231 122.157 140.6 122.017 140.985 121.953C141.37 121.888 141.764 121.901 142.145 121.989C142.525 122.077 142.884 122.24 143.202 122.467C143.52 122.694 143.789 122.982 143.995 123.314C144.404 123.98 144.534 124.781 144.356 125.542C144.178 126.303 143.707 126.964 143.046 127.38C142.714 127.587 142.346 127.727 141.961 127.791C141.575 127.856 141.181 127.843 140.801 127.755C140.42 127.667 140.061 127.505 139.743 127.277C139.426 127.05 139.156 126.762 138.95 126.43C138.541 125.764 138.411 124.963 138.589 124.202C138.767 123.441 139.238 122.78 139.9 122.364Z" fill="#3C1C24"/>
    <path d="M141.473 128.152C140.789 128.126 140.132 127.886 139.592 127.467C139.052 127.047 138.658 126.469 138.464 125.813C138.271 125.157 138.288 124.457 138.514 123.812C138.739 123.167 139.162 122.608 139.722 122.216C140.462 121.752 141.356 121.6 142.207 121.795C143.059 121.99 143.798 122.515 144.262 123.255C144.57 123.75 144.739 124.319 144.752 124.902C144.765 125.485 144.622 126.061 144.337 126.57C144.053 127.079 143.637 127.502 143.133 127.796C142.629 128.09 142.056 128.243 141.473 128.241V128.152ZM141.473 122.216C140.875 122.22 140.296 122.423 139.828 122.794C139.36 123.166 139.03 123.683 138.891 124.264C138.811 124.6 138.798 124.949 138.854 125.291C138.91 125.632 139.034 125.959 139.217 126.252C139.46 126.642 139.8 126.962 140.204 127.181C140.608 127.399 141.062 127.509 141.522 127.498C141.981 127.487 142.43 127.357 142.823 127.12C143.217 126.883 143.542 126.547 143.766 126.146C143.99 125.745 144.105 125.292 144.101 124.833C144.097 124.373 143.973 123.923 143.741 123.526C143.51 123.129 143.179 122.8 142.781 122.57C142.383 122.34 141.932 122.218 141.473 122.216Z" fill="#0A0A0A"/>
    <path d="M142.343 126.277C143.108 125.799 143.34 124.792 142.862 124.027C142.384 123.263 141.377 123.031 140.612 123.509C139.848 123.987 139.616 124.994 140.094 125.758C140.572 126.523 141.579 126.755 142.343 126.277Z" fill="#FFFC0D"/>
    <path d="M141.473 126.816C141.14 126.81 140.814 126.717 140.527 126.547C140.24 126.377 140.002 126.136 139.836 125.847C139.671 125.558 139.583 125.23 139.581 124.897C139.579 124.564 139.664 124.236 139.827 123.945C139.99 123.654 140.225 123.41 140.51 123.237C140.795 123.065 141.12 122.969 141.454 122.959C141.787 122.949 142.117 123.026 142.412 123.182C142.706 123.338 142.956 123.567 143.135 123.848C143.271 124.062 143.362 124.301 143.403 124.551C143.444 124.801 143.433 125.057 143.373 125.302C143.319 125.553 143.214 125.79 143.067 125.999C142.919 126.208 142.73 126.385 142.512 126.519C142.2 126.712 141.84 126.815 141.473 126.816ZM141.473 123.551C141.231 123.556 140.994 123.628 140.791 123.759C140.644 123.85 140.516 123.969 140.416 124.11C140.315 124.25 140.243 124.409 140.205 124.578C140.166 124.746 140.161 124.92 140.191 125.091C140.22 125.261 140.283 125.424 140.375 125.57C140.569 125.854 140.863 126.056 141.199 126.133C141.534 126.21 141.887 126.157 142.185 125.985C142.335 125.893 142.465 125.773 142.567 125.63C142.669 125.487 142.741 125.325 142.779 125.154C142.816 124.987 142.82 124.815 142.789 124.646C142.759 124.478 142.695 124.318 142.601 124.175C142.483 123.982 142.317 123.824 142.119 123.714C141.922 123.605 141.699 123.549 141.473 123.551Z" fill="#0A0A0A"/>
    <path d="M135.214 112.885C135.978 112.407 136.21 111.4 135.732 110.635C135.255 109.871 134.248 109.639 133.483 110.116C132.719 110.594 132.486 111.601 132.964 112.366C133.442 113.13 134.449 113.362 135.214 112.885Z" fill="#FFFC0D"/>
    <path d="M134.35 113.461C134.018 113.461 133.691 113.377 133.4 113.216C133.109 113.055 132.864 112.823 132.688 112.541C132.552 112.325 132.461 112.085 132.418 111.833C132.376 111.582 132.384 111.324 132.442 111.076C132.5 110.827 132.607 110.593 132.756 110.386C132.905 110.179 133.094 110.004 133.311 109.87C133.754 109.602 134.284 109.517 134.788 109.634C135.292 109.75 135.731 110.059 136.012 110.493C136.148 110.709 136.239 110.95 136.282 111.202C136.324 111.453 136.316 111.711 136.258 111.959C136.2 112.207 136.093 112.442 135.944 112.649C135.795 112.856 135.606 113.031 135.389 113.164C135.077 113.357 134.717 113.46 134.35 113.461ZM134.35 110.197C134.098 110.197 133.851 110.269 133.638 110.404C133.491 110.495 133.363 110.614 133.263 110.755C133.162 110.895 133.091 111.054 133.052 111.223C133.013 111.391 133.009 111.566 133.038 111.736C133.067 111.906 133.13 112.069 133.222 112.215C133.417 112.507 133.716 112.714 134.059 112.791C134.402 112.869 134.761 112.811 135.062 112.63C135.209 112.539 135.337 112.42 135.437 112.28C135.538 112.139 135.609 111.98 135.648 111.812C135.687 111.643 135.692 111.469 135.662 111.299C135.633 111.129 135.57 110.966 135.478 110.82C135.354 110.635 135.186 110.484 134.989 110.38C134.792 110.276 134.573 110.224 134.35 110.226V110.197Z" fill="#0A0A0A"/>
    <path d="M16.2048 94.3194C14.2099 94.3109 12.2424 93.8545 10.4474 92.984C10.3734 92.9489 10.3069 92.8996 10.252 92.8388C10.197 92.7781 10.1545 92.7071 10.1269 92.63C10.0994 92.5528 10.0873 92.471 10.0913 92.3891C10.0954 92.3073 10.1156 92.2271 10.1506 92.153C10.1857 92.079 10.235 92.0125 10.2958 91.9576C10.3565 91.9026 10.4275 91.8601 10.5047 91.8325C10.5818 91.805 10.6637 91.7929 10.7455 91.7969C10.8273 91.801 10.9076 91.8212 10.9816 91.8562C24.6925 98.3555 36.5634 75.9789 36.6821 75.7415C36.7196 75.6661 36.772 75.5991 36.8362 75.5445C36.9003 75.4899 36.9748 75.4489 37.0553 75.424C37.1357 75.399 37.2204 75.3906 37.3042 75.3993C37.3879 75.4079 37.4691 75.4335 37.5427 75.4744C37.6872 75.5504 37.7961 75.68 37.846 75.8353C37.896 75.9907 37.883 76.1595 37.8098 76.3054C37.3646 77.1363 28.2537 94.3194 16.2048 94.3194Z" fill="#0A0A0A"/>
    <path d="M11.8424 91.886C11.8424 91.886 13.4153 81.2912 8.25148 81.2912C3.08764 81.2912 0.179273 88.4137 2.93925 92.984C3.38628 93.8542 4.08963 94.5662 4.95428 95.0238C5.81894 95.4814 6.80321 95.6625 7.77413 95.5428C8.74505 95.423 9.65581 95.0082 10.3834 94.3542C11.1109 93.7002 11.6202 92.8387 11.8424 91.886Z" fill="#F9D8B7"/>
    <path d="M7.30249 95.5362C6.43578 95.5151 5.58689 95.2856 4.82757 94.8672C4.06825 94.4488 3.4208 93.8538 2.93994 93.1324C2.17965 91.8095 1.77954 90.3104 1.77954 88.7847C1.77954 87.2589 2.17965 85.7598 2.93994 84.4369C3.43918 83.4239 4.20677 82.5673 5.15913 81.9603C6.11148 81.3533 7.21211 81.0192 8.34119 80.9944C8.82616 80.9836 9.30736 81.082 9.74915 81.2824C10.1909 81.4827 10.582 81.7799 10.8934 82.1518C13.2676 84.8821 12.3179 91.6485 12.2586 91.9453C11.9584 93.015 11.3055 93.9519 10.4058 94.6037C9.50611 95.2556 8.41248 95.5842 7.30249 95.5362ZM8.10377 81.6176C7.08533 81.6432 6.09332 81.9471 5.23534 82.4964C4.37736 83.0457 3.68616 83.8195 3.23671 84.7337C2.53112 85.9618 2.15981 87.3534 2.15981 88.7698C2.15981 90.1862 2.53112 91.5778 3.23671 92.8059C3.66417 93.4989 4.26264 94.0704 4.97465 94.4653C5.68666 94.8603 6.48827 95.0656 7.30249 95.0614C8.25055 95.0487 9.16747 94.721 9.90889 94.13C10.6503 93.539 11.1742 92.7183 11.3979 91.7969C11.3979 91.7969 12.3476 85.0898 10.1515 82.5673C9.90437 82.2643 9.59164 82.0213 9.23691 81.8568C8.88218 81.6923 8.49472 81.6105 8.10377 81.6176Z" fill="#0A0A0A"/>
    <path d="M6.82693 90.8175H6.32242C5.93661 90.8175 4.63081 90.1646 5.13533 87.7014C5.19195 87.0807 5.38001 86.4792 5.68702 85.9369C5.99403 85.3945 6.41296 84.9236 6.91596 84.5556C7.15566 84.4157 7.42097 84.3252 7.69622 84.2895C7.97147 84.2539 8.25108 84.2737 8.51853 84.3479C8.577 84.3887 8.62051 84.4474 8.64243 84.5153C8.66435 84.5831 8.66347 84.6562 8.63992 84.7235C8.61638 84.7908 8.57146 84.8485 8.51203 84.8879C8.4526 84.9272 8.38192 84.946 8.31079 84.9414C8.12713 84.8916 7.93534 84.879 7.74674 84.9045C7.55815 84.93 7.37657 84.993 7.21273 85.0898C6.79224 85.4196 6.44368 85.832 6.1885 86.3015C5.93331 86.7711 5.77689 87.2879 5.72887 87.8201C5.46178 89.1556 5.72887 90.0162 6.4708 90.224C6.98057 90.2874 7.49669 90.1748 7.93381 89.905C8.37093 89.6352 8.70285 89.2242 8.87466 88.7401C8.90755 88.6626 8.96916 88.6007 9.04659 88.5675C9.12402 88.5344 9.21129 88.5324 9.29014 88.5621C9.36098 88.5945 9.41787 88.6513 9.45053 88.722C9.48319 88.7928 9.48946 88.8729 9.4682 88.9479C9.26337 89.4973 8.90037 89.9737 8.425 90.3171C7.94964 90.6604 7.38323 90.8552 6.79725 90.8769L6.82693 90.8175Z" fill="#0A0A0A"/>
    <path d="M43.5087 76.0086C47.159 76.0086 47.7822 68.7376 47.8119 64.1377C41.8764 65.5918 39.6803 66.0667 38.9087 66.2151C38.968 69.895 39.6803 76.1569 43.5087 76.0086Z" fill="#F9D8B7"/>
    <path d="M43.3598 76.3351C39.383 76.3351 38.6411 69.9842 38.552 66.2152C38.5508 66.138 38.5769 66.0628 38.6258 66.003C38.6747 65.9433 38.7432 65.9028 38.8191 65.8887C39.7095 65.7404 42.0243 65.2655 47.7223 63.841C47.7637 63.8201 47.8095 63.8093 47.8559 63.8093C47.9022 63.8093 47.948 63.8201 47.9894 63.841C48.0057 63.8785 48.0142 63.9189 48.0142 63.9597C48.0142 64.0006 48.0057 64.041 47.9894 64.0784C47.9894 69.5687 47.1584 76.1274 43.3894 76.2758L43.3598 76.3351ZM39.1753 66.4823C39.1753 70.0436 39.9766 75.7416 43.3598 75.7416C46.6836 75.7416 47.3068 68.8565 47.3662 64.5533C42.5288 65.77 40.214 66.2745 39.2049 66.4526L39.1753 66.4823Z" fill="#0A0A0A"/>
    <path d="M95.087 87.2265C92.3567 80.9943 65.8549 88.8884 51.6395 63.1583L47.7815 64.1376C47.7815 68.7673 47.1583 76.0085 43.4783 76.0085C39.7983 76.0085 38.9377 69.895 38.8487 66.1853H38.4629C38.4629 66.1853 28.432 94.2006 46.1789 118.862L42.4693 124.145C42.4693 124.145 51.6692 132.247 70.0394 127.113C88.4096 121.979 99.8947 103.193 95.087 87.2265Z" fill="#BEDC40"/>
    <path d="M58.5844 129.19C52.7535 129.504 46.9915 127.807 42.2619 124.383C42.2137 124.324 42.1873 124.251 42.1873 124.175C42.1873 124.099 42.2137 124.026 42.2619 123.967L45.8825 118.952C28.4026 94.4679 38.1368 66.4526 38.2555 66.1558C38.2801 66.0988 38.322 66.051 38.3752 66.0191C38.4285 65.9871 38.4904 65.9727 38.5522 65.9778H38.9084C38.9847 65.948 39.0695 65.948 39.1458 65.9778C39.1729 66.0546 39.1729 66.1384 39.1458 66.2152C39.1458 69.7765 39.8877 75.7119 43.3303 75.7119C46.7728 75.7119 47.307 68.4113 47.3367 64.1378C47.3353 64.0684 47.3583 64.0006 47.4017 63.9464C47.4451 63.8922 47.5061 63.8549 47.5741 63.841L51.4025 62.8617C51.4699 62.8453 51.5408 62.8509 51.6048 62.8776C51.6688 62.9043 51.7227 62.9507 51.7586 63.0101C61.1663 80.0745 75.9455 82.2112 85.739 83.6357C90.6951 84.348 94.2564 84.8822 95.2357 87.1079C96.3227 90.9578 96.6202 94.9878 96.1102 98.9555C95.6002 102.923 94.2933 106.747 92.268 110.197C89.9004 114.415 86.7191 118.122 82.9086 121.102C79.0981 124.082 74.7341 126.277 70.0694 127.558C66.3292 128.603 62.4677 129.152 58.5844 129.19ZM42.8851 124.086C47.5066 127.215 53.0074 128.785 58.5844 128.567C62.427 128.534 66.2486 127.995 69.9507 126.964C74.5345 125.704 78.8226 123.547 82.5668 120.618C86.3111 117.689 89.437 114.046 91.7635 109.9C93.7588 106.532 95.0505 102.794 95.5606 98.9118C96.0707 95.0301 95.7885 91.0853 94.7312 87.3157C93.9003 85.446 90.4874 84.9415 85.8281 84.348C75.9752 82.9235 61.0773 80.757 51.5212 63.5739L48.138 64.4346C48.138 69.8655 47.2477 76.3054 43.538 76.3054C39.8284 76.3054 38.9084 70.7855 38.76 66.9571C37.2761 71.3197 30.4504 96.5156 46.4761 118.803C46.5146 118.855 46.5354 118.917 46.5354 118.981C46.5354 119.045 46.5146 119.108 46.4761 119.159L42.8851 124.086Z" fill="#0A0A0A"/>
    <path d="M49.7698 123.403C49.7323 123.42 49.6919 123.428 49.6511 123.428C49.6102 123.428 49.5698 123.42 49.5323 123.403L45.9711 119.248C45.9395 119.221 45.9142 119.186 45.8969 119.148C45.8796 119.11 45.8706 119.068 45.8706 119.026C45.8706 118.984 45.8796 118.942 45.8969 118.904C45.9142 118.865 45.9395 118.831 45.9711 118.803C46.0315 118.747 46.1111 118.716 46.1937 118.716C46.2763 118.716 46.3558 118.747 46.4162 118.803L49.9775 122.958C50.0091 122.986 50.0344 123.02 50.0517 123.059C50.069 123.097 50.078 123.139 50.078 123.181C50.078 123.223 50.069 123.264 50.0517 123.303C50.0344 123.341 50.0091 123.375 49.9775 123.403H49.7698Z" fill="#0A0A0A"/>
    <path d="M39.235 87.1968C40.2184 87.1968 41.0156 85.7618 41.0156 83.9917C41.0156 82.2215 40.2184 80.7866 39.235 80.7866C38.2516 80.7866 37.4543 82.2215 37.4543 83.9917C37.4543 85.7618 38.2516 87.1968 39.235 87.1968Z" fill="#FFFC0D"/>
    <path d="M49.236 96.5452C50.2194 96.5452 51.0166 95.1102 51.0166 93.3401C51.0166 91.5699 50.2194 90.1349 49.236 90.1349C48.2525 90.1349 47.4553 91.5699 47.4553 93.3401C47.4553 95.1102 48.2525 96.5452 49.236 96.5452Z" fill="#FFFC0D"/>
    <path d="M54.0441 79.9556C55.0275 79.9556 55.8247 78.5206 55.8247 76.7504C55.8247 74.9803 55.0275 73.5453 54.0441 73.5453C53.0606 73.5453 52.2634 74.9803 52.2634 76.7504C52.2634 78.5206 53.0606 79.9556 54.0441 79.9556Z" fill="#FFFC0D"/>
    <path d="M62.7096 108.06C63.693 108.06 64.4902 106.625 64.4902 104.855C64.4902 103.085 63.693 101.65 62.7096 101.65C61.7262 101.65 60.929 103.085 60.929 104.855C60.929 106.625 61.7262 108.06 62.7096 108.06Z" fill="#FFFC0D"/>
    <path d="M45.7936 110.345C46.777 110.345 47.5742 108.91 47.5742 107.14C47.5742 105.37 46.777 103.935 45.7936 103.935C44.8102 103.935 44.0129 105.37 44.0129 107.14C44.0129 108.91 44.8102 110.345 45.7936 110.345Z" fill="#FFFC0D"/>
    <path d="M90.7247 104.321C91.7081 104.321 92.5054 102.886 92.5054 101.115C92.5054 99.3453 91.7081 97.9103 90.7247 97.9103C89.7413 97.9103 88.9441 99.3453 88.9441 101.115C88.9441 102.886 89.7413 104.321 90.7247 104.321Z" fill="#FFFC0D"/>
    <path d="M65.8553 89.3931C66.8388 89.3931 67.636 87.9581 67.636 86.188C67.636 84.4178 66.8388 82.9828 65.8553 82.9828C64.8719 82.9828 64.0747 84.4178 64.0747 86.188C64.0747 87.9581 64.8719 89.3931 65.8553 89.3931Z" fill="#FFFC0D"/>
    <path d="M76.3019 104.736C77.2853 104.736 78.0825 103.301 78.0825 101.531C78.0825 99.7609 77.2853 98.3259 76.3019 98.3259C75.3185 98.3259 74.5212 99.7609 74.5212 101.531C74.5212 103.301 75.3185 104.736 76.3019 104.736Z" fill="#FFFC0D"/>
    <path d="M73.3639 121.533C74.3473 121.533 75.1445 120.098 75.1445 118.328C75.1445 116.558 74.3473 115.123 73.3639 115.123C72.3805 115.123 71.5833 116.558 71.5833 118.328C71.5833 120.098 72.3805 121.533 73.3639 121.533Z" fill="#FFFC0D"/>
    <path d="M58.555 124.442C59.5385 124.442 60.3357 123.007 60.3357 121.237C60.3357 119.467 59.5385 118.032 58.555 118.032C57.5716 118.032 56.7744 119.467 56.7744 121.237C56.7744 123.007 57.5716 124.442 58.555 124.442Z" fill="#FFFC0D"/>
    <path d="M80.0709 92.3014C81.0543 92.3014 81.8516 90.8664 81.8516 89.0963C81.8516 87.3261 81.0543 85.8911 80.0709 85.8911C79.0875 85.8911 78.2903 87.3261 78.2903 89.0963C78.2903 90.8664 79.0875 92.3014 80.0709 92.3014Z" fill="#FFFC0D"/>
    <g style="mix-blend-mode:multiply" opacity="0.45">
        <path d="M95.0874 87.2265C92.3571 80.9943 65.8554 88.8884 51.64 63.1583L50.0968 63.5441C52.2872 69.5811 56.1104 74.8916 61.1405 78.8843C66.1706 82.8769 72.2103 85.395 78.5869 86.1581C101.973 89.5116 86.0359 137.322 45.4968 126.044C49.5626 128.062 57.7535 130.585 70.0399 127.261C88.4101 122.275 99.8952 103.193 95.0874 87.2265Z" fill="#BEDC40"/>
    </g>
    <path d="M51.4324 66.2745C51.293 66.2685 51.1597 66.216 51.0538 66.1252C50.9478 66.0345 50.8754 65.9109 50.848 65.7741C50.8207 65.6373 50.84 65.4954 50.9029 65.3709C50.9658 65.2464 51.0686 65.1466 51.1949 65.0874C51.4027 65.0874 72.9483 56.1843 92.1792 63.6333C92.2633 63.6562 92.3416 63.6965 92.4092 63.7515C92.4767 63.8066 92.532 63.8752 92.5713 63.953C92.6107 64.0307 92.6333 64.1159 92.6378 64.2029C92.6422 64.2899 92.6283 64.3769 92.597 64.4583C92.5658 64.5396 92.5178 64.6135 92.4561 64.6751C92.3945 64.7368 92.3207 64.7848 92.2394 64.8161C92.158 64.8475 92.071 64.8614 91.984 64.857C91.8969 64.8526 91.8118 64.83 91.734 64.7907C72.978 57.4901 51.9072 66.1558 51.6995 66.2449H51.462L51.4324 66.2745Z" fill="#0A0A0A"/>
    <path d="M94.4341 67.61C94.4341 67.61 97.4018 74.2874 99.3011 72.5958C101.2 70.9042 96.9566 66.6604 96.9566 66.6604C96.9566 66.6604 101.972 69.45 102.12 67.2836C102.269 65.1171 97.9063 64.672 97.9063 64.672C97.9063 64.672 102.922 62.8023 100.874 61.4075C98.8263 60.0127 96.3334 63.9004 96.3334 63.9004C96.3334 63.9004 98.6779 59.063 96.185 59.063C93.6921 59.063 92.0896 63.6333 92.0896 63.6333C91.0212 65.1468 92.9205 67.3133 91.6444 69.5687C90.3683 71.8242 94.4341 71.8242 94.4341 67.61Z" fill="#F9D8B7"/>
    <path d="M98.5889 73.1893C97.0753 73.1893 95.4431 70.3699 94.6121 68.7674C94.5074 69.3602 94.2633 69.9197 93.8999 70.3996C93.714 70.6653 93.4709 70.886 93.1884 71.0452C92.9059 71.2044 92.5912 71.2982 92.2676 71.3196C92.0789 71.327 91.8915 71.2842 91.7247 71.1955C91.5579 71.1069 91.4175 70.9756 91.318 70.8151C91.2058 70.5827 91.1602 70.3237 91.1864 70.067C91.2126 69.8103 91.3095 69.5658 91.4663 69.3609C91.9409 68.3802 92.0257 67.256 91.7038 66.2151C91.5549 65.7691 91.4966 65.2979 91.5322 64.829C91.5679 64.3602 91.6969 63.9032 91.9115 63.4848C92.0896 62.9803 93.6921 58.7661 96.3037 58.7661C96.541 58.7477 96.779 58.7929 96.9929 58.8973C97.2068 59.0017 97.389 59.1613 97.5205 59.3597C97.8852 60.2641 97.8852 61.2746 97.5205 62.179C98.1787 61.4153 99.1007 60.9278 100.102 60.8139C100.506 60.8135 100.9 60.9379 101.23 61.17C101.434 61.275 101.602 61.4383 101.713 61.6391C101.824 61.8399 101.873 62.0692 101.853 62.2977C101.853 63.2474 100.251 64.0784 99.1824 64.5829C100.518 64.8796 102.595 65.6513 102.477 67.3725C102.477 67.788 102.239 68.5003 101.111 68.5003C100.082 68.435 99.0746 68.1731 98.1437 67.7287C99.1478 68.7808 99.8009 70.1183 100.013 71.557C100.012 71.8042 99.9588 72.0484 99.8565 72.2735C99.7542 72.4986 99.6053 72.6994 99.4198 72.8628C99.1912 73.0681 98.8961 73.1841 98.5889 73.1893ZM94.4044 67.2538C94.4613 67.2548 94.5167 67.2721 94.5641 67.3036C94.6114 67.3352 94.6487 67.3797 94.6715 67.4319C95.5618 69.3906 97.3721 72.5067 98.5592 72.5067C98.7386 72.5026 98.9092 72.4279 99.034 72.299C99.1552 72.1906 99.2521 72.058 99.3186 71.9097C99.385 71.7614 99.4195 71.6008 99.4198 71.4383C99.4198 69.628 96.7192 66.868 96.6895 66.8383C96.6226 66.7872 96.5788 66.7115 96.5677 66.6281C96.5565 66.5446 96.579 66.4601 96.6302 66.3932C96.6813 66.3263 96.757 66.2824 96.8405 66.2713C96.9239 66.2602 97.0084 66.2827 97.0753 66.3338C98.3051 67.0426 99.652 67.5251 101.052 67.7583C101.675 67.7583 101.764 67.4912 101.794 67.2242C101.794 65.3842 98.025 64.9093 97.9953 64.9093C97.9286 64.898 97.8671 64.8662 97.8192 64.8183C97.7714 64.7705 97.7396 64.7089 97.7282 64.6422C97.7235 64.5728 97.7412 64.5036 97.7785 64.4449C97.8159 64.3862 97.8711 64.3409 97.936 64.3158C99.2418 63.8409 101.111 62.8319 101.2 62.1197C101.2 62.1197 101.2 61.8526 100.844 61.5855C100.619 61.4268 100.349 61.3437 100.073 61.3481C98.7373 61.3481 97.105 63.2771 96.7489 63.9893C96.6904 64.0376 96.617 64.064 96.5412 64.064C96.4653 64.064 96.3919 64.0376 96.3334 63.9893C96.279 63.9339 96.2486 63.8593 96.2486 63.7816C96.2486 63.7039 96.279 63.6293 96.3334 63.5739C96.8973 62.4164 97.6095 60.2797 97.1347 59.5081C97.0594 59.4005 96.9557 59.3158 96.8353 59.2634C96.7148 59.2111 96.5822 59.193 96.4521 59.2113C94.1966 59.2113 92.6534 63.5145 92.6534 63.5442C92.5024 63.9062 92.4247 64.2945 92.4247 64.6867C92.4247 65.079 92.5024 65.4673 92.6534 65.8293C93.0019 67.002 92.8959 68.2628 92.3567 69.3609C92.1489 69.717 92.0896 70.0138 92.2083 70.2215C92.2573 70.2834 92.3209 70.3321 92.3935 70.3632C92.466 70.3943 92.5452 70.4068 92.6238 70.3996C92.8505 70.3762 93.0692 70.3028 93.2642 70.1848C93.4592 70.0668 93.6256 69.907 93.7515 69.717C94.2415 69.0147 94.4818 68.1683 94.4341 67.3132C94.4327 67.2438 94.4557 67.176 94.499 67.1218C94.5424 67.0676 94.6034 67.0303 94.6715 67.0164L94.4044 67.2538Z" fill="#0A0A0A"/>
    <path d="M81.8811 39.2979C83.1329 36.5532 83.8289 33.5878 83.9288 30.5728C84.0772 25.6167 88.143 35.1134 81.8811 39.2979Z" fill="#64313D"/>
    <path d="M81.8809 39.6243H81.6732C81.6322 39.5684 81.6101 39.5008 81.6101 39.4314C81.6101 39.3621 81.6322 39.2945 81.6732 39.2385C82.8988 36.5386 83.5843 33.625 83.6912 30.6618C83.6912 30.2463 83.6912 28.9406 84.4629 28.9406C85.2345 28.9406 85.2641 29.6231 85.4422 30.2167C85.9484 31.9367 85.9029 33.7721 85.312 35.4648C84.7212 37.1576 83.6147 38.6227 82.148 39.654L81.8809 39.6243ZM84.4035 29.5638C84.2892 29.9078 84.2389 30.27 84.2551 30.6322C84.1607 33.2638 83.6292 35.8614 82.6822 38.3186C83.5215 37.5003 84.1695 36.5067 84.58 35.4088C84.9904 34.3108 85.1531 33.1358 85.0564 31.9676C85.058 31.1223 84.8325 30.2921 84.4035 29.5638Z" fill="#0A0A0A"/>
    <path d="M82.8303 38.6746C82.8303 38.6746 88.9438 32.1753 90.3387 33.0953C91.7335 34.0153 83.0677 41.6423 82.8303 38.6746Z" fill="#64313D"/>
    <path d="M83.5134 39.7429C83.3901 39.751 83.2665 39.7341 83.1499 39.6933C83.0334 39.6526 82.9262 39.5887 82.8348 39.5056C82.7434 39.4226 82.6697 39.3219 82.618 39.2097C82.5663 39.0975 82.5378 38.9761 82.5341 38.8526C82.5177 38.8152 82.5093 38.7748 82.5093 38.7339C82.5093 38.6931 82.5177 38.6527 82.5341 38.6152C83.0979 38.0217 87.9947 32.8578 89.9534 32.8578C90.118 32.8092 90.2932 32.8092 90.4579 32.8578C90.5988 32.9592 90.6998 33.1067 90.7432 33.2748C90.7865 33.4429 90.7696 33.6209 90.6953 33.7778C89.099 36.5672 86.5484 38.6857 83.5134 39.7429ZM83.0682 38.912C83.0682 39.0604 83.0682 39.1197 83.4244 39.1197C86.1732 38.098 88.5093 36.1999 90.0721 33.7185C90.0721 33.7185 90.0721 33.5107 90.0721 33.5107H89.894C88.7663 33.4514 85.2644 36.6862 83.0682 38.912Z" fill="#0A0A0A"/>
    <path d="M84.0771 39.0012C85.8996 39.9602 88.0055 40.234 90.0126 39.7728C93.4848 39.1495 88.6178 44.6102 84.0771 39.0012Z" fill="#64313D"/>
    <path d="M88.5286 41.9392C87.5811 41.8942 86.6583 41.6229 85.8373 41.1478C85.0163 40.6728 84.3211 40.0079 83.8099 39.2089C83.7556 39.1534 83.7251 39.0788 83.7251 39.0011C83.7251 38.9234 83.7556 38.8489 83.8099 38.7934C83.8684 38.7451 83.9419 38.7188 84.0177 38.7188C84.0935 38.7187 84.1669 38.7451 84.2254 38.7934C85.3935 39.4132 86.7022 39.7199 88.0241 39.6837C88.6208 39.6852 89.2165 39.6355 89.8047 39.5353C91.0512 39.3276 91.437 39.8024 91.437 40.2476C91.437 40.6927 90.1609 41.9392 88.5286 41.9392ZM85.2641 39.8618C86.1232 40.7505 87.2933 41.2717 88.5286 41.3159C89.9234 41.3159 90.8138 40.5147 90.8138 40.1882C90.8138 39.8618 90.5763 40.1882 90.3686 40.1882H89.9234C89.3056 40.2909 88.6801 40.3405 88.0538 40.3366C87.1038 40.3098 86.1633 40.1398 85.2641 39.8321V39.8618Z" fill="#0A0A0A"/>
    <path d="M81.8287 41.3782C82.8651 40.6873 83.3147 39.5412 82.8328 38.8184C82.351 38.0956 81.1201 38.0698 80.0837 38.7608C79.0472 39.4518 78.5977 40.5978 79.0795 41.3206C79.5614 42.0434 80.7922 42.0692 81.8287 41.3782Z" fill="#64313D"/>
    <path d="M80.2782 42.1765C79.9986 42.1895 79.72 42.1342 79.4666 42.0153C79.2132 41.8963 78.9927 41.7174 78.8241 41.4939C78.7116 41.3201 78.6352 41.1254 78.5995 40.9215C78.5638 40.7176 78.5695 40.5085 78.6163 40.3068C78.8063 39.5674 79.274 38.9297 79.9221 38.5262C80.374 38.1623 80.9436 37.9764 81.5231 38.0037C82.1027 38.0311 82.6523 38.2697 83.0679 38.6746C83.2957 39.2162 83.309 39.8243 83.1051 40.3754C82.9012 40.9265 82.4954 41.3794 81.9698 41.6423C81.4682 41.9775 80.8814 42.1627 80.2782 42.1765ZM81.6137 38.6746C81.1254 38.6893 80.6516 38.8438 80.2486 39.1197C79.7342 39.432 79.3616 39.9323 79.2099 40.5146C79.1175 40.743 79.1175 40.9984 79.2099 41.2268C79.566 41.761 80.664 41.761 81.5247 41.2268C82.3853 40.6926 82.8305 39.6836 82.4447 39.1197C82.3494 38.9869 82.225 38.8777 82.0809 38.8006C81.9369 38.7234 81.777 38.6803 81.6137 38.6746Z" fill="#0A0A0A"/>
    <path d="M78.3795 43.5598C79.5798 42.7602 80.1625 41.5259 79.6809 40.8029C79.1993 40.0799 77.8358 40.1421 76.6354 40.9418C75.435 41.7414 74.8523 42.9757 75.3339 43.6987C75.8155 44.4216 77.1791 44.3595 78.3795 43.5598Z" fill="#64313D"/>
    <path d="M76.4503 44.6102C76.1843 44.6306 75.9174 44.5843 75.6738 44.4754C75.4302 44.3666 75.2177 44.1987 75.0554 43.9869C74.9536 43.8252 74.8854 43.6446 74.8548 43.456C74.8242 43.2674 74.8319 43.0745 74.8774 42.8889C75.1149 42.0199 75.6783 41.2758 76.4503 40.8115C77.7561 39.9508 79.418 39.9212 79.9225 40.8115C80.427 41.7018 79.9225 43.0669 78.5573 43.9869C77.9275 44.3884 77.1972 44.6044 76.4503 44.6102ZM78.5277 40.7224C77.9092 40.753 77.3123 40.9589 76.8064 41.316C76.1819 41.6909 75.7172 42.2825 75.5006 42.9779C75.459 43.0765 75.4375 43.1825 75.4375 43.2895C75.4375 43.3966 75.459 43.5025 75.5006 43.6011C75.6064 43.7234 75.7393 43.8192 75.8888 43.8811C76.0382 43.9429 76.2 43.969 76.3612 43.9573C76.98 43.9283 77.5774 43.7223 78.0825 43.3637C79.1212 42.6811 79.6554 41.6128 79.2993 41.0489C79.2102 40.9261 79.0945 40.8249 78.9609 40.753C78.8273 40.6811 78.6792 40.6402 78.5277 40.6334V40.7224Z" fill="#0A0A0A"/>
    <path d="M73.6738 45.8463C75.056 45.434 75.9448 44.323 75.659 43.365C75.3732 42.4069 74.021 41.9644 72.6388 42.3767C71.2567 42.789 70.3679 43.8999 70.6537 44.858C70.9395 45.8161 72.2917 46.2586 73.6738 45.8463Z" fill="#64313D"/>
    <path d="M72.6514 46.3314C72.1701 46.3823 71.6853 46.277 71.2684 46.0312C70.8516 45.7854 70.5249 45.412 70.3365 44.9662C70.2582 44.6673 70.2551 44.3537 70.3276 44.0533C70.4001 43.7529 70.5459 43.4752 70.752 43.245C71.2128 42.6856 71.8344 42.2815 72.5327 42.0875C72.8976 41.9722 73.2777 41.9121 73.6604 41.9095C74.1416 41.8586 74.6265 41.9638 75.0433 42.2097C75.4602 42.4555 75.7869 42.8289 75.9752 43.2746C76.3017 44.4024 75.3223 45.6785 73.7791 46.2424C73.4093 46.3252 73.0296 46.3552 72.6514 46.3314ZM73.6604 42.5327C73.3552 42.4897 73.0456 42.4897 72.7404 42.5327C72.1754 42.689 71.6694 43.0091 71.2862 43.4527C71.1461 43.6068 71.0457 43.7928 70.994 43.9945C70.9423 44.1963 70.9407 44.4076 70.9894 44.6101C71.1374 44.923 71.3811 45.1808 71.6851 45.3461C71.9892 45.5115 72.338 45.5759 72.681 45.5301C72.9863 45.572 73.2958 45.572 73.601 45.5301C74.8178 45.174 75.6191 44.2243 75.3817 43.423C75.2239 43.1132 74.973 42.8607 74.6642 42.701C74.3555 42.5413 74.0044 42.4824 73.6604 42.5327Z" fill="#0A0A0A"/>
    <path d="M68.3477 47.281C69.79 47.281 70.9593 46.311 70.9593 45.1145C70.9593 43.918 69.79 42.9481 68.3477 42.9481C66.9053 42.9481 65.7361 43.918 65.7361 45.1145C65.7361 46.311 66.9053 47.281 68.3477 47.281Z" fill="#64313D"/>
    <path d="M68.2294 47.5778C67.8706 47.6104 67.5089 47.5716 67.1652 47.4638C66.8214 47.3559 66.5024 47.181 66.2265 46.9493C65.9507 46.7176 65.7234 46.4335 65.5578 46.1136C65.3922 45.7936 65.2916 45.444 65.2617 45.0849C65.2617 44.2979 65.5744 43.543 66.1309 42.9864C66.6875 42.4299 67.4424 42.1172 68.2294 42.1172C69.0165 42.1172 69.7714 42.4299 70.3279 42.9864C70.8845 43.543 71.1972 44.2979 71.1972 45.0849C71.1673 45.444 71.0667 45.7936 70.9011 46.1136C70.7355 46.4335 70.5082 46.7176 70.2324 46.9493C69.9565 47.181 69.6375 47.3559 69.2937 47.4638C68.95 47.5716 68.5883 47.6104 68.2294 47.5778ZM68.2294 43.2153C67.6795 43.1653 67.132 43.3333 66.7046 43.6829C66.2773 44.0326 66.0042 44.536 65.9443 45.0849C66.0496 45.6175 66.3364 46.097 66.7559 46.4417C67.1753 46.7863 67.7014 46.9747 68.2443 46.9747C68.7872 46.9747 69.3132 46.7863 69.7327 46.4417C70.1521 46.097 70.439 45.6175 70.5443 45.0849C70.4772 44.5358 70.1969 44.035 69.7638 43.6907C69.3307 43.3464 68.7796 43.1863 68.2294 43.245V43.2153Z" fill="#0A0A0A"/>
    <path d="M24.0992 75.1777C22.7973 77.1708 21.1127 78.8857 19.1431 80.2228C15.8786 82.3002 23.9211 81.0241 24.0992 75.1777Z" fill="#64313D"/>
    <path d="M18.7577 81.4395C18.2532 81.4395 18.1345 81.2021 18.0751 81.0537C18.0158 80.9054 18.2532 80.3415 18.9655 79.8666C20.8462 78.5644 22.4584 76.9119 23.7138 74.9996C23.7668 74.9651 23.8287 74.9467 23.8919 74.9467C23.9551 74.9467 24.017 74.9651 24.0699 74.9996C24.1325 75.0192 24.1868 75.0589 24.2243 75.1126C24.2619 75.1663 24.2807 75.2309 24.2777 75.2964C24.1698 76.7877 23.5689 78.2008 22.5695 79.313C21.5701 80.4252 20.2291 81.1734 18.7577 81.4395ZM23.7138 76.3944C22.4986 77.9475 21.0464 79.2995 19.4106 80.4008C19.2188 80.5206 19.0398 80.6599 18.8764 80.8163C20.0125 80.598 21.0659 80.0693 21.9198 79.2888C22.7737 78.5082 23.3947 77.5064 23.7138 76.3944Z" fill="#0A0A0A"/>
    <path d="M24.1883 75.9789C24.1883 75.9789 22.378 82.7157 23.7135 83.1905C25.0489 83.6653 26.147 75.0589 24.1883 75.9789Z" fill="#64313D"/>
    <path d="M23.7135 83.5762C23.6308 83.5762 23.5516 83.5434 23.4931 83.4849C23.4347 83.4265 23.4019 83.3472 23.4019 83.2646C23.4019 83.1819 23.4347 83.1027 23.4931 83.0442C23.5516 82.9858 23.6308 82.953 23.7135 82.953C24.5717 81.404 24.9827 79.6471 24.9006 77.8782C24.9006 76.6614 24.6631 76.2162 24.4851 76.2162C24.4024 76.2162 24.3232 76.1834 24.2647 76.125C24.2063 76.0665 24.1735 75.9873 24.1735 75.9046C24.1735 75.822 24.2063 75.7427 24.2647 75.6843C24.3232 75.6258 24.4024 75.593 24.4851 75.593C25.1677 75.593 25.5238 76.3646 25.5238 77.8782C25.5092 79.0898 25.3498 80.2953 25.0489 81.4691C24.4554 83.5762 23.8619 83.5762 23.7135 83.5762Z" fill="#0A0A0A"/>
    <path d="M24.812 76.7505C26.184 77.5304 27.2354 78.7711 27.7797 80.2524C28.8184 82.864 30.5397 77.255 24.812 76.7505Z" fill="#64313D"/>
    <path d="M28.3728 81.2317C28.1354 81.2317 27.7496 81.0833 27.4528 80.3414C26.9451 78.9475 25.9697 77.7728 24.6928 77.0176C24.6297 76.9856 24.5801 76.9322 24.5529 76.8669C24.5257 76.8016 24.5227 76.7287 24.5444 76.6614C24.5589 76.588 24.6005 76.5227 24.6611 76.4787C24.7216 76.4346 24.7966 76.4151 24.8709 76.424C28.4321 76.7801 29.2334 79.0059 29.1741 80.104C29.1147 81.202 28.7883 81.2317 28.3728 81.2317ZM26.147 77.255C26.9638 78.0394 27.6016 78.991 28.0167 80.0446C28.0778 80.2392 28.1907 80.4136 28.3431 80.5491C28.4103 80.3999 28.445 80.238 28.445 80.0743C28.445 79.9106 28.4103 79.7488 28.3431 79.5995C28.2407 79.0391 27.9791 78.5201 27.5897 78.1044C27.2003 77.6887 26.6995 77.3938 26.147 77.255Z" fill="#0A0A0A"/>
    <path d="M25.4199 74.288C25.449 73.3214 24.9282 72.5214 24.2565 72.5011C23.5848 72.4809 23.0166 73.248 22.9874 74.2146C22.9582 75.1811 23.4791 75.9812 24.1508 76.0015C24.8225 76.0217 25.3907 75.2546 25.4199 74.288Z" fill="#64313D"/>
    <path d="M24.2179 76.3053C24.0494 76.2983 23.884 76.258 23.7311 76.1867C23.5783 76.1154 23.4412 76.0145 23.3276 75.8898C22.9269 75.4523 22.7046 74.8805 22.7043 74.2872C22.7043 73.1595 23.4463 72.2692 24.2772 72.2692C24.4552 72.2717 24.6309 72.3097 24.794 72.381C24.9571 72.4524 25.1043 72.5556 25.2269 72.6847C25.6303 73.1523 25.8329 73.7602 25.7908 74.3763C25.7314 75.415 25.0488 76.3053 24.2179 76.3053ZM24.2179 72.8034C23.7134 72.8034 23.2979 73.4563 23.2682 74.2279C23.2391 74.6676 23.3769 75.1021 23.654 75.4447C23.7133 75.5139 23.7859 75.5706 23.8674 75.6114C23.949 75.6522 24.0379 75.6762 24.1289 75.6821C24.6037 75.6821 25.0488 75.0292 25.0488 74.2576C25.0888 73.8076 24.9502 73.3599 24.663 73.0111C24.5413 72.8738 24.3712 72.7887 24.1882 72.7737L24.2179 72.8034Z" fill="#0A0A0A"/>
    <path d="M25.45 70.9632C25.4834 69.8491 24.966 68.9297 24.2943 68.9095C23.6226 68.8894 23.051 69.7762 23.0175 70.8902C22.9841 72.0042 23.5016 72.9237 24.1732 72.9438C24.8449 72.964 25.4166 72.0772 25.45 70.9632Z" fill="#64313D"/>
    <path d="M24.2179 73.3969C23.3573 73.3969 22.7044 72.3286 22.7638 71.0228C22.8231 69.717 23.5057 68.7376 24.3366 68.7376C24.5007 68.7452 24.6616 68.7859 24.8095 68.8573C24.9574 68.9287 25.0893 69.0293 25.1973 69.1531C25.6385 69.7188 25.8599 70.4251 25.8205 71.1415C25.7612 72.3879 25.0489 73.3969 24.2179 73.3969ZM24.2179 69.3608C23.7728 69.3608 23.2979 70.0434 23.2683 71.0524C23.2386 72.0615 23.6838 72.7737 24.1289 72.8034C24.5741 72.8034 25.0489 72.1208 25.0786 71.1118C25.1274 70.5599 24.9687 70.0096 24.6334 69.5686C24.5817 69.5078 24.5182 69.4581 24.4468 69.4224C24.3755 69.3867 24.2976 69.3657 24.2179 69.3608Z" fill="#0A0A0A"/>
    <path d="M24.4253 69.0203C25.1806 68.8079 25.5489 67.7683 25.2479 66.6983C24.947 65.6284 24.0908 64.9332 23.3355 65.1456C22.5803 65.358 22.212 66.3976 22.5129 67.4676C22.8138 68.5375 23.67 69.2327 24.4253 69.0203Z" fill="#64313D"/>
    <path d="M23.9803 69.7468C23.5013 69.6863 23.0538 69.4757 22.7019 69.1451C22.35 68.8146 22.1119 68.3811 22.0216 67.9068C21.8248 67.2456 21.8886 66.5341 22.1997 65.9184C22.2925 65.7458 22.4191 65.5938 22.5721 65.4714C22.7251 65.349 22.9013 65.2588 23.09 65.2062C24.01 64.9687 25.0487 65.77 25.3752 67.0165C25.5852 67.517 25.591 68.0798 25.3913 68.5845C25.1916 69.0892 24.8024 69.4957 24.3068 69.7171L23.9803 69.7468ZM23.4461 65.77H23.2384C23.1306 65.8016 23.0303 65.8547 22.9436 65.9261C22.8569 65.9975 22.7855 66.0857 22.7339 66.1855C22.5406 66.6715 22.5406 67.213 22.7339 67.699C22.9713 68.5894 23.6836 69.2126 24.2771 69.0642C24.8706 68.9158 25.1377 67.9958 24.9003 67.1055C24.6629 66.2152 23.9803 65.77 23.4461 65.77Z" fill="#0A0A0A"/>
    <path d="M23.2909 65.9569C24.099 65.453 24.2752 64.2766 23.6845 63.3293C23.0938 62.3819 21.9598 62.0224 21.1518 62.5262C20.3438 63.03 20.1676 64.2065 20.7583 65.1538C21.349 66.1012 22.4829 66.4607 23.2909 65.9569Z" fill="#64313D"/>
    <path d="M22.645 66.1261C22.2411 66.109 21.8477 65.9915 21.5006 65.7843C21.1534 65.577 20.8634 65.2865 20.6566 64.9391C20.3437 64.4767 20.2187 63.9125 20.3069 63.3612C20.3951 62.81 20.6899 62.313 21.1315 61.9713C21.4258 61.7907 21.7656 61.698 22.1108 61.7042C22.5148 61.7214 22.9081 61.8388 23.2553 62.0461C23.6024 62.2534 23.8925 62.5439 24.0992 62.8913C24.4121 63.3537 24.5372 63.9179 24.449 64.4691C24.3608 65.0204 24.0659 65.5174 23.6244 65.859C23.3288 66.0367 22.9899 66.1291 22.645 66.1261ZM22.0811 62.2384C21.8609 62.2388 21.6451 62.3005 21.4579 62.4165C21.1332 62.6736 20.923 63.0485 20.873 63.4597C20.823 63.8708 20.9372 64.2851 21.1908 64.6126C21.3414 64.869 21.5529 65.0844 21.8065 65.2397C22.0602 65.395 22.3481 65.4854 22.645 65.5029C22.8695 65.5262 23.096 65.485 23.2979 65.3842C23.4786 65.2679 23.6336 65.1159 23.7533 64.9374C23.873 64.7589 23.9548 64.5577 23.9937 64.3464C24.0327 64.135 24.0279 63.918 23.9797 63.7085C23.9315 63.4991 23.8408 63.3018 23.7134 63.1287C23.5473 62.8466 23.3077 62.6148 23.0203 62.458C22.7329 62.3013 22.4083 62.2254 22.0811 62.2384Z" fill="#0A0A0A"/>
    <path d="M44.4875 1.96391C39.277 0.690548 33.9058 0.200442 28.5509 0.509723C26.7177 0.661561 24.9008 0.969339 23.1199 1.42972C12.5252 4.13034 2.34588 12.1432 0.594922 23.1238C-0.00929705 27.7099 0.303418 32.3703 1.51492 36.8346C1.51492 36.8346 1.36653 18.7612 14.9884 11.609C14.9884 11.609 18.1342 35.7069 40.214 44.9068C53.9842 50.6345 62.65 46.8655 67.2203 43.2152C71.8499 26.2695 62.4719 6.2671 44.4875 1.96391Z" fill="#64313D"/>
    <path d="M53.3908 48.1714C48.7777 48.0705 44.2297 47.0621 40.0064 45.2036C19.7368 36.7456 15.3149 15.4374 14.8104 11.9652C1.84146 19.2361 1.84146 36.6269 1.84146 36.805C1.82072 36.8714 1.7793 36.9295 1.72325 36.9707C1.66719 37.0119 1.59943 37.0341 1.52985 37.0341C1.46027 37.0341 1.39251 37.0119 1.33645 36.9707C1.2804 36.9295 1.23898 36.8714 1.21824 36.805C0.00825068 32.3303 -0.304418 27.6605 0.298245 23.0644C2.13823 11.4607 13.0298 3.68522 23.031 1.13298C24.828 0.630472 26.6649 0.282965 28.5213 0.0942795C33.9353 -0.224361 39.3665 0.265752 44.636 1.54846C48.6178 2.54002 52.3581 4.32616 55.6322 6.7996C58.9063 9.27304 61.6467 12.3827 63.6888 15.9419C66.0966 20.0043 67.6725 24.505 68.3247 29.1822C68.9768 33.8593 68.6922 38.6195 67.4875 43.1856C67.5057 43.2436 67.5057 43.3057 67.4875 43.3637C63.492 46.5593 58.5062 48.2598 53.3908 48.1714ZM14.9885 11.3123C15.0364 11.3327 15.078 11.3654 15.1093 11.4071C15.1406 11.4488 15.1603 11.498 15.1665 11.5497C15.3446 11.8168 18.6684 35.7069 40.3328 44.6101C44.4505 46.4409 48.8863 47.449 53.3908 47.5778C58.2552 47.6507 62.9986 46.0591 66.8346 43.0669C67.995 38.5859 68.2595 33.9198 67.6127 29.3364C66.9659 24.753 65.4207 20.3423 63.0656 16.3574C61.0702 12.8869 58.3972 9.8531 55.2057 7.43649C52.0142 5.01989 48.3692 3.26983 44.4876 2.29039C39.2864 1.02171 33.9257 0.531647 28.5806 0.83621C26.7581 0.978264 24.9511 1.27612 23.1794 1.72653C13.3859 4.24909 2.7021 11.9652 0.921466 23.1535C0.399237 26.9773 0.539787 30.8625 1.33695 34.6386C1.81178 29.5638 4.03757 17.0103 14.8104 11.3419L14.9885 11.3123Z" fill="#0A0A0A"/>
    <path d="M40.2145 44.9068C18.1346 35.7069 14.9889 11.609 14.9889 11.609C1.36702 18.7612 1.51541 36.8049 1.51541 36.8049C1.30767 52.3855 7.98504 66.8976 32.0236 68.1441C56.0621 69.3905 63.5705 54.2551 66.7163 44.9068C66.8943 44.3429 67.0724 43.7791 67.2208 43.2152C62.6505 46.8655 53.9847 50.5455 40.2145 44.9068Z" fill="#F9D8B7"/>
    <path d="M34.7531 68.5299H31.9931C6.20365 67.1054 1.01013 50.5455 1.1882 36.805C1.1882 36.6269 1.1882 18.4942 14.8397 11.3419C14.8857 11.3185 14.9365 11.3063 14.9881 11.3063C15.0397 11.3063 15.0905 11.3185 15.1365 11.3419C15.1844 11.3624 15.2261 11.3951 15.2573 11.4368C15.2886 11.4785 15.3083 11.5276 15.3146 11.5794C15.3442 11.8168 18.6681 35.7069 40.3324 44.6101C44.4501 46.4409 48.8859 47.449 53.3904 47.5778C58.2924 47.6543 63.0713 46.0404 66.9232 43.0075C66.9762 42.9731 67.0381 42.9547 67.1013 42.9547C67.1645 42.9547 67.2264 42.9731 67.2793 43.0075C67.3179 43.0589 67.3387 43.1214 67.3387 43.1856C67.3387 43.2498 67.3179 43.3123 67.2793 43.3637C67.131 43.9275 66.9529 44.5211 66.7452 45.0849C61.6704 60.8139 51.1349 68.5299 34.7531 68.5299ZM14.81 11.9652C1.8411 19.2064 1.8411 36.6269 1.8411 36.805C1.66303 50.2191 6.73784 66.4822 32.0525 67.8177H34.7828C50.8678 67.8177 61.1955 60.2797 66.4187 44.7288L66.6561 43.9572C62.8062 46.7593 58.1516 48.2379 53.3904 48.1714C48.7774 48.0705 44.2293 47.0621 40.006 45.2036C19.7365 36.7456 15.3146 15.4374 14.81 11.9652Z" fill="#0A0A0A"/>
    <path d="M44.4875 1.96391C39.277 0.690548 33.9058 0.200442 28.5509 0.509723C26.7177 0.661561 24.9008 0.969339 23.1199 1.42972C12.5252 4.13034 2.34588 12.1432 0.594922 23.1238C-0.00929705 27.7099 0.303418 32.3703 1.51492 36.8346C1.51492 36.8346 1.36653 18.7612 14.9884 11.609C14.9884 11.609 18.1342 35.7069 40.214 44.9068C53.9842 50.6345 62.65 46.8655 67.2203 43.2152C71.8499 26.2695 62.4719 6.2671 44.4875 1.96391Z" fill="#64313D"/>
    <path d="M53.3908 48.1714C48.7777 48.0705 44.2297 47.0621 40.0064 45.2036C19.7368 36.7456 15.3149 15.4374 14.8104 11.9652C1.84146 19.2361 1.84146 36.6269 1.84146 36.805C1.82072 36.8714 1.7793 36.9295 1.72325 36.9707C1.66719 37.0119 1.59943 37.0341 1.52985 37.0341C1.46027 37.0341 1.39251 37.0119 1.33645 36.9707C1.2804 36.9295 1.23898 36.8714 1.21824 36.805C0.00825068 32.3303 -0.304418 27.6605 0.298245 23.0644C2.13823 11.4607 13.0298 3.68522 23.031 1.13298C24.828 0.630472 26.6649 0.282965 28.5213 0.0942795C33.9353 -0.224361 39.3665 0.265752 44.636 1.54846C48.6178 2.54002 52.3581 4.32616 55.6322 6.7996C58.9063 9.27304 61.6467 12.3827 63.6888 15.9419C66.0966 20.0043 67.6725 24.505 68.3247 29.1822C68.9768 33.8593 68.6922 38.6195 67.4875 43.1856C67.5057 43.2436 67.5057 43.3057 67.4875 43.3637C63.492 46.5593 58.5062 48.2598 53.3908 48.1714ZM14.9885 11.3123C15.0364 11.3327 15.078 11.3654 15.1093 11.4071C15.1406 11.4488 15.1603 11.498 15.1665 11.5497C15.3446 11.8168 18.6684 35.7069 40.3328 44.6101C44.4505 46.4409 48.8863 47.449 53.3908 47.5778C58.2552 47.6507 62.9986 46.0591 66.8346 43.0669C67.995 38.5859 68.2595 33.9198 67.6127 29.3364C66.9659 24.753 65.4207 20.3423 63.0656 16.3574C61.0702 12.8869 58.3972 9.8531 55.2057 7.43649C52.0142 5.01989 48.3692 3.26983 44.4876 2.29039C39.2864 1.02171 33.9257 0.531647 28.5806 0.83621C26.7581 0.978264 24.9511 1.27612 23.1794 1.72653C13.3859 4.24909 2.7021 11.9652 0.921466 23.1535C0.399237 26.9773 0.539787 30.8625 1.33695 34.6386C1.81178 29.5638 4.03757 17.0103 14.8104 11.3419L14.9885 11.3123Z" fill="#0A0A0A"/>
    <path d="M17.2737 38.3778C17.2317 38.3966 17.1862 38.4064 17.1401 38.4064C17.0941 38.4064 17.0486 38.3966 17.0066 38.3778C5.81826 23.005 14.6324 11.6683 14.7214 11.6683C14.7493 11.6367 14.7835 11.6114 14.8219 11.5941C14.8603 11.5768 14.9019 11.5678 14.944 11.5678C14.9861 11.5678 15.0277 11.5768 15.0661 11.5941C15.1045 11.6114 15.1387 11.6367 15.1666 11.6683C15.1982 11.6962 15.2235 11.7304 15.2408 11.7688C15.2581 11.8072 15.2671 11.8488 15.2671 11.8909C15.2671 11.933 15.2581 11.9746 15.2408 12.013C15.2235 12.0514 15.1982 12.0856 15.1666 12.1135C15.1666 12.1135 6.58987 23.2128 17.4814 38.1701C17.513 38.1979 17.5383 38.2322 17.5556 38.2705C17.5729 38.3089 17.5819 38.3505 17.5819 38.3926C17.5819 38.4348 17.5729 38.4764 17.5556 38.5148C17.5383 38.5531 17.513 38.5874 17.4814 38.6152H17.3033L17.2737 38.3778Z" fill="#0A0A0A"/>
    <path d="M10.1809 37.636C10.119 37.6411 10.0571 37.6267 10.0038 37.5947C9.95058 37.5628 9.9087 37.5149 9.88408 37.4579C7.89502 33.552 7.06975 29.1568 7.50642 24.7954C7.94309 20.4339 9.62333 16.2896 12.3473 12.8555C12.4077 12.7992 12.4873 12.7679 12.5699 12.7679C12.6525 12.7679 12.732 12.7992 12.7924 12.8555C12.8488 12.916 12.8801 12.9955 12.8801 13.0781C12.8801 13.1607 12.8488 13.2403 12.7924 13.3007C10.1534 16.6452 8.52969 20.6769 8.1141 24.917C7.69852 29.157 8.50853 33.4272 10.4479 37.2205C10.4677 37.2571 10.4795 37.2975 10.4827 37.339C10.4859 37.3804 10.4803 37.4221 10.4663 37.4613C10.4523 37.5005 10.4302 37.5363 10.4015 37.5664C10.3728 37.5965 10.338 37.6202 10.2996 37.636H10.1809Z" fill="#0A0A0A"/>
    <path d="M20.9348 44.3905C21.8115 44.269 22.3654 43.0387 22.1719 41.6425C21.9784 40.2462 21.1108 39.2129 20.2341 39.3344C19.3574 39.4559 18.8036 40.6862 18.9971 42.0824C19.1906 43.4787 20.0581 44.512 20.9348 44.3905Z" fill="black"/>
    <path d="M7.99015 47.1297C8.88316 47.0066 9.45103 45.7748 9.25851 44.3785C9.06599 42.9821 8.18599 41.95 7.29298 42.0731C6.39996 42.1962 5.83209 43.428 6.02461 44.8243C6.21713 46.2207 7.09713 47.2529 7.99015 47.1297Z" fill="black"/>
    <path d="M27.9868 67.7583C29.2629 67.9067 30.5984 68.0551 31.9932 68.1144H33.8332C34.4604 67.1232 34.8856 66.0177 35.0842 64.8616C35.2828 63.7055 35.251 62.5215 34.9906 61.3777C33.2713 61.4853 31.6401 62.1762 30.3667 63.3364C29.0932 64.4965 28.2537 66.0564 27.9868 67.7583Z" fill="#E6663F"/>
    <path d="M33.8336 68.5003H31.9936C30.7175 68.5003 29.4414 68.3222 27.9575 68.1145C27.8905 68.1395 27.8167 68.1395 27.7498 68.1145C27.7289 68.0731 27.718 68.0273 27.718 67.981C27.718 67.9346 27.7289 67.8888 27.7498 67.8474C28.0438 66.0916 28.9271 64.4883 30.2541 63.3015C31.5811 62.1148 33.2727 61.4153 35.0504 61.3184C35.1247 61.3095 35.1996 61.3291 35.2602 61.3731C35.3207 61.4171 35.3624 61.4824 35.3768 61.5558C35.8357 63.901 35.3791 66.3329 34.1007 68.3519C34.0738 68.3985 34.0348 68.437 33.9877 68.4631C33.9407 68.4893 33.8874 68.5021 33.8336 68.5003ZM28.373 67.4913C29.7085 67.6397 30.8659 67.7584 32.0233 67.8177H33.6555C34.7442 65.9889 35.1243 63.8243 34.7239 61.7339C33.1924 61.8894 31.7513 62.5328 30.6132 63.5694C29.4751 64.606 28.7001 65.9809 28.4027 67.4913H28.373Z" fill="#0A0A0A"/>
    <path d="M11.3682 61.4668C16.2233 65.0536 21.9742 67.2307 27.9874 67.7584C28.2726 66.0728 29.12 64.5333 30.3918 63.3909C31.6636 62.2484 33.2848 61.5703 34.9912 61.4668C34.2072 58.053 32.4191 54.9521 29.8571 52.5637C26.1177 65.3842 15.523 62.9507 11.3682 61.4668Z" fill="#D92231"/>
    <path d="M27.987 68.0848C21.9223 67.5408 16.1228 65.3442 11.2194 61.7339C11.1486 61.6946 11.0963 61.6287 11.074 61.5508C11.0518 61.4728 11.0614 61.3893 11.1007 61.3184C11.1401 61.2476 11.2059 61.1953 11.2839 61.173C11.3618 61.1508 11.4454 61.1604 11.5162 61.1997C13.5227 61.9458 15.6382 62.3569 17.7781 62.4165C23.7135 62.4165 27.5419 59.1223 29.4709 52.6527C29.4897 52.6008 29.5213 52.5546 29.5629 52.5182C29.6044 52.4819 29.6544 52.4567 29.7083 52.4449C29.7534 52.4189 29.8046 52.4052 29.8567 52.4052C29.9088 52.4052 29.96 52.4189 30.0051 52.4449C32.5637 54.8456 34.3683 57.9392 35.1986 61.3481C35.2284 61.4244 35.2284 61.5092 35.1986 61.5855C35.1223 61.6153 35.0375 61.6153 34.9612 61.5855C33.3412 61.6843 31.8008 62.3224 30.5853 63.398C29.3699 64.4736 28.5492 65.925 28.2541 67.521C28.3056 67.5681 28.3406 67.6305 28.354 67.699C28.3675 67.7674 28.3586 67.8384 28.3287 67.9015C28.2988 67.9645 28.2495 68.0164 28.188 68.0494C28.1266 68.0824 28.0561 68.0948 27.987 68.0848ZM13.0891 62.4165C17.5249 65.2317 22.5536 66.979 27.7793 67.521C28.1009 65.8807 28.9405 64.3871 30.1747 63.2598C31.4088 62.1325 32.9722 61.4312 34.6347 61.2591C33.8324 58.2648 32.2443 55.5393 30.0348 53.3649C27.4529 61.3778 22.0219 63.0694 17.8968 63.0694C16.2728 63.0598 14.6568 62.8404 13.0891 62.4165Z" fill="#0A0A0A"/>
    <path d="M29.9163 52.801C28.6613 52.8241 27.4471 52.3555 26.5331 51.4953C26.5015 51.4674 26.4762 51.4332 26.4589 51.3948C26.4416 51.3564 26.4326 51.3148 26.4326 51.2727C26.4326 51.2306 26.4416 51.1889 26.4589 51.1506C26.4762 51.1122 26.5015 51.0779 26.5331 51.0501C26.5935 50.9938 26.6731 50.9624 26.7557 50.9624C26.8383 50.9624 26.9178 50.9938 26.9783 51.0501C26.9783 51.0501 29.5305 53.7507 33.9227 50.694C33.9831 50.6376 34.0627 50.6063 34.1453 50.6063C34.2279 50.6063 34.3074 50.6376 34.3679 50.694C34.3995 50.7218 34.4247 50.7561 34.4421 50.7944C34.4594 50.8328 34.4684 50.8744 34.4684 50.9165C34.4684 50.9587 34.4594 51.0003 34.4421 51.0386C34.4247 51.077 34.3995 51.1113 34.3679 51.1391C33.1021 52.1058 31.5673 52.6554 29.9756 52.712L29.9163 52.801Z" fill="#0A0A0A"/>
    <g style="mix-blend-mode:multiply" opacity="0.42">
        <path d="M40.2138 44.9068C18.1339 35.7069 14.9882 11.609 14.9882 11.609C12.5444 12.8972 10.3688 14.6397 8.57788 16.7431C9.7236 16.0196 11.0264 15.582 12.3766 15.467C11.3379 20.245 20.0926 46.7765 49.7699 50.3081C59.3853 51.3468 51.966 70.726 27.9868 67.7879C29.2629 67.9363 30.5984 68.0847 32.0229 68.1441C56.0317 69.3905 63.5698 54.2551 66.7155 44.9068C66.8936 44.3429 67.0717 43.7791 67.2201 43.2152C62.6498 46.8655 53.984 50.5455 40.2138 44.9068Z" fill="#D76B2A"/>
    </g>
</svg>
