<svg width="131" height="200" viewBox="0 0 131 200" fill="none" xmlns="http://www.w3.org/2000/svg">
    <path d="M115.894 100.064L75.99 98.8161L76.0442 97.4055L115.921 98.6805L115.894 100.064Z" fill="#0A0A0A"/>
    <path d="M15.2797 115.879L14.6558 114.686C17.3685 113.004 40.0469 98.4092 44.4957 98.4092V99.7927C41.0777 99.7927 22.3056 111.403 15.3611 115.906L15.2797 115.879Z" fill="#0A0A0A"/>
    <path d="M22.4412 198.048L21.2476 197.586C21.8444 195.66 36.2218 150.521 39.5856 145.339L40.6164 146.153C37.3611 151.145 22.6039 197.695 22.4412 198.048Z" fill="#0A0A0A"/>
    <path d="M63.1592 192.893L62.1826 192.025C67.9878 183.887 62.5624 148.622 62.5081 148.351L63.756 148.106C63.973 149.571 69.1814 184.376 63.1592 192.893Z" fill="#0A0A0A"/>
    <path d="M56.3506 194.304C58.0596 191.293 62.5356 185.108 65.6824 188.255C68.8291 191.401 70.511 194.901 68.1238 195.877C65.7366 196.854 53.5836 199.187 56.3506 194.304Z" fill="#0A744C"/>
    <path d="M66.6317 196.691C66.6317 196.691 57.5169 198.97 55.7808 196.447C55.5899 196.078 55.5089 195.662 55.5474 195.249C55.5859 194.835 55.7422 194.442 55.9978 194.114C57.5983 191.401 60.3653 187.766 62.8339 187.142C63.3587 186.998 63.9134 187.003 64.4357 187.156C64.9579 187.31 65.4272 187.605 65.7908 188.011C68.3407 190.588 69.6971 193.056 69.4258 194.684C69.3676 195.035 69.216 195.364 68.9869 195.636C68.7578 195.908 68.4596 196.113 68.1237 196.23C67.601 196.426 67.0664 196.589 66.5232 196.718L66.6317 196.691ZM63.078 187.821C60.7722 188.39 58.168 191.781 56.6217 194.494C56.242 195.172 56.1606 195.688 56.4047 196.04C57.3542 197.532 62.8881 196.908 66.4961 196.04C67.0116 195.919 67.519 195.765 68.0152 195.579C68.2416 195.509 68.4447 195.379 68.6024 195.202C68.7602 195.025 68.8666 194.808 68.9104 194.575C69.1545 193.246 67.7982 190.886 65.4652 188.553C65.1714 188.227 64.7916 187.99 64.3693 187.87C63.947 187.75 63.4994 187.752 63.078 187.875V187.821Z" fill="#0A0A0A"/>
    <path d="M11.1563 177.16C11.1563 176.888 11.1563 176.644 11.1563 176.427C11.1387 176.671 11.1387 176.916 11.1563 177.16Z" fill="#0A744C"/>
    <path d="M15.4966 178.272C14.1131 172.738 11.4546 173.633 11.1833 176.346C11.1833 176.59 11.1833 176.834 11.1833 177.078C11.4754 181.138 12.1475 185.161 13.1908 189.096C14.52 194.901 16.1748 197.641 17.7481 198.78C22.5225 201.52 16.9886 184.321 15.4966 178.272Z" fill="#0A8C5B"/>
    <path d="M18.8606 199.512C18.4167 199.583 17.9625 199.486 17.5857 199.241C15.6054 197.776 14.032 194.467 12.8655 189.313C11.8237 185.36 11.1516 181.318 10.8581 177.241C10.8581 176.915 10.8581 176.671 10.8581 176.427C10.8463 175.899 10.9889 175.379 11.2684 174.931C11.5479 174.483 11.9521 174.126 12.4315 173.904C12.9469 173.904 14.683 173.714 15.7953 178.19C16.0394 179.194 16.3921 180.496 16.799 181.988C18.4809 188.146 20.8138 196.583 19.5117 198.889C19.4397 199.046 19.3345 199.185 19.2034 199.297C19.0723 199.41 18.9183 199.493 18.7521 199.54L18.8606 199.512ZM12.5671 174.583C11.9974 174.718 11.5905 175.478 11.482 176.481C11.482 176.698 11.482 176.943 11.482 177.187C11.804 181.231 12.5034 185.236 13.5708 189.15C14.683 194.114 16.2836 197.288 17.9926 198.617C18.2414 198.778 18.5395 198.846 18.8335 198.807C18.9183 198.728 18.9754 198.623 18.9963 198.509C20.0542 196.474 17.5857 187.658 16.1208 182.232C15.7139 180.74 15.3612 179.52 15.09 178.435C14.3304 175.342 13.2182 174.447 12.3772 174.637L12.5671 174.583Z" fill="#0A0A0A"/>
    <path d="M11.455 177.16L11.3193 177.187L11.1566 177.241H10.8311V177.214L11.455 177.16L11.3465 177.187L11.455 177.16Z" fill="#0A0A0A"/>
    <path d="M22.0342 187.821C20.3795 181.337 17.07 171.544 13.5977 172.548C12.0243 172.955 11.2919 174.203 11.1833 176.427C11.4546 173.715 14.1131 172.738 15.4966 178.272C16.9886 184.321 22.5497 201.493 17.721 198.916C18.2016 199.304 18.7799 199.553 19.3924 199.634C20.0049 199.715 20.628 199.626 21.1933 199.377C23.9603 198.183 23.689 194.331 22.0342 187.821Z" fill="#0A744C"/>
    <path d="M20.7053 199.892C20.1595 200.027 19.5902 200.035 19.0405 199.918C18.4907 199.801 17.9747 199.56 17.5315 199.214L17.857 198.617C18.1106 198.792 18.419 198.869 18.7251 198.834C18.7898 198.801 18.8472 198.755 18.8938 198.699C18.9404 198.643 18.9753 198.578 18.9963 198.509C20.0543 196.474 17.5857 187.658 16.1208 182.232C15.7139 180.74 15.3613 179.52 15.09 178.435C14.3304 175.342 13.2182 174.447 12.3773 174.637C11.5363 174.827 11.4007 175.532 11.2922 176.536L10.8582 176.346C10.8582 173.904 11.8347 172.575 13.5709 172.141C17.6671 171.11 21.0851 182.666 22.3872 187.658C24.042 194.087 24.4218 198.319 21.3564 199.621L20.7596 199.811L20.7053 199.892ZM19.2947 199.268C19.7147 199.361 20.1498 199.361 20.5697 199.268L21.058 199.106C23.3638 198.129 23.5537 195.118 21.7091 187.983C19.7288 180.225 16.5549 172.222 13.5709 172.955C13.2446 173.027 12.9366 173.165 12.666 173.361C12.3954 173.557 12.1678 173.807 11.9975 174.094L12.3502 173.959C12.8656 173.959 14.6017 173.769 15.7139 178.245C15.9581 179.248 16.3107 180.551 16.7176 182.043C18.3995 188.2 20.7325 196.637 19.4304 198.943C19.3481 199.098 19.2377 199.236 19.1048 199.35L19.2947 199.268Z" fill="#0A0A0A"/>
    <path d="M17.0431 117.778C17.0431 119.189 17.233 126.839 15.8495 127.381C14.4661 127.924 14.4118 121.006 14.4118 121.006C14.4118 121.006 7.38584 128.738 6.6534 128.114C5.92097 127.49 10.7225 119.975 10.7225 119.975C10.7225 119.975 1.58061 125.075 1.30934 123.855C1.03806 122.634 8.1454 118.077 8.1454 118.077C8.1454 118.077 0.00722692 117.805 0.332754 116.449C0.658281 115.093 8.47093 114.794 8.47093 114.794C8.47093 114.794 1.36359 112.19 2.71995 111.24C4.07631 110.291 9.77304 112.407 11.9161 112.57C12.6081 112.525 13.3017 112.629 13.9497 112.876C14.5977 113.123 15.1849 113.507 15.6714 114.001C16.1579 114.495 16.5322 115.088 16.7689 115.74C17.0056 116.392 17.0992 117.087 17.0431 117.778Z" fill="#F9D8B7"/>
    <path d="M15.8764 127.734C15.7584 127.759 15.6359 127.752 15.5214 127.714C15.407 127.676 15.3048 127.608 15.2254 127.517C14.3573 126.757 14.1674 123.448 14.1131 121.766C11.9972 124.266 9.58299 126.498 6.92442 128.412C6.84937 128.452 6.76549 128.473 6.68027 128.473C6.59506 128.473 6.51118 128.452 6.43613 128.412C5.83933 127.897 6.95155 125.347 9.74565 120.843C7.37423 122.208 4.88695 123.361 2.31279 124.289C1.98726 124.289 1.14632 124.587 1.01068 123.936C0.766534 122.797 4.3202 120.165 7.0058 118.375C4.917 118.375 0.875043 117.914 0.169735 116.964C0.104424 116.886 0.0562098 116.795 0.0281813 116.697C0.000152725 116.599 -0.00707166 116.496 0.00697113 116.395C0.00697113 115.879 0.658025 115.527 1.85162 115.228C3.53126 114.869 5.23646 114.642 6.95155 114.55C4.94413 113.736 2.39417 112.543 2.25853 111.566C2.24349 111.437 2.2632 111.306 2.31565 111.186C2.3681 111.067 2.45139 110.964 2.55693 110.888C3.53351 110.155 6.35475 110.888 8.82333 111.485C9.85475 111.785 10.9063 112.012 11.9701 112.163C12.7137 112.115 13.4586 112.231 14.1531 112.501C14.8476 112.771 15.4748 113.189 15.9913 113.726C16.5077 114.263 16.9008 114.906 17.1434 115.611C17.3859 116.315 17.4719 117.064 17.3955 117.805V118.483C17.3955 124.668 17.0158 127.327 15.9849 127.734H15.8764ZM14.7371 120.165V120.979C14.612 123.027 14.917 125.078 15.6323 127.001C16.012 126.839 16.6631 125.536 16.636 118.402V117.724C16.6948 117.083 16.6156 116.437 16.4036 115.829C16.1916 115.221 15.8518 114.666 15.407 114.201C14.9623 113.735 14.423 113.371 13.8254 113.132C13.2278 112.892 12.5859 112.784 11.943 112.814C10.8428 112.668 9.75477 112.441 8.68769 112.136C6.94428 111.532 5.10652 111.247 3.26224 111.295L2.93671 111.43C4.59143 112.876 6.56056 113.917 8.68769 114.469V115.147C6.46488 115.226 4.25174 115.48 2.06864 115.906C0.820789 116.232 0.71228 116.503 0.71228 116.503C3.07351 117.439 5.60861 117.855 8.14515 117.724H9.23024L8.14515 118.375C5.66176 119.805 3.43396 121.638 1.55322 123.8H2.09577C5.00326 122.671 7.81544 121.31 10.5052 119.731L10.9121 120.247C9.27945 122.649 7.91494 125.224 6.84304 127.924C9.50893 125.847 11.9542 123.502 14.1403 120.925L14.6828 120.355L14.7371 120.165Z" fill="#0A0A0A"/>
    <path d="M39.8027 125.13C38.409 126.498 37.3023 128.13 36.5474 129.931C36.1948 131.749 32.1257 144.363 30.9592 147.048C30.9592 147.048 42.7053 154.21 48.5377 152.04C49.9102 148.945 51.1057 145.775 52.1185 142.545L52.9323 153.396C52.9323 153.396 64.9497 155.376 71.4602 149.436L68.8831 129.09L39.8027 125.13Z" fill="#C04396"/>
    <path d="M64.6782 153.152C60.8149 154.021 56.8268 154.186 52.9049 153.64H52.6608L51.9555 144.39C51.0874 146.94 49.2428 151.172 48.8358 152.23C42.9492 154.427 31.4744 147.51 30.9861 147.238L30.7148 147.076V146.777C31.9084 144.064 35.9504 131.532 36.3031 129.741C37.0519 127.89 38.1686 126.211 39.5855 124.804L69.1813 128.683L71.894 149.49H71.7584C69.7559 151.236 67.3509 152.457 64.7595 153.044L64.6782 153.152ZM53.2576 152.989C57.0203 153.481 60.8403 153.306 64.5425 152.474C66.9678 151.929 69.2279 150.813 71.1344 149.219L68.6116 129.334L39.911 125.536C38.6049 126.817 37.5715 128.349 36.8727 130.04C36.5472 131.776 32.7223 143.603 31.4473 146.94C33.1834 147.944 43.1663 153.586 48.4018 151.796C49.7607 148.807 50.9295 145.736 51.9012 142.6H52.5252L53.3118 153.071L53.2576 152.989Z" fill="#0A0A0A"/>
    <path d="M64.2445 95.0997L62.2642 96.8359C62.2642 96.8359 78.2693 95.1268 78.1607 96.2119C78.0522 97.297 77.9437 105.083 76.723 105.408C72.8056 104.655 69.0151 103.349 65.4652 101.529C63.729 100.471 42.2443 106.032 41.0507 106.656C39.8571 107.28 36.9273 99.1417 37.9853 98.7619C39.0432 98.3821 49.1075 96.7816 51.9287 95.2353C54.7499 93.6891 64.2445 95.0997 64.2445 95.0997Z" fill="#ABA82B"/>
    <path d="M76.8044 105.815C75.3666 106.168 66.9029 102.858 65.3295 101.882C64.5429 101.393 57.6797 102.668 48.6463 104.947C44.4687 106.005 41.6475 106.819 41.3491 107.009H41.2134C39.9384 107.334 38.0938 102.343 37.6869 100.715C37.4427 99.7656 37.2528 98.6534 37.8768 98.4364C38.5007 98.2194 39.2603 98.1109 40.7794 97.8125C42.7054 97.4327 45.3368 96.9173 47.6155 96.3205C49.0256 96.0166 50.3989 95.5619 51.7117 94.9641C52.0548 94.7834 52.4194 94.6467 52.7968 94.5572C56.6132 94.0957 60.4753 94.1687 64.2716 94.7742L65.1125 94.9641L63.3764 96.4832C68.3678 95.9678 77.6724 95.1269 78.4591 95.9949V96.2391C78.4591 96.429 78.4591 96.7545 78.4591 97.2428C78.1879 103.211 77.7538 105.381 76.8315 105.734L76.8044 105.815ZM48.5106 104.269C52.1728 103.346 64.1902 100.417 65.6279 101.285C69.1156 103.066 72.8302 104.362 76.6687 105.137C76.9671 105.137 77.5097 103.943 77.8081 97.297C77.8081 96.9173 77.8081 96.6189 77.8081 96.429C72.6121 96.2518 67.4107 96.5332 62.2642 97.2699H61.2062L63.4306 95.3168C59.9549 94.779 56.4208 94.7333 52.9324 95.1811C52.6022 95.2578 52.2831 95.3763 51.9829 95.5338C50.6035 96.1729 49.1567 96.6551 47.6697 96.9715C45.391 97.5412 42.7325 98.0837 40.8065 98.4635C39.3688 98.7348 38.2837 98.9518 38.0938 99.0603C38.299 100.867 38.8517 102.617 39.7214 104.214C40.5352 105.896 41.0235 106.276 41.132 106.303C43.572 105.472 46.0529 104.766 48.5649 104.187L48.5106 104.269Z" fill="#0A0A0A"/>
    <path d="M49.026 93.4721L40.4267 112.678C37.9725 118.102 36.152 123.791 35.0012 129.633C40.374 130.65 45.5605 132.479 50.3824 135.058C58.5205 139.453 70.4023 132.345 70.8363 131.206L67.6082 94.1503L49.026 93.4721Z" fill="#12A1EC"/>
    <path d="M61.5857 136.279C57.879 137.44 53.8716 137.169 50.355 135.519C45.5561 132.954 40.3984 131.125 35.0553 130.094H34.7297V129.741C35.8769 123.864 37.6974 118.139 40.1552 112.678L48.8359 93.1194L67.825 93.7976L71.1888 131.477C68.4343 133.879 65.1088 135.532 61.5315 136.279H61.5857ZM35.4893 129.361C40.7712 130.427 45.8701 132.255 50.6263 134.787C54.0343 136.345 57.8962 136.596 61.4772 135.492C64.7655 134.747 67.8554 133.303 70.5377 131.26L67.3096 94.4758L49.2157 93.8247L40.7249 112.814C38.3821 118.111 36.6353 123.652 35.5164 129.334L35.4893 129.361Z" fill="#0A0A0A"/>
    <path d="M51.9555 92.0072C51.3951 93.4489 51.1455 94.9927 51.223 96.5375C51.6028 98.0566 52.4166 102.939 56.6485 102.668C60.8803 102.397 61.2872 95.371 59.3612 93.2279C57.4352 91.0849 51.9555 92.0072 51.9555 92.0072Z" fill="#F9D8B7"/>
    <path d="M57.3808 102.912H56.6755C52.4437 103.184 51.3857 98.5991 51.0059 96.863V96.5375C50.8525 94.9613 51.0375 93.3705 51.5485 91.8716V91.6817H51.7383C51.9825 91.6817 57.5436 90.7322 59.4967 93.0109C60.0845 93.9516 60.4637 95.0074 60.6087 96.1071C60.7538 97.2068 60.6614 98.3249 60.3377 99.3858C60.1897 100.206 59.821 100.97 59.2714 101.596C58.7218 102.222 58.0119 102.687 57.2181 102.939L57.3808 102.912ZM52.1724 92.2513C51.6582 93.5901 51.4452 95.0257 51.5485 96.4561V96.8087C51.9825 98.6805 52.8777 102.56 56.567 102.234C57.373 102.111 58.1202 101.739 58.7039 101.17C59.2877 100.6 59.6788 99.8629 59.8223 99.0603C60.1147 98.1162 60.2054 97.1212 60.0886 96.1399C59.9717 95.1585 59.6499 94.2126 59.1441 93.3636C57.5978 91.5732 53.0676 92.0886 52.1181 92.2242L52.1724 92.2513Z" fill="#0A0A0A"/>
    <path d="M91.1546 54.2732C87.6626 53.4938 84.1171 52.9769 80.5479 52.727C83.9003 57.839 86.2906 63.5205 87.6009 69.4916C87.6009 69.4916 89.3642 64.5002 92.8908 64.2289C96.4173 63.9576 99.347 67.8368 97.204 73.2623C97.5225 72.5428 97.7503 71.7864 97.8822 71.0107C99.4284 62.8454 96.5258 56.1721 91.1546 54.2732Z" fill="#7C6F63"/>
    <path d="M97.4752 73.5064L96.9055 73.2623C97.4096 72.2062 97.6553 71.0453 97.6223 69.8756C97.5893 68.7058 97.2785 67.5607 96.7157 66.5347C96.3305 65.8813 95.7716 65.3477 95.101 64.9932C94.4305 64.6388 93.6747 64.4775 92.9178 64.5273C89.6354 64.7986 87.9264 69.5187 87.8993 69.573L87.5466 70.5767L87.3025 69.5458C85.9984 63.6239 83.6268 57.989 80.3037 52.9168L79.8696 52.2929H80.5749C84.1599 52.5774 87.7216 53.103 91.2359 53.8663C96.9055 55.9551 99.6996 62.9268 98.1805 71.1735C98.0421 71.9771 97.8052 72.7607 97.4752 73.5064ZM92.2397 63.9034H92.9178C93.7878 63.8469 94.6563 64.0325 95.4272 64.4395C96.1981 64.8465 96.8413 65.459 97.2853 66.2092C97.6052 66.7144 97.8518 67.2624 98.0178 67.8368C98.289 61.4619 95.7119 56.3349 91.1274 54.653C87.8951 53.9212 84.6126 53.4316 81.3074 53.1881C84.2898 57.9062 86.4713 63.085 87.7637 68.515C88.149 67.4779 88.746 66.5323 89.5166 65.7384C90.2872 64.9445 91.2145 64.3195 92.2397 63.9034Z" fill="#0A0A0A"/>
    <path d="M16.446 53.7578C16.446 53.7578 17.5582 60.1598 20.9491 61.8959C20.9897 58.2067 21.6029 54.5462 22.7666 51.045C18.6162 51.5605 16.2832 52.4014 16.446 53.7578Z" fill="#7C6F63"/>
    <path d="M21.2478 62.4114L20.7866 62.1672C17.2872 60.3497 16.175 54.029 16.1207 53.7578C15.7681 52.0759 18.5079 51.3706 19.4031 51.045C20.4938 50.7821 21.5989 50.5829 22.7127 50.4482H23.2552L23.0382 50.9908C21.8819 54.4929 21.2779 58.1537 21.2478 61.8417V62.4114ZM19.5388 51.8317C17.5856 52.32 16.609 52.9439 16.8261 53.6221C16.8261 53.6221 17.8298 59.3189 20.7053 61.2991C20.7742 57.9203 21.3222 54.5683 22.3329 51.3434C21.4205 51.4691 20.5151 51.6411 19.6202 51.8589L19.5388 51.8317Z" fill="#0A0A0A"/>
    <path d="M92.8906 64.1475C89.3912 64.4459 87.6008 69.4102 87.6008 69.4102C86.2905 63.4391 83.9002 57.7576 80.5477 52.6456C64.624 50.9908 35.5165 49.3089 22.7396 50.9637C21.5758 54.4648 20.9627 58.1254 20.922 61.8146C20.922 61.8146 19.4572 91.2748 50.4907 96.3205C81.5243 101.366 88.9843 75.0256 88.9843 75.0256C88.9843 75.0256 94.8438 78.4707 97.1225 73.3708C99.3469 67.8368 96.3901 63.8491 92.8906 64.1475Z" fill="#F9D8B7"/>
    <path d="M66.9844 96.3747C61.5547 97.6426 55.9223 97.7811 50.4368 96.7816C19.4846 91.7359 20.5968 62.1944 20.5968 61.896C20.6208 58.1322 21.2434 54.3962 22.4415 50.828V50.6381H22.6313C35.3269 48.9834 64.1089 50.6381 80.5209 52.32H80.6565C83.8642 57.1954 86.196 62.5934 87.5469 68.2709C88.2522 66.7789 89.9612 63.8762 92.701 63.6592C93.5709 63.6028 94.4395 63.7883 95.2104 64.1953C95.9813 64.6023 96.6244 65.2149 97.0685 65.965C97.6924 67.092 98.0399 68.351 98.0823 69.6385C98.1248 70.926 97.861 72.2051 97.3127 73.3708C97.0424 74.0602 96.6147 74.6768 96.0636 75.1714C95.5125 75.666 94.8533 76.0248 94.1388 76.2191C92.3838 76.5211 90.5783 76.2249 89.0117 75.3782C87.2942 80.4011 84.3744 84.9278 80.5068 88.5638C76.6391 92.1998 71.9409 94.8347 66.8216 96.2391L66.9844 96.3747ZM22.9569 51.2892C21.8551 54.7276 21.279 58.3126 21.2479 61.9231C21.2479 62.2215 20.1628 91.1663 50.5453 96.1034C55.9416 97.0801 61.4808 96.9416 66.8216 95.6965C71.884 94.293 76.5236 91.6661 80.3317 88.0472C84.1398 84.4283 86.9996 79.9285 88.6591 74.9442V74.5373L88.9846 74.7271C90.5053 75.593 92.2713 75.9271 94.0031 75.6766C94.6151 75.5023 95.1785 75.1888 95.6491 74.7605C96.1197 74.3323 96.4848 73.8009 96.7159 73.208C97.2155 72.1555 97.4587 70.9996 97.4257 69.835C97.3927 68.6704 97.0844 67.5301 96.526 66.5076C96.1408 65.8542 95.5819 65.3205 94.9113 64.9661C94.2408 64.6117 93.485 64.4504 92.7282 64.5002C89.4186 64.7714 87.7367 69.4916 87.7096 69.5458L87.357 70.5495L87.1128 69.5187C85.8196 63.6406 83.4763 58.0441 80.1954 52.9982C63.919 51.3163 35.4625 49.7158 22.767 51.2892H22.9569Z" fill="#0A0A0A"/>
    <path d="M19.6474 60.9465C19.6474 60.9465 14.2219 61.2449 14.2219 68.1081C14.2219 74.9713 22.7128 74.917 22.3601 73.1266C21.4537 69.4588 20.9623 65.7007 20.8952 61.9231L19.6474 60.9465Z" fill="#F9D8B7"/>
    <path d="M21.4917 74.3745C20.5353 74.5433 19.5534 74.4996 18.6158 74.2464C17.6782 73.9933 16.8077 73.5369 16.0663 72.9096C15.3945 72.3114 14.8601 71.575 14.4995 70.7509C14.139 69.9269 13.9609 69.0346 13.9775 68.1352C13.7423 66.5311 14.1041 64.8965 14.9942 63.5415C15.8842 62.1864 17.2406 61.2051 18.8061 60.7837C19.0908 60.7125 19.3813 60.6671 19.6742 60.6481L21.1933 61.7874V61.9773C21.2192 65.3422 21.638 68.6925 22.4412 71.9602L22.6582 73.0724C22.6582 73.2894 22.6582 74.0761 21.4646 74.4016L21.4917 74.3745ZM18.996 61.4348C17.5717 61.8073 16.3375 62.6976 15.5348 63.9318C14.7322 65.1659 14.4187 66.6551 14.6556 68.1081C14.6057 68.8891 14.7253 69.6717 15.0062 70.4022C15.2872 71.1327 15.7228 71.7937 16.2833 72.3399C16.9634 72.9107 17.7603 73.3256 18.618 73.5552C19.4757 73.7849 20.3732 73.8238 21.2476 73.6692C21.7087 73.6692 22.0071 73.3437 21.98 73.1809L21.763 72.0687C20.973 68.7986 20.5544 65.4498 20.5151 62.0858L19.4843 61.2992H18.8332L18.996 61.4348Z" fill="#0A0A0A"/>
    <path d="M40.0198 65.5853C40.0198 67.5384 39.3958 69.2203 38.3921 69.2746C37.3884 69.3288 36.4661 67.8097 36.3576 65.8565C36.2491 63.9034 36.9815 62.2215 37.9852 62.1672C38.9889 62.113 39.9113 63.6321 40.0198 65.5853Z" fill="black"/>
    <path d="M65.8994 63.9848C65.8994 65.9379 65.2755 67.5927 64.2718 67.6741C63.2681 67.7554 62.3457 66.2092 62.2372 64.256C62.1287 62.3029 62.8611 60.6481 63.8649 60.5667C64.8686 60.4853 65.7909 62.0045 65.8994 63.9848Z" fill="black"/>
    <path d="M79.7882 4.82022C74.8807 2.13884 69.4242 0.616982 63.8374 0.371351C52.3354 0.0186963 46.3945 4.46757 46.3945 4.46757V10.1914C46.3945 10.1914 46.3945 29.1805 47.344 45.918C52.7694 46.0808 57.9236 48.4408 62.3725 48.902C66.8213 49.3632 72.2739 49.2275 77.3739 49.7701C79.6797 37.9969 79.2728 17.2174 79.9238 7.18029L79.7882 4.82022Z" fill="#D1D2D4"/>
    <path d="M77.5368 50.1227H77.2655C74.5528 49.8515 71.8401 49.7429 69.2901 49.6616C66.7401 49.5802 64.5428 49.4988 62.2641 49.2818C60.1704 49.0037 58.1022 48.5592 56.0791 47.9526C53.212 47.0051 50.2441 46.3951 47.2356 46.135H46.9372V45.8095C46.0963 29.3975 45.9878 10.2728 45.9878 10.0829V4.16917H46.1234C48.4037 2.7035 50.9315 1.66481 53.5834 1.10379C56.945 0.275147 60.4041 -0.0899318 63.8647 0.0186986C69.4966 0.273092 74.9972 1.8036 79.9511 4.4947H80.1139V7.04466C79.924 10.1914 79.8155 14.4233 79.707 18.8993C79.7307 29.2095 79.0145 39.5081 77.5639 49.7158V50.0142L77.5368 50.1227ZM47.534 45.5654C50.47 45.8021 53.3715 46.357 56.1876 47.2201C58.1839 47.8235 60.2248 48.268 62.2913 48.5494C64.5428 48.7664 66.8486 48.8478 69.2901 48.9291C71.7316 49.0105 74.4171 49.119 77.0214 49.3632C78.4212 39.3054 79.1191 29.1625 79.1102 19.0078C79.1102 14.5318 79.3272 10.2728 79.5171 7.15317V5.01011C74.6752 2.43092 69.3181 0.966517 63.8375 0.724007C60.4323 0.614917 57.0281 0.970853 53.7191 1.78197C51.2452 2.35323 48.8812 3.3245 46.7202 4.65746V10.0829C46.7202 10.2728 46.7202 29.072 47.6426 45.3483L47.534 45.5654Z" fill="#0A0A0A"/>
    <path d="M27.1345 20.9067C21.0053 28.2469 16.8089 37.0033 14.9272 46.3792C25.6867 45.5787 36.4842 45.4156 47.2629 45.8909C46.3949 29.3161 46.1236 8.45526 46.1236 8.45526C38.7406 10.7197 32.1544 15.0384 27.1345 20.9067Z" fill="#EC5039"/>
    <path d="M47.5881 46.135H47.2354C36.5111 45.6753 25.7692 45.8292 15.0625 46.5962H14.6013V46.1079C16.4995 36.7562 20.6736 28.0166 26.7543 20.6625C31.8961 14.7439 38.6129 10.4071 46.1232 8.15686H46.503V8.5909C46.503 8.80791 46.72 29.6416 47.5609 46.0265V46.135H47.5881ZM15.3066 45.8366C25.827 45.1561 36.3755 45.0203 46.9099 45.4297C46.1503 30.4012 45.9062 11.8733 45.8519 8.78079C38.5799 11.0752 32.0957 15.3604 27.1341 21.1508C21.2092 28.3392 17.1138 36.8559 15.1981 45.9723L15.3066 45.8366Z" fill="#0A0A0A"/>
    <path d="M96.2278 24.4332C88.3609 9.89302 79.9514 7.1803 79.9514 7.1803L73.251 48.685C82.3115 49.6344 94.6272 55.087 99.0219 53.378C99.0219 51.7504 99.2118 50.0414 99.3203 48.468C99.8357 43.4223 100.785 32.8427 96.2278 24.4332Z" fill="#EC5039"/>
    <path d="M98.723 53.8663C96.0103 54.5716 90.8832 53.1881 85.512 51.7232C81.5172 50.5123 77.4365 49.6055 73.3048 49.0105H72.9792V48.6307L79.5712 6.71912H79.8967C80.2494 6.71912 88.6588 9.64886 96.4715 24.1348C101.029 32.5714 100.134 43.1239 99.7267 48.2238V48.3866C99.7267 49.96 99.5097 51.669 99.4283 53.2695V53.5136H99.2384L98.7501 53.6764L98.723 53.8663ZM73.7117 48.4408C77.758 49.0639 81.7555 49.9703 85.6748 51.1536C91.1003 52.5913 95.956 53.8663 98.5874 53.2966H98.8315C98.8315 51.7504 98.9943 50.1227 99.1299 48.6307V48.468C99.5368 43.4494 100.405 33.0325 95.956 24.7859C89.12 12.1446 81.7142 8.50951 80.0866 7.80421L73.7117 48.4951V48.4408Z" fill="#0A0A0A"/>
    <path d="M34.4588 18.3025L29.5216 23.7279C29.5216 23.7279 27.0802 21.4764 27.7041 14.8844C28.328 8.29252 30.4168 5.8782 30.4168 7.7771C31.4681 11.3922 32.8201 14.9129 34.4588 18.3025Z" fill="#D1D2D4"/>
    <path d="M29.5216 24.1891L29.3046 23.9992C29.3046 23.9992 26.7547 21.5577 27.3786 14.8573C27.8126 10.11 29.0333 7.04465 29.9285 6.71912C29.996 6.68566 30.0703 6.66824 30.1456 6.66824C30.2209 6.66824 30.2951 6.68566 30.3626 6.71912C30.4677 6.8311 30.5485 6.96362 30.5998 7.10836C30.6512 7.25309 30.672 7.40689 30.661 7.56007C31.7114 11.1394 33.0824 14.6167 34.7572 17.9498V18.1668L29.3317 23.9992L29.5216 24.1891ZM29.8472 7.45156C28.543 9.72099 27.8599 12.2941 27.8669 14.9115C27.3327 17.7712 27.8737 20.7274 29.386 23.2125L33.9434 18.2211C32.2773 14.8716 30.9242 11.3755 29.9014 7.77708C29.9268 7.67006 29.9268 7.55858 29.9014 7.45156H29.8472Z" fill="#0A0A0A"/>
    <path d="M93.2705 22.6428C93.2705 22.6428 96.3901 30.4555 97.421 30.781C98.4518 31.1065 102.467 17.6243 103.091 16.295C103.714 14.9658 94.7896 18.4652 93.2705 22.6428Z" fill="#D1D2D4"/>
    <path d="M97.6648 30.998H97.4749C96.3898 30.781 94.0569 25.1657 93.1074 22.8598V22.7242C94.2196 19.0078 100.025 16.295 102.141 15.7796C102.9 15.5897 103.28 15.6169 103.443 15.7796C103.496 15.8652 103.524 15.9639 103.524 16.0645C103.524 16.1651 103.496 16.2637 103.443 16.3493C103.226 16.7562 102.656 18.4381 101.978 20.3913C99.5366 27.4986 98.3159 30.6996 97.5292 30.8895L97.6648 30.998ZM93.6228 22.6428C94.5539 25.3458 95.8304 27.917 97.4207 30.2927C99.0431 27.0711 100.378 23.7123 101.408 20.2556C102.032 18.411 102.521 17.0004 102.792 16.3493H102.276C99.9164 16.9461 94.7622 19.6588 93.6228 22.5343V22.6428Z" fill="#0A0A0A"/>
    <path d="M59.4426 46.5419C44.6331 45.2775 29.7452 45.2231 14.9268 46.3792C13.7875 53.9477 16.3917 53.4323 16.3917 53.4323C16.3917 53.4323 71.6228 56.7147 84.2098 59.1019C91.2629 60.4582 97.7735 61.4619 98.3974 60.621C98.9841 58.253 99.2487 55.8167 99.1841 53.378C99.1841 53.378 72.6265 47.8169 59.4426 46.5419Z" fill="#634366"/>
    <path d="M97.9634 61.1635C96.5257 61.5162 92.1039 60.9736 84.0471 59.4545C71.7042 56.9859 16.9072 53.812 16.2833 53.7849C16.0659 53.7967 15.849 53.7561 15.6506 53.6663C15.4523 53.5766 15.2785 53.4405 15.1439 53.2695C14.1945 52.2387 14.0046 49.9057 14.5471 46.3249V46.135H14.737C29.5957 44.9108 44.5298 44.9108 59.3885 46.135C72.4367 47.41 98.8044 52.944 99.0756 52.9982H99.3469V53.595C99.4591 56.0139 99.1657 58.4346 98.4788 60.7566C98.3295 60.9243 98.1294 61.0386 97.9092 61.0821L97.9634 61.1635ZM15.1982 46.6776C14.6014 50.8823 15.1982 52.32 15.6593 52.7812C15.7379 52.8773 15.8374 52.9542 15.9503 53.0059C16.0631 53.0576 16.1863 53.0828 16.3104 53.0796C16.9343 53.0796 71.7856 56.3891 84.1285 58.7492C88.5593 59.8931 93.1161 60.4764 97.6921 60.4854C97.882 60.4854 97.9363 60.4854 97.9363 60.4854C98.4277 58.2772 98.6644 56.0199 98.6416 53.7578C95.9289 53.161 71.5143 48.1696 59.28 46.976C44.6155 45.7444 29.878 45.6446 15.1982 46.6776Z" fill="#0A0A0A"/>
    <path d="M112.015 96.5103C112.097 97.8162 112.5 99.0815 113.19 100.193C113.88 101.305 114.834 102.229 115.968 102.882C117.102 103.534 118.38 103.896 119.688 103.935C120.996 103.973 122.293 103.687 123.463 103.102C130.353 100.39 130.408 91.329 129.133 88.2637C127.858 85.1983 123.463 82.8382 118.282 85.3339C116.15 86.2438 114.379 87.8335 113.246 89.8553C112.112 91.877 111.68 94.217 112.015 96.5103Z" fill="#F9D8B7"/>
    <path d="M122.079 103.835C120.906 104.181 119.67 104.258 118.463 104.061C117.256 103.864 116.109 103.397 115.108 102.695C113.199 101.183 111.962 98.9811 111.662 96.5646C111.286 94.196 111.704 91.7693 112.853 89.6638C114.001 87.5582 115.815 85.8925 118.01 84.927C118.713 84.5822 119.449 84.3095 120.207 84.1132C121.953 83.5515 123.843 83.6404 125.528 84.3634C127.214 85.0864 128.58 86.3946 129.376 88.0466C130.4 91.1899 130.314 94.5895 129.132 97.6768C128.675 98.9829 127.941 100.175 126.982 101.172C126.022 102.169 124.859 102.948 123.571 103.455C123.092 103.637 122.603 103.791 122.106 103.916L122.079 103.835ZM120.37 84.8456C119.649 85.0368 118.949 85.3004 118.281 85.6323C116.228 86.5284 114.529 88.0787 113.45 90.0416C112.37 92.0045 111.971 94.2694 112.313 96.4832C112.584 98.7173 113.724 100.755 115.487 102.153C116.437 102.813 117.527 103.242 118.671 103.407C119.815 103.572 120.982 103.468 122.079 103.102C122.558 102.987 123.029 102.842 123.49 102.668C124.702 102.201 125.797 101.472 126.698 100.535C127.598 99.5973 128.281 98.4734 128.698 97.2428C129.798 94.3671 129.903 91.206 128.997 88.2637C128.251 86.7519 126.982 85.5616 125.426 84.9133C123.87 84.2649 122.132 84.2023 120.533 84.7371L120.37 84.8456Z" fill="#0A0A0A"/>
    <path d="M129.024 84.7371L109.492 88.1823L108.814 83.4621L128.319 79.9898L129.024 84.7371Z" fill="#ABB7B5"/>
    <path d="M129.377 85.0084L109.249 88.562L108.462 83.1366L128.59 79.5829L129.377 85.0084ZM109.764 87.7211L128.753 84.3844L128.156 80.3425L109.167 83.6791L109.737 87.7211H109.764Z" fill="#0A0A0A"/>
    <path d="M105.641 33.4395L115 82.377L117.848 81.8616L112.26 42.6899L105.641 33.4395Z" fill="#C2BFB0"/>
    <path d="M118.2 82.16L114.755 82.7839L105.342 33.5208L105.885 33.2224L112.531 42.5271L118.173 82.0515L118.2 82.16ZM115.243 81.9701L117.495 81.5632L112.07 42.8255L106.346 34.6873L115.352 81.8345L115.243 81.9701Z" fill="#0A0A0A"/>
    <path d="M105.641 33.4395L112.26 42.6899L117.767 32.5171L110.551 21.8833L105.641 33.4395Z" fill="#EEEADE"/>
    <path d="M112.286 43.4223L105.288 33.6022L110.496 21.3407L118.146 32.5714L112.286 43.4223ZM106.02 33.3852L112.232 42.0659L117.386 32.5714L110.605 22.5886L106.02 33.4395V33.3852Z" fill="#0A0A0A"/>
    <path d="M117.848 81.8616L121.293 81.2648L117.766 32.5172L112.26 42.6899L117.848 81.8616Z" fill="#DCD7C8"/>
    <path d="M121.618 81.5361L117.576 82.2414V81.8888L111.934 42.6085L118.01 31.4049L121.645 81.5361H121.618ZM118.091 81.5361L120.94 81.0478L117.522 33.6294L112.585 42.7441L118.01 81.4547L118.091 81.5361Z" fill="#0A0A0A"/>
    <path d="M124.603 102.533L119.259 103.021L115.949 87.0429L122.161 85.9307L124.603 102.533Z" fill="#7E848E"/>
    <path d="M124.982 102.858L119.014 103.428L115.569 86.8259L122.405 85.6052L124.955 102.912L124.982 102.858ZM119.557 102.668L124.304 102.234L121.971 86.3647L116.546 87.3413L119.72 102.668H119.557Z" fill="#0A0A0A"/>
    <path d="M114.809 98.4635L114.294 98.0837C114.294 98.0837 117.007 93.3364 116.437 90.8407C116.437 90.3796 116.111 90.2711 115.976 90.2439C115.135 89.9998 113.263 91.6003 112.422 92.6311L111.961 92.2514C112.232 91.953 114.674 89.2674 116.111 89.5386C116.351 89.6162 116.564 89.7588 116.726 89.9504C116.889 90.142 116.996 90.3751 117.034 90.6237C117.793 93.3364 114.918 98.2465 114.809 98.4364V98.4635Z" fill="#0A0A0A"/>
    <g style="mix-blend-mode:multiply" opacity="0.72">
        <path d="M59.4971 136.686C59.4971 136.686 73.5761 143.847 62.8337 152.962C65.88 152.46 68.7418 151.17 71.1347 149.219L69.1001 133.186C66.1497 134.951 62.8909 136.138 59.4971 136.686Z" fill="#C04396"/>
    </g>
    <g style="mix-blend-mode:multiply" opacity="0.5">
        <path d="M73.4403 57.3115C73.4403 57.3115 95.7661 97.0258 46.937 95.7236C46.937 95.7236 63.2134 99.3587 74.0643 93.0109C80.8782 88.7038 86.0395 82.2235 88.713 74.6186C88.713 74.6186 96.4714 79.2845 97.3666 71.0921C98.2618 62.8997 91.6427 63.7406 90.1779 65.4768C89.0438 67.0246 88.1308 68.7228 87.4651 70.5224C86.4605 66.3746 85.0616 62.3323 83.2875 58.4508L73.4403 57.3115Z" fill="#D76B2A"/>
    </g>
</svg>
