<svg width="211" height="168" viewBox="0 0 211 168" fill="none" xmlns="http://www.w3.org/2000/svg">
    <path d="M198.15 109.53C197.775 109.478 197.395 109.478 197.02 109.53C197.513 109.242 197.937 108.85 198.264 108.382C198.59 107.914 198.811 107.38 198.911 106.818C199.011 106.256 198.987 105.679 198.842 105.127C198.697 104.575 198.434 104.061 198.071 103.621C197.708 103.181 197.253 102.825 196.739 102.578C196.224 102.33 195.662 102.198 195.091 102.189C194.521 102.18 193.955 102.296 193.433 102.527C192.912 102.759 192.446 103.101 192.07 103.53H192.02C192.365 103.11 192.619 102.624 192.766 102.101C192.914 101.578 192.952 101.031 192.878 100.493C192.803 99.955 192.619 99.4382 192.336 98.9749C192.052 98.5116 191.676 98.1118 191.231 97.8008C190.786 97.4897 190.281 97.274 189.749 97.1673C189.216 97.0605 188.668 97.065 188.137 97.1805C187.606 97.2959 187.105 97.5198 186.665 97.8381C186.225 98.1563 185.856 98.5621 185.58 99.03C169.91 90.4 140.58 86.4 107.58 89.67C74.31 92.97 46.11 102.8 32.58 114.47C32.2341 114.011 31.7918 113.632 31.2842 113.362C30.7766 113.092 30.216 112.936 29.6418 112.905C29.0675 112.875 28.4935 112.97 27.9601 113.185C27.4267 113.4 26.9468 113.729 26.5541 114.149C26.1614 114.57 25.8654 115.071 25.687 115.617C25.5085 116.164 25.4519 116.743 25.5211 117.314C25.5902 117.885 25.7835 118.434 26.0874 118.922C26.3913 119.41 26.7983 119.826 27.28 120.14C26.7516 119.748 26.1322 119.497 25.48 119.41C24.4967 119.292 23.505 119.547 22.7012 120.126C21.8975 120.705 21.3404 121.564 21.1404 122.534C20.9404 123.504 21.112 124.514 21.6213 125.363C22.1305 126.212 22.9402 126.839 23.89 127.12C23.3226 127.138 22.7658 127.278 22.2574 127.531C21.749 127.783 21.301 128.142 20.944 128.584C20.587 129.025 20.3293 129.538 20.1885 130.088C20.0477 130.638 20.0271 131.212 20.128 131.771C20.229 132.329 20.4492 132.86 20.7736 133.325C21.098 133.791 21.5191 134.182 22.008 134.47C22.4969 134.759 23.0423 134.938 23.6069 134.997C24.1716 135.056 24.7422 134.992 25.28 134.81C24.8228 135.09 24.4277 135.461 24.1188 135.9C23.81 136.338 23.594 136.835 23.4839 137.36C23.3739 137.885 23.3722 138.427 23.479 138.953C23.5858 139.478 23.7987 139.977 24.1049 140.417C24.411 140.858 24.8038 141.231 25.2593 141.514C25.7147 141.797 26.2232 141.985 26.7536 142.065C27.284 142.144 27.8251 142.115 28.3438 141.979C28.8625 141.842 29.3478 141.601 29.77 141.27C29.5039 141.728 29.3338 142.235 29.27 142.76C29.152 143.653 29.3433 144.559 29.8119 145.327C30.2806 146.096 30.9985 146.681 31.846 146.985C32.6935 147.289 33.6195 147.294 34.47 146.998C35.3204 146.702 36.0439 146.124 36.52 145.36L36.47 145.59C36.3503 146.472 36.5333 147.368 36.9892 148.132C37.445 148.896 38.1466 149.483 38.9793 149.797C39.812 150.11 40.7264 150.132 41.5731 149.858C42.4197 149.585 43.1484 149.032 43.64 148.29L43.92 148.39L43.86 148.63C43.7841 149.517 44.0106 150.403 44.5025 151.144C44.9944 151.886 45.7227 152.439 46.569 152.713C47.4153 152.988 48.3297 152.968 49.1633 152.657C49.9969 152.346 50.7006 151.762 51.16 151V151.2C51.2058 152.097 51.5563 152.951 52.1537 153.621C52.751 154.291 53.5593 154.737 54.4446 154.885C55.33 155.033 56.2395 154.875 57.0224 154.435C57.8054 153.996 58.4149 153.303 58.75 152.47V152.7C58.8014 153.617 59.1719 154.488 59.7974 155.161C60.4228 155.834 61.2639 156.268 62.1751 156.386C63.0863 156.505 64.0103 156.302 64.7873 155.811C65.5643 155.32 66.1453 154.574 66.43 153.7H66.59C66.5756 153.91 66.5756 154.12 66.59 154.33C66.6406 155.318 67.0611 156.251 67.7677 156.943C68.4744 157.635 69.4157 158.036 70.4044 158.066C71.3932 158.097 72.3572 157.754 73.1048 157.106C73.8525 156.458 74.3291 155.553 74.44 154.57H74.9C74.9204 155.535 75.2943 156.459 75.9508 157.167C76.6073 157.874 77.5007 158.316 78.4615 158.409C79.4223 158.501 80.3836 158.238 81.1631 157.668C81.9425 157.099 82.4859 156.263 82.69 155.32V155.55C82.8989 156.441 83.4111 157.231 84.1389 157.785C84.8667 158.339 85.7646 158.623 86.6787 158.587C87.5928 158.552 88.466 158.199 89.1487 157.591C89.8313 156.982 90.2808 156.154 90.42 155.25H90.6C90.6106 155.435 90.634 155.619 90.67 155.8C90.8777 156.727 91.4144 157.548 92.1807 158.11C92.9471 158.672 93.8911 158.938 94.8381 158.857C95.785 158.777 96.6707 158.356 97.3311 157.672C97.9915 156.989 98.3819 156.089 98.43 155.14H98.64C98.7709 156.09 99.2446 156.959 99.9719 157.584C100.699 158.209 101.63 158.547 102.589 158.533C103.547 158.52 104.468 158.156 105.178 157.511C105.887 156.866 106.336 155.983 106.44 155.03V155.26C106.721 156.155 107.312 156.92 108.107 157.417C108.903 157.914 109.85 158.11 110.777 157.97C111.704 157.83 112.551 157.363 113.164 156.653C113.777 155.944 114.116 155.038 114.12 154.1H114.26C114.336 154.676 114.537 155.229 114.849 155.72C115.16 156.211 115.575 156.628 116.065 156.942C116.554 157.256 117.106 157.46 117.682 157.539C118.258 157.618 118.844 157.571 119.4 157.4C120.263 157.109 121.002 156.532 121.492 155.765C121.983 154.998 122.198 154.086 122.1 153.18H122.29C122.431 154.161 122.937 155.053 123.708 155.677C124.479 156.3 125.457 156.609 126.446 156.542C127.435 156.475 128.362 156.037 129.042 155.315C129.721 154.593 130.103 153.641 130.11 152.65L130.18 152.87C130.575 153.745 131.277 154.446 132.152 154.84C133.028 155.234 134.017 155.295 134.934 155.012C135.852 154.728 136.634 154.119 137.134 153.299C137.634 152.48 137.818 151.505 137.65 150.56H137.78C137.854 151.101 138.039 151.621 138.325 152.086C138.61 152.551 138.99 152.952 139.439 153.262C139.888 153.573 140.397 153.786 140.933 153.889C141.469 153.992 142.021 153.982 142.553 153.86C143.085 153.738 143.586 153.507 144.023 153.18C144.461 152.854 144.826 152.44 145.095 151.965C145.363 151.49 145.53 150.964 145.585 150.421C145.639 149.878 145.579 149.329 145.41 148.81L145.84 148.7C146.095 149.662 146.706 150.491 147.549 151.02C148.391 151.549 149.403 151.739 150.38 151.551C151.357 151.363 152.227 150.812 152.813 150.008C153.4 149.204 153.659 148.208 153.54 147.22L153.64 147.43C154.137 148.248 154.915 148.856 155.828 149.141C156.742 149.426 157.728 149.368 158.602 148.978C159.475 148.588 160.177 147.892 160.574 147.022C160.971 146.151 161.038 145.166 160.76 144.25H160.89C160.987 144.562 161.121 144.861 161.29 145.14C161.766 145.9 162.486 146.474 163.333 146.769C164.179 147.064 165.101 147.062 165.946 146.762C166.79 146.463 167.508 145.884 167.98 145.122C168.451 144.36 168.649 143.46 168.54 142.57C168.627 142.695 168.72 142.815 168.82 142.93C169.446 143.574 170.274 143.985 171.166 144.095C172.058 144.204 172.96 144.006 173.724 143.532C174.487 143.058 175.066 142.337 175.363 141.489C175.661 140.641 175.66 139.717 175.36 138.87L175.51 139.05C176.16 139.739 177.037 140.169 177.98 140.263C178.922 140.356 179.867 140.106 180.64 139.558C181.412 139.011 181.961 138.202 182.186 137.282C182.41 136.362 182.294 135.392 181.86 134.55L181.97 134.48C182.116 134.718 182.287 134.939 182.48 135.14C183.153 135.841 184.062 136.269 185.031 136.341C186 136.413 186.962 136.124 187.731 135.529C188.5 134.935 189.023 134.078 189.198 133.121C189.373 132.165 189.189 131.178 188.68 130.35C189.436 130.843 190.339 131.06 191.237 130.965C192.134 130.871 192.972 130.47 193.609 129.831C194.246 129.191 194.643 128.352 194.735 127.454C194.826 126.556 194.605 125.654 194.11 124.9C194.428 125.045 194.765 125.146 195.11 125.2C196.062 125.33 197.029 125.107 197.828 124.573C198.628 124.04 199.204 123.233 199.45 122.304C199.696 121.375 199.594 120.388 199.163 119.529C198.732 118.67 198.002 117.998 197.11 117.64L197.16 117.41C197.675 117.47 198.198 117.427 198.697 117.285C199.196 117.143 199.662 116.904 200.069 116.582C200.475 116.26 200.815 115.861 201.067 115.407C201.32 114.954 201.48 114.455 201.54 113.94C201.6 113.425 201.557 112.902 201.415 112.403C201.273 111.904 201.034 111.438 200.712 111.031C200.39 110.625 199.991 110.285 199.537 110.033C199.084 109.78 198.585 109.62 198.07 109.56L198.15 109.53ZM23.2 132.2C22.9784 132.251 22.7466 132.236 22.5338 132.156C22.3209 132.075 22.1367 131.934 22.0044 131.749C21.872 131.564 21.7976 131.344 21.7903 131.116C21.7831 130.889 21.8434 130.665 21.9637 130.472C22.0841 130.279 22.2589 130.126 22.4662 130.032C22.6735 129.938 22.9039 129.908 23.1283 129.945C23.3527 129.983 23.561 130.086 23.7268 130.241C23.8927 130.397 24.0086 130.598 24.06 130.82C24.1289 131.117 24.077 131.429 23.9157 131.688C23.7545 131.947 23.497 132.131 23.2 132.2ZM26.57 139.52C26.3484 139.571 26.1166 139.556 25.9038 139.476C25.6909 139.396 25.5067 139.254 25.3744 139.069C25.242 138.884 25.1676 138.664 25.1603 138.436C25.1531 138.209 25.2134 137.985 25.3337 137.792C25.4541 137.599 25.6289 137.446 25.8362 137.352C26.0435 137.258 26.2739 137.228 26.4983 137.265C26.7227 137.303 26.931 137.406 27.0968 137.561C27.2627 137.717 27.3786 137.918 27.43 138.14C27.4989 138.437 27.447 138.749 27.2857 139.008C27.1245 139.267 26.867 139.451 26.57 139.52ZM24.09 123.94C23.8684 123.991 23.6366 123.976 23.4238 123.896C23.2109 123.815 23.0267 123.674 22.8944 123.489C22.762 123.304 22.6876 123.084 22.6803 122.856C22.6731 122.629 22.7334 122.405 22.8537 122.212C22.9741 122.019 23.1489 121.866 23.3562 121.772C23.5635 121.678 23.7939 121.648 24.0183 121.685C24.2427 121.723 24.451 121.826 24.6168 121.981C24.7827 122.137 24.8986 122.338 24.95 122.56C25.0189 122.857 24.967 123.169 24.8057 123.428C24.6445 123.687 24.387 123.871 24.09 123.94ZM32.73 144.64C32.5086 144.693 32.2763 144.68 32.0625 144.601C31.8488 144.522 31.6633 144.382 31.5295 144.198C31.3957 144.013 31.3197 143.793 31.3111 143.566C31.3025 143.338 31.3616 143.113 31.4811 142.919C31.6006 142.725 31.7749 142.571 31.9821 142.476C32.1892 142.382 32.4199 142.35 32.6447 142.387C32.8695 142.424 33.0785 142.526 33.245 142.681C33.4115 142.837 33.5281 143.038 33.58 143.26C33.6492 143.556 33.5987 143.867 33.4394 144.125C33.2802 144.384 33.0252 144.569 32.73 144.64ZM29.52 117.14C29.2984 117.191 29.0666 117.176 28.8538 117.096C28.6409 117.016 28.4567 116.874 28.3244 116.689C28.192 116.504 28.1176 116.284 28.1103 116.056C28.1031 115.829 28.1634 115.605 28.2837 115.412C28.4041 115.219 28.5789 115.066 28.7862 114.972C28.9935 114.878 29.2239 114.848 29.4483 114.885C29.6727 114.923 29.881 115.026 30.0468 115.181C30.2127 115.337 30.3286 115.538 30.38 115.76C30.4489 116.057 30.397 116.369 30.2357 116.628C30.0745 116.887 29.817 117.071 29.52 117.14ZM40.26 148.57C40.0386 148.623 39.8063 148.61 39.5925 148.531C39.3788 148.452 39.1933 148.312 39.0595 148.128C38.9257 147.943 38.8497 147.723 38.8411 147.496C38.8325 147.268 38.8916 147.043 39.0111 146.849C39.1306 146.655 39.3049 146.501 39.5121 146.406C39.7192 146.312 39.9499 146.28 40.1747 146.317C40.3995 146.354 40.6085 146.456 40.775 146.611C40.9415 146.767 41.0581 146.968 41.11 147.19C41.1792 147.486 41.1287 147.797 40.9694 148.055C40.8102 148.314 40.5552 148.499 40.26 148.57ZM47.31 151.42C47.0884 151.471 46.8566 151.456 46.6438 151.376C46.4309 151.295 46.2467 151.154 46.1144 150.969C45.982 150.784 45.9076 150.564 45.9003 150.336C45.8931 150.109 45.9534 149.885 46.0737 149.692C46.1941 149.499 46.3689 149.346 46.5762 149.252C46.7835 149.158 47.0139 149.128 47.2383 149.165C47.4627 149.203 47.671 149.306 47.8368 149.461C48.0027 149.617 48.1186 149.818 48.17 150.04C48.2389 150.337 48.187 150.649 48.0257 150.908C47.8645 151.167 47.607 151.351 47.31 151.42ZM55.31 153.21C55.0884 153.261 54.8566 153.246 54.6438 153.166C54.4309 153.085 54.2467 152.944 54.1144 152.759C53.982 152.574 53.9076 152.354 53.9003 152.126C53.8931 151.899 53.9534 151.675 54.0737 151.482C54.1941 151.289 54.3689 151.136 54.5762 151.042C54.7835 150.948 55.0139 150.918 55.2383 150.955C55.4627 150.993 55.671 151.096 55.8368 151.251C56.0027 151.407 56.1186 151.608 56.17 151.83C56.2389 152.127 56.187 152.439 56.0257 152.698C55.8645 152.957 55.607 153.141 55.31 153.21ZM62.35 155C62.1284 155.051 61.8966 155.036 61.6838 154.956C61.4709 154.876 61.2867 154.734 61.1544 154.549C61.022 154.364 60.9476 154.144 60.9403 153.916C60.9331 153.689 60.9934 153.465 61.1137 153.272C61.2341 153.079 61.4089 152.926 61.6162 152.832C61.8235 152.738 62.0539 152.708 62.2783 152.745C62.5027 152.783 62.711 152.886 62.8768 153.041C63.0427 153.197 63.1586 153.398 63.21 153.62C63.2789 153.917 63.227 154.229 63.0657 154.488C62.9045 154.747 62.647 154.931 62.35 155ZM70.64 156.36C70.4184 156.411 70.1866 156.396 69.9738 156.316C69.7609 156.236 69.5767 156.094 69.4444 155.909C69.312 155.724 69.2376 155.504 69.2303 155.276C69.2231 155.049 69.2834 154.825 69.4037 154.632C69.5241 154.439 69.6989 154.286 69.9062 154.192C70.1135 154.098 70.3439 154.068 70.5683 154.105C70.7927 154.143 71.001 154.246 71.1668 154.401C71.3326 154.557 71.4486 154.758 71.5 154.98C71.5662 155.277 71.5131 155.588 71.3523 155.846C71.1914 156.104 70.9356 156.289 70.64 156.36ZM78.83 156.8C78.6086 156.853 78.3763 156.84 78.1625 156.761C77.9488 156.682 77.7633 156.542 77.6295 156.358C77.4957 156.173 77.4197 155.953 77.4111 155.726C77.4025 155.498 77.4616 155.273 77.5811 155.079C77.7006 154.885 77.8749 154.731 78.0821 154.636C78.2892 154.542 78.5199 154.51 78.7447 154.547C78.9695 154.584 79.1784 154.686 79.345 154.841C79.5115 154.997 79.6281 155.198 79.68 155.42C79.7492 155.716 79.6987 156.027 79.5394 156.285C79.3802 156.544 79.1252 156.729 78.83 156.8ZM87.1 157.21C86.8794 157.252 86.6512 157.229 86.4438 157.142C86.2363 157.056 86.0586 156.911 85.9327 156.725C85.8067 156.539 85.7379 156.321 85.7348 156.096C85.7317 155.872 85.7945 155.651 85.9153 155.462C86.0362 155.272 86.2098 155.122 86.4148 155.031C86.6199 154.939 86.8473 154.909 87.069 154.945C87.2907 154.981 87.497 155.081 87.6624 155.233C87.8279 155.385 87.9452 155.582 88 155.8C88.0689 156.097 88.017 156.409 87.8557 156.668C87.6945 156.927 87.437 157.111 87.14 157.18L87.1 157.21ZM94.86 157.16C94.7118 157.197 94.5575 157.205 94.4063 157.182C94.2552 157.159 94.1101 157.107 93.9795 157.027C93.849 156.947 93.7356 156.842 93.6461 156.719C93.5565 156.595 93.4926 156.454 93.458 156.305C93.4234 156.156 93.4189 156.002 93.4447 155.851C93.4705 155.7 93.5261 155.556 93.6082 155.427C93.6903 155.298 93.7973 155.187 93.923 155.1C94.0486 155.013 94.1904 154.952 94.34 154.92C94.4882 154.883 94.6425 154.875 94.7936 154.898C94.9448 154.921 95.0899 154.973 95.2205 155.053C95.351 155.133 95.4644 155.238 95.5539 155.361C95.6435 155.485 95.7074 155.626 95.742 155.775C95.7766 155.924 95.7811 156.078 95.7553 156.229C95.7295 156.38 95.6739 156.524 95.5918 156.653C95.5097 156.782 95.4027 156.893 95.277 156.98C95.1514 157.067 95.0096 157.128 94.86 157.16ZM102.86 157.04C102.638 157.091 102.407 157.076 102.194 156.996C101.981 156.915 101.797 156.774 101.664 156.589C101.532 156.404 101.458 156.184 101.45 155.956C101.443 155.729 101.503 155.505 101.624 155.312C101.744 155.119 101.919 154.966 102.126 154.872C102.333 154.778 102.564 154.748 102.788 154.785C103.013 154.823 103.221 154.926 103.387 155.081C103.553 155.237 103.669 155.438 103.72 155.66C103.789 155.957 103.737 156.269 103.576 156.528C103.414 156.787 103.157 156.971 102.86 157.04ZM110.57 156.97C110.348 157.021 110.117 157.006 109.904 156.926C109.691 156.846 109.507 156.704 109.374 156.519C109.242 156.334 109.168 156.114 109.16 155.886C109.153 155.659 109.213 155.435 109.334 155.242C109.454 155.049 109.629 154.896 109.836 154.802C110.043 154.708 110.274 154.678 110.498 154.715C110.723 154.753 110.931 154.856 111.097 155.011C111.263 155.167 111.379 155.368 111.43 155.59C111.499 155.887 111.447 156.199 111.286 156.458C111.124 156.717 110.867 156.901 110.57 156.97ZM118.75 156.23C118.528 156.281 118.297 156.266 118.084 156.186C117.871 156.105 117.687 155.964 117.554 155.779C117.422 155.594 117.348 155.374 117.34 155.146C117.333 154.919 117.393 154.695 117.514 154.502C117.634 154.309 117.809 154.156 118.016 154.062C118.223 153.968 118.454 153.938 118.678 153.975C118.903 154.013 119.111 154.116 119.277 154.271C119.443 154.427 119.559 154.628 119.61 154.85C119.679 155.147 119.627 155.459 119.466 155.718C119.304 155.977 119.047 156.161 118.75 156.23ZM126.75 154.85C126.528 154.901 126.297 154.886 126.084 154.806C125.871 154.725 125.687 154.584 125.554 154.399C125.422 154.214 125.348 153.994 125.34 153.766C125.333 153.539 125.393 153.315 125.514 153.122C125.634 152.929 125.809 152.776 126.016 152.682C126.223 152.588 126.454 152.558 126.678 152.595C126.903 152.633 127.111 152.736 127.277 152.891C127.443 153.047 127.559 153.248 127.61 153.47C127.679 153.767 127.627 154.079 127.466 154.338C127.304 154.597 127.047 154.781 126.75 154.85ZM133.85 153.85C133.628 153.901 133.397 153.886 133.184 153.806C132.971 153.725 132.787 153.584 132.654 153.399C132.522 153.214 132.448 152.994 132.44 152.766C132.433 152.539 132.493 152.315 132.614 152.122C132.734 151.929 132.909 151.776 133.116 151.682C133.323 151.588 133.554 151.558 133.778 151.595C134.003 151.633 134.211 151.736 134.377 151.891C134.543 152.047 134.659 152.248 134.71 152.47C134.779 152.767 134.727 153.079 134.566 153.338C134.404 153.597 134.147 153.781 133.85 153.85ZM142.35 152.36C142.128 152.411 141.897 152.396 141.684 152.316C141.471 152.236 141.287 152.094 141.154 151.909C141.022 151.724 140.948 151.504 140.94 151.276C140.933 151.049 140.993 150.825 141.114 150.632C141.234 150.439 141.409 150.286 141.616 150.192C141.823 150.098 142.054 150.068 142.278 150.105C142.503 150.143 142.711 150.246 142.877 150.401C143.043 150.557 143.159 150.758 143.21 150.98C143.246 151.127 143.251 151.28 143.227 151.429C143.203 151.579 143.149 151.722 143.069 151.85C142.989 151.979 142.884 152.09 142.761 152.177C142.637 152.265 142.498 152.327 142.35 152.36ZM150.07 150.05C149.848 150.101 149.617 150.086 149.404 150.006C149.191 149.926 149.007 149.784 148.874 149.599C148.742 149.414 148.668 149.194 148.66 148.966C148.653 148.739 148.713 148.515 148.834 148.322C148.954 148.129 149.129 147.976 149.336 147.882C149.543 147.788 149.774 147.758 149.998 147.795C150.223 147.833 150.431 147.936 150.597 148.091C150.763 148.247 150.879 148.448 150.93 148.67C150.999 148.967 150.947 149.279 150.786 149.538C150.624 149.797 150.367 149.981 150.07 150.05ZM157.48 147.63C157.258 147.681 157.027 147.666 156.814 147.586C156.601 147.506 156.417 147.364 156.284 147.179C156.152 146.994 156.078 146.774 156.07 146.546C156.063 146.319 156.123 146.095 156.244 145.902C156.364 145.709 156.539 145.556 156.746 145.462C156.953 145.368 157.184 145.338 157.408 145.375C157.633 145.413 157.841 145.516 158.007 145.671C158.173 145.827 158.289 146.028 158.34 146.25C158.409 146.547 158.357 146.859 158.196 147.118C158.034 147.377 157.777 147.561 157.48 147.63ZM164.98 145.37C164.758 145.421 164.527 145.406 164.314 145.326C164.101 145.245 163.917 145.104 163.784 144.919C163.652 144.734 163.578 144.514 163.57 144.286C163.563 144.059 163.623 143.835 163.744 143.642C163.864 143.449 164.039 143.296 164.246 143.202C164.453 143.108 164.684 143.078 164.908 143.115C165.133 143.153 165.341 143.256 165.507 143.411C165.673 143.567 165.789 143.768 165.84 143.99C165.909 144.287 165.857 144.599 165.696 144.858C165.534 145.117 165.277 145.301 164.98 145.37ZM172.61 142.37C172.388 142.421 172.157 142.406 171.944 142.326C171.731 142.245 171.547 142.104 171.414 141.919C171.282 141.734 171.208 141.514 171.2 141.286C171.193 141.059 171.253 140.835 171.374 140.642C171.494 140.449 171.669 140.296 171.876 140.202C172.083 140.108 172.314 140.078 172.538 140.115C172.763 140.153 172.971 140.256 173.137 140.411C173.303 140.567 173.419 140.768 173.47 140.99C173.539 141.287 173.487 141.599 173.326 141.858C173.164 142.117 172.907 142.301 172.61 142.37ZM179.22 138.49C178.998 138.541 178.767 138.526 178.554 138.446C178.341 138.365 178.157 138.224 178.024 138.039C177.892 137.854 177.818 137.634 177.81 137.406C177.803 137.179 177.863 136.955 177.984 136.762C178.104 136.569 178.279 136.416 178.486 136.322C178.693 136.228 178.924 136.198 179.148 136.235C179.373 136.273 179.581 136.376 179.747 136.531C179.913 136.687 180.029 136.888 180.08 137.11C180.149 137.407 180.097 137.719 179.936 137.978C179.774 138.237 179.517 138.421 179.22 138.49ZM186.22 134.49C185.998 134.541 185.767 134.526 185.554 134.446C185.341 134.365 185.157 134.224 185.024 134.039C184.892 133.854 184.818 133.634 184.81 133.406C184.803 133.179 184.863 132.955 184.984 132.762C185.104 132.569 185.279 132.416 185.486 132.322C185.693 132.228 185.924 132.198 186.148 132.235C186.373 132.273 186.581 132.376 186.747 132.531C186.913 132.687 187.029 132.888 187.08 133.11C187.149 133.407 187.097 133.719 186.936 133.978C186.774 134.237 186.517 134.421 186.22 134.49ZM192.08 128.98C191.858 129.031 191.627 129.016 191.414 128.936C191.201 128.855 191.017 128.714 190.884 128.529C190.752 128.344 190.678 128.124 190.67 127.896C190.663 127.669 190.723 127.445 190.844 127.252C190.964 127.059 191.139 126.906 191.346 126.812C191.553 126.718 191.784 126.688 192.008 126.725C192.233 126.763 192.441 126.866 192.607 127.021C192.773 127.177 192.889 127.378 192.94 127.6C193.009 127.897 192.957 128.209 192.796 128.468C192.634 128.727 192.377 128.911 192.08 128.98ZM189.57 101.22C189.348 101.271 189.117 101.256 188.904 101.176C188.691 101.095 188.507 100.954 188.374 100.769C188.242 100.584 188.168 100.364 188.16 100.136C188.153 99.9091 188.213 99.6847 188.334 99.4916C188.454 99.2986 188.629 99.1455 188.836 99.0519C189.043 98.9582 189.274 98.9281 189.498 98.9654C189.723 99.0027 189.931 99.1057 190.097 99.2614C190.263 99.4171 190.379 99.6184 190.43 99.84C190.499 100.137 190.447 100.449 190.286 100.708C190.124 100.967 189.867 101.151 189.57 101.22ZM196.99 122.77C196.768 122.821 196.537 122.806 196.324 122.726C196.111 122.645 195.927 122.504 195.794 122.319C195.662 122.134 195.588 121.914 195.58 121.686C195.573 121.459 195.633 121.235 195.754 121.042C195.874 120.849 196.049 120.696 196.256 120.602C196.463 120.508 196.694 120.478 196.918 120.515C197.143 120.553 197.351 120.656 197.517 120.811C197.683 120.967 197.799 121.168 197.85 121.39C197.919 121.687 197.867 121.999 197.706 122.258C197.544 122.517 197.287 122.701 196.99 122.77ZM194.46 105.46C194.409 105.238 194.424 105.007 194.504 104.794C194.585 104.581 194.726 104.397 194.911 104.264C195.096 104.132 195.316 104.058 195.544 104.05C195.771 104.043 195.995 104.103 196.188 104.224C196.381 104.344 196.534 104.519 196.628 104.726C196.722 104.933 196.752 105.164 196.715 105.388C196.677 105.613 196.574 105.821 196.419 105.987C196.263 106.153 196.062 106.269 195.84 106.32C195.543 106.389 195.231 106.337 194.972 106.176C194.713 106.014 194.529 105.757 194.46 105.46ZM198.97 114.61C198.748 114.661 198.517 114.646 198.304 114.566C198.091 114.486 197.907 114.344 197.774 114.159C197.642 113.974 197.568 113.754 197.56 113.526C197.553 113.299 197.613 113.075 197.734 112.882C197.854 112.689 198.029 112.536 198.236 112.442C198.443 112.348 198.674 112.318 198.898 112.355C199.123 112.393 199.331 112.496 199.497 112.651C199.663 112.807 199.779 113.008 199.83 113.23C199.899 113.527 199.847 113.839 199.686 114.098C199.524 114.357 199.267 114.541 198.97 114.61Z" fill="#FFF9D8"/>
    <path d="M186.43 49.46L21.67 66.46L37.74 124C37.74 124.16 37.84 124.32 37.89 124.48L38.04 124.98C42.53 137.19 74.79 144.07 113.04 140.49C152.23 136.82 183.26 123.49 183.93 110.32L186.46 49.49L186.43 49.46Z" fill="#FFE480"/>
    <path d="M37.05 114.81C36.7908 114.991 36.4987 115.121 36.19 115.19C35.9212 115.251 35.6453 115.274 35.37 115.26L35.86 117C36.1157 117.006 36.3711 116.979 36.62 116.92C36.941 116.849 37.244 116.713 37.51 116.52C37.51 116.52 38.7 116.24 38.8 117.31C38.9578 118.583 39.5986 119.746 40.59 120.56C40.9446 120.771 41.3378 120.909 41.7466 120.966C42.1554 121.022 42.5714 120.997 42.97 120.89C43.3254 120.815 43.6642 120.676 43.97 120.48C44.1706 120.344 44.3943 120.246 44.63 120.19C45.0377 120.105 45.4625 120.18 45.8163 120.399C46.1701 120.619 46.4257 120.967 46.53 121.37C46.8218 121.944 47.2975 122.404 47.8812 122.676C48.4649 122.947 49.1228 123.016 49.75 122.87C50.1119 122.794 50.4531 122.64 50.75 122.42H50.93C51.4109 122.283 51.9169 122.258 52.4091 122.346C52.9013 122.434 53.3668 122.634 53.77 122.93C54.83 123.86 55.53 124.84 57.4 124.4C57.6548 124.34 57.9053 124.263 58.15 124.17C58.37 124.09 58.59 124.03 58.8 123.97C60.91 123.48 62.41 124.59 63.48 126.11C64.1874 126.906 65.0984 127.494 66.115 127.811C67.1316 128.128 68.2155 128.163 69.25 127.91C70.2451 127.67 71.1613 127.178 71.91 126.48C72.3916 125.963 72.9924 125.572 73.66 125.34C74.0257 125.281 74.4008 125.324 74.7433 125.465C75.0859 125.606 75.3825 125.84 75.6 126.14C77.06 127.61 77.37 128.3 79.7 128.14C79.8032 128.149 79.9068 128.149 80.01 128.14C80.6776 127.916 81.2837 127.54 81.78 127.04C82.2115 126.604 82.7292 126.264 83.3 126.04C83.4235 126.009 83.5526 126.006 83.6773 126.032C83.802 126.058 83.9192 126.112 84.02 126.19C84.354 126.479 84.7476 126.691 85.1729 126.81C85.5981 126.929 86.0445 126.953 86.48 126.88C86.8893 126.776 87.2669 126.573 87.58 126.29C87.8656 126.039 88.2094 125.864 88.58 125.78C88.9501 125.709 89.3326 125.742 89.6854 125.874C90.0382 126.006 90.3478 126.233 90.58 126.53C91.1532 127.16 91.886 127.624 92.701 127.872C93.516 128.12 94.3828 128.144 95.21 127.94C95.9187 127.773 96.5946 127.489 97.21 127.1C97.9061 126.587 98.6658 126.167 99.47 125.85H99.62C101.051 125.718 102.488 126.036 103.73 126.76C105.888 128.007 108.423 128.434 110.87 127.96C112.409 127.569 113.845 126.849 115.08 125.85C115.608 125.389 116.228 125.048 116.9 124.85C117.769 124.689 118.667 124.857 119.42 125.32C120.087 125.766 120.894 125.954 121.69 125.85C122.406 125.63 123.045 125.21 123.53 124.64C123.928 124.19 124.45 123.866 125.03 123.71C126.38 123.39 127.7 124.33 129.23 124.87C130.836 125.441 132.573 125.531 134.23 125.13C134.919 124.963 135.589 124.725 136.23 124.42C137.93 123.62 139.46 121.73 141.23 121.32C141.616 121.229 142.016 121.218 142.406 121.287C142.796 121.355 143.169 121.503 143.5 121.72C145.78 123.09 148.03 123.8 149.94 123.35C151.67 122.94 153.12 121.58 154.05 118.89C154.54 117.48 155.05 116.83 155.71 116.68C156.37 116.53 157.31 116.91 158.52 117.53C159.914 118.241 161.514 118.439 163.04 118.09C164.318 117.808 165.463 117.104 166.29 116.09C167.2 114.94 167.29 112.33 168.42 112.09C168.646 112.065 168.875 112.088 169.092 112.157C169.309 112.225 169.51 112.339 169.68 112.49C170.17 112.796 170.717 112.999 171.287 113.087C171.858 113.175 172.441 113.145 173 113C173.268 112.939 173.529 112.852 173.78 112.74C173.78 112.74 176.49 119.41 169.25 123.12C161.65 127.4 151.67 131.04 140.06 133.76C131.067 135.835 121.942 137.295 112.75 138.13C76.65 141.51 44.42 135.64 37.55 123.13L37.78 123.96C37.78 124.12 37.88 124.28 37.93 124.44L38.08 124.94C42.57 137.15 74.83 144.03 113.08 140.45C114.54 140.31 115.993 140.16 117.44 140C125.275 139.122 133.051 137.786 140.73 136C152.78 133.17 163.07 129.42 170.59 125.2L171.06 124.93L172.22 124.25L172.75 123.93L173.82 123.25L174.31 122.92C174.66 122.69 175.01 122.46 175.31 122.22C176.02 121.71 176.68 121.22 177.31 120.68L177.84 120.25L178.5 119.65L179.04 119.15L179.61 118.58L180.13 118.02L180.61 117.48C180.8 117.26 180.98 117.04 181.15 116.81L181.49 116.38C181.76 116.02 181.99 115.66 182.22 115.3C182.3 115.17 182.37 115.04 182.44 114.91C182.51 114.78 182.72 114.41 182.84 114.17L183.04 113.73C183.15 113.49 183.24 113.25 183.33 113.01C183.42 112.77 183.43 112.72 183.48 112.57C183.53 112.42 183.62 112.06 183.68 111.81C183.74 111.56 183.74 111.56 183.76 111.44C183.826 111.076 183.87 110.709 183.89 110.34L184.34 99.51C184.01 99.5498 183.692 99.6596 183.407 99.832C183.123 100.004 182.878 100.236 182.69 100.51C182.03 101.7 182.95 103.11 182.17 104.37C181.921 104.74 181.601 105.058 181.229 105.303C180.856 105.549 180.439 105.718 180 105.8C179.62 105.889 179.23 105.929 178.84 105.92C178.268 105.862 177.692 105.862 177.12 105.92C176.63 106.04 176.31 106.39 176.12 107.38C175.994 108.344 175.582 109.248 174.936 109.976C174.291 110.703 173.442 111.22 172.5 111.46C171.907 111.597 171.291 111.606 170.694 111.485C170.097 111.365 169.533 111.117 169.04 110.76C168.871 110.61 168.673 110.497 168.457 110.428C168.242 110.359 168.015 110.336 167.79 110.36C166.63 110.63 166.57 113.26 165.66 114.42C164.836 115.437 163.689 116.143 162.41 116.42C160.883 116.77 159.282 116.568 157.89 115.85C156.69 115.23 155.8 114.85 155.09 115C154.38 115.15 153.91 115.8 153.43 117.23C152.51 119.93 151.06 121.3 149.32 121.71C147.41 122.16 145.16 121.45 142.88 120.06C142.549 119.841 142.177 119.693 141.787 119.624C141.396 119.555 140.996 119.567 140.61 119.66C138.85 120.07 137.33 121.97 135.61 122.77C134.969 123.074 134.299 123.312 133.61 123.48C131.953 123.881 130.214 123.787 128.61 123.21C127.07 122.67 125.76 121.73 124.41 122.04C123.828 122.198 123.306 122.525 122.91 122.98C122.426 123.555 121.788 123.978 121.07 124.2C120.273 124.302 119.466 124.11 118.8 123.66C118.045 123.193 117.142 123.026 116.27 123.19C115.598 123.387 114.977 123.728 114.45 124.19C113.218 125.195 111.781 125.919 110.24 126.31C107.789 126.788 105.248 126.358 103.09 125.1C101.85 124.372 100.412 124.05 98.98 124.18H98.83C98.0264 124.499 97.2669 124.919 96.57 125.43L96.12 125.69C95.6444 125.949 95.1367 126.144 94.61 126.27C93.9867 126.423 93.3388 126.447 92.706 126.34C92.0732 126.233 91.4688 125.999 90.93 125.65C90.5772 125.434 90.2601 125.164 89.99 124.85C89.8109 124.633 89.5941 124.45 89.35 124.31C88.9334 124.057 88.4343 123.978 87.96 124.09C87.7742 124.134 87.5957 124.205 87.43 124.3C87.2876 124.383 87.1536 124.481 87.03 124.59C86.7164 124.873 86.339 125.075 85.93 125.18C85.4937 125.252 85.0469 125.226 84.6217 125.105C84.1964 124.984 83.8031 124.771 83.47 124.48C83.3692 124.402 83.252 124.348 83.1273 124.322C83.0025 124.296 82.8735 124.299 82.75 124.33C82.1818 124.553 81.6672 124.894 81.24 125.33C80.7426 125.828 80.1368 126.205 79.47 126.43H79.16H79.09C76.82 126.55 76.5 125.85 75.09 124.43C74.9046 124.237 74.7002 124.062 74.48 123.91C74.2885 123.761 74.0664 123.656 73.8296 123.602C73.5928 123.548 73.3471 123.548 73.11 123.6C72.501 123.8 71.9488 124.142 71.5 124.6L71.36 124.72C71.1886 124.88 71.0084 125.03 70.82 125.17C69.8666 125.879 68.7178 126.277 67.53 126.31H67.46C66.605 126.336 65.7551 126.17 64.9728 125.823C64.1906 125.477 63.4959 124.96 62.94 124.31C62.5313 123.703 62.0204 123.172 61.43 122.74C60.9767 122.404 60.454 122.175 59.9003 122.067C59.3466 121.96 58.7759 121.978 58.23 122.12L57.95 122.19L57.62 122.3H57.55H57.5C57.2939 122.376 57.0835 122.439 56.87 122.49C56.5107 122.601 56.1323 122.635 55.7588 122.592C55.3853 122.549 55.0248 122.429 54.7 122.24C54.3194 121.985 53.9644 121.694 53.64 121.37L53.27 121.03L53.04 120.85L53.13 120.93C52.7287 120.675 52.2785 120.507 51.8083 120.436C51.3382 120.366 50.8585 120.394 50.4 120.52H50.25C49.9532 120.741 49.612 120.894 49.25 120.97C48.6203 121.116 47.9599 121.046 47.3744 120.772C46.7889 120.499 46.312 120.037 46.02 119.46C45.936 119.218 45.8042 118.994 45.6324 118.804C45.4606 118.613 45.2524 118.459 45.02 118.35C44.7064 118.207 44.3524 118.179 44.02 118.27C43.7868 118.324 43.5661 118.423 43.37 118.56C43.0633 118.756 42.725 118.898 42.37 118.98C41.9706 119.085 41.5544 119.108 41.1457 119.05C40.737 118.992 40.3441 118.852 39.99 118.64H39.93C38.9769 117.812 38.3612 116.662 38.2 115.41C38.2006 115.203 38.1224 115.003 37.9814 114.85C37.8404 114.698 37.6469 114.605 37.44 114.59C37.2643 114.564 37.0857 114.564 36.91 114.59L37.05 114.81ZM42.91 107.81C44.5635 107.507 46.1362 106.865 47.5288 105.924C48.9213 104.982 50.1033 103.762 51 102.34C52.48 100.18 53.54 98.13 56.48 97.44C57.3463 97.2479 58.2331 97.164 59.12 97.19C68.37 97.38 66.76 108.61 77.34 109.43C78.4972 109.54 79.6646 109.469 80.8 109.22C84.11 108.44 85.8 106.03 87.64 103.59C89.48 101.15 91.51 98.65 95.48 97.72C95.8 97.65 96.14 97.58 96.48 97.52C106.73 95.92 107.39 111.82 127.79 108.21C128.44 108.09 129.06 107.96 129.66 107.82C147.81 103.56 142.43 88 156.66 83.39C157.49 83.12 158.26 82.91 158.97 82.74C168.72 80.45 168.97 86.86 173.54 88.85C173.54 88.85 177.79 100.44 164.1 108.15C157.832 111.459 151.134 113.882 144.2 115.35C134.13 117.72 122.56 119.18 110.49 120.35C72.3 123.93 39.84 118.14 33.11 107.25L32.49 104.63C35.06 107.13 38.4 108.86 42.49 107.98L42.89 107.89L42.91 107.81ZM56 95.31C53.06 96 52 98.05 50.52 100.21C49.6291 101.637 48.4519 102.863 47.0628 103.811C45.6738 104.76 44.1031 105.41 42.45 105.72L42.05 105.81H40.15C38.5466 105.793 36.9647 105.439 35.5072 104.77C34.0497 104.102 32.7491 103.134 31.69 101.93L32.58 105.13L32.69 105.24L33.13 107.12L33.42 108.12V108.17L33.5 108.27C40.14 116.86 62.23 122.14 90.06 121.98H89.82C96.33 121.98 103.15 121.62 110.17 120.98C120.204 120.062 130.164 118.461 139.98 116.19C164.49 110.43 181.85 101.19 184.04 91.87L184.5 80.74C183.12 83.08 181.43 84.66 179.37 85.15C179.146 85.203 178.919 85.2431 178.69 85.27C169.55 86.27 169.96 75.78 157.58 78.7C156.88 78.86 156.13 79.07 155.35 79.33C141.13 83.95 146.5 99.5 128.35 103.77C127.75 103.91 127.13 104.04 126.48 104.15C106.67 108.79 106 92.9 95.76 94.5C95.4236 94.55 95.0898 94.6167 94.76 94.7C90.76 95.63 88.76 98.12 86.92 100.57C85.08 103.02 83.38 105.43 80.08 106.21C78.9444 106.458 77.7773 106.529 76.62 106.42H75.89H75.61H75.32C70.59 105.63 68.65 102.71 66.66 100.05C66.26 99.52 65.87 99.05 65.44 98.51C64.657 97.4946 63.6552 96.6689 62.5091 96.0941C61.363 95.5193 60.102 95.2103 58.82 95.19H58.6C57.7101 95.1573 56.8196 95.2379 55.95 95.43L56 95.31Z" fill="#F6CA57"/>
    <path d="M100.85 24.89C54.41 29.24 17.65 45 16.9 60.64C16.9 60.64 16.37 63.25 19.38 72.89L25.54 92C25.54 92 31 108.16 42 105.81C43.7299 105.536 45.381 104.894 46.842 103.928C48.303 102.962 49.5401 101.694 50.47 100.21C52.33 97.51 53.47 94.96 58.59 95.07C67.84 95.26 66.02 105.59 76.59 106.41C82.36 106.86 84.49 103.74 86.89 100.56C88.89 97.91 91.09 95.22 95.74 94.5C105.99 92.9 106.65 108.79 127.04 105.18C147.43 101.57 141.21 85.13 155.91 80.36C170.61 75.59 169.6 87.36 179.26 86.31C188.74 85.24 190.96 61.69 190.26 46.65C190.26 46.37 190.26 46.1 190.26 45.82C188.76 29.82 148.74 20.4 100.89 24.89H100.85Z" fill="#EC8BA0"/>
    <path d="M184.67 92.78C181.92 105.59 150.31 118.35 110.76 122.06C72.57 125.64 40.08 119.55 33.32 108.25C32.4894 109.638 32.2245 111.292 32.58 112.87C32.6606 113.348 32.8596 113.799 33.1588 114.181C33.458 114.563 33.8479 114.864 34.2931 115.057C34.7383 115.249 35.2247 115.328 35.7079 115.285C36.1911 115.242 36.6559 115.078 37.06 114.81C37.06 114.81 38.25 114.53 38.35 115.61C38.5083 116.891 39.1483 118.064 40.14 118.89C40.6542 119.184 41.2389 119.332 41.8311 119.318C42.4233 119.304 43.0004 119.128 43.5 118.81C43.7131 118.644 43.9645 118.533 44.2312 118.489C44.4979 118.445 44.7715 118.468 45.027 118.556C45.2825 118.645 45.5118 118.796 45.694 118.995C45.8761 119.195 46.0054 119.437 46.07 119.7C46.2545 120.065 46.515 120.385 46.8339 120.641C47.1528 120.896 47.5228 121.08 47.9189 121.181C48.3149 121.281 48.7279 121.296 49.1301 121.223C49.5322 121.151 49.9141 120.993 50.25 120.76C50.7525 120.602 51.2846 120.562 51.805 120.644C52.3254 120.725 52.8199 120.926 53.25 121.23C54.44 122.28 55.18 123.41 57.64 122.49C60.1 121.57 61.8 122.77 62.98 124.49C63.5044 125.075 64.1402 125.55 64.8502 125.886C65.5603 126.223 66.3303 126.414 67.1152 126.45C67.9002 126.485 68.6843 126.364 69.4217 126.092C70.1592 125.821 70.8351 125.406 71.41 124.87C72.85 123.55 73.77 123.19 75.11 124.54C76.45 125.89 76.89 126.71 79.22 126.54C80.0182 126.388 80.747 125.985 81.3 125.39C82.12 124.68 82.84 123.99 83.54 124.5C84.77 125.39 85.99 125.57 87.1 124.61C87.3049 124.412 87.5498 124.26 87.8183 124.164C88.0868 124.068 88.3726 124.031 88.6567 124.054C88.9408 124.078 89.2166 124.162 89.4655 124.301C89.7144 124.44 89.9307 124.631 90.1 124.86C90.76 125.65 93.26 127.58 96.69 125.43C97.4194 124.877 98.2332 124.445 99.1 124.15C100.532 124.02 101.97 124.342 103.21 125.07C105.48 126.19 109.58 128.07 114.57 124.17C116.57 122.61 117.8 123.17 118.92 123.69C120.04 124.21 121.21 124.9 123.03 123.01C124.85 121.12 126.64 122.51 128.73 123.24C129.867 123.637 131.073 123.802 132.276 123.725C133.478 123.648 134.653 123.33 135.73 122.79C138.12 121.67 140.17 118.37 142.98 120.08C147.34 122.72 151.6 122.92 153.53 117.25C154.53 114.3 155.67 114.69 158 115.88C159.267 116.567 160.733 116.795 162.149 116.525C163.565 116.256 164.844 115.505 165.77 114.4C166.93 112.92 166.71 109.04 169.15 110.74C169.809 111.175 170.569 111.433 171.357 111.487C172.145 111.541 172.933 111.39 173.645 111.048C174.358 110.707 174.969 110.187 175.42 109.538C175.871 108.89 176.147 108.136 176.22 107.35C176.49 105.48 177.42 105.87 178.89 105.9C179.529 105.944 180.168 105.823 180.746 105.548C181.324 105.273 181.822 104.854 182.19 104.33C182.97 103.07 182.05 101.66 182.71 100.47C183.17 99.65 184.1 99.47 185.03 99.3C185.761 99.2382 186.458 98.9596 187.03 98.5C188.49 96.98 186.91 94.27 185.61 93.19L184.61 92.77L184.67 92.78Z" fill="#F04C3E"/>
    <path d="M99.81 26.15C56.55 30.65 22.15 44.93 19.87 58.81C19.87 58.81 18.44 63.41 20.65 70.12C22.86 76.83 28 93.42 28 93.42C28 93.42 32.24 104.66 40.94 100.89C48.84 97.46 45.94 91.89 55.69 90.54C55.69 90.54 61.52 90 68.2 97.04C74.88 104.08 79.2 101.72 81.84 98.57C84.48 95.42 76.84 99.75 69.61 89.46C63.54 80.82 80.17 80.46 85.87 80.26C92.14 80.09 98.65 79.67 105.32 78.97C151.03 74.22 186.85 58.54 185.32 43.97C183.79 29.4 145.52 21.4 99.81 26.15Z" fill="#ED98A7"/>
    <path d="M33.18 88.43C33.09 87.91 33.02 87.34 32.97 86.73C32.97 86.35 32.97 86.12 32.97 86.12C31.66 72.54 42.21 78.76 75.63 79.88C113.45 81.14 144.95 69.88 111.95 75.44C78.95 81 36.45 70.21 34.45 55.44C33.26 46.62 39.63 41.51 44.98 38.82C30.43 44.73 21.08 51.82 19.93 58.82C19.93 58.82 18.5 63.42 20.71 70.13C22.92 76.84 28 93.42 28 93.42C28 93.42 31.13 101.69 37.5 101.65C38.2531 101.439 39.0285 101.318 39.81 101.29C40.1953 101.182 40.5728 101.049 40.94 100.89C42.0953 100.411 43.1789 99.7754 44.16 99C36.16 101.21 33.85 92.72 33.16 88.46L33.18 88.43Z" fill="#ED9FAA"/>
    <path d="M26.56 51C26.56 51 18.1 57.4 23.27 66.25C28.44 75.1 54.06 76.64 47.79 75.04C41.52 73.44 19.94 66 26.56 51Z" fill="#EFB2B4"/>
    <path d="M107.26 48.84C107.26 48.84 99.77 47.36 97.87 52.48C95.97 57.6 98.64 63.89 106.95 64.13C111.04 64.25 115.37 62.13 117.37 58.71C119.56 54.92 118.21 50.44 113.9 48.99C111.66 48.23 109.99 48.79 107.27 48.83L107.26 48.84Z" fill="#F15B6C"/>
    <path d="M100.38 58.4C99.72 58.55 99.09 59.4 100.54 60.83C101.56 61.6995 102.771 62.3157 104.074 62.6285C105.378 62.9413 106.736 62.9418 108.04 62.63C108.999 62.3994 109.921 62.0359 110.78 61.55C110.78 61.55 112.92 60.16 113.14 58.86C113.14 58.65 113.07 58.59 112.84 58.65C112.258 58.8559 111.69 59.0997 111.14 59.38C110.247 59.801 109.316 60.1358 108.36 60.38C106.774 60.8086 105.09 60.6888 103.58 60.04C103.58 60.04 101.58 58.79 100.92 58.45C100.743 58.3823 100.547 58.3823 100.37 58.45L100.38 58.4Z" fill="#ED4858"/>
    <path d="M116.78 67.71C116.565 67.7918 116.335 67.8296 116.105 67.821C115.875 67.8124 115.649 67.7576 115.44 67.66C115.44 67.66 115.27 67.52 115.3 67.15L115.4 65.81L114.5 66.81C113.713 67.6566 112.721 68.2867 111.62 68.64C111.185 68.758 110.726 68.7532 110.293 68.6261C109.861 68.499 109.472 68.2546 109.17 67.92L108.86 67.6L108.53 67.91C107.591 68.787 106.486 69.4671 105.28 69.91C105.138 69.9601 104.987 69.9798 104.838 69.9678C104.688 69.9557 104.542 69.9122 104.41 69.84C104.112 69.5422 103.94 69.1411 103.93 68.72L103.84 68.01L103.23 68.38C102.364 68.9142 101.419 69.309 100.43 69.55L100.1 69.62C99.7528 69.7299 99.3863 69.7653 99.0244 69.724C98.6626 69.6826 98.3135 69.5654 98 69.38C97.6815 69.0712 97.4287 68.7012 97.2568 68.2922C97.085 67.8832 96.9976 67.4436 97 67V66.76L96.79 66.65C96.5419 66.5077 96.3253 66.3164 96.1534 66.0877C95.9815 65.8591 95.8578 65.5979 95.79 65.32C95.7845 64.9182 95.8719 64.5205 96.0454 64.158C96.2188 63.7954 96.4737 63.4779 96.79 63.23L97.02 62.99L96.86 62.69C96.7611 62.4913 96.703 62.2747 96.6893 62.0531C96.6756 61.8315 96.7064 61.6095 96.78 61.4C96.9333 61.1288 97.1479 60.8971 97.4066 60.7235C97.6653 60.5499 97.9609 60.4391 98.27 60.4C98.631 61.0897 99.1567 61.6797 99.8004 62.1176C100.444 62.5554 101.186 62.8276 101.96 62.91H102.16L102.31 62.78C103.51 61.7642 104.926 61.0357 106.45 60.65C107.944 60.279 109.519 60.3982 110.94 60.99L111.18 61.09L111.39 60.93C112.768 59.8611 114.298 59.0049 115.93 58.39C116.056 58.3349 116.192 58.3065 116.33 58.3065C116.468 58.3065 116.604 58.3349 116.73 58.39C116.85 58.5 116.89 58.8 116.84 59.2L116.67 60.5L117.62 59.58C118.397 58.8285 119.324 58.2492 120.34 57.88C120.481 57.8335 120.63 57.8165 120.778 57.8303C120.926 57.8441 121.07 57.8882 121.2 57.96C121.346 58.0583 121.469 58.1869 121.56 58.337C121.652 58.4872 121.71 58.6554 121.73 58.83C121.797 59.9347 121.467 61.0271 120.8 61.91L119.8 63.28L121.38 62.61C121.542 62.5422 121.709 62.4886 121.88 62.45C122.33 62.34 122.51 62.45 122.52 62.45C122.53 62.45 122.71 62.78 121.84 64.22C120.615 65.9411 118.824 67.1766 116.78 67.71Z" fill="#FFF9DD"/>
    <path d="M116.52 59.76V59.81C114.221 63.0754 111.243 65.8045 107.79 67.81L108.23 68.62C111.833 66.5426 114.939 63.7031 117.33 60.3L116.52 59.76Z" fill="#FFEFAB"/>
    <path d="M133.33 17.21C133.33 17.21 125.81 15.94 124.04 21.11C122.27 26.28 125.13 32.49 133.44 32.51C137.53 32.51 141.8 30.32 143.71 26.81C145.79 22.96 144.32 18.52 139.97 17.19C137.71 16.49 136.06 17.1 133.33 17.19V17.21Z" fill="#F15B6C"/>
    <path d="M141.31 34.71C140.4 34.92 139.87 34.82 139.68 34.64C139.68 34.64 139.51 34.48 139.56 34.1L139.76 32.75L138.76 33.75C138.006 34.457 137.099 34.9806 136.11 35.28C135.649 35.4128 135.159 35.4016 134.705 35.2479C134.251 35.0941 133.855 34.8053 133.57 34.42L133.28 34.06L132.93 34.35C132.016 35.0771 130.98 35.6358 129.87 36C129.707 36.0609 129.533 36.0844 129.36 36.0688C129.187 36.0532 129.019 35.999 128.87 35.91C128.725 35.7492 128.613 35.5613 128.541 35.357C128.469 35.1528 128.438 34.9363 128.45 34.72V34L127.81 34.33C127.117 34.6924 126.381 34.9678 125.62 35.15C125.32 35.2212 125.016 35.2746 124.71 35.31C124.373 35.3774 124.026 35.374 123.69 35.2999C123.354 35.2259 123.037 35.0829 122.76 34.88C122.454 34.5454 122.219 34.1522 122.07 33.7242C121.92 33.2962 121.859 32.8423 121.89 32.39V32.15L121.69 32.02C121.454 31.8554 121.253 31.6447 121.1 31.4007C120.947 31.1567 120.845 30.8844 120.8 30.6C120.819 30.2061 120.928 29.8217 121.116 29.4754C121.305 29.1291 121.569 28.8298 121.89 28.6L122.13 28.38L122 28.08C121.836 27.6657 121.836 27.2043 122 26.79C122.134 26.5787 122.313 26.3993 122.523 26.2645C122.734 26.1297 122.972 26.0428 123.22 26.01L123.48 25.96C123.772 26.6692 124.234 27.2956 124.825 27.7839C125.416 28.2723 126.118 28.6075 126.87 28.76H127.07L127.23 28.63C128.284 27.8457 129.484 27.2812 130.76 26.97C132.406 26.5524 134.148 26.7591 135.65 27.55L135.89 27.68L136.12 27.53C137.448 26.6447 138.887 25.9386 140.4 25.43C141.11 25.26 141.34 25.43 141.4 25.43C141.46 25.43 141.54 25.85 141.46 26.27L141.2 27.57L142.2 26.71C142.951 26.0723 143.816 25.5836 144.75 25.27C144.913 25.2075 145.089 25.1849 145.263 25.204C145.437 25.2231 145.604 25.2835 145.75 25.38C145.884 25.4918 145.994 25.6305 146.072 25.7873C146.149 25.944 146.193 26.1153 146.2 26.29C146.19 27.3904 145.794 28.4524 145.08 29.29L144 30.67L145.59 30.13L145.85 30.06C146.4 29.93 146.66 30 146.68 30.06C146.7 30.12 146.84 30.42 145.91 31.78C144.735 33.2293 143.12 34.2576 141.31 34.71Z" fill="#FFF9DD"/>
    <path d="M75.58 22.86C75.58 22.86 67.98 22.19 66.63 27.48C65.28 32.77 68.63 38.74 76.9 38.1C80.98 37.78 85.06 35.25 86.68 31.61C88.45 27.61 86.68 23.3 82.19 22.32C79.89 21.81 78.29 22.54 75.57 22.87L75.58 22.86Z" fill="#F15B6C"/>
    <path d="M84.22 39.44C84.0227 39.5109 83.8134 39.5421 83.604 39.5318C83.3946 39.5215 83.1894 39.4699 83 39.38C83 39.38 82.83 39.24 82.85 38.86L82.93 37.5L82.04 38.5C81.2966 39.3442 80.3399 39.9728 79.27 40.32C78.8517 40.4313 78.4105 40.4228 77.9968 40.2955C77.583 40.1682 77.2134 39.9272 76.93 39.6L76.61 39.27L76.28 39.59C75.3878 40.4632 74.3259 41.1439 73.16 41.59C73.0291 41.6343 72.8904 41.6509 72.7527 41.6388C72.615 41.6268 72.4813 41.5863 72.36 41.52C72.0543 41.2226 71.8782 40.8165 71.87 40.39L71.78 39.68L71.17 40.06C70.328 40.6017 69.4021 41.0004 68.43 41.24L68.16 41.29C67.8273 41.3911 67.4768 41.4202 67.132 41.3754C66.7872 41.3305 66.4558 41.2128 66.16 41.03C65.8274 40.7219 65.5611 40.3494 65.3771 39.9351C65.1931 39.5208 65.0955 39.0733 65.09 38.62V38.39L64.88 38.28C64.6315 38.1357 64.4149 37.9425 64.243 37.7122C64.0712 37.482 63.9477 37.2193 63.88 36.94C63.8644 36.5456 63.9382 36.1528 64.0958 35.7909C64.2534 35.429 64.4907 35.1073 64.79 34.85L65.02 34.61L64.87 34.32C64.7697 34.1163 64.711 33.8947 64.6972 33.6681C64.6835 33.4414 64.715 33.2143 64.79 33C64.9393 32.7544 65.1416 32.5452 65.3821 32.3878C65.6226 32.2304 65.8952 32.1286 66.18 32.09C66.5301 32.7721 67.0424 33.3577 67.6719 33.7954C68.3013 34.233 69.0287 34.5093 69.79 34.6H70L70.15 34.46C71.2956 33.4429 72.6666 32.7128 74.15 32.33C75.5768 31.9784 77.0793 32.1013 78.43 32.68L78.68 32.79L78.89 32.62C78.89 32.62 81.61 30.48 83.26 30.08C83.3766 30.0288 83.5026 30.0023 83.63 30.0023C83.7574 30.0023 83.8834 30.0288 84 30.08C84.13 30.19 84.17 30.49 84.12 30.9L84 32.33L84.93 31.39C85.6655 30.6397 86.5564 30.0595 87.54 29.69C87.6716 29.6473 87.8107 29.6323 87.9484 29.6461C88.0861 29.6598 88.2194 29.7021 88.34 29.77C88.4854 29.8688 88.6079 29.9975 88.6993 30.1476C88.7907 30.2976 88.8489 30.4656 88.87 30.64C88.9469 31.7335 88.6391 32.8194 88 33.71L87 35.07L88.54 34.4C88.7029 34.3356 88.8699 34.2821 89.04 34.24C89.46 34.14 89.61 34.24 89.63 34.24C89.65 34.24 89.83 34.57 89 36.02C87.8659 37.694 86.1705 38.9071 84.22 39.44Z" fill="#FFF9DD"/>
    <path d="M83 38.32C84.1696 36.8238 85.2419 35.2539 86.21 33.62C86.2415 33.5681 86.2625 33.5106 86.2718 33.4506C86.2811 33.3906 86.2784 33.3294 86.264 33.2704C86.2496 33.2114 86.2238 33.1559 86.1879 33.1069C86.152 33.058 86.1069 33.0165 86.055 32.985C86.0031 32.9535 85.9456 32.9325 85.8856 32.9232C85.8256 32.914 85.7644 32.9166 85.7054 32.931C85.6464 32.9454 85.5909 32.9713 85.5419 33.0071C85.4929 33.043 85.4515 33.0881 85.42 33.14C84.52 34.62 83.73 35.77 83.18 36.56L82.52 37.44L82.34 37.67L82.28 37.74C82.2018 37.8342 82.1641 37.9555 82.1754 38.0774C82.1866 38.1993 82.2459 38.3118 82.34 38.39C82.4342 38.4682 82.5555 38.5059 82.6774 38.4946C82.7993 38.4834 82.9118 38.4242 82.99 38.33L83 38.32Z" fill="#FFEFAB"/>
    <path d="M49 46C49 46 41.42 45.14 39.94 50.39C38.46 55.64 41.64 61.7 49.94 61.27C54 61 58.19 58.58 59.9 55C61.78 51 60.06 46.69 55.65 45.59C53.36 45.02 51.74 45.71 49.03 45.97L49 46Z" fill="#F15B6C"/>
    <path d="M47.5 47.12C47.5 47.12 47.5 46.82 48.02 46.58C48.54 46.34 47.64 46.16 47.78 46.12H47.89L49.38 46.18C50.13 46 51.26 45.8 52.01 45.69C52.76 45.58 53.15 45.54 52.43 45.69L51.91 45.81L51.33 45.94C50.0276 46.2402 48.7478 46.6312 47.5 47.11V47.12ZM45.12 46.12C45.31 46.12 47.49 45.83 46.75 46.85C46.16 47.68 46.2 47.85 47.47 47.55L48.89 47.18C49.56 47 50.22 46.8 50.89 46.64C52.76 46.2 54.55 46.16 56.35 48.09C58.88 50.88 58.24 57.4 52 59.7C51.3833 59.9343 50.752 60.1281 50.11 60.28C48.7279 60.6794 47.2703 60.7416 45.8592 60.4614C44.4481 60.1813 43.1247 59.567 42 58.67C42.9536 59.5883 44.1071 60.2729 45.37 60.67H45.44H45.55H45.72C47.0212 61.0305 48.3713 61.1824 49.72 61.12H50C50.7109 61.0839 51.4172 60.9835 52.11 60.82C53.7528 60.4727 55.3004 59.7723 56.6455 58.7673C57.9906 57.7623 59.1011 56.4769 59.9 55C60.6262 53.5353 60.8308 51.8667 60.48 50.27C60.1992 49.1133 59.5966 48.0599 58.7417 47.2316C57.8869 46.4033 56.815 45.8342 55.65 45.59C53.36 45.02 51.74 45.71 49.03 45.97C47.7299 45.8601 46.4208 45.9307 45.14 46.18L45.12 46.12Z" fill="#EA3B4A"/>
    <path d="M57 64.22C56.8006 64.3042 56.5864 64.3475 56.37 64.3475C56.1536 64.3475 55.9394 64.3042 55.74 64.22C55.74 64.22 55.59 64.09 55.62 63.74L55.74 62.39L54.82 63.39C54.1243 64.1295 53.2545 64.683 52.29 65C51.8869 65.1068 51.4616 65.0958 51.0645 64.9681C50.6675 64.8405 50.3154 64.6017 50.05 64.28L49.74 63.94L49.4 64.25C48.5542 65.048 47.5582 65.67 46.47 66.08C46.3405 66.1228 46.2036 66.1387 46.0678 66.1267C45.9319 66.1146 45.7999 66.0749 45.68 66.01C45.5408 65.8692 45.4311 65.702 45.3573 65.5183C45.2835 65.3346 45.247 65.138 45.25 64.94L45.18 64.22L44.56 64.59C43.8082 65.0431 42.9924 65.3802 42.14 65.59L41.7 65.68C41.3893 65.7606 41.0652 65.7755 40.7484 65.7239C40.4316 65.6722 40.129 65.5551 39.86 65.38C39.5585 65.0824 39.3199 64.7272 39.1584 64.3355C38.9969 63.9438 38.9158 63.5236 38.92 63.1V62.87L38.72 62.75C38.4917 62.6081 38.2943 62.4216 38.1396 62.2017C37.985 61.9817 37.8763 61.7329 37.82 61.47C37.8163 61.1005 37.8963 60.7349 38.0539 60.4007C38.2114 60.0665 38.4426 59.7722 38.73 59.54L38.96 59.31L38.79 59C38.7011 58.8101 38.651 58.6045 38.6424 58.395C38.6338 58.1856 38.667 57.9765 38.74 57.78C38.8822 57.5676 39.0682 57.388 39.2855 57.2535C39.5028 57.1189 39.7465 57.0325 40 57C40.3146 57.6527 40.7845 58.2183 41.3686 58.6472C41.9527 59.0761 42.633 59.3552 43.35 59.46H43.56L43.71 59.32C44.7674 58.4331 46.0118 57.7972 47.35 57.46C48.7579 57.1092 50.2434 57.2503 51.56 57.86L51.81 57.97L52.03 57.8C53.2802 56.8467 54.6654 56.0851 56.14 55.54C56.51 55.45 56.77 55.46 56.88 55.54C56.99 55.62 57.03 55.92 56.97 56.3L56.78 57.61L57.78 56.7C58.4772 56.0272 59.3087 55.5092 60.22 55.18C60.3494 55.1342 60.4874 55.1176 60.624 55.1314C60.7606 55.1453 60.8924 55.1892 61.01 55.26C61.1401 55.3566 61.2484 55.4795 61.3276 55.6208C61.4069 55.7621 61.4554 55.9186 61.47 56.08C61.5169 57.1081 61.202 58.1201 60.58 58.94L59.58 60.28L61.14 59.65C61.2698 59.5965 61.4035 59.553 61.54 59.52C61.7353 59.4586 61.9447 59.4586 62.14 59.52C62.14 59.52 62.29 59.85 61.5 61.15C60.3994 62.6622 58.8094 63.7469 57 64.22Z" fill="#FFF9DD"/>
    <path d="M39.83 57.5C40.1956 58.1406 40.7046 58.6879 41.317 59.0991C41.9294 59.5102 42.6286 59.7741 43.36 59.87H43.77L44.07 59.6C45.0706 58.7634 46.2461 58.162 47.51 57.84C48.8211 57.5189 50.2022 57.6492 51.43 58.21L51.93 58.44L52.37 58.11C53.5615 57.2109 54.8834 56.4994 56.29 56C56.3865 55.9909 56.4835 55.9909 56.58 56C56.591 56.1064 56.591 56.2136 56.58 56.32L56.21 58.95L58.11 57C58.7492 56.385 59.5083 55.9084 60.34 55.6C60.4759 55.5519 60.6241 55.5519 60.76 55.6C60.8417 55.661 60.9092 55.7392 60.9575 55.829C61.0059 55.9188 61.034 56.0181 61.04 56.12C61.0644 57.023 60.7824 57.9077 60.24 58.63L58.24 61.28L61.34 60.04C61.4245 60.0041 61.5114 59.974 61.6 59.95C61.4682 60.2655 61.311 60.5699 61.13 60.86C60.113 62.2669 58.6449 63.2833 56.97 63.74C56.7034 63.8153 56.4238 63.8324 56.15 63.79V63.69L56.37 61L54.53 63C53.8851 63.6824 53.0812 64.1944 52.19 64.49C51.8651 64.5773 51.5218 64.568 51.2021 64.4632C50.8824 64.3584 50.6002 64.1627 50.39 63.9L49.76 63.22L49.09 63.85C48.3063 64.6028 47.3774 65.188 46.36 65.57C46.2273 65.6165 46.0827 65.6165 45.95 65.57C45.88 65.57 45.76 65.32 45.71 64.83L45.56 63.4L44.32 64.14C43.6075 64.5652 42.8357 64.882 42.03 65.08L41.62 65.16C41.375 65.2326 41.118 65.2559 40.864 65.2284C40.6099 65.201 40.3638 65.1233 40.14 65C39.8862 64.7338 39.6875 64.4201 39.5553 64.0769C39.4232 63.7336 39.3602 63.3677 39.37 63V62.53L38.97 62.3C38.6367 62.0862 38.3972 61.7538 38.3 61.37C38.3103 61.0829 38.3774 60.8007 38.4976 60.5398C38.6177 60.2789 38.7885 60.0444 39 59.85L39.44 59.39L39.17 58.81C39.0686 58.5426 39.0686 58.2474 39.17 57.98C39.327 57.7434 39.5654 57.5726 39.84 57.5H39.83ZM39.93 56.5C37.35 57.11 38.38 59.19 38.38 59.19C35.96 61.65 38.47 63.11 38.47 63.11C38.68 65.21 39.58 66.46 41.78 66.11L42.25 66.01C43.1451 65.8058 44.0047 65.4687 44.8 65.01C44.95 66.47 45.71 66.75 46.58 66.55C47.7467 66.1216 48.8148 65.4617 49.72 64.61C50.0413 64.9925 50.465 65.2757 50.9414 65.4262C51.4178 65.5767 51.9272 65.5884 52.41 65.46C53.4833 65.1265 54.4515 64.5201 55.22 63.7C55.13 64.7 56 64.99 57.17 64.7C59.0823 64.189 60.7556 63.0251 61.9 61.41C63.41 58.93 62.19 58.94 61.45 59.11C61.2898 59.1481 61.1327 59.1982 60.98 59.26C61.79 58.2 62.6 55.85 61.31 54.92C61.1389 54.8128 60.9466 54.7439 60.7464 54.718C60.5462 54.6922 60.3427 54.7099 60.15 54.77C59.1607 55.1232 58.2575 55.6821 57.5 56.41C57.68 55.14 57.03 54.9 56.11 55.12C54.573 55.6787 53.1299 56.4677 51.83 57.46C50.4168 56.7938 48.8182 56.6315 47.3 57C45.8801 57.3621 44.5627 58.0465 43.45 59C42.7575 58.8801 42.1065 58.5872 41.5576 58.1483C41.0086 57.7095 40.5795 57.1391 40.31 56.49L39.93 56.5Z" fill="#FFEFAB"/>
    <path d="M165.27 34.54C165.27 34.54 157.75 33.27 155.98 38.44C154.21 43.61 157.07 49.82 165.38 49.84C169.47 49.84 173.74 47.65 175.65 44.14C177.73 40.29 176.26 35.85 171.91 34.52C169.65 33.83 168 34.43 165.27 34.52V34.54Z" fill="#F15B6C"/>
    <path d="M157.59 46.89L158 47.31C157.86 47.17 157.72 47.04 157.59 46.89Z" fill="#E66373"/>
    <path d="M163.69 35.63C163.69 35.63 163.69 35.33 164.24 35.11C164.79 34.89 163.89 34.67 164.02 34.65H164.13L165.62 34.79C166.725 34.557 167.851 34.4331 168.98 34.42C168.85 34.42 168.59 34.5 168.17 34.56C167.35 34.69 166.6 34.85 165.95 35C164.58 35.32 163.69 35.62 163.69 35.62V35.63ZM161.37 34.55C161.56 34.55 163.75 34.39 162.96 35.36C162.17 36.33 162.43 36.36 165.07 35.8C167.71 35.24 170.17 34.39 172.45 37.12C174.73 39.85 173.86 46.47 167.54 48.44C167.15 48.56 166.77 48.67 166.4 48.75C162.68 49.62 159.7 48.87 157.53 46.87C157.66 47.01 157.8 47.15 157.94 47.29C159.967 49.0311 162.58 49.9356 165.25 49.82H165.34C166.279 49.8156 167.215 49.7049 168.13 49.49C169.678 49.1584 171.141 48.5102 172.426 47.586C173.712 46.6619 174.792 45.4818 175.6 44.12C176.455 42.6019 176.725 40.8236 176.36 39.12C176.087 38.0247 175.525 37.0224 174.734 36.2171C173.943 35.4118 172.95 34.8328 171.86 34.54C169.6 33.85 167.95 34.45 165.22 34.54C163.926 34.358 162.614 34.358 161.32 34.54L161.37 34.55Z" fill="#EA3B4A"/>
    <path d="M174.41 52.43C173.954 52.6135 173.446 52.6135 172.99 52.43C172.99 52.43 172.81 52.29 172.81 51.93V50.57L171.97 51.57C171.222 52.3911 170.27 52.9985 169.21 53.33C168.761 53.4477 168.288 53.443 167.842 53.3164C167.395 53.1898 166.991 52.9459 166.67 52.61L166.34 52.3L166.03 52.6C165.124 53.4753 164.049 54.1559 162.87 54.6C162.722 54.6487 162.567 54.6667 162.412 54.653C162.257 54.6392 162.107 54.594 161.97 54.52C161.664 54.2246 161.482 53.8244 161.46 53.4L161.36 52.7L160.76 53.06C159.931 53.5606 159.031 53.9315 158.09 54.16L157.67 54.24C157.324 54.3356 156.962 54.3574 156.607 54.304C156.252 54.2506 155.912 54.1232 155.61 53.93C155.293 53.6161 155.041 53.2423 154.869 52.8303C154.698 52.4183 154.609 51.9763 154.61 51.53V51.29L154.41 51.17C154.161 51.0236 153.944 50.8286 153.773 50.5967C153.601 50.3648 153.478 50.1006 153.41 49.82C153.399 49.4286 153.476 49.0396 153.637 48.6827C153.799 48.3258 154.039 48.0103 154.34 47.76L154.56 47.53L154.41 47.23C154.218 46.8304 154.186 46.3725 154.32 45.95C154.462 45.7002 154.661 45.4874 154.901 45.3293C155.141 45.1711 155.414 45.072 155.7 45.04C156.05 45.728 156.561 46.3211 157.189 46.7686C157.818 47.2161 158.546 47.5048 159.31 47.61H159.5L159.64 47.48C160.743 46.518 162.059 45.8324 163.48 45.48C164.98 45.1218 166.555 45.2587 167.97 45.87L168.21 45.97L168.41 45.82C169.676 44.8001 171.097 43.9899 172.62 43.42C172.742 43.3405 172.886 43.3021 173.031 43.3103C173.176 43.3186 173.314 43.3732 173.426 43.466C173.538 43.5588 173.617 43.685 173.652 43.8261C173.687 43.9672 173.676 44.1158 173.62 44.25V45.52L174.47 44.64C175.143 43.9183 175.97 43.3577 176.89 43C177.036 42.9538 177.19 42.9371 177.343 42.9509C177.496 42.9646 177.644 43.0085 177.78 43.08C178.092 43.2708 178.318 43.5756 178.41 43.93C178.615 44.97 178.4 46.049 177.81 46.93L176.9 48.25L178.43 47.62C178.576 47.5626 178.727 47.5158 178.88 47.48C179.35 47.37 179.54 47.48 179.56 47.48C179.58 47.48 179.79 47.8 179.06 49.19C177.957 50.8012 176.303 51.9536 174.41 52.43Z" fill="#FFF9DD"/>
    <path d="M155.49 45.52C155.887 46.1944 156.433 46.7687 157.086 47.1987C157.74 47.6287 158.484 47.9028 159.26 48H159.65L159.92 47.74C160.972 46.8306 162.222 46.1799 163.57 45.84C164.979 45.5013 166.459 45.6276 167.79 46.2L168.28 46.41L168.67 46.1C169.886 45.1055 171.258 44.3182 172.73 43.77C172.854 43.7375 172.982 43.7207 173.11 43.72C173.126 43.8462 173.126 43.9738 173.11 44.1L173 46.68L174.71 44.92C175.35 44.2532 176.133 43.7404 177 43.42C177.168 43.3597 177.352 43.3597 177.52 43.42C177.638 43.4752 177.742 43.5558 177.825 43.6561C177.908 43.7564 177.968 43.8738 178 44C178.157 44.9147 177.96 45.8548 177.45 46.63L175.64 49.25L178.65 48C178.777 47.9503 178.907 47.9102 179.04 47.88C178.929 48.2279 178.781 48.563 178.6 48.88C177.585 50.4171 176.04 51.5274 174.26 52C173.936 52.1008 173.593 52.1214 173.26 52.06V49.31L171.59 51.23C170.903 51.9891 170.026 52.5516 169.05 52.86C168.68 52.958 168.29 52.954 167.922 52.8484C167.554 52.7427 167.222 52.5394 166.96 52.26L166.3 51.63L165.68 52.23C164.823 53.0574 163.8 53.6946 162.68 54.1C162.509 54.1627 162.321 54.1627 162.15 54.1C161.958 53.8765 161.849 53.5942 161.84 53.3L161.63 51.9L160.44 52.62C159.682 53.0844 158.86 53.4348 158 53.66L157.61 53.74C157.324 53.82 157.025 53.8409 156.731 53.8014C156.437 53.7618 156.154 53.6627 155.9 53.51C155.358 52.953 155.053 52.2073 155.05 51.43L155 51L154.59 50.77C154.222 50.544 153.954 50.1865 153.84 49.77C153.851 49.4491 153.928 49.1339 154.068 48.8446C154.207 48.5554 154.406 48.2984 154.65 48.09L155.08 47.62L154.79 47.03C154.712 46.888 154.67 46.7292 154.668 46.5674C154.665 46.4055 154.702 46.2454 154.774 46.1009C154.847 45.9563 154.954 45.8315 155.086 45.7373C155.217 45.6431 155.37 45.5823 155.53 45.56L155.49 45.52ZM155.55 44.52C152.85 45.15 153.98 47.37 153.98 47.37C151.47 49.99 154.14 51.51 154.14 51.51C154.39 53.73 155.37 55.04 157.76 54.63L158.21 54.54C159.193 54.3042 160.133 53.9198 161 53.4C161.22 54.92 162 55.21 163 54.99C164.256 54.5339 165.403 53.8222 166.37 52.9C166.75 53.2949 167.228 53.5818 167.755 53.7312C168.282 53.8805 168.839 53.887 169.37 53.75C170.524 53.4017 171.562 52.7447 172.37 51.85C172.37 52.93 173.37 53.17 174.58 52.85C176.604 52.3359 178.362 51.0839 179.51 49.34C180.84 46.79 179.51 46.79 178.74 46.97C178.563 47.0111 178.389 47.0646 178.22 47.13C178.97 46.03 179.54 43.6 178 42.66C177.813 42.5518 177.605 42.4827 177.39 42.4569C177.176 42.4311 176.958 42.4492 176.75 42.51C175.738 42.8666 174.823 43.4557 174.08 44.23C174.08 42.93 173.41 42.68 172.46 42.9C170.882 43.4842 169.409 44.3218 168.1 45.38C166.597 44.729 164.924 44.5816 163.33 44.96C161.848 45.3311 160.477 46.0511 159.33 47.06C158.591 46.9376 157.894 46.6343 157.301 46.1772C156.708 45.7201 156.237 45.1233 155.93 44.44L155.55 44.52Z" fill="#FFEFAB"/>
</svg>
