<svg width="149" height="200" viewBox="0 0 149 200" fill="none" xmlns="http://www.w3.org/2000/svg">
    <g opacity="0.34">
        <path d="M13.1903 96.9446C11.7416 99.8132 10.7223 102.879 10.1651 106.044C8.39925 107.051 7.02262 108.622 6.2558 110.504C5.48897 112.387 5.37636 114.473 5.93599 116.427C7.67831 122.509 9.49981 128.631 11.2659 134.547C15.3207 148.169 19.5181 162.265 22.7889 176.093C26.3607 191.22 49.8581 195.409 71.5974 198.149C72.8962 198.316 74.0446 198.458 74.9791 198.585C83.5006 199.773 93.3684 200.874 102.563 198.973C111.758 197.072 118.798 192.463 123.55 185.288C127.003 180.021 128.904 174.256 130.583 169.171C131.161 167.405 131.715 165.742 132.309 164.134C135.794 154.726 139.292 145.325 142.803 135.933L147.998 121.931C148.756 119.901 148.762 117.667 148.015 115.634C147.268 113.6 145.818 111.901 143.927 110.843C146.81 104.437 146.541 97.8237 143.056 92.7155C144.161 87.9331 143.576 82.9157 141.401 78.5157C139.834 75.336 137.85 72.3797 135.501 69.7249C135.559 68.0644 135.44 66.4023 135.144 64.7672C133.45 55.2637 127.692 47.5896 119.741 44.2238C119.139 43.9704 118.521 43.738 117.888 43.5269C117.597 42.2887 117.451 41.021 117.452 39.7492C117.591 38.6508 117.826 37.5668 118.157 36.5101C118.418 35.5439 118.711 34.4748 118.949 33.3422C120.707 24.6703 118.204 16.2438 116.193 9.46465C115.701 7.81322 114.647 6.38579 113.214 5.4297C111.781 4.47361 110.058 4.04912 108.344 4.22979C108.1 4.25444 107.857 4.29145 107.616 4.34066C106.054 4.67217 104.641 5.4998 103.587 6.70011C102.534 7.90042 101.897 9.40908 101.771 11.001C101.383 16.0934 94.4692 20.5046 88.2048 22.4766C86.9298 22.8725 85.3696 23.2685 83.4531 23.6645C80.8554 24.203 77.9569 24.6861 74.892 25.2088H74.8207C71.5499 25.7553 67.8435 26.3809 64.2005 27.1333C59.3348 28.0645 54.5635 29.435 49.9452 31.2277H49.771C49.4542 31.2277 49.1374 31.3148 48.8286 31.3782C46.6288 31.8344 44.6332 32.9835 43.1344 34.6569C36.7987 38.6721 32.8943 44.0416 31.5321 50.6307L31.4609 51.0109C28.717 52.4105 26.2445 54.2878 24.159 56.5546C22.5739 58.2886 21.3506 60.3213 20.5605 62.5337C19.7704 64.7462 19.4295 67.094 19.5577 69.4398C12.8023 78.0801 10.5135 87.9479 13.1903 96.9446Z" fill="#444341"/>
    </g>
    <path d="M7.60704 92.7156C6.15831 95.5842 5.13899 98.6502 4.58175 101.815C2.8143 102.823 1.43654 104.395 0.669618 106.279C-0.097306 108.163 -0.208924 110.25 0.352679 112.206C2.09499 118.288 3.9165 124.41 5.68257 130.326C9.73741 143.947 13.9348 158.044 17.2056 171.872C20.7773 186.998 44.2748 191.188 66.0141 193.928C67.3129 194.094 68.4613 194.237 69.3958 194.364C77.9173 195.552 87.7851 196.652 96.9798 194.752C106.174 192.851 113.247 188.234 117.951 181.059C121.404 175.792 123.305 170.027 124.983 164.942C125.562 163.176 126.116 161.513 126.71 159.905C130.195 150.497 133.692 141.096 137.203 131.704L142.422 117.694C143.18 115.664 143.186 113.43 142.44 111.397C141.693 109.363 140.243 107.664 138.352 106.607C141.242 100.2 140.965 93.5867 137.481 88.4786C138.586 83.6962 138.001 78.6788 135.825 74.2787C134.246 71.0996 132.248 68.1458 129.886 65.4959C129.944 63.8354 129.825 62.1733 129.529 60.5382C127.835 51.0347 122.077 43.3606 114.126 39.9948C113.524 39.7414 112.906 39.509 112.273 39.2979C111.982 38.0596 111.836 36.792 111.837 35.5202C111.976 34.4218 112.211 33.3378 112.542 32.2811C112.803 31.3149 113.096 30.2457 113.334 29.1132C115.092 20.4413 112.589 12.0148 110.578 5.23564C110.08 3.59215 109.024 2.17398 107.592 1.22582C106.161 0.277658 104.443 -0.141023 102.735 0.042018C101.028 0.225059 99.4378 0.998342 98.2396 2.22844C97.0414 3.45854 96.3101 5.0683 96.172 6.77996C95.7839 11.8723 88.8701 16.2835 82.6057 18.2555C81.3306 18.6514 79.7705 19.0474 77.8539 19.4434C75.2563 19.9819 72.3577 20.465 69.2928 20.9877H69.2215C65.927 21.5421 62.2127 22.144 58.6093 22.936C53.7436 23.8673 48.9723 25.2377 44.354 27.0304H44.1798C43.863 27.0304 43.5462 27.1175 43.2373 27.1809C41.0376 27.6371 39.042 28.7862 37.5431 30.4596C31.2075 34.4748 27.3031 39.8443 25.9409 46.4334L25.8696 46.8136C23.1258 48.2132 20.6532 50.0905 18.5678 52.3573C16.9827 54.0913 15.7593 56.124 14.9693 58.3364C14.1792 60.5489 13.8383 62.8967 13.9665 65.2425C7.21897 73.8511 4.93021 83.7268 7.60704 92.7156Z" fill="white"/>
    <path d="M11.2342 107.905C11.2342 107.905 9.24639 89.136 26.82 83.6952C44.3936 78.2544 130.21 68.2599 130.567 112.53C130.923 156.801 36.3869 144.835 11.2342 107.905Z" fill="#99E0C2"/>
    <path d="M104.686 141.089C75.185 147.21 27.2318 134.42 9.82453 108.864C9.66441 108.628 9.56635 108.355 9.53942 108.072C9.53942 107.874 7.62288 87.853 26.3131 82.0558C38.3826 78.3098 94.6276 70.1764 119.994 88.7637C128.04 94.648 132.159 102.639 132.238 112.523C132.341 125.55 124.397 135.22 109.873 139.758C108.226 140.265 106.483 140.708 104.686 141.089ZM12.8973 107.319C30.8432 133.074 81.3465 145.096 108.867 136.495C118.038 133.628 128.951 127.142 128.84 112.53C128.777 103.819 125.126 96.6912 117.99 91.5118C94.9523 74.6668 41.2337 80.9867 27.3189 85.3028C12.6756 89.8645 12.7548 104.674 12.8973 107.319Z" fill="#5B5957"/>
    <path d="M34.6366 104.444C60.0744 109.743 115.63 113.338 129.323 86.9263C131.161 83.3862 130.646 79.1572 128.951 75.53C127.256 71.9028 124.485 68.7587 121.744 65.6622C110.023 82.428 90.6124 80.654 71.241 78.7454C54.895 77.1614 33.5516 80.0679 23.5967 65.4879C22.5355 64.9336 21.2921 65.8522 20.5556 66.7076C7.92381 81.4855 12.9211 99.9224 34.6366 104.444Z" fill="#FCD0E7"/>
    <path d="M98.9993 107.375C76.0324 112.126 47.8307 108.959 34.2882 106.116C23.3987 103.843 15.8434 98.1167 13.1032 89.9912C10.4343 82.1746 12.6835 73.2888 19.2568 65.6067C20.8407 63.7773 22.781 63.1517 24.3728 63.9832C24.6206 64.1117 24.8328 64.2994 24.9906 64.5297C32.3796 75.3558 46.6982 75.9022 60.5417 76.4091C64.3431 76.5516 67.9307 76.6942 71.3915 77.0347C89.9234 78.8642 109.089 80.7569 120.335 64.6722C120.481 64.4605 120.675 64.2854 120.9 64.1604C121.125 64.0355 121.376 63.964 121.633 63.9516C121.89 63.937 122.147 63.9808 122.384 64.0795C122.621 64.1783 122.833 64.3295 123.004 64.5218C125.791 67.6896 128.666 70.9208 130.48 74.8173C132.602 79.3473 132.729 84.0515 130.828 87.7183C125.221 98.5365 113.088 104.452 98.9993 107.375ZM34.9772 102.781C56.1146 107.185 113.999 112.776 127.803 86.1502C129.213 83.4259 129.07 79.8145 127.399 76.2586C125.923 73.3772 124.057 70.7123 121.855 68.339C109.382 84.1782 89.9155 82.2696 71.0747 80.4085C67.7089 80.0759 64.1689 79.9412 60.4229 79.7987C46.6744 79.276 31.1203 78.682 22.6543 67.0719C22.3594 67.2727 22.093 67.5125 21.8623 67.7846C16.0889 74.5321 14.0774 82.2142 16.3186 88.8587C18.6945 95.8042 25.3153 100.738 34.9772 102.75V102.781Z" fill="#5B5957"/>
    <path d="M88.8859 82.0875C90.4382 81.9925 91.964 81.8657 93.4635 81.7074C107.315 80.2422 124.746 74.7381 122.109 59.9522C121.016 53.8304 117.436 47.5897 111.085 44.905C104.733 42.2202 97.0827 43.6695 90.0343 44.5882C82.9796 45.4962 75.857 45.7612 68.7543 45.3801C56.4076 44.7307 18.1164 46.1721 21.3 64.5377C23.1611 75.2846 36.6878 78.6425 47.0863 79.8858C60.1932 81.4539 75.4068 82.9111 88.8859 82.0875Z" fill="#DB5E8E"/>
    <path d="M101.019 82.2537C98.2865 82.816 95.7364 83.1724 93.6377 83.3942C92.1567 83.5526 90.5966 83.6793 88.981 83.7822C75.0662 84.6375 59.1716 83.0536 46.8883 81.5806C30.3838 79.6007 21.2129 73.9619 19.629 64.8306C19.2555 62.9547 19.3306 61.017 19.8481 59.1756C20.3655 57.3341 21.3108 55.641 22.6068 54.2342C33.5041 41.943 68.493 43.6694 68.8493 43.6853C75.8493 44.0563 82.8684 43.7912 89.8205 42.8933L92.1963 42.5765C98.7854 41.6658 105.588 40.7313 111.758 43.3685C117.927 46.0057 122.433 52.0801 123.796 59.6829C124.242 61.8037 124.231 63.9955 123.761 66.1114C123.291 68.2272 122.374 70.2181 121.071 71.9503C116.644 77.795 108.226 80.749 101.019 82.2537ZM88.7751 80.3847C90.359 80.2897 91.8479 80.163 93.2813 80.0125C105.327 78.7295 114.458 75.039 118.339 69.8754C119.364 68.5171 120.082 66.9529 120.444 65.2904C120.807 63.6279 120.804 61.9067 120.438 60.2452C119.281 53.7828 115.543 48.6271 110.427 46.4651C105.129 44.2238 98.7854 45.1108 92.6636 45.9028L90.2877 46.2275C83.1302 47.1439 75.9043 47.4089 68.6989 47.0194C59.3537 46.5284 33.3299 47.2491 25.1806 56.4279C24.2079 57.4568 23.4988 58.7059 23.114 60.0686C22.7292 61.4312 22.6801 62.8668 22.9711 64.2525C24.2699 71.7286 32.4746 76.4249 47.2843 78.2068C59.4329 79.664 75.1217 81.2242 88.7671 80.3926L88.7751 80.3847Z" fill="#5B5957"/>
    <path d="M99.6724 93.7688C105.715 90.8228 111.758 87.8529 118.513 86.76C130.646 84.7959 136.237 93.8164 130.472 103.557C126.75 109.838 117.412 111.224 109.39 111.723C102.526 112.15 95.6466 112.475 88.7513 112.697C81.1405 112.942 73.411 113.758 65.7844 112.934C62.2685 112.681 58.8371 111.737 55.6869 110.155C53.8179 109.188 48.1158 106.63 46.3972 106.432C59.4408 107.953 74.9078 103.019 87.104 99.1463C91.4183 97.6609 95.6189 95.8637 99.6724 93.7688Z" fill="#DB5E8E"/>
    <path d="M118.608 112.301C115.6 112.886 112.554 113.259 109.493 113.417C102.634 113.845 95.6809 114.209 88.8067 114.392C86.8585 114.455 84.9024 114.558 82.9462 114.653C77.2758 114.946 71.4073 115.247 65.634 114.653C61.9014 114.36 58.263 113.335 54.9267 111.636C52.7884 110.527 47.5218 108.238 46.2151 108.088C45.7734 108.027 45.3731 107.796 45.1001 107.443C44.8271 107.091 44.7032 106.645 44.7551 106.203C44.8069 105.76 45.0303 105.355 45.3774 105.075C45.7244 104.795 46.1674 104.663 46.6111 104.706C59.2824 106.179 74.4326 101.364 86.6051 97.4911C90.8353 96.0314 94.9538 94.2659 98.928 92.2088L99.1339 92.1058C105.121 89.1835 111.314 86.174 118.236 85.0494C124.611 84.0199 129.846 85.7384 132.594 89.8012C135.342 93.864 135.018 99.1938 131.921 104.421C129.26 108.935 124.128 111.16 118.608 112.301ZM55.7107 108.254L56.5027 108.642C59.4679 110.127 62.6979 111.01 66.0062 111.24C71.5499 111.841 77.2441 111.548 82.7799 111.24C84.7598 111.137 86.7397 111.034 88.7117 110.97C95.5463 110.749 102.476 110.424 109.303 109.996C116.739 109.529 125.704 108.278 129.03 102.663C131.406 98.5999 131.731 94.4975 129.822 91.694C127.914 88.8904 123.835 87.5996 118.814 88.4153C112.391 89.4527 106.689 92.2325 100.654 95.1707L100.449 95.2736C96.3244 97.3995 92.0527 99.2258 87.6663 100.738C78.0202 103.827 66.5843 107.462 55.7107 108.254Z" fill="#5B5957"/>
    <path d="M83.952 59.3661C88.482 58.8197 93.0675 58.0515 97.0827 56.1428C101.098 54.2342 104.511 51.0109 105.406 47.059C106.436 42.4894 104.02 37.801 104.329 33.1364C104.495 30.6259 105.446 28.2262 105.913 25.7553C107.283 19.0078 105.295 12.1019 103.315 5.44153C102.658 14.066 93.8119 20.4888 84.5935 23.3953C69.5066 28.1074 36.8304 27.2917 32.9498 46.0295C29.0058 65.1237 72.5715 60.7441 83.952 59.3661Z" fill="#FCD0E7"/>
    <path d="M90.2877 60.1106C88.2286 60.5382 86.1616 60.8312 84.1342 61.0688C68.9364 62.8983 42.1603 64.5851 33.71 55.3667C31.3342 52.7532 30.4947 49.4983 31.2787 45.689C34.3991 30.6417 54.103 27.3472 69.9264 24.6941C75.2642 23.7992 80.309 22.9518 84.0866 21.7718C91.7766 19.3959 100.979 13.6225 101.621 5.31482C101.653 4.91983 101.822 4.54847 102.099 4.26473C102.375 3.98099 102.742 3.80264 103.136 3.76043C103.53 3.71821 103.927 3.81476 104.257 4.03344C104.588 4.25213 104.832 4.57925 104.947 4.95844C106.871 11.4525 109.057 18.8098 107.584 26.0959C107.394 27.0462 107.141 27.9807 106.895 28.8836C106.458 30.3004 106.161 31.7566 106.008 33.2314C105.976 35.1696 106.189 37.104 106.642 38.989C107.164 41.7054 107.703 44.5327 107.053 47.4075C106.119 51.5732 102.745 55.3271 97.8034 57.6555C95.4057 58.7723 92.8823 59.5966 90.2877 60.1106ZM59.8527 30.0161C47.7277 32.5266 36.6641 36.5339 34.6208 46.4176C34.0585 49.1261 34.6208 51.3119 36.2047 53.1017C41.5584 58.9305 59.3141 60.657 83.7223 57.7268C87.9989 57.212 92.4735 56.4834 96.3224 54.654C100.171 52.8245 103.014 49.823 103.711 46.7343C104.202 44.5327 103.759 42.1885 103.276 39.7017C102.765 37.5332 102.536 35.308 102.595 33.0809C102.76 31.3724 103.097 29.6849 103.601 28.0441C103.838 27.1571 104.068 26.3176 104.242 25.4702C105.161 20.9481 104.424 16.1884 103.276 11.6426C99.815 18.3505 91.9271 22.9439 85.0608 25.1059C81.0534 26.3572 75.9057 27.2204 70.4491 28.1312C66.9961 28.646 63.361 29.2716 59.8685 29.9765L59.8527 30.0161Z" fill="#5B5957"/>
    <path d="M95.2929 185.644C87.2466 187.315 78.1311 186.278 70.2194 185.177C69.2533 185.042 68.0732 184.892 66.7348 184.726C52.8042 182.967 26.8834 179.697 24.1907 168.292C20.8724 154.235 16.6433 140.043 12.5489 126.319C10.7907 120.41 8.96922 114.297 7.24275 108.286C7.17915 108.061 7.1625 107.825 7.19384 107.594C7.22518 107.362 7.30385 107.14 7.42494 106.94C7.54602 106.74 7.70695 106.567 7.89769 106.432C8.08843 106.297 8.30491 106.203 8.53365 106.155C8.67043 106.139 8.80868 106.139 8.94547 106.155L20.7536 106.615C21.0277 106.627 21.2946 106.706 21.5318 106.843C21.769 106.981 21.9693 107.175 22.1158 107.407L25.5925 112.824L34.4941 109.751L34.7 109.695C34.9967 109.634 35.3043 109.653 35.591 109.751C35.8778 109.848 36.1334 110.02 36.3315 110.25L43.3482 118.343L52.3924 112.333C52.7383 112.103 53.1562 112.007 53.5675 112.064C53.9788 112.121 54.3552 112.326 54.6257 112.641L60.1695 119.12L70.3382 114.027C70.4714 113.962 70.6125 113.914 70.758 113.885C70.9792 113.839 71.2073 113.838 71.4289 113.882C71.6505 113.925 71.8613 114.012 72.0489 114.138L80.7842 119.904L89.575 113.212C89.8423 113.008 90.164 112.888 90.4994 112.867C90.8348 112.846 91.169 112.924 91.4598 113.093L99.5299 117.773L106.167 110.479C106.423 110.197 106.767 110.009 107.144 109.946C107.52 109.883 107.907 109.948 108.241 110.131L117.618 115.255L123.059 110.939C123.267 110.773 123.511 110.659 123.772 110.606C123.909 110.59 124.047 110.59 124.184 110.606L133.766 110.978C134.035 110.989 134.298 111.063 134.533 111.195C134.768 111.327 134.968 111.512 135.117 111.736C135.266 111.96 135.36 112.217 135.391 112.484C135.422 112.752 135.389 113.023 135.295 113.275L129.989 127.53C126.509 136.86 123.038 146.189 119.574 155.518C118.933 157.245 118.339 159.05 117.761 160.8C116.177 165.679 114.482 170.732 111.568 175.19C108.004 180.607 102.524 184.147 95.2929 185.644Z" fill="#F0CC16"/>
    <path d="M136.554 110.764C136.254 110.317 135.852 109.948 135.381 109.686C134.91 109.424 134.384 109.278 133.846 109.26L124.263 108.887C123.449 108.855 122.651 109.117 122.014 109.624L117.468 113.219L109.081 108.634C108.411 108.268 107.638 108.138 106.885 108.265C106.133 108.391 105.445 108.767 104.931 109.331L99.221 115.595L92.3389 111.635C91.7572 111.299 91.0889 111.141 90.4181 111.184C89.7472 111.226 89.1039 111.466 88.5692 111.873L80.7446 117.829L72.9834 112.665C72.4847 112.333 71.9073 112.138 71.3094 112.101C70.7115 112.063 70.1142 112.184 69.5779 112.451L60.5971 116.942L55.9325 111.477C55.3951 110.847 54.6464 110.435 53.8268 110.319C53.0073 110.202 52.1734 110.389 51.4816 110.843L43.6808 116.031L37.6461 109.069C37.2011 108.556 36.6126 108.187 35.9563 108.011C35.3001 107.834 34.606 107.858 33.9635 108.08L26.329 110.717L23.573 106.424C23.2793 105.959 22.8774 105.572 22.4015 105.296C21.9257 105.021 21.3902 104.864 20.8407 104.84L9.03257 104.381C8.49463 104.36 7.95944 104.467 7.47088 104.693C6.98232 104.92 6.55433 105.258 6.222 105.682C5.88968 106.105 5.6625 106.602 5.55909 107.13C5.45569 107.658 5.47901 108.203 5.62714 108.721C7.35361 114.748 9.17512 120.87 10.9412 126.786C15.0198 140.487 19.2409 154.647 22.5513 168.649C25.141 179.744 45.2252 183.704 66.5289 186.42C67.8594 186.587 69.0236 186.737 69.9818 186.872C78.0361 187.988 87.3179 189.042 95.6334 187.323C103.315 185.739 109.168 181.946 113.009 176.077C116.05 171.428 117.761 166.273 119.4 161.291C120.002 159.478 120.564 157.759 121.19 156.064C124.675 146.656 128.172 137.25 131.683 127.847L136.902 113.845C137.092 113.341 137.16 112.798 137.099 112.263C137.039 111.727 136.852 111.214 136.554 110.764ZM118.006 154.869C115.63 161.363 114.007 168.332 110.174 174.2C106.46 179.871 101.019 182.722 94.9524 183.981C87.0327 185.62 78.0598 184.551 70.457 183.498C60.5575 182.12 28.5148 179.277 25.8459 167.865C21.0941 147.693 14.6001 127.744 8.8821 107.779L20.6902 108.238L24.8955 114.803L35.0564 111.295L43.0552 120.513L53.3507 113.671L59.7418 121.139L71.0985 115.453L80.8713 121.963L90.6282 114.542L99.8863 119.911L107.449 111.596L117.816 117.258L124.152 112.237L133.735 112.61C128.487 126.712 123.244 140.798 118.006 154.869Z" fill="#5B5957"/>
    <path d="M24.8955 114.811L38.6756 177.519L50.6501 180.56L43.0552 120.529L35.0564 111.311L24.8955 114.811Z" fill="white"/>
    <path d="M59.7418 121.171L61.8801 180.995L75.2246 181.51L80.8713 121.994L71.0985 115.484L59.7418 121.171Z" fill="white"/>
    <path d="M99.8942 119.943L87.9118 184.773C87.9118 184.773 96.7105 184.1 99.9813 182.468L117.808 117.298L107.457 111.635L99.8942 119.943Z" fill="white"/>
    <path d="M93.1536 50.9819C95.8607 50.6711 97.8033 48.2246 97.4925 45.5174C97.1816 42.8103 94.7351 40.8677 92.028 41.1785C89.3208 41.4894 87.3782 43.9359 87.6891 46.643C87.9999 49.3502 90.4464 51.2928 93.1536 50.9819Z" fill="white"/>
    <path d="M45.7562 40.57C48.4633 40.2591 50.4059 37.8126 50.095 35.1054C49.7842 32.3983 47.3377 30.4557 44.6305 30.7665C41.9234 31.0774 39.9808 33.5239 40.2916 36.2311C40.6025 38.9382 43.049 40.8808 45.7562 40.57Z" fill="white"/>
    <path d="M127.055 102.752C129.762 102.441 131.705 99.9949 131.394 97.2878C131.083 94.5807 128.637 92.6381 125.93 92.9489C123.223 93.2597 121.28 95.7063 121.591 98.4134C121.902 101.121 124.348 103.063 127.055 102.752Z" fill="white"/>
    <path d="M79.9916 96.1187C82.6987 95.8078 84.6413 93.3613 84.3305 90.6541C84.0196 87.947 81.5731 86.0044 78.8659 86.3152C76.1588 86.6261 74.2162 89.0726 74.527 91.7798C74.8379 94.4869 77.2844 96.4295 79.9916 96.1187Z" fill="white"/>
    <path d="M113.632 64.004C116.339 63.6932 118.282 61.2466 117.971 58.5395C117.66 55.8324 115.213 53.8898 112.506 54.2006C109.799 54.5114 107.856 56.958 108.167 59.6651C108.478 62.3723 110.925 64.3149 113.632 64.004Z" fill="white"/>
    <path d="M62.5743 74.8339C65.2814 74.523 67.224 72.0765 66.9132 69.3693C66.6023 66.6622 64.1558 64.7196 61.4486 65.0304C58.7415 65.3413 56.7989 67.7878 57.1097 70.495C57.4206 73.2021 59.8671 75.1447 62.5743 74.8339Z" fill="white"/>
    <path d="M24.5549 92.6763C27.2621 92.3654 29.2046 89.9189 28.8938 87.2118C28.583 84.5046 26.1364 82.562 23.4293 82.8729C20.7222 83.1837 18.7796 85.6302 19.0904 88.3374C19.4012 91.0445 21.8478 92.9871 24.5549 92.6763Z" fill="white"/>
</svg>
