<svg width="228" height="200" viewBox="0 0 228 200" fill="none" xmlns="http://www.w3.org/2000/svg">
    <path d="M177.587 26.0177C180.547 27.8391 183.436 29.8018 186.647 31.1365C190.046 32.5248 193.7 33.1782 197.37 33.0537C201.039 32.9292 204.641 32.0297 207.938 30.4142C203.793 40.4946 192.606 45.582 182.141 48.526C174.886 50.5672 167.334 52.051 159.829 51.3209C149.167 50.2453 128.323 37.794 137.32 24.3926C145.854 11.6743 167.938 20.0825 177.587 26.0177Z" fill="#DB5E8E"/>
    <path d="M163.77 52.6871C162.419 52.6871 161.061 52.6243 159.695 52.4908C152.26 51.7685 139.369 45.4251 135.263 36.7185C134.243 34.6601 133.803 32.362 133.993 30.0723C134.182 27.7825 134.994 25.5879 136.339 23.7254C145.886 9.49972 169.799 19.8 178.207 25.0051L179.785 26.0178C182.099 27.5598 184.536 28.9094 187.071 30.0532C190.313 31.3793 193.799 32.0033 197.3 31.8842C200.801 31.7652 204.237 30.9056 207.381 29.3623C207.596 29.2555 207.839 29.2168 208.077 29.2512C208.315 29.2857 208.537 29.3918 208.714 29.5553C208.89 29.7189 209.012 29.9322 209.065 30.1669C209.117 30.4017 209.096 30.6468 209.006 30.8696C205.465 39.5055 196.767 45.637 182.408 49.6645C177.242 51.1247 170.655 52.6871 163.77 52.6871ZM151.522 18.9286C146.184 18.9286 141.316 20.4987 138.286 25.0522C137.165 26.5724 136.487 28.3739 136.329 30.2562C136.171 32.1385 136.539 34.0278 137.391 35.7136C141.151 43.6586 153.045 49.4604 159.923 50.1355C167.86 50.9206 175.781 49.0678 181.795 47.3799C193.744 44.0276 201.524 39.2229 205.434 32.7538C199.168 34.929 192.324 34.7448 186.184 32.2357C183.528 31.0436 180.976 29.6335 178.553 28.0198L176.983 27.0227C172.249 24.1258 161.132 18.9286 151.522 18.9286Z" fill="#5B5957"/>
    <path d="M165.858 38.2337C160.43 38.2821 155.062 37.1011 150.156 34.7793C149.969 34.6904 149.808 34.554 149.69 34.3836C149.572 34.2132 149.501 34.0149 149.483 33.8083C149.466 33.6018 149.503 33.3943 149.591 33.2065C149.679 33.0187 149.814 32.8572 149.984 32.7381L167.067 20.7263C167.221 20.6189 167.397 20.5493 167.583 20.5234C167.769 20.4974 167.958 20.5159 168.135 20.5772C172.364 22.0134 176.795 22.7686 181.261 22.8147C181.477 22.8185 181.689 22.8814 181.872 22.9966C182.055 23.1117 182.203 23.2748 182.3 23.468C182.397 23.6613 182.439 23.8774 182.422 24.0929C182.405 24.3085 182.329 24.5153 182.203 24.691L173.159 37.2523C173.067 37.3804 172.95 37.4887 172.815 37.571C172.68 37.6532 172.53 37.7077 172.374 37.7312C170.224 38.0429 168.054 38.2029 165.882 38.2101L165.858 38.2337Z" fill="#F0CC16"/>
    <path d="M181.198 25.1778C176.484 25.1311 171.807 24.3361 167.342 22.8225C167.136 22.7514 166.953 22.6248 166.814 22.4567C166.675 22.2885 166.586 22.0854 166.555 21.8695C166.524 21.6536 166.553 21.4334 166.639 21.2331C166.726 21.0328 166.865 20.8602 167.043 20.7342L179.424 12.0277C179.607 11.8988 179.823 11.8246 180.047 11.8135C180.271 11.8024 180.493 11.8548 180.688 11.9648C182.8 13.158 185.005 14.1767 187.283 15.011C187.455 15.0736 187.61 15.1751 187.736 15.3078C187.862 15.4404 187.956 15.6004 188.01 15.7753C188.064 15.9502 188.077 16.1353 188.047 16.3159C188.018 16.4966 187.947 16.668 187.84 16.8166L182.18 24.6675C182.07 24.8208 181.925 24.9457 181.757 25.0317C181.589 25.1177 181.403 25.1624 181.214 25.1621L181.198 25.1778Z" fill="url(#paint1_linear_1112_12145)"/>
    <path d="M186.851 17.272C186.712 17.2728 186.574 17.2488 186.443 17.2014C184.043 16.3246 181.72 15.2533 179.495 13.9982C179.32 13.9001 179.174 13.7594 179.068 13.5893C178.963 13.4192 178.902 13.2252 178.892 13.0254C178.882 12.8255 178.923 12.6263 179.01 12.4464C179.098 12.2665 179.229 12.1116 179.393 11.9963L189.206 5.1582C189.699 4.80525 190.288 4.61329 190.894 4.60864C191.441 4.62245 191.974 4.78556 192.435 5.0803C192.895 5.37505 193.267 5.79022 193.509 6.28087C193.755 6.75702 193.862 7.29267 193.819 7.82698C193.776 8.36128 193.584 8.87281 193.265 9.30343L187.848 16.8402C187.729 16.987 187.576 17.1028 187.402 17.178C187.229 17.2531 187.04 17.2854 186.851 17.272Z" fill="#7BCACA"/>
    <path d="M131.11 190.28C122.529 190.309 114.015 188.769 105.988 185.735C97.234 182.461 88.1899 179.077 80.08 173.731C72.3469 168.604 64.2684 162.512 63.4127 155.839C62.9417 152.173 63.9309 148.553 64.9829 145.162C75.4716 111.325 86.6433 85.2051 100.162 62.9559L101.434 60.844C103.319 57.5271 105.417 54.3356 107.715 51.2896C108.5 50.3004 109.356 49.3976 110.188 48.5261C111.671 47.1224 112.934 45.5025 113.933 43.7214C114.832 41.7801 115.588 39.7754 116.194 37.7234C117.316 34.2533 118.47 30.6577 121.038 27.5566C124.963 22.8461 129.925 18.9914 134.298 15.8353C135.868 14.7205 137.077 14.2102 138.223 14.2102C140.272 14.2102 141.552 15.7804 142.039 18.9835C142.683 23.125 142.836 27.3282 142.494 31.5055C142.28 34.0219 141.79 36.5071 141.034 38.9167C149.78 39.8824 178.608 48.5889 181.442 49.6488C197.143 55.5447 208.347 63.8195 214.651 74.2532C219.102 81.6173 220.335 89.6251 218.215 97.421C215.821 106.237 209.21 114.128 200.088 119.066C195.491 121.531 190.57 123.336 185.469 124.428C183.836 124.773 182.196 125.048 180.594 125.213C178.113 125.499 175.617 125.64 173.12 125.637C168.911 125.62 164.71 125.26 160.559 124.561L160.488 127.607C160.095 145.484 159.703 163.964 158.321 182.068C158.243 183.113 158.094 185.06 156.673 186.284C155.894 186.886 154.976 187.28 154.003 187.431C146.503 189.233 138.824 190.189 131.11 190.28Z" fill="#F7F7F7"/>
    <path d="M215.985 73.429C209.493 62.6891 198.046 54.171 181.976 48.1651C179.244 47.1445 153.713 39.3958 143.036 37.6136C143.532 35.655 143.871 33.6598 144.048 31.647C144.402 27.3441 144.247 23.0145 143.585 18.7481C142.8 13.6922 140.241 12.6323 138.207 12.6323C136.747 12.6323 135.216 13.2447 133.395 14.5558C128.936 17.7668 123.84 21.7 119.837 26.5518C117.073 29.8963 115.872 33.6176 114.702 37.2368C114.118 39.2129 113.391 41.1441 112.527 43.015C111.594 44.6509 110.425 46.1402 109.057 47.435C108.202 48.3378 107.322 49.2642 106.498 50.3084C104.151 53.4054 102.008 56.652 100.084 60.0277L98.812 62.1396C85.2301 84.4987 73.9956 110.736 63.4834 144.699C62.3842 148.255 61.3479 152.063 61.8582 156.043C62.8082 163.297 71.1772 169.727 79.2949 175.074C87.5697 180.522 96.708 183.937 105.54 187.242C113.733 190.337 122.423 191.909 131.181 191.882C138.984 191.79 146.752 190.826 154.341 189.009C155.567 188.808 156.721 188.297 157.693 187.525C159.609 185.876 159.797 183.419 159.884 182.233C161.265 164.082 161.666 145.586 162.058 127.686V126.438C165.717 126.961 169.408 127.224 173.104 127.223C175.662 127.224 178.218 127.078 180.759 126.783C182.415 126.587 184.103 126.312 185.783 125.951C191.031 124.835 196.094 122.985 200.826 120.455C210.325 115.313 217.218 107.07 219.722 97.8372C221.952 89.6096 220.665 81.1699 215.985 73.429ZM199.318 117.668C194.856 120.064 190.077 121.816 185.124 122.873C183.554 123.211 181.984 123.478 180.413 123.659C177.995 123.939 175.562 124.077 173.128 124.075C168.385 124.053 163.655 123.593 158.996 122.701C158.557 142.477 158.211 162.277 156.727 181.967C156.641 183.105 156.484 184.322 155.621 185.107C155.035 185.526 154.356 185.795 153.642 185.892C146.278 187.648 138.743 188.586 131.173 188.687C122.793 188.714 114.478 187.208 106.639 184.243C97.8385 180.954 88.9121 177.586 81.0221 172.396C75.7934 168.958 65.8543 162.253 65.0064 155.627C64.5746 152.251 65.5089 148.868 66.5138 145.625C75.2831 117.362 86.1408 89.1621 101.536 63.7725C103.892 59.9178 106.192 55.804 108.995 52.2632C111.099 49.6097 113.854 47.5527 115.385 44.4124C117.968 39.1681 118.447 33.2172 122.294 28.5616C125.968 24.1181 130.608 20.4753 135.263 17.1151C136.1 16.3882 137.132 15.924 138.231 15.7805C139.464 15.7805 140.139 16.9424 140.484 19.2113C141.114 23.225 141.264 27.2995 140.932 31.3487C140.682 34.5527 139.93 37.6975 138.702 40.6676C138.781 40.4792 139.142 40.4007 139.723 40.4007C145.886 40.4007 177.454 49.8216 180.9 51.117C193.564 55.8275 206.141 63.1994 213.316 75.062C223.232 91.5252 215.028 109.127 199.318 117.668Z" fill="#5B5957"/>
    <path d="M136.661 21.5349C136.661 21.5349 124.696 28.5143 124.743 39.5368C124.743 39.5368 131.636 38.6811 133.52 39.9294C135.405 41.1777 136.661 21.5349 136.661 21.5349Z" fill="url(#paint2_linear_1112_12145)"/>
    <path d="M133.685 40.7773C133.47 40.7756 133.259 40.71 133.081 40.5888C131.887 39.8038 127.389 40.0079 124.837 40.3219C124.727 40.3365 124.614 40.3272 124.507 40.2947C124.4 40.2622 124.301 40.2072 124.217 40.1335C124.134 40.0599 124.066 39.9694 124.02 39.8678C123.974 39.7663 123.95 39.6562 123.95 39.5447C123.903 28.2003 135.727 21.1502 136.26 20.8597C136.384 20.7862 136.525 20.7478 136.668 20.7488C136.812 20.7498 136.952 20.7901 137.074 20.8654C137.197 20.9407 137.296 21.048 137.361 21.1757C137.427 21.3035 137.456 21.4467 137.446 21.5899C136.92 29.8097 135.923 39.7881 134.164 40.6595C134.016 40.7353 133.852 40.7756 133.685 40.7773ZM129.281 38.422C130.727 38.3518 132.173 38.5542 133.544 39.0187C134.329 37.4014 135.255 30.0059 135.758 23.0423C132.845 25.107 125.999 30.7753 125.552 38.6183C126.478 38.5555 127.868 38.4691 129.281 38.4691V38.422Z" fill="#5B5957"/>
    <path d="M176.802 116.263C177.591 118.806 178.54 121.297 179.644 123.721C179.895 123.721 180.139 123.721 180.39 123.658C192.794 122.206 207.232 115.611 214.031 104.22C215.52 101.742 216.609 99.0448 217.257 96.2276C220.398 82.4651 211.094 68.5457 199.412 60.6163C197.059 59.0254 194.61 57.5807 192.08 56.2905C174.918 68.4357 170.561 96.314 176.802 116.263Z" fill="#F5E2EF"/>
    <path d="M206.141 73.798C205.175 72.9658 203.597 74.324 204.437 75.2268C207.577 78.5712 207.232 82.1277 207.773 86.1159C207.962 87.5212 210.372 87.9216 211.008 86.5398C213.128 81.9471 209.83 76.9383 206.141 73.798Z" fill="#F46C6C"/>
    <path d="M148.406 63.3172C151.185 63.3172 153.438 61.0641 153.438 58.2848C153.438 55.5055 151.185 53.2524 148.406 53.2524C145.626 53.2524 143.373 55.5055 143.373 58.2848C143.373 61.0641 145.626 63.3172 148.406 63.3172Z" fill="#5B5957"/>
    <path d="M52.7905 150.124C47.1144 152.526 41.3676 155.203 37.1282 159.67C32.8887 164.137 30.4393 170.81 32.5433 176.604C34.8985 183.058 41.9172 186.481 48.5354 188.31C52.7591 189.48 57.3205 190.249 61.4814 188.867C57.9171 184.596 58.7572 178.096 61.2302 173.119C63.7032 168.141 67.5108 163.902 69.8111 158.838C71.185 155.784 74.8121 143.325 70.3764 141.692C67.8405 140.75 55.5933 148.938 52.7905 150.124Z" fill="#9C98EB"/>
    <path d="M56.606 190.775C53.7638 190.703 50.944 190.251 48.2214 189.432C39.1772 186.952 33.5246 182.767 31.4049 177.005C29.2852 171.242 31.2165 164.145 36.241 158.853C40.6767 154.143 46.6041 151.434 52.3038 149.032C53.0889 148.702 54.7768 147.713 56.7552 146.559C64.8572 141.849 68.7905 139.847 70.7611 140.569C71.2905 140.774 71.7699 141.091 72.1667 141.497C72.5635 141.903 72.8686 142.39 73.0613 142.924C74.9691 147.47 71.9073 157.056 70.8631 159.34C69.5496 162.055 68.0107 164.655 66.2625 167.113C64.7905 169.209 63.4557 171.399 62.2665 173.668C60.2096 177.821 59.0084 184.102 62.3685 188.137C62.4923 188.285 62.5779 188.461 62.6181 188.65C62.6583 188.839 62.6519 189.034 62.5993 189.22C62.5466 189.406 62.4495 189.576 62.3163 189.715C62.183 189.855 62.0177 189.96 61.8347 190.021C60.1433 190.55 58.378 190.805 56.606 190.775ZM53.2459 151.207C47.7503 153.515 42.1056 156.137 37.9839 160.479C33.5717 165.126 31.8681 171.297 33.6503 176.18C35.4324 181.063 40.5825 184.863 48.8494 187.171C51.9898 188.027 55.8681 188.867 59.5344 188.161C56.7238 183.379 57.9171 177.169 60.1625 172.6C61.3967 170.238 62.784 167.959 64.3155 165.778C65.986 163.428 67.4591 160.944 68.7198 158.351C69.9995 155.509 72.2841 147.148 70.8867 143.827C70.8123 143.6 70.6906 143.392 70.5295 143.216C70.3684 143.04 70.1717 142.9 69.9524 142.806C68.5079 142.485 61.1124 146.779 57.9564 148.616C55.8288 149.856 54.1487 150.838 53.2459 151.223V151.207Z" fill="#5B5957"/>
    <path d="M19.8014 89.0913C21.1091 88.8866 22.4448 88.9508 23.7268 89.2798C36.8377 91.5565 50.4196 89.2798 62.8788 84.5693C69.6698 81.9707 99.5186 70.4378 99.1339 60.9697C99.8405 78.3122 87.6246 94.1002 72.5746 102.744C62.8082 108.342 51.872 111.482 40.8809 113.837C35.0948 115.046 22.8711 120.432 17.4619 118.045C7.23227 113.492 8.90449 91.7371 19.8014 89.0913Z" fill="#DB5E8E"/>
    <path d="M20.9084 119.796C19.5658 119.835 18.2294 119.598 16.983 119.097C11.77 116.797 8.85739 110.288 9.54826 102.516C10.2077 94.995 14.1331 89.2482 19.5188 87.9292C20.9104 87.683 22.338 87.7284 23.7111 88.0627L23.9388 88.102C35.7778 90.1667 49.0614 88.5416 62.4628 83.3915C84.9082 74.8419 98.1369 66.4573 97.9563 60.9931C97.9317 60.8285 97.9421 60.6605 97.9868 60.5001C98.0315 60.3398 98.1094 60.1906 98.2156 60.0624C98.3217 59.9342 98.4537 59.8297 98.6029 59.7559C98.752 59.682 98.9151 59.6404 99.0814 59.6338C99.2477 59.6271 99.4136 59.6556 99.5682 59.7173C99.7228 59.779 99.8627 59.8725 99.9787 59.9919C100.095 60.1112 100.184 60.2537 100.242 60.4099C100.299 60.5662 100.323 60.7328 100.312 60.8989C100.971 77.0794 90.3096 93.8723 73.1634 103.749C64.5825 108.679 54.6983 112.141 41.1085 114.967C39.5384 115.289 37.4422 115.949 35.1969 116.655C30.6198 118.092 25.1714 119.796 20.9084 119.796ZM21.0654 90.1353C20.7325 90.1326 20.4004 90.1695 20.0762 90.2452C14.7533 91.5406 12.351 97.7742 11.9035 102.728C11.4089 108.224 13.089 114.787 17.9329 116.93C21.4344 118.5 28.9869 116.145 34.4981 114.394C36.7984 113.672 38.9731 112.997 40.6296 112.651C53.976 109.872 63.6325 106.496 71.9858 101.66C86.2978 93.4405 95.8837 80.2119 97.6737 66.7948C91.6678 73.6486 76.5236 80.5495 63.3028 85.6368C49.5403 90.9047 35.7778 92.5691 23.5227 90.4336L23.295 90.3944C22.5605 90.2453 21.8146 90.1586 21.0654 90.1353Z" fill="#5B5957"/>
    <path d="M8.52765 138.787C6.42363 134.076 4.27251 128.777 5.77987 123.808C7.28722 118.838 12.0605 115.603 17.0458 114.269C22.0311 112.934 27.2518 113.162 32.3706 112.958C53.2768 112.037 73.2054 103.846 88.7159 89.7979C87.8287 92.4436 86.9494 95.0972 85.8974 97.6487C81.7926 107.555 75.4256 116.363 67.3059 123.368C59.1863 130.372 49.5396 135.379 39.138 137.986C32.3078 139.635 26.9692 141.221 21.1832 145.162C17.7838 147.478 19.0634 149.456 14.455 147.125C11.6601 145.743 9.73668 141.511 8.52765 138.787Z" fill="#F0CC16"/>
    <path d="M17.4383 149.401C16.1958 149.273 14.9972 148.871 13.929 148.224C10.6866 146.583 8.65325 142.006 7.44422 139.274C5.08898 133.919 3.06347 128.683 4.64148 123.47C6.10173 118.642 10.6238 114.779 16.7317 113.13C20.7514 112.047 24.928 111.961 28.9633 111.874C30.0781 111.874 31.2008 111.827 32.3078 111.78C52.9365 110.836 72.5974 102.758 87.9308 88.9264C88.1245 88.7502 88.3712 88.6431 88.6323 88.6218C88.8933 88.6006 89.154 88.6664 89.3737 88.809C89.5934 88.9516 89.7597 89.1629 89.8467 89.4099C89.9336 89.657 89.9363 89.9259 89.8542 90.1747C88.9749 92.8125 88.0721 95.5132 87.0122 98.1275C82.8423 108.212 76.3661 117.178 68.1037 124.306C59.8413 131.434 50.0228 136.525 39.4363 139.172C33.0379 140.742 27.6601 142.218 21.874 146.175C21.1599 146.667 20.5178 147.256 19.9663 147.925C19.1184 148.883 18.4354 149.401 17.4383 149.401ZM9.5875 138.308C10.6003 140.593 12.4923 144.848 14.981 146.112C17.3363 147.305 17.3991 147.234 18.1213 146.371C18.8046 145.552 19.5971 144.831 20.4766 144.228C26.6081 140.051 32.4098 138.426 38.8161 136.879C49.0449 134.329 58.533 129.416 66.5177 122.533C74.5023 115.65 80.7609 106.99 84.7905 97.2482C85.2772 96.0392 85.7404 94.7988 86.1722 93.5584C70.9218 106.017 52.0656 113.235 32.3941 114.143C31.2636 114.19 30.1331 114.214 29.0026 114.237C25.0772 114.324 21.0732 114.41 17.3284 115.415C13.2303 116.522 8.33137 119.395 6.88682 124.153C5.54433 128.589 7.39712 133.378 9.5875 138.284V138.308Z" fill="#5B5957"/>
    <path d="M57.6502 89.4132C45.8269 94.1629 8.14295 99.2189 19.4481 73.9471C27.0006 57.0521 53.3872 61.5192 68.0447 56.1493C72.1271 54.6576 75.8955 52.3887 79.9779 50.8814C93.0181 46.0688 109.026 49.0207 119.758 40.1179C117.312 47.8747 112.849 54.8429 106.828 60.3102C102.227 64.4633 96.8493 67.5958 91.5108 70.7047L73.2969 81.3033C68.2095 84.2552 63.0987 87.2307 57.6502 89.4132Z" fill="#FCD0E7"/>
    <path d="M35.5187 94.4692C28.8298 94.4692 22.5021 93.2053 18.9771 89.5468C15.4521 85.8883 15.2322 80.4555 18.3569 73.4683C23.7582 61.4016 38.2822 59.6666 51.0948 58.1435C57.2341 57.4134 63.0358 56.7225 67.6364 55.0032C69.6384 54.2731 71.6325 53.3153 73.5481 52.3967C75.4637 51.4782 77.4735 50.5047 79.5618 49.7431C84.8297 47.7961 90.5529 47.0896 96.1113 46.4066C104.669 45.3467 112.747 44.3496 118.996 39.176C119.194 39.0134 119.438 38.919 119.694 38.9069C119.949 38.8947 120.201 38.9654 120.413 39.1084C120.625 39.2514 120.785 39.4591 120.869 39.7005C120.954 39.9419 120.958 40.204 120.881 40.4478C118.379 48.4087 113.799 55.558 107.613 61.1582C102.902 65.4134 97.4067 68.6087 92.0996 71.694L73.8857 82.2926C68.8454 85.2602 63.5933 88.2907 58.0977 90.5124C53.6463 92.3024 44.2803 94.4692 35.5187 94.4692ZM117.371 43.2505C111.091 46.9718 103.656 47.8982 96.4018 48.7932C90.9926 49.4605 85.4107 50.1514 80.3861 51.9963C78.4156 52.7265 76.4607 53.6607 74.5687 54.5635C72.6766 55.4664 70.5569 56.487 68.4451 57.2564C63.5933 59.0385 57.658 59.7451 51.3774 60.4988C38.5963 62.0218 25.3755 63.592 20.5237 74.434C17.8309 80.4555 17.8858 84.9933 20.6886 87.906C27.4638 94.9717 48.3627 91.8314 57.2027 88.3221C62.5805 86.1631 67.7228 83.1719 72.6923 80.2828L90.9062 69.6842C96.1113 66.6538 101.497 63.5292 106.027 59.4389C110.976 54.9632 114.854 49.4301 117.371 43.2505Z" fill="#5B5957"/>
    <path d="M69.4264 30.909C60.3744 36.1926 52.6728 43.4938 45.3637 51.0306C39.1615 57.4133 32.0173 64.5262 23.1302 64.2749C25.1243 64.3299 29.034 67.9962 31.7661 68.428C35.1341 68.9619 39.0202 68.428 42.349 67.8549C50.4589 66.4967 57.9014 62.8618 64.9279 58.7165C73.1713 53.8333 82.5216 51.0306 91.9426 49.4604C98.3645 48.3927 110.934 50.536 116.359 46.7441C128.198 38.4693 113.391 30.485 105.988 27.1406C93.6226 21.5429 81.7679 23.8511 69.9446 30.6028L69.4264 30.909Z" fill="#E08151"/>
    <path d="M34.7337 69.8177C33.6826 69.8235 32.6326 69.7473 31.5933 69.59C29.9682 69.3309 28.2018 68.2318 26.4903 67.1641C25.2813 66.379 23.7818 65.4762 23.1223 65.4526C22.8106 65.4403 22.5164 65.3057 22.3033 65.0779C22.0902 64.8501 21.9754 64.5475 21.9839 64.2357C21.9859 64.0794 22.0192 63.925 22.0819 63.7818C22.1445 63.6385 22.2352 63.5093 22.3487 63.4017C22.4621 63.2941 22.596 63.2104 22.7423 63.1554C22.8887 63.1004 23.0446 63.0754 23.2008 63.0817C31.8367 63.3172 38.9025 56.0159 44.5472 50.1906C51.66 42.858 59.5344 35.329 68.8847 29.8884L69.4186 29.5822C82.765 21.9512 94.918 20.805 106.537 26.0651C116.374 30.5165 121.579 35.0857 121.995 39.6234C122.262 42.5125 120.614 45.2368 117.081 47.7019C113.25 50.3869 106.427 50.3398 100.414 50.3005C97.667 50.1961 94.9165 50.3011 92.1859 50.6146C81.8543 52.3339 72.9043 55.3957 65.5638 59.7294C59.5344 63.2544 51.5109 67.5174 42.5295 69.009C39.9572 69.4902 37.35 69.7606 34.7337 69.8177ZM27.4795 65.0051L27.7072 65.1464C29.1517 66.0493 30.7847 67.062 31.9309 67.2426C34.9927 67.7293 38.6434 67.2426 42.137 66.6695C50.7336 65.2249 58.5059 61.1111 64.3077 57.6803C71.8916 53.2053 81.1241 50.0415 91.7384 48.2593C94.6037 47.9193 97.4911 47.8038 100.374 47.9139C106.035 47.9139 112.457 47.9924 115.668 45.7392C118.447 43.7922 119.766 41.8138 119.593 39.8197C119.263 36.2868 114.262 32.1652 105.517 28.2005C94.5255 23.2074 83.3773 24.2751 70.5491 31.6156L70.0309 31.9139C60.9475 37.2289 53.2145 44.6322 46.2194 51.8157C41.4226 56.7775 35.1262 63.2622 27.4795 65.0051Z" fill="#5B5957"/>
    <path d="M47.7268 129.539C41.3833 131.548 34.7494 132.75 28.6885 135.505C22.6277 138.261 16.9908 142.885 15.2008 149.315C13.5522 155.203 15.4207 161.562 18.3961 166.909C20.2175 170.19 22.8868 173.511 26.6081 173.974C31.3186 174.594 35.1969 170.496 38.6355 167.168C50.6708 155.517 67.9583 148.326 75.8877 132.757C77.0575 130.506 77.9486 128.12 78.5412 125.652C79.6676 120.201 79.6943 114.58 78.6197 109.119C70.1016 119.976 61.3244 125.205 47.7268 129.539Z" fill="#7BC9CB"/>
    <path d="M29.2146 173.503C28.8338 173.502 28.4535 173.476 28.0762 173.425C24.6218 172.969 21.5679 170.386 18.9849 165.731C16.402 161.075 13.7642 154.143 15.6876 147.242C17.9643 139.077 25.5247 134.587 29.8191 132.632C33.9077 130.908 38.1296 129.519 42.4432 128.479C44.6022 127.898 46.8318 127.301 48.9829 126.618C63.1536 122.143 71.3734 116.734 79.2949 106.661C79.436 106.482 79.6257 106.348 79.8412 106.274C80.0566 106.2 80.2888 106.19 80.51 106.245C80.7311 106.3 80.9318 106.417 81.0881 106.582C81.2443 106.748 81.3495 106.955 81.3911 107.179C82.501 112.799 82.4716 118.584 81.3047 124.192C80.6909 126.754 79.7682 129.232 78.5569 131.572C73.289 141.919 63.9937 148.663 55.0045 155.179C50.2155 158.649 45.2616 162.245 41.0771 166.296L40.4334 166.916C37.2616 170.025 33.6895 173.503 29.2146 173.503ZM49.713 128.879C47.5148 129.578 45.2538 130.182 43.0712 130.771C38.882 131.779 34.781 133.123 30.8083 134.791C24.1272 137.821 19.4481 142.594 17.9722 147.878C16.2607 154.01 18.7102 160.345 21.0576 164.585C23.2558 168.51 25.7209 170.732 28.3902 171.077C32.2607 171.595 35.5894 168.353 38.7926 165.228L39.4363 164.6C43.7386 160.432 48.7631 156.789 53.6227 153.272C62.3921 146.912 71.4519 140.341 76.4608 130.504C77.585 128.337 78.4418 126.04 79.0123 123.666C79.948 119.242 80.1074 114.689 79.4833 110.21C71.7346 119.387 63.397 124.561 49.713 128.887V128.879Z" fill="#5B5957"/>
    <defs>
        <linearGradient id="paint1_linear_1112_12145" x1="170.175" y1="14.9196" x2="184.353" y2="22.9414" gradientUnits="userSpaceOnUse">
            <stop stop-color="#EAC2D9"/>
            <stop offset="1" stop-color="#9A78D1"/>
        </linearGradient>
        <linearGradient id="paint2_linear_1112_12145" x1="142.842" y1="16.9128" x2="128.127" y2="39.1362" gradientUnits="userSpaceOnUse">
            <stop stop-color="#F3B0BB"/>
            <stop offset="0.66" stop-color="#E596A6"/>
            <stop offset="1" stop-color="#E0778E"/>
        </linearGradient>
    </defs>
</svg>
