<svg width="340" height="200" viewBox="0 0 340 200" fill="none" xmlns="http://www.w3.org/2000/svg">
    <g opacity="0.34">
        <path d="M202.821 112.598C191.182 113.707 180.517 121.559 176.235 132.197C170.664 146.017 175.793 163.489 188.153 172.837C196.068 178.67 205.867 181.356 215.649 180.374C216.479 180.302 217.302 180.206 218.119 180.086C224.385 191.977 237.592 199.982 251.692 200C252.9 200 254.126 199.946 255.298 199.847C265.53 198.945 275.465 194.311 283.668 186.667C288.056 188.859 292.812 190.216 297.696 190.669C300.17 190.897 302.659 190.897 305.133 190.669C323.056 189.101 337.263 175.686 338.904 158.774C339.355 153.757 338.713 148.703 337.021 143.959C335.329 139.215 332.628 134.894 329.105 131.296C327.391 129.123 325.241 127.332 322.794 126.04C321.875 125.439 320.925 124.862 319.945 124.309C319.044 115.294 313.22 106.161 304.448 100.392C300.666 97.8849 296.46 96.0857 292.034 95.0819C284.278 71.682 270.134 50.9172 251.198 35.1329C232.262 19.3486 209.29 9.17383 184.876 5.7578C160.462 2.34176 135.58 5.82064 113.039 15.8015C90.4978 25.7823 71.197 41.8673 57.3163 62.2397C56.0903 62.2397 54.8732 62.2848 53.7103 62.393C40.7916 63.5199 30.5955 70.741 27.1247 80.8199C22.6945 81.4995 18.5038 83.2733 14.9321 85.9808C11.3603 88.6884 8.52034 92.2441 6.6693 96.326C1.7831 107.577 5.66862 121.974 15.6033 129.853C21.9637 134.725 29.9015 137.073 37.8887 136.443C40.594 140.963 44.3994 144.725 48.9502 147.378C53.501 150.031 58.6493 151.489 63.9154 151.616C65.1429 151.641 66.3708 151.599 67.5936 151.49C75.2271 150.706 82.45 147.65 88.3284 142.718C91.3833 144.116 94.638 145.029 97.9746 145.422C100.204 145.689 102.454 145.725 104.691 145.531C119.115 144.268 130.402 133.811 132.034 120.126C132.488 116.056 132.059 111.936 130.777 108.047C129.495 104.158 127.39 100.59 124.605 97.5881C123.189 95.7537 121.421 94.2211 119.404 93.0805L118.421 92.4224C118.214 90.9415 117.867 89.4835 117.384 88.0681C125.121 80.2146 134.627 74.33 145.107 70.9074C155.586 67.4848 166.734 66.624 177.614 68.3971C194.041 70.9763 208.967 79.4457 219.607 92.2241C210.934 96.7316 204.84 104.106 202.821 112.598Z" fill="#444341"/>
    </g>
    <path d="M198.241 108.217C186.602 109.326 175.938 117.178 171.655 127.816C166.084 141.636 171.214 159.107 183.573 168.456C191.488 174.289 201.287 176.975 211.07 175.993C211.899 175.921 212.722 175.824 213.54 175.704C219.805 187.595 233.012 195.601 247.112 195.619C248.32 195.619 249.546 195.565 250.718 195.465C260.95 194.564 270.885 189.93 279.089 182.285C283.476 184.477 288.233 185.834 293.116 186.288C295.59 186.516 298.08 186.516 300.554 186.288C318.476 184.719 332.684 171.305 334.325 154.392C334.776 149.376 334.133 144.321 332.442 139.577C330.75 134.833 328.049 130.513 324.525 126.914C322.811 124.741 320.662 122.951 318.214 121.658C317.295 121.057 316.345 120.48 315.366 119.928C314.464 110.912 308.64 101.78 299.869 96.0104C296.118 93.5217 291.949 91.7291 287.563 90.7185C279.823 67.2914 265.68 46.4981 246.736 30.6912C227.792 14.8843 204.802 4.69484 180.367 1.2756C155.932 -2.14365 131.028 1.34384 108.473 11.3435C85.9171 21.3431 66.6103 37.4557 52.7367 57.8583C51.5106 57.8583 50.2936 57.9034 49.1306 58.0116C36.1669 59.1385 25.9708 66.3596 22.518 76.4385C18.0878 77.1181 13.8971 78.8919 10.3254 81.5995C6.75362 84.307 3.91365 87.8627 2.06261 91.9446C-2.75148 103.177 1.107 117.575 11.0777 125.427C17.4297 130.296 25.3568 132.646 33.3361 132.026C36.0414 136.546 39.8468 140.307 44.3976 142.96C48.9484 145.613 54.0967 147.071 59.3628 147.198C60.5901 147.227 61.818 147.188 63.041 147.081C70.6745 146.298 77.8974 143.242 83.7758 138.309C86.8307 139.708 90.0854 140.62 93.422 141.014C95.6511 141.28 97.9017 141.317 100.138 141.122C114.563 139.86 125.849 129.402 127.481 115.718C127.935 111.648 127.506 107.528 126.225 103.639C124.943 99.7493 122.838 96.182 120.053 93.1796C118.637 91.3451 116.868 89.8124 114.851 88.6721L113.868 88.014C113.661 86.533 113.314 85.0751 112.832 83.6597C120.561 75.7904 130.066 69.8898 140.547 66.4529C151.029 63.016 162.182 62.1431 173.071 63.9075C189.497 66.4867 204.424 74.9561 215.063 87.7345C206.373 92.3412 200.26 99.7066 198.241 108.217Z" fill="white"/>
    <path d="M250.114 186.027C249.131 186.117 248.131 186.153 247.148 186.153C233.625 186.153 221.347 176.885 218.3 164.949C215.747 165.785 213.106 166.324 210.429 166.554C202.552 167.366 194.653 165.227 188.261 160.55C178.579 153.238 174.531 139.653 178.849 128.997C180.588 124.914 183.399 121.379 186.985 118.765C190.57 116.15 194.796 114.556 199.215 114.149C201.269 113.96 203.341 114.072 205.363 114.482C205.237 112.98 205.279 111.468 205.489 109.975C206.869 100.229 215.406 92.3773 227.288 89.6457C219.755 77.6321 209.052 67.931 196.359 61.6112C183.665 55.2915 169.473 52.5983 155.347 53.8285C135.314 55.6437 116.774 65.1852 103.654 80.4322C105.716 83.5038 106.635 87.2014 106.251 90.8808C107.841 91.5617 109.353 92.4142 110.758 93.423C112.092 94.1281 113.243 95.1343 114.121 96.362C116.249 98.5523 117.869 101.185 118.864 104.072C119.86 106.959 120.207 110.03 119.881 113.067C118.646 123.092 110.28 130.755 99.4892 131.656C97.7811 131.805 96.0622 131.778 94.3596 131.575C90.1384 131.096 86.1179 129.513 82.703 126.986C77.0595 133.144 69.7753 136.984 62.3649 137.633C61.4267 137.715 60.4847 137.745 59.5431 137.723C49.4462 137.489 40.431 130.511 38.006 121.676C36.4456 122.106 34.8494 122.393 33.237 122.533C27.0253 123.146 20.811 121.392 15.8377 117.62C8.5445 111.859 5.67769 101.392 9.16654 93.2337C10.5582 90.198 12.7248 87.5824 15.4484 85.65C18.1721 83.7177 21.3566 82.5368 24.6816 82.2262C26.1134 82.097 27.5559 82.1546 28.9728 82.3975C28.9649 81.522 29.0313 80.6474 29.1711 79.7831C30.5775 71.2548 38.8534 64.9442 49.7797 63.9706C52.104 63.7711 54.4427 63.8164 56.7575 64.1058C69.5637 43.812 87.962 27.6515 109.738 17.5695C131.514 7.48742 155.74 3.91341 179.499 7.27758C203.259 10.6418 225.54 20.8007 243.661 36.5319C261.782 52.263 274.971 72.8959 281.64 95.9473C286.678 96.272 291.541 97.9269 295.731 100.743C304.214 106.324 308.92 115.366 307.694 123.119C310.06 124.006 312.309 125.177 314.392 126.608C316.125 127.466 317.63 128.724 318.782 130.277C321.614 133.079 323.794 136.47 325.167 140.209C326.539 143.949 327.071 147.945 326.725 151.913C325.445 165.12 314.185 175.614 299.959 176.858C297.956 177.042 295.94 177.042 293.937 176.858C288.122 176.327 282.567 174.196 277.89 170.701C270.353 179.581 260.364 185.125 250.114 186.027Z" fill="#F7F7F7"/>
    <path d="M320.721 128.591C319.381 126.828 317.662 125.389 315.69 124.381C314.029 123.252 312.27 122.275 310.434 121.46C310.768 113.247 305.737 104.25 297.146 98.5978C293.09 95.8886 288.461 94.1546 283.623 93.5312C276.582 70.3648 263.067 49.6929 244.67 33.9501C226.273 18.2073 203.761 8.04929 179.785 4.67227C155.808 1.29524 131.366 4.83987 109.337 14.8887C87.3072 24.9376 68.608 41.0721 55.4412 61.3923C53.4823 61.2302 51.5133 61.2302 49.5543 61.3923C37.438 62.4741 28.2335 69.6862 26.6379 79.3685V79.5938C25.9219 79.5794 25.2056 79.6035 24.4923 79.666C20.6976 80.0276 17.0659 81.3852 13.9646 83.6016C10.8634 85.8179 8.40267 88.8142 6.8316 92.2872C2.901 101.456 6.10138 113.247 14.2781 119.711C19.767 123.89 26.632 125.842 33.4984 125.174C34.46 125.09 35.4126 124.961 36.3562 124.787C39.9081 133.558 49.2118 140.112 59.5161 140.383C60.5538 140.407 61.5922 140.374 62.6263 140.284C70.3758 139.439 77.5987 135.953 83.0816 130.412C86.4291 132.469 90.1862 133.767 94.0891 134.217C95.9682 134.441 97.8654 134.471 99.7506 134.307C111.768 133.252 121.089 124.67 122.433 113.419C122.81 110.04 122.445 106.619 121.363 103.395C120.28 100.172 118.507 97.224 116.167 94.7573C115.109 93.3177 113.749 92.127 112.183 91.2684C111.156 90.5302 110.077 89.8673 108.955 89.2851C108.941 86.3048 108.205 83.3724 106.809 80.7388C115.116 71.4905 125.615 64.4789 137.34 60.3485C149.065 56.2181 161.64 55.1014 173.909 57.1011C183.792 58.6732 193.254 62.2357 201.719 67.5727C210.185 72.9096 217.479 79.9099 223.159 88.1492C212.106 91.7553 204.29 99.8689 202.902 109.65C202.812 110.251 202.749 110.882 202.713 111.543C201.461 111.447 200.204 111.447 198.953 111.543C194.065 111.993 189.39 113.756 185.422 116.646C181.455 119.536 178.343 123.446 176.415 127.96C171.682 139.68 176.091 154.582 186.666 162.569C193.564 167.632 202.097 169.955 210.61 169.087C212.614 168.912 214.6 168.578 216.551 168.086C220.878 179.86 233.382 188.668 247.112 188.695C248.167 188.695 249.24 188.65 250.303 188.56C260.527 187.658 270.488 182.466 278.25 174.091C282.89 177.088 288.185 178.921 293.684 179.436C295.843 179.635 298.016 179.635 300.175 179.436C315.636 178.084 327.87 166.617 329.276 152.175C329.659 147.857 329.092 143.509 327.614 139.434C326.136 135.36 323.783 131.659 320.721 128.591ZM324.155 151.688C322.965 163.921 312.517 173.207 299.724 174.325C297.88 174.495 296.024 174.495 294.18 174.325C287.996 173.762 282.155 171.235 277.511 167.113C270.804 175.921 260.788 182.556 249.889 183.511C248.981 183.589 248.08 183.629 247.184 183.629C234.473 183.629 221.689 174.127 220.283 161.496C217.089 162.882 213.691 163.741 210.222 164.039C202.981 164.778 195.721 162.824 189.83 158.548C181.302 152.103 177.254 139.887 181.247 129.97C184.195 122.641 191.687 117.439 199.413 116.763C202.165 116.504 204.941 116.877 207.527 117.854C207.611 116.843 207.753 115.838 207.95 114.843C207.786 113.374 207.807 111.89 208.013 110.426C209.42 100.509 219.048 93.2247 231.363 91.602C225.027 80.2979 216.024 70.7148 205.136 63.6877C194.249 56.6606 181.808 52.4028 168.898 51.2854C155.988 50.168 143.001 52.2249 131.068 57.2769C119.135 62.3288 108.619 70.2225 100.436 80.27C103.483 84.1825 104.61 88.7803 103.239 92.4765C105.469 93.174 107.57 94.2307 109.46 95.6047C110.548 96.1565 111.479 96.9754 112.164 97.9847C114.061 99.9064 115.505 102.226 116.392 104.776C117.279 107.326 117.587 110.041 117.294 112.724C116.23 121.631 108.567 128.285 99.2638 129.096C97.7328 129.23 96.1921 129.206 94.6661 129.024C90.082 128.498 85.7861 126.521 82.4055 123.38C77.3931 129.691 70.0548 134.379 62.1395 135.1C61.2942 135.174 60.4455 135.201 59.5972 135.181C50.1583 134.965 40.8277 127.717 39.9893 118.314C37.7616 119.224 35.4091 119.793 33.0116 120C27.4496 120.569 21.8787 119.007 17.4244 115.627C11.1949 110.705 8.40925 101.564 11.5195 94.2705C12.7204 91.6516 14.59 89.3953 16.9402 87.7288C19.2904 86.0623 22.0382 85.0444 24.907 84.7775C27.0523 84.5709 29.2159 84.88 31.2175 85.6791C31.2958 84.9306 31.4161 84.1872 31.5782 83.4523C31.4805 82.3609 31.5198 81.2615 31.6954 80.1798C32.9575 72.6792 40.5482 67.3603 50.0051 66.5399C52.5831 66.3201 55.1785 66.423 57.7311 66.8464L58.0466 66.9095C70.474 46.6055 88.5732 30.3833 110.111 20.2443C131.65 10.1053 155.685 6.49293 179.252 9.85281C202.819 13.2127 224.887 23.3979 242.734 39.1519C260.581 54.9059 273.425 75.5396 279.684 98.5076C284.897 98.4295 290.007 99.9627 294.315 102.898C302.907 108.559 307.063 117.809 304.629 124.814C307.651 125.688 310.51 127.049 313.094 128.844C314.58 129.549 315.862 130.623 316.817 131.963C319.43 134.498 321.444 137.584 322.714 140.997C323.983 144.409 324.476 148.061 324.155 151.688Z" fill="#5B5957"/>
    <path d="M52.0425 107.315C57.9424 78.9841 74.539 54.0185 98.379 37.6133C122.219 21.2081 151.466 14.6267 180.036 19.2384C208.605 23.8501 234.296 39.2999 251.763 62.373C269.231 85.4461 277.129 114.366 273.815 143.115L283.155 144.62C286.852 113.402 278.345 81.9628 259.412 56.8681C240.478 31.7734 212.581 14.9639 181.547 9.95021C150.514 4.93654 118.743 12.1064 92.8702 29.9624C66.9976 47.8184 49.0238 74.9798 42.7028 105.774L52.0425 107.315Z" fill="#9C98EB"/>
    <path d="M283.263 146.134C283.137 146.15 283.01 146.15 282.884 146.134L273.544 144.629C273.153 144.566 272.8 144.356 272.56 144.04C272.32 143.724 272.211 143.328 272.255 142.934C275.519 114.586 267.729 86.0716 250.505 63.3209C233.281 40.5703 207.95 25.3352 179.78 20.7846C151.61 16.234 122.771 22.7182 99.2596 38.8885C75.7485 55.0588 59.3762 79.6703 53.5481 107.604C53.4673 107.993 53.2393 108.336 52.9118 108.561C52.5842 108.786 52.1824 108.876 51.7901 108.812L42.4504 107.315C42.2483 107.282 42.0549 107.208 41.8816 107.099C41.7082 106.989 41.5584 106.847 41.4409 106.679C41.3234 106.511 41.2405 106.321 41.1972 106.121C41.1538 105.921 41.1508 105.714 41.1883 105.512C47.65 74.3934 65.866 46.9663 92.0434 28.9418C118.221 10.9173 150.342 3.6848 181.718 8.75019C213.095 13.8156 241.308 30.7885 260.484 56.1347C279.659 81.4809 288.319 113.247 284.66 144.818C284.62 145.171 284.459 145.5 284.204 145.748C283.95 145.996 283.617 146.149 283.263 146.18V146.134ZM275.483 141.798L281.793 142.817C285.003 112.225 276.376 81.5645 257.684 57.1345C238.993 32.7045 211.656 16.3592 181.289 11.4561C150.922 6.55307 119.831 13.4644 94.4005 30.7705C68.9704 48.0767 51.1325 74.4637 44.551 104.512L50.8616 105.53C57.2313 77.2133 74.1634 52.3927 98.2044 36.1306C122.245 19.8684 151.584 13.3898 180.238 18.0159C208.892 22.642 234.701 38.0244 252.403 61.0259C270.105 84.0274 278.366 112.915 275.501 141.798H275.483Z" fill="#5B5957"/>
    <path d="M63.5278 109.118C68.9468 83.8456 83.8655 61.6195 105.202 47.0312C126.539 32.4429 152.664 26.6069 178.18 30.7287C203.697 34.8505 226.656 48.6152 242.314 69.1795C257.972 89.7438 265.134 115.537 262.321 141.23L273.806 143.087C277.077 114.359 269.155 85.4742 251.686 62.434C234.216 39.3939 208.542 23.9694 179.996 19.3648C151.451 14.7603 122.229 21.3296 98.4011 37.7081C74.5729 54.0867 57.9704 79.0153 52.0425 107.315L63.5278 109.118Z" fill="#7BCACA"/>
    <path d="M273.923 144.62C273.797 144.636 273.67 144.636 273.544 144.62L262.059 142.763C261.669 142.7 261.318 142.491 261.078 142.177C260.838 141.863 260.728 141.47 260.77 141.077C263.491 115.802 256.412 90.4455 240.993 70.2345C225.573 50.0236 202.988 36.498 177.891 32.4455C152.795 28.393 127.1 34.1224 106.103 48.4529C85.1057 62.7833 70.4059 84.6227 65.0333 109.47C64.9506 109.857 64.7217 110.198 64.3944 110.421C64.0671 110.645 63.6663 110.733 63.2754 110.669L51.7901 108.812C51.588 108.778 51.3946 108.705 51.2212 108.595C51.0479 108.486 50.8981 108.343 50.7806 108.175C50.663 108.007 50.5802 107.818 50.5368 107.617C50.4934 107.417 50.4904 107.21 50.528 107.009C56.5556 78.3361 73.3934 53.0859 97.5461 36.4997C121.699 19.9136 151.311 13.2656 180.236 17.9358C209.161 22.606 235.176 38.2356 252.882 61.5802C270.587 84.9248 278.623 114.191 275.32 143.304C275.28 143.657 275.119 143.985 274.864 144.234C274.61 144.482 274.277 144.634 273.923 144.665V144.62ZM264.006 139.932L272.445 141.293C275.232 113.196 267.197 85.094 249.977 62.7179C232.757 40.3418 207.65 25.3774 179.776 20.8766C151.902 16.3758 123.361 22.6777 99.9736 38.4971C76.5863 54.3164 60.1146 78.4615 53.9177 106.008L62.3558 107.369C68.2205 82.0946 83.464 59.9898 105.004 45.5248C126.544 31.0598 152.773 25.3139 178.388 29.449C204.003 33.5841 227.091 47.2917 242.985 67.8C258.88 88.3082 266.393 114.087 264.006 139.923V139.932Z" fill="#5B5957"/>
    <path d="M74.1206 110.849C79.1169 88.424 92.4908 68.7542 111.508 55.8618C130.525 42.9694 153.748 37.8282 176.43 41.4895C199.111 45.1508 219.538 57.3379 233.532 75.5591C247.527 93.7803 254.032 116.659 251.719 139.517L262.312 141.23C265.102 115.549 257.928 89.7767 242.27 69.2309C226.612 48.6851 203.665 34.9336 178.163 30.814C152.661 26.6944 126.551 32.5211 105.22 47.0916C83.8895 61.6622 68.9655 83.8649 63.5278 109.118L74.1206 110.849Z" fill="#F0CC16"/>
    <path d="M262.438 142.772C262.312 142.788 262.185 142.788 262.059 142.772L251.502 141.041C251.114 140.979 250.765 140.77 250.525 140.459C250.285 140.147 250.174 139.755 250.213 139.364C252.596 116.841 246.258 94.2605 232.503 76.2669C218.747 58.2732 198.62 46.2338 176.261 42.6246C153.901 39.0154 131.008 44.1106 112.29 56.8625C93.572 69.6145 80.4513 89.0537 75.6261 111.183C75.5396 111.56 75.3149 111.892 74.9963 112.112C74.6776 112.332 74.288 112.425 73.9042 112.373L63.3115 110.66C63.1047 110.627 62.9069 110.552 62.73 110.44C62.5532 110.327 62.4011 110.18 62.283 110.007C62.1649 109.834 62.0833 109.639 62.0431 109.434C62.0029 109.228 62.005 109.017 62.0493 108.812C67.6832 83.2897 82.8661 60.8891 104.486 46.2019C126.105 31.5147 152.524 25.6534 178.327 29.8195C204.129 33.9857 227.361 47.8636 243.26 68.6086C259.158 89.3536 266.52 115.394 263.835 141.393C263.797 141.747 263.637 142.078 263.382 142.328C263.127 142.578 262.793 142.732 262.438 142.763V142.772ZM253.423 138.264L260.977 139.481C263.244 114.451 255.933 89.4921 240.519 69.641C225.104 49.7899 202.734 36.5242 177.922 32.5204C153.11 28.5166 127.703 34.0728 106.827 48.0679C85.9511 62.063 71.1603 83.4553 65.439 107.928L72.9396 109.118C78.3325 86.6462 92.0162 67.0411 111.25 54.2294C130.484 41.4177 153.848 36.3454 176.663 40.0284C199.478 43.7113 220.059 55.8777 234.284 74.0907C248.51 92.3037 255.33 115.219 253.378 138.246L253.423 138.264Z" fill="#5B5957"/>
    <path d="M84.6052 112.544C89.1702 92.9293 101.009 75.7778 117.73 64.5538C134.451 53.3297 154.809 48.8696 174.691 52.0742C194.574 55.2788 212.499 65.9094 224.847 81.8188C237.195 97.7282 243.045 117.731 241.216 137.787L251.701 139.481C254.014 116.623 247.509 93.7442 233.514 75.523C219.519 57.3019 199.093 45.1147 176.412 41.4534C153.73 37.7921 130.507 42.9333 111.49 55.8257C92.4727 68.7181 79.0988 88.3879 74.1025 110.813L84.6052 112.544Z" fill="#E08151"/>
    <path d="M251.836 141.059C251.71 141.075 251.583 141.075 251.457 141.059L240.973 139.364C240.586 139.302 240.238 139.095 239.999 138.785C239.759 138.475 239.647 138.086 239.684 137.696C241.491 118.025 235.764 98.4004 223.659 82.7891C211.554 67.1778 193.975 56.7437 174.473 53.5954C154.971 50.4472 135.001 54.8195 118.598 65.8289C102.196 76.8382 90.5847 93.6636 86.1107 112.905C86.022 113.285 85.7921 113.618 85.4674 113.836C85.1427 114.053 84.7475 114.14 84.3617 114.077L73.9042 112.373C73.6965 112.34 73.4977 112.265 73.3202 112.152C73.1427 112.039 72.9901 111.891 72.8719 111.717C72.7536 111.543 72.6723 111.347 72.6327 111.14C72.5932 110.934 72.5964 110.721 72.6421 110.516C77.7861 87.7719 91.4062 67.8441 110.729 54.7908C130.051 41.7374 153.622 36.5402 176.642 40.2576C199.663 43.975 220.4 56.3273 234.632 74.7991C248.863 93.2709 255.519 116.473 253.242 139.68C253.206 140.036 253.047 140.369 252.792 140.621C252.537 140.872 252.202 141.027 251.845 141.059H251.836ZM242.875 136.551L250.321 137.751C252.143 115.536 245.522 93.4518 231.779 75.9041C218.036 58.3564 198.182 46.6358 176.178 43.081C154.174 39.5262 131.64 44.3986 113.07 56.7261C94.5005 69.0535 81.2618 87.9294 75.9957 109.587L83.4422 110.786C88.38 91.1027 100.522 73.9878 117.47 62.8244C134.417 51.6611 154.935 47.2618 174.969 50.496C195.003 53.7302 213.095 64.3626 225.668 80.2916C238.242 96.2206 244.382 116.287 242.875 136.524V136.551Z" fill="#5B5957"/>
    <path d="M62.2837 136.642C61.3845 136.721 60.4816 136.751 59.5791 136.732C49.5363 136.497 40.6473 129.348 38.7632 120.414C36.9451 120.998 35.0672 121.376 33.1648 121.541C27.2121 122.134 21.2553 120.456 16.4868 116.844C9.54512 111.354 6.81354 101.392 10.1221 93.6665C11.434 90.7969 13.4788 88.3236 16.0505 86.4957C18.6223 84.6677 21.6303 83.5496 24.7717 83.254C26.5195 83.0928 28.2821 83.2331 29.9824 83.6687L30.0455 83.3802C29.9621 82.2362 30.0135 81.0864 30.1988 79.9544C31.533 71.922 39.4213 65.9179 49.8698 64.9983C52.5773 64.7673 55.3031 64.8763 57.9835 65.3229C65.3398 66.5309 71.8217 70.1099 75.8064 75.0682C76.8347 73.8856 78.0898 72.9212 79.4973 72.2322C80.9049 71.5431 82.4364 71.1433 84.0011 71.0565C88.571 70.8004 93.091 72.1141 96.8117 74.7798C103.005 79.0529 106.305 85.8594 105.124 91.5119C106.949 92.2154 108.676 93.1517 110.262 94.2975C111.498 94.9378 112.561 95.8653 113.363 97.0021C115.39 99.0917 116.931 101.603 117.875 104.356C118.819 107.11 119.144 110.038 118.827 112.932C117.691 122.47 109.703 129.754 99.408 130.656C97.7718 130.797 96.1254 130.77 94.4948 130.574C90.1359 130.08 86.0081 128.354 82.5948 125.598C77.0324 131.999 69.7122 135.993 62.2837 136.642Z" fill="#F7F7F7"/>
    <path d="M250.024 184.999C249.068 185.08 248.104 185.125 247.157 185.125C233.634 185.125 221.491 175.623 219.039 163.606C216.237 164.63 213.312 165.279 210.339 165.535C202.713 166.328 195.065 164.262 188.874 159.738C179.553 152.698 175.649 139.635 179.796 129.348C181.464 125.453 184.153 122.08 187.579 119.586C191.005 117.091 195.04 115.568 199.26 115.177C201.587 114.96 203.933 115.155 206.192 115.754C206.246 115.411 206.301 115.068 206.373 114.717C206.221 113.198 206.251 111.667 206.463 110.155C208.013 99.2018 218.651 91.0881 232.94 89.817C236.246 89.5321 239.573 89.6258 242.857 90.0965C252.936 91.5209 261.852 96.2989 267.198 103.033C269.65 99.5804 273.68 97.4438 278.593 97.0201C284.471 96.6561 290.301 98.2716 295.154 101.609C303.61 107.18 308.181 116.267 306.513 123.795C309.12 124.689 311.592 125.935 313.86 127.5C315.497 128.298 316.915 129.483 317.989 130.953C320.729 133.653 322.84 136.924 324.171 140.533C325.502 144.142 326.02 148 325.688 151.832C324.453 164.553 313.59 174.658 299.86 175.857C297.919 176.036 295.967 176.036 294.027 175.857C288.069 175.317 282.401 173.038 277.727 169.303C270.308 178.391 260.292 184.097 250.024 184.999Z" fill="#F7F7F7"/>
    <path d="M286.454 127.176L288.546 137.318L298.435 140.843L290.863 144.791L291.097 154.456L283.29 148.767L274.176 151.967L277.881 142.835L271.561 133.396L281.108 135.957L286.454 127.176Z" fill="#F2DE67"/>
    <path d="M32.669 81.496L34.3638 89.6997L42.3602 92.5485L36.239 95.7489L36.4283 103.565L30.1087 98.9583L22.7343 101.555L25.7273 94.1622L20.6248 86.5264L28.3417 88.5909L32.669 81.496Z" fill="#F2DE67"/>
</svg>
