<svg width="257" height="200" viewBox="0 0 257 200" fill="none" xmlns="http://www.w3.org/2000/svg">
    <g opacity="0.34">
        <path d="M255.107 135.309C253.847 133.902 252.226 132.868 250.42 132.317C249.565 130.525 248.479 128.852 247.19 127.342C245.993 125.856 244.782 124.299 243.585 122.792C237.946 115.502 232.128 107.975 223.201 103.475C213.922 98.7527 205.478 96.0344 197.605 95.1475C197.54 93.7054 197.453 92.2129 197.345 90.8213C197.814 90.6987 198.232 90.5617 198.571 90.4464C202.645 89.0692 205.183 86.7763 206.113 83.6398V83.5605C207.894 83.027 209.357 81.5488 210.439 79.155C211.473 77.0273 211.987 74.6846 211.939 72.3196C213.201 71.202 213.907 69.4932 214.477 67.9285C215.392 65.4337 216.214 62.7659 215.371 59.9972C214.937 58.6026 214.126 57.355 213.027 56.392C213.456 54.8292 213.569 53.1967 213.359 51.5899C213.187 49.267 212.21 47.0769 210.598 45.3962C210.987 43.6081 210.67 41.5243 209.653 39.1881C209.306 38.3862 208.86 37.6306 208.326 36.9385C208.418 36.5398 208.419 36.1255 208.329 35.7263C208.239 35.3271 208.061 34.9533 207.807 34.6326C207.552 34.3119 207.229 34.0526 206.861 33.8739C206.493 33.6951 206.089 33.6016 205.68 33.6001H205.363C203.301 33.6001 201.037 31.1775 199.256 29.2307C196.4 26.1879 193.221 23.0442 189.493 20.7441L189.291 20.6215C186.505 18.8375 183.289 17.8408 179.983 17.7374C177.706 17.7478 175.465 18.3068 173.45 19.367C172.909 13.9736 171.417 9.08502 169.124 5.34286C168.468 4.23571 167.53 3.32253 166.405 2.69667C165.524 2.20191 164.532 1.93893 163.521 1.93237C159.794 1.93237 157.753 5.24912 156.664 8.49377C156.266 8.09365 155.79 7.77952 155.266 7.57085L154.955 7.03008C154.078 5.33233 152.608 4.01599 150.824 3.33118C150.232 3.13125 149.611 3.02897 148.985 3.02834C146.765 3.02834 143.938 4.23247 142.222 9.47438L137.305 6.29462C136.566 5.81594 135.681 5.61465 134.808 5.72652C133.935 5.83839 133.13 6.25618 132.536 6.90564C131.942 7.5551 131.597 8.39416 131.563 9.27372C131.53 10.1533 131.809 11.0164 132.351 11.7096L135.625 15.906L139.042 20.2971L139.763 21.184C138.696 23.5922 136.915 28.5096 138.026 32.67L130.094 36.1093C128.941 36.6068 127.7 37.1476 126.489 37.7172C121.096 40.1904 115.054 43.4855 111.146 49.1817C109.429 51.6836 108.607 54.0558 108.651 56.4353C108.702 58.1716 109.156 59.8723 109.977 61.4032C111.419 64.2513 113.994 66.5153 117.541 68.1376L117.902 68.3035H117.938C119.625 69.0894 121.939 70.1565 124.384 70.1565H124.751C125.2 70.4158 125.687 70.6031 126.193 70.7117C127.849 71.1306 129.538 71.4032 131.241 71.5265C131.551 71.5265 131.882 71.5265 132.243 71.5265C132.733 71.5265 133.195 71.5265 133.642 71.5265C134.046 71.5265 134.42 71.5265 134.781 71.5265H135.466H135.819L136.54 71.4544C136.689 71.4295 136.836 71.3958 136.98 71.3534L137.701 71.1804C142.685 70.6789 147.585 69.5524 152.288 67.8276C152.398 68.0343 152.504 68.2458 152.605 68.4621C153.289 69.9195 153.679 71.4974 153.754 73.1058C153.828 74.7141 153.585 76.3213 153.038 77.8355C152.687 78.7089 152.268 79.5528 151.783 80.3591C146.152 79.7967 140.03 79.5227 133.123 79.5227C125.624 79.5227 118.19 79.8472 111.225 80.1861C102.097 80.6259 95.2179 81.9454 89.5938 84.332C88.6421 84.7358 87.7119 85.1756 86.8251 85.6515C82.3042 81.6209 76.0528 79.8832 70.4648 78.5349C66.0392 77.4513 61.5018 76.8899 56.9455 76.8621C52.8012 76.8388 48.6744 77.4019 44.6879 78.5349C38.4726 80.3303 23.9077 86.149 22.8694 101.226C22.6019 105.251 21.2543 109.129 18.9686 112.452C16.1999 116.252 11.0373 119.143 6.50199 116.432C5.95082 116.022 5.33402 115.707 4.67778 115.502C3.98745 115.43 3.29566 115.626 2.74636 116.05C2.19706 116.475 1.83257 117.094 1.72875 117.781C1.07982 121.674 7.07881 125.287 9.71058 127.111C15.3491 131.012 21.9105 134.228 28.9045 134.228C29.5102 134.228 30.1158 134.228 30.7215 134.155C37.7732 133.6 45.618 129.108 50.2398 123.001C51.6332 121.062 52.8402 118.995 53.845 116.829C55.2871 113.988 56.4768 111.544 58.575 109.705C62.3803 106.433 67.2566 104.675 72.2746 104.766C69.7252 114.769 71.0624 125.366 76.0168 134.422C76.0168 134.619 76.0288 134.814 76.0528 135.006C76.0528 135.259 76.0528 135.511 76.1033 135.727C76.5792 144.12 73.4787 153.032 67.3716 160.769C62.2595 167.258 55.114 173.026 45.4306 178.427C44.7795 178.545 44.162 178.803 43.6208 179.184C42.9978 179.64 42.4947 180.241 42.1544 180.934C41.8141 181.627 41.6468 182.392 41.6668 183.164C41.5586 189.257 42.5969 192.898 44.8393 194.304C45.4874 194.712 46.2364 194.932 47.0024 194.938C50.0235 194.938 52.0496 192.271 54.2127 190.526C56.8806 188.319 59.6998 186.921 62.793 185.421C60.428 186.589 60.7958 192.372 61.0842 194.347C61.5601 197.621 63.7808 201.139 67.4653 199.647C69.2586 198.765 70.7603 197.386 71.7915 195.674C73.5829 195.337 75.3297 194.795 76.9974 194.059C78.7206 193.338 80.5088 192.617 82.2393 191.953C90.5889 188.673 99.2124 185.284 105.875 178.153C112.321 171.253 116.95 164.633 119.993 157.964C125.279 158.883 130.634 159.349 136 159.356C148.423 159.356 166.283 156.774 181.014 144.538C183.13 144.065 185.291 143.824 187.46 143.817C194.043 143.926 200.491 145.696 206.207 148.965C213.1 152.787 219.647 158.642 226.201 166.861C226.407 167.61 226.799 168.295 227.34 168.852C227.775 169.29 228.295 169.635 228.867 169.865C229.44 170.096 230.054 170.207 230.671 170.193C230.958 170.192 231.245 170.17 231.529 170.128C237.406 169.284 240.751 167.705 241.761 165.318C242.045 164.629 242.143 163.876 242.043 163.136C241.943 162.397 241.649 161.697 241.191 161.108C239.864 159.527 238.113 158.358 236.144 157.74C235.344 156.003 234.345 154.365 233.166 152.859C231.976 151.258 230.779 149.586 229.626 147.963C224.081 140.176 218.349 132.1 209.278 127.089C205.353 124.884 201.285 122.945 197.1 121.285C199.36 120.742 201.676 120.47 204 120.477C209.891 120.559 215.683 122.01 220.916 124.717C227.607 128.092 234.038 133.369 240.578 140.911C240.77 141.821 241.232 142.65 241.905 143.291C242.751 144.08 243.87 144.509 245.027 144.488C245.378 144.486 245.728 144.452 246.072 144.387C251.725 143.341 254.905 141.683 255.799 139.34C256.039 138.665 256.101 137.94 255.979 137.234C255.858 136.528 255.558 135.865 255.107 135.309Z" fill="#444341"/>
    </g>
    <path d="M253.413 133.362C252.153 131.956 250.532 130.921 248.726 130.37C247.871 128.578 246.785 126.905 245.496 125.395C244.299 123.91 243.087 122.352 241.89 120.845C236.252 113.555 230.433 106.028 221.507 101.529C212.191 96.8275 203.784 94.0948 195.874 93.1935C195.809 91.7514 195.723 90.2589 195.615 88.8673C196.083 88.7447 196.501 88.6077 196.84 88.4924C200.914 87.1152 203.452 84.8223 204.382 81.6858V81.6065C206.163 81.0729 207.627 79.5948 208.708 77.201C209.742 75.0733 210.256 72.7306 210.208 70.3656C211.47 69.248 212.177 67.5392 212.746 65.9745C213.662 63.4797 214.484 60.8119 213.64 58.0432C213.206 56.6486 212.395 55.401 211.297 54.438C211.725 52.8752 211.838 51.2427 211.629 49.6359C211.423 47.3335 210.427 45.1732 208.809 43.5216C209.199 41.7334 208.882 39.6496 207.865 37.3135C207.518 36.5115 207.072 35.7559 206.538 35.0638C206.634 34.6701 206.64 34.2601 206.558 33.8635C206.475 33.4669 206.305 33.0938 206.059 32.7713C205.814 32.4487 205.5 32.1849 205.14 31.999C204.78 31.8131 204.383 31.7098 203.979 31.6966H203.661C201.599 31.6966 199.335 29.2739 197.554 27.3271C194.713 24.2555 191.562 21.1046 187.799 18.8117L187.597 18.6892C184.811 16.9051 181.594 15.9085 178.288 15.805C176.011 15.8154 173.77 16.3744 171.756 17.4346C171.215 12.0412 169.722 7.15265 167.429 3.41049C166.773 2.30333 165.835 1.39016 164.711 0.764295C163.83 0.269532 162.837 0.00655466 161.827 0C158.099 0 156.059 3.31675 154.97 6.5614C154.572 6.15007 154.093 5.82594 153.564 5.60964L153.254 5.06886C152.377 3.37112 150.906 2.05477 149.122 1.36996C148.53 1.17004 147.909 1.06776 147.284 1.06713C145.063 1.06713 142.236 2.27125 140.52 7.51316L135.538 4.33341C134.799 3.85472 133.915 3.65343 133.042 3.7653C132.169 3.87717 131.364 4.29496 130.77 4.94442C130.175 5.59388 129.831 6.43295 129.797 7.3125C129.763 8.19206 130.042 9.05514 130.585 9.74837L133.858 13.9448L137.276 18.3359L137.997 19.2227C136.93 21.6021 135.156 26.5484 136.259 30.7016L128.328 34.1481C127.174 34.6456 125.934 35.1864 124.723 35.756C119.329 38.2292 113.287 41.5243 109.379 47.2204C107.663 49.7224 106.841 52.0946 106.884 54.474C106.913 56.2047 107.343 57.905 108.139 59.442C109.581 62.29 112.155 64.5541 115.702 66.1764L116.063 66.3422H116.099C117.786 67.1282 120.101 68.1953 122.545 68.1953H122.913C123.362 68.4546 123.848 68.6419 124.355 68.7505C126.01 69.1693 127.699 69.442 129.402 69.5653C129.712 69.5653 130.044 69.5653 130.404 69.5653C130.895 69.5653 131.356 69.5653 131.803 69.5653C132.207 69.5653 132.582 69.5653 132.942 69.5653H133.627H133.981L134.702 69.4932C134.886 69.4754 135.07 69.4441 135.25 69.3994L135.971 69.2264C140.954 68.7248 145.855 67.5984 150.557 65.8736C150.668 66.0803 150.773 66.2918 150.874 66.5081C151.559 67.9655 151.949 69.5434 152.023 71.1518C152.097 72.7601 151.854 74.3673 151.307 75.8815C150.957 76.7548 150.537 77.5987 150.052 78.4051C144.421 77.8427 138.3 77.5687 131.392 77.5687C123.893 77.5687 116.46 77.8932 109.494 78.2321C100.366 78.6719 93.4874 79.9914 87.8633 82.378C86.9116 82.7818 85.9815 83.2216 85.0946 83.6975C80.5737 79.6669 74.3223 77.9292 68.7343 76.5809C64.3251 75.5012 59.8049 74.9398 55.2654 74.9081C51.1211 74.8848 46.9944 75.4479 43.0079 76.5809C36.7926 78.3763 22.2277 84.195 21.1894 99.2718C20.9257 103.304 19.578 107.19 17.2886 110.52C14.5199 114.32 9.35728 117.211 4.82198 114.5C4.27081 114.089 3.65401 113.775 2.99777 113.57C2.30744 113.497 1.61565 113.693 1.06635 114.118C0.517054 114.542 0.152566 115.162 0.0487422 115.848C-0.600187 119.742 5.39881 123.354 8.03058 125.179C13.6691 129.079 20.2305 132.295 27.2245 132.295C27.8301 132.295 28.4358 132.295 29.0415 132.223C36.0932 131.668 43.938 127.176 48.5598 121.069C49.9531 119.129 51.1602 117.063 52.165 114.897C53.6071 112.056 54.7968 109.611 56.895 107.773C60.7003 104.5 65.5766 102.742 70.5946 102.834C68.0451 112.837 69.3824 123.434 74.3368 132.49C74.3368 132.687 74.3488 132.882 74.3728 133.074C74.3728 133.326 74.3728 133.579 74.4233 133.795C74.8992 142.188 71.7987 151.1 65.6916 158.836C60.5795 165.326 53.434 171.094 43.7506 176.494C43.0665 176.631 42.4227 176.922 41.8687 177.345C41.2457 177.802 40.7426 178.402 40.4023 179.095C40.062 179.788 39.8947 180.553 39.9147 181.325C39.8065 187.418 40.8448 191.059 43.0872 192.465C43.7353 192.874 44.4843 193.093 45.2503 193.1C48.2714 193.1 50.2975 190.432 52.4606 188.687C55.1285 186.481 57.9477 185.082 61.0409 183.582C58.6759 184.75 59.0437 190.533 59.3321 192.509C59.808 195.782 62.0287 199.301 65.7132 197.808C67.5065 196.926 69.0082 195.547 70.0394 193.835C71.8308 193.498 73.5776 192.956 75.2453 192.22C76.9685 191.499 78.7567 190.778 80.4872 190.115C88.8367 186.834 97.4603 183.445 104.123 176.314C110.569 169.414 115.198 162.795 118.24 156.125C123.527 157.045 128.882 157.51 134.247 157.517C146.671 157.517 164.531 154.936 179.261 142.7C181.378 142.227 183.539 141.985 185.708 141.979C192.291 142.087 198.739 143.858 204.454 147.127C211.347 150.948 217.894 156.803 224.449 165.023C224.674 165.788 225.094 166.481 225.667 167.035C226.102 167.473 226.622 167.818 227.195 168.048C227.767 168.279 228.381 168.39 228.998 168.376C229.286 168.375 229.572 168.353 229.856 168.311C235.733 167.467 239.078 165.888 240.088 163.501C240.373 162.812 240.47 162.059 240.37 161.319C240.27 160.58 239.976 159.88 239.518 159.291C238.192 157.71 236.44 156.541 234.471 155.923C233.671 154.186 232.672 152.548 231.493 151.042C230.303 149.441 229.107 147.769 227.953 146.146C222.408 138.359 216.676 130.283 207.605 125.272C203.68 123.067 199.612 121.128 195.427 119.468C197.687 118.925 200.003 118.653 202.327 118.66C208.218 118.742 214.01 120.193 219.243 122.9C225.934 126.275 232.366 131.552 238.905 139.094C239.096 140.004 239.559 140.833 240.232 141.474C241.078 142.263 242.198 142.692 243.354 142.671C243.705 142.669 244.055 142.635 244.4 142.57C250.053 141.524 253.232 139.866 254.126 137.523C254.387 136.828 254.458 136.077 254.333 135.346C254.207 134.615 253.89 133.93 253.413 133.362Z" fill="white"/>
    <path d="M150.485 32.2734H150.269C149.526 32.168 148.827 31.8585 148.25 31.3793C142.381 27.1252 141.934 19.8861 142.272 13.3535C142.272 13.2526 143.058 3.25903 147.32 3.25903C147.629 3.26051 147.935 3.31164 148.228 3.41045C149.334 3.88492 150.234 4.73902 150.766 5.8187C153.6 10.628 155.092 17.5211 154.768 24.7386C154.674 27.0964 154.458 29.346 152.951 31.0044C152.65 31.3748 152.275 31.6789 151.851 31.8973C151.427 32.1157 150.961 32.2438 150.485 32.2734Z" fill="#F7F7F7"/>
    <path d="M151.502 5.4294C150.878 4.17161 149.816 3.1846 148.517 2.65342C148.138 2.52557 147.741 2.45983 147.341 2.45874C142.15 2.45874 141.451 13.2093 141.443 13.3175C141.097 20.0592 141.58 27.5579 147.767 32.0644C148.466 32.6389 149.313 33.0038 150.211 33.1171H150.492C151.085 33.0984 151.668 32.9552 152.202 32.6968C152.736 32.4384 153.21 32.0707 153.593 31.6173C155.431 29.5912 155.547 26.7215 155.626 24.818C155.792 20.4774 155.496 12.2287 151.502 5.4294ZM153.946 24.7387C153.867 26.7648 153.708 28.9783 152.345 30.5069C152.116 30.7839 151.833 31.0111 151.513 31.1748C151.194 31.3384 150.844 31.435 150.485 31.4587H150.341C149.752 31.3675 149.199 31.1183 148.74 30.7377C143.224 26.7359 142.777 19.8356 143.102 13.4329C143.203 11.5077 144.356 4.16759 147.327 4.16759C147.548 4.16805 147.767 4.20458 147.976 4.27574C148.891 4.68704 149.629 5.41033 150.06 6.31627C153.203 11.6086 154.191 18.6531 153.946 24.7387Z" fill="#5B5957"/>
    <path d="M143.57 33.2108C136.064 31.9994 138.876 22.6332 141.22 18.2565C142.465 16.1183 143.945 14.1256 145.633 12.3152C146.931 10.6772 148.444 9.222 150.132 7.98902C150.652 7.59261 151.275 7.35476 151.927 7.30404C152.25 7.29166 152.567 7.38796 152.829 7.57753C153.09 7.7671 153.281 8.03896 153.369 8.34954C153.399 8.77696 153.301 9.20357 153.088 9.57529C151.711 12.582 151.321 15.1921 154.09 17.5715C154.633 18.06 155.275 18.4266 155.971 18.6467C156.667 18.8669 157.403 18.9354 158.128 18.8478C158.711 18.6684 159.326 18.6191 159.931 18.7036C160.454 18.922 160.899 19.2941 161.207 19.7707C161.65 20.2685 162.004 20.8393 162.252 21.4579C162.416 22.0852 162.42 22.7433 162.265 23.3728C162.11 24.0022 161.801 24.5832 161.365 25.0631C160.483 26.0132 159.447 26.8079 158.301 27.4137C156.095 28.7476 153.694 29.7065 151.523 31.0188C149.137 32.4176 146.491 33.6794 143.57 33.2108Z" fill="#DB5E8E"/>
    <path d="M144.847 33.939C144.386 33.9492 143.926 33.9227 143.469 33.8597C142.489 33.7647 141.548 33.4252 140.733 32.8721C139.918 32.3191 139.255 31.5703 138.804 30.6943C136.93 26.9017 139.093 20.9243 140.672 17.9897C141.946 15.8087 143.46 13.7771 145.185 11.9331C146.519 10.2549 148.073 8.7656 149.807 7.50592C150.436 7.03853 151.188 6.76534 151.97 6.71999C152.445 6.69723 152.912 6.84123 153.291 7.12703C153.671 7.41282 153.938 7.82237 154.047 8.28463C154.106 8.83889 153.993 9.39796 153.723 9.88532C152.403 12.7695 152.079 15.0047 154.566 17.1461C155.04 17.5763 155.6 17.9 156.21 18.0953C156.819 18.2905 157.464 18.3529 158.099 18.2781L158.51 18.1988C159.111 17.9841 159.769 17.9903 160.366 18.2161C160.963 18.442 161.461 18.8729 161.769 19.4318C162.261 19.9844 162.651 20.6189 162.923 21.3065C163.123 22.0355 163.137 22.8032 162.963 23.5389C162.789 24.2746 162.433 24.9549 161.928 25.5173C161.001 26.5222 159.912 27.3632 158.705 28.0049C157.53 28.7259 156.297 29.3244 155.1 29.9084C154.033 30.4348 152.937 30.9755 151.913 31.574C149.742 32.807 147.421 33.939 144.847 33.939ZM143.671 32.5907C146.404 33.0305 148.935 31.8264 151.257 30.4636C152.316 29.8435 153.42 29.2883 154.523 28.7548C155.626 28.2212 156.902 27.5795 158.027 26.9017C159.104 26.3287 160.079 25.5806 160.911 24.6881C161.276 24.2882 161.537 23.805 161.671 23.2808C161.806 22.7567 161.81 22.2075 161.683 21.6814C161.468 21.1268 161.16 20.6125 160.774 20.16C160.694 19.975 160.579 19.8076 160.433 19.6676C160.288 19.5277 160.117 19.418 159.929 19.3448C159.741 19.2717 159.541 19.2366 159.339 19.2417C159.138 19.2467 158.939 19.2917 158.755 19.3741L158.279 19.4606C157.463 19.5578 156.636 19.4794 155.852 19.2307C155.069 18.982 154.348 18.5687 153.737 18.0186C150.478 15.2065 151.321 12.0268 152.576 9.28687C152.729 9.02675 152.808 8.73037 152.807 8.42884C152.742 8.26487 152.627 8.12567 152.478 8.03114C152.329 7.9366 152.154 7.89157 151.978 7.90248C151.453 7.95928 150.954 8.15879 150.536 8.47931C148.898 9.67921 147.428 11.093 146.166 12.6829C144.513 14.4593 143.062 16.4132 141.84 18.5089C139.944 22.0419 138.559 27.1613 139.994 30.0454C140.672 31.4154 141.898 32.2085 143.736 32.5258L143.671 32.5907Z" fill="#5B5957"/>
    <path d="M164.271 25.366L149.959 29.3677L144.984 22.9866C149.194 23.5111 153.465 22.7574 157.241 20.8235L164.271 25.366Z" fill="url(#paint0_linear_1112_12495)"/>
    <path d="M149.959 29.995C149.863 29.995 149.768 29.9729 149.681 29.9304C149.595 29.8879 149.52 29.8261 149.461 29.7498L144.486 23.3687C144.411 23.272 144.366 23.1553 144.356 23.0332C144.346 22.911 144.373 22.7887 144.432 22.6814C144.491 22.574 144.58 22.4863 144.688 22.429C144.797 22.3718 144.919 22.3475 145.041 22.3592C149.132 22.8864 153.286 22.1651 156.96 20.2899C157.056 20.2335 157.166 20.2037 157.277 20.2037C157.389 20.2037 157.498 20.2335 157.594 20.2899L164.588 24.8108C164.69 24.8763 164.771 24.97 164.821 25.0804C164.87 25.1907 164.887 25.3132 164.869 25.4328C164.85 25.5525 164.798 25.6643 164.717 25.7548C164.637 25.8453 164.532 25.9106 164.415 25.9428L150.125 29.9373C150.072 29.9644 150.016 29.9838 149.959 29.995ZM146.354 23.722L150.197 28.6539L162.743 25.1424L157.234 21.6022C153.857 23.2549 150.103 23.9838 146.354 23.7148V23.722Z" fill="#5B5957"/>
    <path d="M157.27 20.8811C153.493 22.815 149.223 23.5687 145.012 23.0442L139.547 16.0286C142.176 15.8943 144.767 15.3468 147.226 14.4062L157.27 20.8811Z" fill="#F0CC16"/>
    <path d="M147.709 23.7653C146.782 23.7646 145.855 23.7164 144.933 23.6211C144.849 23.6127 144.767 23.5873 144.692 23.5464C144.618 23.5056 144.553 23.45 144.5 23.3831L139.035 16.3675C138.965 16.277 138.922 16.1693 138.909 16.0558C138.896 15.9423 138.914 15.8274 138.961 15.7235C139.009 15.6196 139.084 15.5307 139.178 15.4663C139.272 15.4019 139.382 15.3644 139.497 15.358C142.062 15.2312 144.59 14.6982 146.988 13.779C147.081 13.7427 147.181 13.729 147.28 13.739C147.379 13.7491 147.474 13.7825 147.558 13.8366L157.652 20.3259C157.744 20.3856 157.819 20.4682 157.868 20.5656C157.918 20.663 157.942 20.7718 157.937 20.8812C157.932 20.9905 157.898 21.0967 157.839 21.189C157.781 21.2813 157.699 21.3567 157.602 21.4075C154.549 22.9975 151.151 23.8075 147.709 23.7653ZM145.33 22.3953C148.967 22.8128 152.65 22.2554 156.001 20.7802L147.139 15.0552C145.08 15.8138 142.93 16.2987 140.744 16.4973L145.33 22.3953Z" fill="#5B5957"/>
    <path d="M139.922 9.63293L147.212 14.3413C144.753 15.2819 142.162 15.8293 139.533 15.9636L136.115 11.5725C137.435 11.0312 138.708 10.3825 139.922 9.63293Z" fill="url(#paint1_linear_1112_12495)"/>
    <path d="M139.525 16.591C139.429 16.591 139.334 16.5689 139.248 16.5264C139.162 16.4839 139.086 16.4221 139.028 16.3458L135.61 11.9547C135.551 11.8782 135.51 11.7889 135.491 11.6939C135.471 11.5989 135.475 11.5007 135.5 11.4071C135.525 11.3135 135.571 11.227 135.636 11.1544C135.7 11.0817 135.78 11.025 135.87 10.9886C137.159 10.4585 138.404 9.82425 139.59 9.09224C139.691 9.02879 139.807 8.99512 139.926 8.99512C140.044 8.99512 140.16 9.02879 140.261 9.09224L147.55 13.8006C147.647 13.8636 147.725 13.952 147.774 14.0562C147.824 14.1604 147.844 14.2762 147.832 14.391C147.82 14.5058 147.777 14.6151 147.707 14.7068C147.637 14.7986 147.543 14.8692 147.435 14.911C144.915 15.8793 142.258 16.4415 139.561 16.5766L139.525 16.591ZM137.103 11.8322L139.821 15.3148C141.855 15.1845 143.866 14.8018 145.806 14.1755L139.915 10.3685C139.007 10.9111 138.068 11.3999 137.103 11.8322Z" fill="#5B5957"/>
    <path d="M132.834 7.38328C132.699 7.19566 132.633 6.96711 132.647 6.73635C132.661 6.50558 132.755 6.28681 132.912 6.11709C133.069 5.94737 133.28 5.83714 133.509 5.80509C133.738 5.77304 133.971 5.82113 134.168 5.94122L139.936 9.65454C138.72 10.4069 137.445 11.0581 136.122 11.6013L132.834 7.38328Z" fill="#7BCACA"/>
    <path d="M136.108 12.2287C136.011 12.2287 135.917 12.2066 135.83 12.1641C135.744 12.1216 135.669 12.0598 135.61 11.9835L132.337 7.78714C132.102 7.48378 131.982 7.1074 131.997 6.72421C132.013 6.34103 132.163 5.9756 132.422 5.69222C132.68 5.40884 133.03 5.22568 133.41 5.17496C133.79 5.12424 134.176 5.20922 134.5 5.41494L140.268 9.12826C140.357 9.18484 140.431 9.2631 140.482 9.35576C140.533 9.44841 140.56 9.55246 140.56 9.65822C140.56 9.76398 140.533 9.86802 140.482 9.96068C140.431 10.0533 140.357 10.1316 140.268 10.1882C139.024 10.9567 137.72 11.6222 136.367 12.1782C136.285 12.2135 136.197 12.2307 136.108 12.2287ZM133.62 6.40275C133.568 6.40412 133.517 6.41637 133.469 6.43872C133.422 6.46107 133.38 6.49302 133.346 6.53254C133.285 6.59801 133.251 6.68437 133.251 6.77409C133.251 6.8638 133.285 6.95016 133.346 7.01563L136.324 10.8371C137.152 10.4787 137.961 10.0768 138.747 9.63298L133.829 6.46044C133.769 6.41374 133.696 6.38612 133.62 6.38112V6.40275Z" fill="#5B5957"/>
    <g opacity="0.15">
        <path d="M132.87 6.11438L155.943 28.4015L149.959 29.3677L144.984 22.9866L139.518 15.9709L136.1 11.5798L132.827 7.3834C132.681 7.20171 132.605 6.97372 132.613 6.74086C132.621 6.508 132.712 6.28572 132.87 6.11438Z" fill="#482D58"/>
    </g>
    <path d="M68.0277 190.367C66.6553 190.403 65.3093 189.985 64.199 189.177C63.2473 188.456 62.4974 187.202 62.9805 185.99C63.3774 185.22 64.057 184.634 64.8768 184.354C74.3224 180.071 81.5111 175.211 86.8467 169.486C93.3793 162.485 97.0998 154.092 97.3233 145.851C97.3233 145.613 97.3233 145.375 97.3233 145.13C97.3233 143.291 97.3954 141.2 98.513 139.505C99.5105 138.178 100.878 137.175 102.443 136.621C104.974 135.586 107.682 135.047 110.417 135.035C112.234 135.017 114.041 135.297 115.767 135.864C120.851 137.595 119.661 141.928 118.608 145.757C118.514 146.088 118.428 146.42 118.341 146.752C116.07 155.563 110.713 164.367 102.082 173.589C95.8812 180.229 87.5605 183.503 79.5138 186.661C77.7689 187.382 75.9591 188.06 74.2142 188.788C72.2704 189.701 70.1712 190.237 68.0277 190.367Z" fill="#F7F7F7"/>
    <path d="M120.396 140.053C120.144 137.624 118.695 135.951 116.07 135.064C114.259 134.465 112.361 134.168 110.453 134.184C107.607 134.194 104.789 134.753 102.154 135.828C100.425 136.443 98.918 137.56 97.828 139.037C96.5734 140.933 96.5374 143.154 96.5013 145.108C96.5013 145.346 96.5013 145.584 96.5013 145.829C96.285 153.868 92.6438 162.067 86.2482 168.902C80.9847 174.548 73.8825 179.35 64.5451 183.582C63.5211 183.944 62.6815 184.695 62.209 185.673C61.6538 187.079 62.2523 188.752 63.7015 189.834C64.9551 190.749 66.4758 191.226 68.0277 191.189C70.2752 191.061 72.4776 190.505 74.517 189.552C76.2547 188.831 78.0573 188.11 79.8022 187.432C87.9282 184.238 96.3355 180.943 102.673 174.151C111.398 164.778 116.798 155.902 119.163 146.946C119.25 146.615 119.344 146.29 119.43 145.959C120 143.983 120.562 141.928 120.396 140.053ZM117.599 146.543C114.924 156.637 108.55 165.484 101.498 173.033C94.0786 180.965 83.6453 183.972 73.9258 188.031C72.0828 188.901 70.0909 189.413 68.0566 189.538C66.866 189.573 65.6974 189.213 64.7326 188.514C64.0116 187.995 63.4708 187.108 63.7881 186.308C64.104 185.747 64.6185 185.325 65.2301 185.125C73.4355 181.405 81.3236 176.653 87.4668 170.063C93.61 163.473 97.929 154.921 98.1669 145.879C98.2246 143.853 98.1164 141.669 99.234 139.974C100.136 138.778 101.373 137.877 102.789 137.386C105.219 136.39 107.819 135.873 110.446 135.864C112.16 135.852 113.864 136.117 115.493 136.65C120.252 138.251 118.659 142.411 117.57 146.528L117.599 146.543Z" fill="#5B5957"/>
    <path d="M68.3522 189.769C68.2585 191.348 66.0882 193.799 64.6821 194.362C61.6394 195.595 62.2739 187.93 62.4325 186.365C62.5911 184.801 63.8313 184.411 65.1797 184.988C66.9462 185.745 68.482 187.793 68.3522 189.769Z" fill="#5B5957"/>
    <path d="M64.0621 195.371C63.6429 195.372 63.235 195.235 62.9012 194.982C61.1347 193.655 61.3293 188.99 61.6033 186.329C61.6165 185.915 61.7312 185.51 61.9374 185.151C62.1436 184.791 62.4349 184.488 62.7858 184.267C63.2077 184.052 63.6747 183.939 64.1486 183.939C64.6224 183.939 65.0895 184.052 65.5113 184.267C67.4365 185.089 69.34 187.411 69.1886 189.863C69.0732 191.773 66.7299 194.484 64.9994 195.184C64.7021 195.306 64.3837 195.37 64.0621 195.371ZM64.0621 185.601C63.9239 185.597 63.7871 185.629 63.6655 185.695C63.5502 185.792 63.4576 185.914 63.3941 186.051C63.3306 186.188 63.2977 186.337 63.2978 186.488C62.93 190.093 63.204 193.086 63.9395 193.641C63.9899 193.641 64.0837 193.749 64.4009 193.641C65.5546 193.172 67.4725 190.98 67.5518 189.769C67.5368 188.915 67.2766 188.084 66.8023 187.375C66.328 186.665 65.6596 186.107 64.8768 185.767C64.6116 185.646 64.3247 185.58 64.0332 185.572L64.0621 185.601Z" fill="#5B5957"/>
    <path d="M243.981 138.41H243.78C242.904 138.243 242.128 137.741 241.616 137.011C234.68 128.928 227.816 123.239 220.627 119.619C214.985 116.705 208.742 115.145 202.392 115.063C199.667 115.048 196.95 115.382 194.309 116.058L193.588 116.252C192.295 116.669 190.951 116.911 189.594 116.973C188.957 116.98 188.322 116.89 187.712 116.706C186.115 116.109 184.731 115.053 183.732 113.671C180.725 109.929 178.973 105.019 179.161 100.757C179.398 95.2702 184.006 95.1909 188.073 95.126H189.132H190.25C199.313 95.126 209.134 97.8587 220.281 103.483C228.616 107.686 234.226 114.947 239.655 121.963C240.838 123.484 242.056 125.063 243.26 126.577C245.597 129.462 247.81 132.886 246.519 136.326C246.181 137.263 245.294 138.41 243.981 138.41Z" fill="#F7F7F7"/>
    <path d="M243.938 126.015C242.72 124.508 241.501 122.936 240.333 121.415C234.846 114.32 229.179 106.994 220.67 102.668C209.401 96.9862 199.458 94.2246 190.264 94.2246H189.125H188.072C185.96 94.2246 183.746 94.2967 181.994 95.025C179.694 95.9695 178.461 97.8586 178.339 100.656C178.144 105.076 179.968 110.239 183.09 114.132C184.176 115.665 185.695 116.837 187.452 117.5C188.153 117.714 188.883 117.818 189.616 117.81C191.048 117.76 192.466 117.517 193.834 117.089L194.555 116.901C197.131 116.233 199.782 115.899 202.443 115.906C208.662 115.987 214.777 117.515 220.303 120.369C227.39 123.974 234.168 129.562 241.032 137.559C241.676 138.455 242.648 139.062 243.736 139.246H244.017C244.779 139.197 245.507 138.916 246.105 138.442C246.703 137.968 247.142 137.323 247.363 136.593C248.964 132.23 245.445 127.875 243.938 126.015ZM245.762 135.994C245.651 136.401 245.423 136.767 245.107 137.046C244.791 137.326 244.399 137.506 243.981 137.566H243.859C243.206 137.411 242.637 137.014 242.265 136.456C236.238 129.433 229.287 123.023 221.016 118.862C215.257 115.894 208.886 114.304 202.407 114.219C199.602 114.209 196.808 114.561 194.093 115.264C192.642 115.738 191.138 116.029 189.616 116.13C189.061 116.135 188.51 116.058 187.979 115.899C186.529 115.359 185.273 114.397 184.374 113.137C181.699 109.813 179.795 105.112 179.99 100.786C180.213 95.6667 184.777 96.0488 189.147 95.9407H190.243C200.611 95.9407 210.742 99.5891 219.899 104.204C229.864 109.251 235.819 118.668 242.619 127.082C244.717 129.642 246.923 132.894 245.762 135.994Z" fill="#5B5957"/>
    <path d="M245.597 132.187C247.183 131.826 250.218 133.261 251.185 134.487C253.276 137.133 245.532 138.712 243.974 139.001C242.417 139.289 241.645 138.186 241.811 136.686C242.035 134.732 243.614 132.641 245.597 132.187Z" fill="#5B5957"/>
    <path d="M243.433 139.851C242.808 139.872 242.2 139.647 241.739 139.224C241.409 138.872 241.167 138.447 241.033 137.983C240.899 137.519 240.876 137.03 240.967 136.556C241.227 134.393 242.958 131.898 245.409 131.343C247.32 130.911 250.651 132.439 251.841 133.939C252.093 134.219 252.264 134.562 252.336 134.932C252.407 135.302 252.375 135.684 252.244 136.037C251.451 138.143 246.801 139.296 244.097 139.794C243.878 139.833 243.656 139.852 243.433 139.851ZM246.166 132.93C246.038 132.927 245.91 132.94 245.784 132.966C244.954 133.232 244.216 133.73 243.658 134.4C243.1 135.071 242.745 135.886 242.633 136.751C242.582 136.966 242.578 137.189 242.622 137.406C242.665 137.623 242.755 137.827 242.885 138.006C243.018 138.093 243.168 138.151 243.325 138.175C243.481 138.198 243.642 138.187 243.794 138.143C247.45 137.465 250.348 136.333 250.68 135.439C250.68 135.381 250.752 135.251 250.528 134.97C249.341 133.83 247.804 133.124 246.166 132.966V132.93Z" fill="#5B5957"/>
    <path d="M48.4373 184.556C46.9384 184.584 45.4759 184.092 44.2985 183.164C43.7159 182.695 43.3384 182.017 43.2458 181.275C43.0728 179.609 44.4788 178.823 45.2359 178.391C55.2366 172.803 62.6993 166.782 68.0494 159.983C74.5963 151.662 77.9203 142.065 77.4228 132.959C77.4228 132.699 77.4228 132.439 77.3723 132.18C77.3723 131.762 77.3146 131.343 77.3002 130.925C71.8132 121.602 70.8109 109.388 74.7117 98.9907C80.4007 83.7769 96.4436 81.0946 109.783 80.4529C116.712 80.1213 124.102 79.7968 131.544 79.7968C138.287 79.7547 145.027 80.0941 151.732 80.8134C152.704 79.374 153.528 77.84 154.191 76.2349C154.889 74.3521 155.203 72.3488 155.115 70.3428C155.027 68.3369 154.539 66.3687 153.679 64.5541C153.193 63.5003 152.583 62.5079 151.862 61.5979C146.675 63.7075 141.211 65.06 135.639 65.6141L134.73 65.8376H134.608L133.887 65.9097H133.772H133.123C132.704 65.9097 132.286 65.9097 131.868 65.9097C131.45 65.9097 130.996 65.9097 130.556 65.9097C130.267 65.9097 129.986 65.9097 129.698 65.9097C128.163 65.8 126.641 65.5588 125.148 65.1887C124.908 65.1574 124.68 65.0664 124.485 64.924C124.29 64.7816 124.133 64.5925 124.03 64.3739C123.601 64.5085 123.153 64.5742 122.704 64.5686C120.901 64.5686 118.925 63.6529 117.483 62.9823L117.072 62.7948C114.131 61.4537 112.025 59.6295 110.893 57.3799C110.28 56.2502 109.937 54.9941 109.891 53.7098C109.952 51.699 110.646 49.7587 111.874 48.1651C115.378 43.0602 120.995 40.0102 126.028 37.7029C127.239 37.1477 128.465 36.6141 129.633 36.1166L153.564 25.7337C154.962 25.1296 156.409 24.6471 157.89 24.2917C156.376 20.362 156.448 15.7979 156.686 12.1855C156.686 12.0846 157.623 2.20642 161.863 2.20642C162.37 2.21998 162.865 2.3587 163.305 2.6102C163.979 2.99312 164.538 3.54798 164.927 4.2181C167.985 9.12113 169.427 16.2594 169.023 23.7653C169.023 24.0393 169.023 24.3493 168.965 24.6666L170.227 25.2723C170.508 25.4093 171.929 26.1159 172.195 26.2961C177.682 30.0455 179.759 37.1837 181.569 43.4784L181.663 43.7884C182.037 45.0718 182.384 46.3264 182.787 47.4945C183.429 49.4557 184.107 51.4458 184.763 53.3709C186.688 59.0382 188.685 64.9075 190.127 70.8488C192.363 80.0636 193.336 90.2013 193.192 102.762C193.232 108.644 192.448 114.503 190.863 120.167C196.195 121.997 201.346 124.317 206.25 127.097C214.744 131.805 220.281 139.585 225.631 147.105C226.792 148.742 227.996 150.429 229.236 152.052C231.709 155.368 233.966 159.262 231.911 162.925C231.733 163.25 231.493 163.537 231.203 163.768C230.913 164 230.581 164.171 230.224 164.273C230.017 164.33 229.804 164.359 229.59 164.36C228.364 164.36 227.592 163.386 227.138 162.809C220.252 154.114 213.337 147.913 206.012 143.846C199.856 140.333 192.91 138.435 185.823 138.33C183.436 138.339 181.057 138.607 178.728 139.131L178.007 139.289C163.853 151.338 146.462 153.876 134.341 153.876C127.629 153.864 120.939 153.117 114.39 151.648C108.047 150.305 101.844 148.374 95.8596 145.879C92.893 151.962 89.2478 157.69 84.9936 162.954C78.8 170.82 69.9673 175.211 61.4231 179.393C59.5628 180.309 57.6449 181.261 55.7918 182.227C53.5854 183.409 50.9825 184.556 48.4373 184.556Z" fill="#F7F7F7"/>
    <path d="M229.9 151.597C228.696 149.982 227.491 148.295 226.331 146.665C220.923 139.073 215.328 131.214 206.668 126.412C201.951 123.738 197.01 121.479 191.901 119.663C193.356 114.16 194.084 108.49 194.064 102.798C194.216 90.1652 193.235 79.9626 190.978 70.6757C189.536 64.6911 187.525 58.8147 185.592 53.1258C184.936 51.2006 184.265 49.2178 183.624 47.2566C183.249 46.1101 182.903 44.9132 182.506 43.5793L182.42 43.2692C180.552 36.8376 178.44 29.5696 172.7 25.6256C172.426 25.4381 171.424 24.9045 170.631 24.544L169.874 24.1763V23.8374C170.313 16.1296 168.792 8.81828 165.699 3.76384C165.234 2.96994 164.567 2.3132 163.766 1.86031C163.194 1.53677 162.549 1.36315 161.892 1.35559C156.751 1.35559 155.886 12.0052 155.878 12.1134C155.648 15.5527 155.576 19.8357 156.83 23.6932C155.62 24.0302 154.435 24.4493 153.283 24.9478L129.207 35.3667C128.061 35.8642 126.828 36.3978 125.602 36.9602C120.468 39.318 114.729 42.4401 111.109 47.7108C109.768 49.443 109.011 51.556 108.946 53.7458C108.994 55.1608 109.369 56.5455 110.042 57.7908C111.29 60.2135 113.503 62.1603 116.618 63.5591L117.029 63.7466C118.543 64.4676 120.634 65.4122 122.596 65.4122C122.92 65.4126 123.243 65.3836 123.562 65.3256C123.917 65.6756 124.369 65.9115 124.86 66.0034C126.399 66.3955 127.97 66.6536 129.553 66.7749C129.835 66.7749 130.13 66.7749 130.455 66.7749C130.909 66.7749 131.356 66.7749 131.789 66.7749C132.221 66.7749 132.618 66.7749 133.022 66.7749H133.635H133.858L134.579 66.7028L134.824 66.6595L135.668 66.4504C141.086 65.9099 146.403 64.6189 151.466 62.6146C151.998 63.3352 152.459 64.1054 152.843 64.9146C153.645 66.6311 154.102 68.4889 154.186 70.3818C154.27 72.2747 153.98 74.1656 153.333 75.9465C152.762 77.3406 152.057 78.676 151.228 79.9338C144.665 79.2523 138.07 78.9298 131.471 78.9676C124.016 78.9676 116.611 79.292 109.675 79.6237C100.799 80.0491 94.1508 81.3181 88.7646 83.6038C81.475 86.6898 76.471 91.7731 73.8753 98.7022C69.9241 109.28 70.9047 121.674 76.4133 131.199C76.4133 131.56 76.4566 131.92 76.4782 132.259C76.4999 132.598 76.4782 132.778 76.5287 133.031C77.0334 141.928 73.7744 151.323 67.35 159.485C62.0648 166.198 54.6886 172.147 44.7888 177.677C43.9957 178.117 42.1499 179.119 42.3734 181.369C42.4338 181.852 42.5891 182.319 42.8304 182.742C43.0717 183.165 43.3942 183.536 43.7794 183.835C45.1035 184.882 46.7496 185.437 48.4373 185.406C51.1628 185.406 53.8811 184.181 56.174 182.984C58.0198 182.025 59.9377 181.08 61.7908 180.165C70.4432 175.91 79.3407 171.512 85.6498 163.494C89.7701 158.386 93.3307 152.85 96.2706 146.983C102.079 149.329 108.081 151.16 114.21 152.455C120.818 153.936 127.569 154.688 134.341 154.698C146.555 154.698 164.077 152.145 178.396 140.046L178.908 139.931C181.175 139.442 183.489 139.2 185.808 139.21C192.754 139.313 199.561 141.174 205.594 144.618C212.804 148.627 219.654 154.763 226.504 163.364C227.023 164.021 227.982 165.232 229.611 165.232C229.899 165.231 230.185 165.192 230.462 165.117C230.921 164.982 231.348 164.759 231.72 164.458C232.091 164.157 232.399 163.785 232.625 163.364C235.228 158.743 231.493 153.731 229.9 151.597ZM231.176 162.564C231.054 162.792 230.888 162.994 230.687 163.157C230.487 163.321 230.256 163.442 230.008 163.516C229.874 163.553 229.736 163.572 229.597 163.574C229.224 163.517 228.869 163.376 228.558 163.163C228.247 162.949 227.988 162.668 227.801 162.341C221.817 154.791 214.823 147.841 206.423 143.168C200.138 139.592 193.053 137.658 185.823 137.544C183.382 137.54 180.947 137.801 178.562 138.323L177.639 138.532C165.706 148.771 150.031 153.047 134.377 153.047C127.726 153.033 121.097 152.294 114.606 150.84C108.051 149.459 101.644 147.445 95.4775 144.827C92.4753 151.126 88.7384 157.049 84.3447 162.47C76.9253 171.894 65.7204 176.17 55.4097 181.513C53.2466 182.63 50.7662 183.741 48.4445 183.741C47.1387 183.767 45.8645 183.339 44.8393 182.53C44.6267 182.368 44.4484 182.165 44.3147 181.933C44.1811 181.702 44.0947 181.446 44.0606 181.181C43.9524 180.1 44.8321 179.566 45.6252 179.119C54.2776 174.267 62.5335 168.304 68.6983 160.502C74.8631 152.7 78.7928 142.844 78.2303 132.915C78.1871 132.194 78.1294 131.43 78.1006 130.687C72.5558 121.408 71.7555 109.215 75.4688 99.2863C80.8549 84.8656 95.9029 81.9815 109.797 81.2605C116.633 80.9288 124.002 80.6043 131.515 80.6043C138.399 80.5748 145.28 80.9456 152.122 81.7147C153.237 80.0931 154.182 78.3606 154.941 76.5449C155.673 74.5557 156.003 72.4408 155.912 70.323C155.82 68.2051 155.309 66.1266 154.407 64.208C153.805 62.904 153.024 61.6906 152.086 60.6029C146.794 62.8065 141.206 64.218 135.502 64.7921L134.529 65.03L133.808 65.1021H133.123C132.272 65.1021 131.414 65.1526 130.556 65.1526C130.282 65.1526 130.015 65.1526 129.741 65.1526C128.255 65.0381 126.781 64.7969 125.335 64.4316C124.023 64.1359 125.458 63.2346 125.826 62.6218C126.078 62.2036 126.489 61.1364 125.927 60.7759C125.879 60.745 125.825 60.7275 125.768 60.7254H125.703C125.537 60.7831 125.624 61.1364 125.609 61.2879C125.582 61.5042 125.531 61.717 125.458 61.9224C125.304 62.3398 125.057 62.7169 124.737 63.0255C124.463 63.2838 124.14 63.484 123.787 63.6141C123.434 63.7442 123.058 63.8015 122.682 63.7826C120.894 63.7826 118.745 62.6939 117.397 62.081C114.964 61.0914 112.932 59.3142 111.629 57.0338C111.077 56.0172 110.766 54.8873 110.72 53.7314C110.8 51.9001 111.442 50.1379 112.559 48.6842C115.847 43.8965 121.031 40.9547 126.374 38.5032C127.556 37.9552 128.753 37.4361 129.936 36.9241L153.924 26.5052C155.576 25.7874 157.299 25.2483 159.065 24.8973C157.306 21.1263 157.241 16.555 157.53 12.2288C157.659 10.3108 158.921 3.02839 161.856 3.02839C162.234 3.03716 162.603 3.14134 162.93 3.33122C163.472 3.64763 163.922 4.09996 164.235 4.6435C167.566 10.0873 168.525 17.4418 168.165 23.7437C168.165 24.234 168.107 24.7387 168.049 25.2362C168.215 25.2362 171.417 26.8225 171.698 27.0172C177.026 30.6584 179.024 37.7822 180.848 44.0552C181.223 45.3458 181.569 46.6076 181.98 47.7901C184.518 55.5268 187.373 63.1553 189.298 71.0795C191.822 81.4551 192.464 92.1409 192.334 102.805C192.262 108.854 191.613 115.012 189.803 120.759C195.365 122.605 200.734 124.991 205.832 127.882C215.991 133.521 221.795 143.572 228.53 152.607C230.714 155.52 233.029 159.24 231.176 162.557V162.564Z" fill="#5B5957"/>
    <path d="M49.7351 183.835C49.7712 185.58 47.6153 188.471 46.13 189.228C42.8997 190.865 42.8925 182.378 42.9214 180.64C42.9502 178.903 44.2769 178.362 45.8055 178.874C47.8172 179.544 49.6919 181.672 49.7351 183.835Z" fill="#5B5957"/>
    <path d="M45.3585 190.281C44.9751 190.28 44.6 190.17 44.2769 189.963C42.2508 188.694 42.0345 183.575 42.1138 180.633C42.0883 180.19 42.1723 179.746 42.3584 179.343C42.5445 178.939 42.827 178.587 43.1809 178.319C43.6149 178.052 44.1057 177.893 44.6133 177.852C45.1209 177.812 45.6307 177.893 46.1011 178.088C48.2642 178.809 50.5427 181.145 50.6004 183.82C50.6436 185.868 48.3075 189.077 46.5337 189.978C46.1723 190.173 45.769 190.277 45.3585 190.281ZM44.7312 179.508C44.5155 179.498 44.3016 179.553 44.1183 179.667C43.9889 179.792 43.8889 179.944 43.8253 180.113C43.7617 180.281 43.7362 180.461 43.7506 180.64C43.6784 184.649 44.2697 187.966 45.1566 188.521C45.2287 188.565 45.3657 188.651 45.7478 188.464C46.988 187.836 48.9276 185.197 48.8987 183.835C48.794 182.891 48.4231 181.997 47.8295 181.257C47.2358 180.516 46.4438 179.96 45.5459 179.653C45.2835 179.562 45.0086 179.514 44.7312 179.508Z" fill="#5B5957"/>
    <path d="M150.002 85.0531C146.397 91.3045 146.815 99.8992 152.115 105.076C154.999 107.895 158.683 109.712 162.31 111.479C167.033 113.779 172.123 116.122 177.329 115.387C182.189 114.666 186.457 126.202 188.959 121.956C192.197 116.49 191.901 109.583 192.276 103.468C193.581 82.0969 188.613 63.7466 179.802 44.4013C178.67 41.9209 177.509 39.3973 175.707 37.3496C173.904 35.3019 171.337 33.7444 168.612 33.8093C165.634 33.867 164.214 36.7944 161.971 38.2004C158.244 40.398 154.765 42.992 151.595 45.9371C150.582 46.7654 149.83 47.87 149.432 49.1169C149.216 50.0975 149.432 51.1358 149.209 52.1236C148.985 53.1114 148.271 54.1497 148.221 55.2384C148.134 57.0554 149.814 58.3821 151.105 59.6367C153.291 61.7969 154.809 64.5402 155.479 67.5394C156.149 70.5386 155.942 73.6672 154.883 76.5522C153.708 79.6021 151.617 82.1979 149.988 85.0315L150.002 85.0531Z" fill="#F7F7F7"/>
    <path d="M163.226 38.3012C164.403 37.8793 164.825 36.0513 164.168 34.2182C163.511 32.3851 162.024 31.2411 160.847 31.6631C159.67 32.085 159.248 33.913 159.905 35.7461C160.563 37.5791 162.049 38.7231 163.226 38.3012Z" fill="#5B5957"/>
    <path d="M194.043 69.4787C196.206 70.4088 198.369 71.4543 199.977 73.2569C201.585 75.0595 202.594 77.785 201.88 80.2005C201.087 82.8899 198.513 84.3825 196.076 85.2044C194.519 85.7308 192.831 86.0985 191.274 85.5722C192.55 83.7696 192.161 81.0946 191.18 79.0829C190.2 77.0712 188.729 75.3407 187.82 73.2786C187.272 72.0312 185.78 66.9263 187.402 66.2052C188.339 65.7654 192.99 69.0172 194.043 69.4787Z" fill="#7BCACA"/>
    <path d="M192.911 86.4518C192.286 86.4566 191.665 86.3592 191.072 86.1634C190.979 86.1321 190.895 86.0795 190.826 86.0098C190.757 85.9401 190.706 85.8552 190.676 85.762C190.645 85.6687 190.638 85.5698 190.653 85.4729C190.668 85.3761 190.705 85.2842 190.762 85.2044C191.937 83.5388 191.418 81.0008 190.618 79.328C190.154 78.412 189.634 77.5258 189.06 76.6746C188.374 75.6666 187.769 74.6057 187.251 73.5021C187.251 73.4372 184.626 66.7171 187.157 65.5707C187.972 65.2102 189.442 65.9601 192.637 67.9068C193.358 68.3395 194.014 68.7432 194.295 68.8658C196.458 69.8104 198.715 70.8847 200.445 72.7954C202.399 74.9585 203.207 77.9148 202.486 80.3374C201.765 82.7601 199.674 84.606 196.278 85.7596C195.2 86.1712 194.063 86.405 192.911 86.4518ZM192.233 85.154C193.475 85.2493 194.722 85.062 195.881 84.606C198.866 83.5965 200.683 82.0535 201.289 80.0202C201.547 78.8991 201.52 77.7314 201.212 76.6233C200.903 75.5151 200.322 74.5017 199.522 73.6751C197.958 71.9518 195.838 70.9424 193.805 70.0699C193.184 69.7545 192.58 69.408 191.995 69.0317C190.885 68.3539 188.303 66.7892 187.669 66.7892C186.832 67.2651 187.669 71.2813 188.433 73.019C188.925 74.0627 189.499 75.0656 190.149 76.0185C190.75 76.9139 191.294 77.8458 191.779 78.8089C192.622 80.6114 193.141 83.1351 192.233 85.1467V85.154Z" fill="#5B5957"/>
    <path d="M205.579 43.9181C205.096 43.8483 204.603 43.8877 204.137 44.0335C199.292 45.115 194.201 44.3291 189.529 42.4977C186.977 41.4955 175.743 37.0467 175.772 33.1243C175.714 40.2913 180.444 46.6869 186.14 50.0974C189.841 52.1815 193.873 53.6155 198.059 54.3371C200.222 54.7697 204.829 56.8679 206.812 55.8224C210.525 53.8612 209.66 44.8915 205.579 43.9181Z" fill="#F0CC16"/>
    <path d="M205.356 56.7525C203.56 56.6122 201.794 56.2215 200.107 55.5916C199.27 55.3248 198.477 55.0797 197.943 54.9643C192.831 53.9332 189.096 52.6065 185.83 50.6381C179.298 46.7301 175.108 39.8226 175.159 33.1242C175.161 32.9591 175.228 32.8014 175.345 32.6853C175.463 32.5692 175.621 32.5041 175.786 32.5042C175.868 32.5051 175.95 32.5223 176.026 32.5546C176.101 32.587 176.17 32.634 176.228 32.693C176.285 32.7519 176.331 32.8216 176.361 32.898C176.392 32.9745 176.407 33.0563 176.406 33.1387C176.406 35.345 181.381 38.6257 189.767 41.9064C194.756 43.8604 199.681 44.3868 204.015 43.4134H204.094C204.631 43.2511 205.199 43.2165 205.752 43.3124C208.225 43.9037 209.437 46.7229 209.74 49.1672C210.086 51.8927 209.401 55.1879 207.108 56.3776C206.563 56.6445 205.962 56.7733 205.356 56.7525ZM176.637 36.1093C177.618 41.3945 181.237 46.4634 186.436 49.571C189.579 51.4529 193.192 52.7363 198.153 53.7314C198.787 53.8611 199.595 54.1207 200.474 54.3947C202.508 55.0364 205.284 55.9161 206.488 55.2816C208.24 54.3587 208.737 51.5394 208.456 49.3186C208.139 46.7734 206.942 44.8915 205.421 44.531C205.052 44.4857 204.678 44.5201 204.325 44.6319H204.238C199.66 45.6558 194.482 45.115 189.262 43.0673C184.568 41.2359 179.211 38.7339 176.637 36.1093Z" fill="#5B5957"/>
    <path d="M210.36 64.3234C211.081 62.3405 211.802 60.1414 211.203 58.1081C210.862 57.1593 210.286 56.3122 209.53 55.6454C208.774 54.9786 207.861 54.5137 206.877 54.2938C205.017 53.7963 203.077 53.9477 201.166 53.9117C193.22 53.6883 185.647 50.4898 179.946 44.9492C180.307 46.0308 180.668 47.1123 181.086 48.1794C184.302 56.2766 191.18 62.4847 198.946 64.3378C201.505 64.9435 203.51 65.5419 205.702 67.1066C206.992 68.0223 206.538 68.8587 208.225 67.8276C209.278 67.2219 209.941 65.4554 210.36 64.3234Z" fill="#7BC9CB"/>
    <path d="M207.144 68.9379C206.926 68.9187 206.716 68.8504 206.528 68.7379C206.341 68.6255 206.182 68.472 206.062 68.289C205.855 68.0327 205.612 67.8069 205.341 67.6184C203.372 66.2815 201.144 65.3727 198.801 64.9506C190.834 63.0471 183.847 56.7092 180.523 48.4101C180.098 47.3285 179.73 46.247 179.37 45.151C179.325 45.0179 179.327 44.8737 179.374 44.7416C179.422 44.6096 179.512 44.4972 179.631 44.4224C179.75 44.3477 179.89 44.3149 180.03 44.3294C180.169 44.3438 180.3 44.4046 180.401 44.5021C186 49.9169 193.417 53.0484 201.203 53.2843H202.443C203.994 53.2106 205.548 53.344 207.065 53.6808C208.15 53.9263 209.154 54.4444 209.983 55.1863C210.812 55.9282 211.438 56.8693 211.802 57.9205C212.458 60.0836 211.802 62.2828 210.944 64.5324C210.396 66.0321 209.711 67.6905 208.571 68.3755C208.152 68.683 207.66 68.8767 207.144 68.9379ZM181.338 47.0041C181.453 47.3213 181.571 47.6362 181.691 47.9486C184.835 55.88 191.512 61.9222 199.112 63.732C201.613 64.1981 203.99 65.1803 206.091 66.6162C206.443 66.8674 206.758 67.1658 207.028 67.503L207.194 67.6905C207.45 67.6 207.692 67.4763 207.915 67.3228C208.773 66.8036 209.415 65.0587 209.754 64.1214C210.475 62.0809 211.131 60.0908 210.583 58.3027C210.271 57.4608 209.754 56.7098 209.079 56.1171C208.405 55.5243 207.593 55.1084 206.718 54.9066C205.299 54.5957 203.844 54.4768 202.392 54.5533H201.152C193.887 54.3341 186.907 51.6748 181.338 47.0041Z" fill="#5B5957"/>
    <path d="M191.512 44.4589C195.961 46.2975 210.028 47.9775 205.529 37.6595C202.522 30.7592 192.774 32.8863 187.251 30.8313C185.715 30.2617 184.287 29.3893 182.751 28.7836C177.848 26.9378 171.936 28.3294 167.84 24.7675C168.804 27.8821 170.541 30.7023 172.888 32.9656C174.674 34.5446 176.625 35.9273 178.706 37.0899L185.607 41.2719C187.491 42.4832 189.465 43.5486 191.512 44.4589Z" fill="#DB5E8E"/>
    <path d="M199.27 46.4634C196.541 46.4482 193.836 45.9603 191.274 45.0213C189.2 44.0981 187.199 43.0182 185.289 41.7911L178.389 37.6091C176.271 36.4217 174.286 35.0099 172.469 33.3983C170.048 31.0695 168.257 28.1645 167.264 24.955C167.222 24.8246 167.224 24.6842 167.27 24.5553C167.316 24.4263 167.403 24.3159 167.517 24.2408C167.631 24.1656 167.767 24.1299 167.903 24.1391C168.04 24.1483 168.17 24.2018 168.273 24.2916C170.609 26.3177 173.594 26.6422 176.752 26.9811C178.876 27.1199 180.974 27.5269 182.996 28.1924C183.778 28.5023 184.543 28.8513 185.289 29.2379C185.993 29.6135 186.715 29.9528 187.452 30.2546C189.445 30.8601 191.502 31.2256 193.581 31.3433C198.419 31.8408 203.892 32.4105 206.084 37.4216C207.432 40.5077 207.317 42.8799 205.759 44.4733C204.202 46.0668 201.83 46.4634 199.27 46.4634ZM191.779 43.8749C194.886 45.1583 202.335 46.211 204.909 43.5793C206.077 42.3823 206.106 40.4788 204.981 37.9047C203.084 33.5785 198.217 33.0594 193.502 32.5763C191.316 32.4498 189.154 32.0576 187.063 31.4082C186.269 31.0979 185.492 30.7465 184.734 30.3555C184.03 29.9879 183.308 29.6558 182.571 29.3605C180.648 28.7359 178.655 28.3532 176.637 28.2212C174.077 27.9473 171.453 27.6588 169.16 26.4042C170.13 28.7008 171.561 30.7743 173.363 32.497C175.118 34.0444 177.032 35.4004 179.074 36.542L185.974 40.724C187.827 41.9194 189.767 42.9727 191.779 43.8749Z" fill="#5B5957"/>
    <path d="M186.443 20.4197C189.868 22.5035 192.824 25.467 195.629 28.4665C198.008 31.0406 200.748 33.8959 204.051 33.7012C203.33 33.7444 201.888 35.3019 200.892 35.511C199.583 35.6951 198.251 35.6536 196.956 35.3884C193.927 34.9125 191.115 33.4921 188.455 31.8553C185.337 30.0138 181.883 28.8126 178.295 28.3223C175.894 27.9473 171.251 28.9712 169.189 27.4642C164.689 24.1691 170.097 20.7226 172.794 19.2661C177.322 16.8218 181.756 17.651 186.234 20.3116L186.443 20.4197Z" fill="#FCD0E7"/>
    <path d="M199.523 36.2607C198.619 36.2516 197.717 36.172 196.826 36.0228C193.43 35.4892 190.373 33.8092 188.094 32.4176C185.049 30.6216 181.676 29.45 178.173 28.971C177.169 28.8715 176.158 28.857 175.152 28.9278C172.88 29.0071 170.306 29.1008 168.792 27.9904C167.393 26.9666 166.73 25.8273 166.816 24.5655C166.946 22.6548 168.857 20.6936 172.484 18.7324C176.81 16.3962 181.41 16.7423 186.544 19.7923L186.746 19.9149C190.293 22.078 193.322 25.1135 196.062 28.0698C198.225 30.3915 200.892 33.2828 203.993 33.117C204.159 33.1074 204.323 33.1643 204.447 33.2752C204.571 33.3861 204.647 33.5419 204.656 33.7082C204.666 33.8746 204.609 34.038 204.498 34.1624C204.387 34.2868 204.231 34.362 204.065 34.3716C203.661 34.5588 203.285 34.8015 202.947 35.0926C202.376 35.5851 201.712 35.9578 200.993 36.1886C200.507 36.2611 200.014 36.2853 199.523 36.2607ZM176.817 27.6083C177.343 27.6001 177.868 27.6315 178.389 27.702C182.057 28.2018 185.59 29.4274 188.779 31.3072C190.942 32.6483 193.877 34.2562 197.049 34.7537C198.271 35.0065 199.526 35.0504 200.763 34.8835C201.246 34.7018 201.695 34.4384 202.089 34.1048C199.299 33.3838 196.956 30.8241 195.16 28.8845C192.478 26.0004 189.529 23.0297 186.111 20.9532L185.917 20.8378C181.136 17.9969 177.062 17.6653 173.097 19.8067C169.96 21.5011 168.186 23.21 168.085 24.6232C168.028 25.4164 168.525 26.2023 169.528 26.9522C170.688 27.803 173.039 27.7164 175.101 27.6732C175.714 27.6227 176.284 27.6011 176.817 27.6011V27.6083Z" fill="#5B5957"/>
    <path d="M195.059 60.199C197.439 60.9633 199.919 61.3887 202.205 62.4558C204.49 63.5229 206.639 65.4048 207.382 68.0294C208.067 70.4448 207.447 73.0766 206.401 75.3334C205.759 76.7106 204.815 78.1094 203.431 78.3546C201.678 78.6646 200.193 77.0134 198.881 75.6723C194.266 70.9928 187.762 68.2168 184.626 61.8573C184.164 60.9386 183.806 59.9712 183.559 58.9732C183.076 56.7289 183 54.4161 183.335 52.145C186.63 56.5073 189.947 58.5694 195.059 60.199Z" fill="#9C98EB"/>
    <path d="M203.012 79.018C201.282 79.018 199.854 77.5759 198.686 76.3646L198.441 76.1122C196.784 74.5131 195.015 73.0337 193.149 71.6851C189.716 69.0749 186.162 66.3783 184.064 62.1314C183.579 61.1643 183.204 60.1462 182.946 59.0958C182.442 56.7764 182.361 54.385 182.708 52.0369C182.725 51.9136 182.778 51.7981 182.861 51.7051C182.944 51.6122 183.053 51.5461 183.174 51.5151C183.294 51.4842 183.421 51.4899 183.539 51.5314C183.656 51.573 183.759 51.6486 183.833 51.7485C186.876 55.7935 189.969 57.9206 195.247 59.6006C196.047 59.8601 196.884 60.0837 197.691 60.3216C199.328 60.7107 200.928 61.2439 202.472 61.9151C204.123 62.6866 207.028 64.4892 207.987 67.8852C208.795 70.7694 207.879 73.6535 206.978 75.6219C206.077 77.5903 204.894 78.7584 203.546 78.9963C203.369 79.019 203.19 79.0262 203.012 79.018ZM183.804 53.7314C183.681 55.4227 183.805 57.1229 184.172 58.7786C184.408 59.7392 184.752 60.6703 185.196 61.5546C187.157 65.5347 190.589 68.1448 193.913 70.6612C195.826 72.0443 197.638 73.5623 199.335 75.2037L199.58 75.4561C200.777 76.6746 202.003 77.9364 203.33 77.7057C204.245 77.5471 205.089 76.6458 205.839 75.0379C206.654 73.2786 207.483 70.654 206.783 68.1736C206.391 67.0164 205.757 65.9561 204.923 65.0633C204.088 64.1706 203.073 63.4661 201.945 62.9966C200.469 62.3576 198.939 61.8508 197.374 61.4825C196.552 61.2661 195.708 61.0354 194.872 60.7614C189.868 59.204 186.731 57.2212 183.804 53.7314Z" fill="#5B5957"/>
    <path d="M162.844 23.0441H162.685C160.378 22.7846 160.522 18.0546 160.63 15.5166C160.63 15.0695 160.63 14.6802 160.63 14.3845C160.63 13.4616 160.63 10.6496 161.639 9.61129C161.757 9.4895 161.898 9.39331 162.054 9.32878C162.211 9.26426 162.379 9.23279 162.548 9.23636H162.634C163.442 9.27962 163.903 10.6135 164.177 11.3995L164.228 11.5437C164.823 13.4638 165.233 15.4364 165.454 17.4345C165.569 18.2276 165.684 19.0568 165.829 19.8572C166.033 20.4968 165.987 21.1901 165.699 21.7968C165.429 22.1157 165.085 22.3633 164.697 22.5178C164.137 22.8382 163.515 23.0326 162.872 23.0874L162.844 23.0441Z" fill="url(#paint2_linear_1112_12495)"/>
    <path d="M166.261 19.778C165.771 16.9948 165.583 14.1034 164.646 11.3996C164.343 10.5199 163.831 8.86152 162.685 8.80383H162.584C160.248 8.80383 160.233 12.9209 160.248 14.3774C160.248 16.4612 159.527 23.1019 162.649 23.4552H162.844H162.908C163.614 23.4017 164.298 23.1924 164.913 22.8423C165.362 22.6696 165.762 22.387 166.074 22.0204C166.428 21.3264 166.495 20.5211 166.261 19.778ZM165.374 21.5445C165.138 21.7905 164.85 21.9803 164.531 22.0997C164.026 22.3895 163.466 22.5689 162.887 22.626H162.728C160.81 22.4097 160.976 17.5788 161.048 15.5239C161.048 15.0768 161.048 14.6875 161.048 14.3774C161.048 12.0124 161.337 10.5127 161.935 9.8998C162.014 9.81678 162.109 9.75135 162.214 9.70785C162.32 9.66435 162.434 9.64376 162.548 9.64744H162.613C163.139 9.64744 163.586 10.9814 163.781 11.5365L163.831 11.6808C164.437 13.5709 164.862 15.5144 165.1 17.4851C165.216 18.2854 165.331 19.1146 165.475 19.9222C165.635 20.4572 165.602 21.0315 165.382 21.5445H165.374Z" fill="#5B5957"/>
    <path d="M80.7395 117.658C80.5236 117.653 80.3123 117.595 80.1247 117.488C79.9371 117.381 79.7791 117.229 79.6652 117.045C79.5178 116.815 79.3876 116.574 79.2759 116.324L79.1605 116.079C78.9081 115.553 78.6486 115.005 78.4034 114.457C77.9924 113.527 77.6031 112.596 77.2065 111.659L77.1272 111.472C76.9613 111.082 76.8171 110.751 76.6946 110.368C76.3917 109.467 76.1682 108.775 75.9735 108.119C75.6169 107.01 75.3752 105.867 75.2525 104.708C75.2129 104.401 75.2251 104.089 75.2885 103.785C75.3468 103.495 75.4965 103.23 75.7157 103.03C75.9349 102.831 76.2122 102.706 76.5071 102.675C76.6175 102.667 76.7284 102.667 76.8388 102.675C77.3037 102.676 77.7543 102.836 78.115 103.129C78.3882 103.348 78.6307 103.603 78.836 103.886L79.1533 104.319L79.3047 103.641C79.4255 103.11 79.6729 102.615 80.0257 102.199C80.1746 101.988 80.3694 101.814 80.5955 101.689C80.8215 101.564 81.0729 101.492 81.3308 101.478C81.6376 101.488 81.9355 101.583 82.1905 101.754C82.4454 101.925 82.6473 102.164 82.7729 102.444C82.9304 102.748 83.0422 103.074 83.1045 103.411C83.2232 103.965 83.2813 104.531 83.2776 105.098C83.2776 105.581 83.2776 106.078 83.2776 106.54C83.302 107.369 83.2828 108.2 83.2199 109.027C83.2199 109.294 83.1766 109.554 83.1622 109.821C83.1622 110.231 83.1117 110.657 83.0541 111.082C82.8594 112.524 82.5998 114.096 82.2321 115.971C82.1685 116.365 82.0129 116.738 81.7778 117.06C81.6639 117.234 81.5105 117.379 81.3301 117.483C81.1497 117.587 80.9474 117.647 80.7395 117.658Z" fill="#DB5E8E"/>
    <path d="M83.9337 106.576C83.9337 106.078 83.9337 105.61 83.9337 105.134C83.9381 104.521 83.8752 103.909 83.7462 103.31C83.6711 102.912 83.5375 102.528 83.3497 102.17C83.1717 101.791 82.8923 101.469 82.5423 101.238C82.1924 101.008 81.7856 100.879 81.3668 100.865C81.0192 100.874 80.6781 100.961 80.3686 101.12C80.0591 101.278 79.7891 101.504 79.5787 101.781C79.2901 102.128 79.0611 102.52 78.9009 102.942C78.7855 102.834 78.6558 102.726 78.5188 102.61C78.0469 102.23 77.4594 102.021 76.8532 102.019C76.7116 102.008 76.5694 102.008 76.4278 102.019C76.0103 102.071 75.6195 102.252 75.3094 102.536C74.9993 102.82 74.7854 103.194 74.6973 103.605C74.6172 103.975 74.6001 104.355 74.6468 104.73C74.7652 105.929 75.0068 107.113 75.3678 108.263C75.6202 109.1 75.8942 109.914 76.0889 110.527C76.2187 110.924 76.3773 111.291 76.5359 111.674L76.6224 111.876C77.0118 112.791 77.4084 113.736 77.8194 114.666C78.0645 115.221 78.3241 115.769 78.5837 116.303L78.7062 116.548C78.8308 116.822 78.9754 117.088 79.1388 117.341C79.3095 117.61 79.5447 117.832 79.823 117.987C80.1013 118.142 80.4138 118.225 80.7323 118.228C81.0339 118.223 81.3303 118.148 81.5981 118.009C81.8659 117.871 82.0977 117.671 82.2753 117.427C82.5675 117.028 82.7625 116.567 82.845 116.079C83.2127 114.19 83.4795 112.618 83.6741 111.155C83.7318 110.707 83.7607 110.268 83.7895 109.842C83.7895 109.583 83.7895 109.323 83.8472 109.071C83.9188 108.241 83.9477 107.408 83.9337 106.576ZM82.6214 109.013C82.5565 109.691 82.5493 110.369 82.4556 111.046C82.2393 112.676 81.9509 114.291 81.6408 115.899C81.5936 116.198 81.4776 116.482 81.3019 116.728C81.24 116.818 81.1585 116.892 81.0636 116.946C80.9687 117 80.8628 117.031 80.754 117.038C80.6422 117.033 80.5335 117 80.4378 116.942C80.3421 116.884 80.2624 116.803 80.206 116.706C80.0752 116.504 79.9596 116.292 79.8599 116.072C79.5643 115.459 79.2686 114.846 78.9946 114.226C78.562 113.238 78.1366 112.243 77.7184 111.248C77.567 110.895 77.4228 110.527 77.3002 110.188C77.0479 109.467 76.8027 108.71 76.5792 107.96C76.2397 106.89 76.0102 105.789 75.8942 104.672C75.8539 104.434 75.8539 104.19 75.8942 103.951C75.9235 103.778 76.0109 103.62 76.142 103.504C76.273 103.387 76.44 103.319 76.6152 103.31H76.8532C77.176 103.313 77.4883 103.425 77.74 103.627C77.979 103.809 78.1924 104.022 78.3746 104.261C78.7346 104.717 79.06 105.199 79.3479 105.703C79.3912 105.79 79.42 105.891 79.6003 105.927C79.6562 105.196 79.7793 104.472 79.968 103.764C80.0633 103.332 80.2612 102.928 80.5449 102.589C80.6385 102.457 80.7602 102.348 80.9011 102.27C81.042 102.191 81.1986 102.145 81.3596 102.134C81.5497 102.148 81.7321 102.215 81.8862 102.327C82.0403 102.44 82.1601 102.592 82.2321 102.769C82.3625 103.018 82.4548 103.285 82.5061 103.562C82.6172 104.071 82.6728 104.591 82.6719 105.112C82.6431 106.41 82.744 107.708 82.6214 109.013Z" fill="#5B5957"/>
    <path d="M87.9499 121.242C87.7589 121.239 87.5729 121.181 87.4142 121.075C87.2555 120.969 87.131 120.819 87.0558 120.643C86.9896 120.494 86.9342 120.339 86.89 120.182L86.8395 120.016C86.7457 119.699 86.652 119.382 86.5655 119.064C86.4141 118.495 86.2771 117.925 86.1329 117.348V117.298C86.0752 117.074 86.0247 116.858 85.9887 116.627C85.9166 116.187 85.8445 115.755 85.7868 115.315C85.6866 114.652 85.6552 113.98 85.693 113.31C85.7005 113.108 85.7419 112.908 85.8156 112.719C85.8944 112.515 86.0344 112.34 86.2164 112.219C86.3985 112.098 86.6136 112.036 86.8323 112.041C87.0317 112.042 87.2289 112.084 87.4114 112.165C87.5938 112.245 87.7575 112.363 87.8922 112.51C87.9808 112.605 88.0627 112.706 88.1373 112.813C88.2644 112.557 88.4409 112.329 88.6565 112.142C88.884 111.93 89.1818 111.809 89.4929 111.803C89.7422 111.811 89.9824 111.899 90.1783 112.054C90.3742 112.208 90.5156 112.421 90.5816 112.661C90.6517 112.868 90.6905 113.085 90.697 113.303C90.7149 113.641 90.6956 113.979 90.6393 114.313C90.5889 114.579 90.5528 114.846 90.5095 115.106C90.4474 115.574 90.3607 116.038 90.25 116.497C90.2139 116.642 90.1851 116.779 90.149 116.923C90.113 117.067 90.0409 117.399 89.976 117.644C89.738 118.444 89.4496 119.281 89.0819 120.29C88.9979 120.54 88.8572 120.767 88.6709 120.953C88.4769 121.139 88.2185 121.243 87.9499 121.242Z" fill="#DB5E8E"/>
    <path d="M91.3171 113.282C91.3098 113 91.2612 112.72 91.1729 112.452C91.0647 112.088 90.8437 111.768 90.5418 111.537C90.2399 111.307 89.8727 111.178 89.4929 111.169C89.0276 111.174 88.5806 111.351 88.2383 111.666L88.0797 111.818C87.7251 111.548 87.2922 111.401 86.8467 111.4C86.5026 111.391 86.1641 111.488 85.8767 111.678C85.5893 111.867 85.3667 112.14 85.2388 112.46C85.1368 112.712 85.0783 112.98 85.0657 113.253C85.0213 113.975 85.0527 114.7 85.1595 115.416C85.2244 115.913 85.3037 116.389 85.3686 116.75C85.4118 116.995 85.4623 117.226 85.52 117.471V117.593C85.657 118.149 85.794 118.697 85.9382 119.245C86.0247 119.583 86.1257 119.915 86.2194 120.24L86.2627 120.384C86.3163 120.571 86.3838 120.754 86.4645 120.932C86.588 121.213 86.7893 121.454 87.0447 121.625C87.3002 121.796 87.5992 121.891 87.9066 121.898C88.3358 121.893 88.7465 121.722 89.0531 121.422C89.3105 121.17 89.5055 120.861 89.6227 120.521C89.9976 119.497 90.286 118.646 90.524 117.839C90.6033 117.579 90.661 117.327 90.7114 117.117C90.7619 116.908 90.7691 116.843 90.8052 116.714C90.9217 116.238 91.0132 115.757 91.0792 115.272C91.1224 115.005 91.1585 114.752 91.2017 114.5C91.288 114.1 91.3268 113.691 91.3171 113.282ZM90.0192 114.19C89.8822 114.911 89.8246 115.632 89.6443 116.353C89.5506 116.721 89.4857 117.074 89.3775 117.464C89.1107 118.343 88.8151 119.208 88.4979 120.074C88.4454 120.234 88.3565 120.379 88.2383 120.499C88.1651 120.577 88.0642 120.624 87.9571 120.629C87.8855 120.626 87.8164 120.602 87.7586 120.559C87.7008 120.517 87.6569 120.458 87.6326 120.391C87.5777 120.267 87.5319 120.139 87.4956 120.009C87.3875 119.641 87.2793 119.288 87.1784 118.913C87.027 118.329 86.8827 117.745 86.7385 117.154C86.6881 116.944 86.6376 116.743 86.6015 116.533C86.5294 116.101 86.4573 115.675 86.3997 115.243C86.3072 114.622 86.2783 113.994 86.3131 113.368C86.3173 113.232 86.3441 113.098 86.3924 112.972C86.4226 112.88 86.4822 112.802 86.5618 112.748C86.6414 112.695 86.7366 112.669 86.8323 112.676C86.9453 112.675 87.0573 112.698 87.1606 112.744C87.2639 112.79 87.356 112.858 87.4307 112.943C87.5469 113.063 87.6463 113.199 87.7264 113.346C87.8855 113.631 88.0228 113.928 88.1373 114.233C88.1416 114.267 88.1554 114.298 88.1772 114.324C88.1989 114.349 88.2277 114.368 88.2599 114.378C88.3583 113.964 88.4959 113.561 88.6709 113.173C88.7627 112.943 88.9086 112.737 89.0963 112.575C89.2101 112.462 89.3616 112.395 89.5217 112.387C89.6404 112.396 89.7531 112.443 89.8428 112.521C89.9326 112.599 89.9945 112.704 90.0192 112.82C90.0686 112.969 90.0953 113.125 90.0986 113.282C90.1068 113.586 90.0802 113.891 90.0192 114.19Z" fill="#5B5957"/>
    <path d="M8.1171 121.105C5.84585 119.446 4.57683 117.608 2.78867 115.517C4.06489 117.009 6.15589 117.543 8.1171 117.572C17.9664 117.723 23.4391 107.232 24.0231 98.7455C24.7441 87.7714 34.1175 81.3037 43.8875 78.4773C51.8189 76.1916 60.255 76.6242 68.1936 78.4773C75.4039 80.1933 83.3353 82.479 86.9404 89.5956C87.6355 90.8931 88.0335 92.3289 88.1059 93.799C88.1782 95.2692 87.923 96.7371 87.3586 98.0966C86.1112 100.779 83.5011 99.3872 81.201 99.344C77.7473 99.2791 74.2863 99.344 70.8325 99.344H70.6018C64.9379 99.2704 59.4416 101.265 55.1429 104.954C50.9176 108.645 49.7423 114.327 46.4905 118.653C42.4671 123.989 35.538 128.315 28.8829 128.82C21.2687 129.418 14.0656 125.481 8.1171 121.105Z" fill="#B192D9"/>
    <path d="M27.2822 129.512C21.312 129.512 15.0246 126.981 7.74216 121.638C6.09388 120.368 4.62205 118.884 3.36549 117.226C3.02661 116.815 2.64446 116.389 2.30557 115.957C2.24689 115.895 2.20138 115.822 2.17182 115.742C2.14226 115.662 2.12926 115.577 2.13362 115.492C2.13798 115.407 2.1596 115.324 2.19717 115.247C2.23474 115.171 2.28747 115.103 2.35215 115.048C2.41683 114.992 2.49211 114.951 2.57339 114.925C2.65468 114.9 2.74027 114.891 2.82496 114.9C2.90965 114.909 2.99166 114.935 3.06599 114.977C3.14033 115.018 3.20543 115.074 3.25734 115.142C4.58404 116.692 6.8625 116.952 8.10989 116.973H8.31178C13.5897 116.973 17.0435 113.765 19.0191 111.054C21.5456 107.408 23.0403 103.148 23.3453 98.7239C24.2899 84.9594 37.8669 79.5732 43.6568 77.9004C51.0041 75.7734 59.2888 75.7806 68.2873 77.9004C75.9879 79.7319 83.8039 82.1329 87.4379 89.3504C88.1796 90.7313 88.6034 92.2604 88.6782 93.826C88.7531 95.3916 88.4771 96.9541 87.8706 98.3994C86.7385 100.836 84.561 100.49 82.8233 100.209C82.2685 100.106 81.7071 100.041 81.1433 100.015C78.7927 99.9713 76.3989 100.015 74.0844 100.015H70.7893H70.5586C65.043 99.9275 59.6877 101.87 55.5106 105.473C53.1023 107.578 51.7324 110.333 50.2831 113.238C49.3418 115.285 48.2121 117.241 46.9087 119.079C42.6257 124.746 35.3721 128.899 28.8829 129.411C28.3637 129.478 27.8301 129.512 27.2822 129.512ZM8.48483 120.629C16.2143 126.275 22.6748 128.676 28.8324 128.2C34.99 127.724 41.8614 123.765 45.9497 118.365C47.2046 116.587 48.2932 114.697 49.2016 112.719C50.6436 109.835 52.129 106.843 54.7247 104.571C59.1269 100.77 64.7717 98.7175 70.5874 98.8032H70.8181H74.106C76.4278 98.8032 78.836 98.8032 81.201 98.8032C81.8252 98.8291 82.4469 98.899 83.0613 99.0123C84.9648 99.3223 86.0824 99.4233 86.7746 97.9163C87.2983 96.6465 87.5331 95.2761 87.462 93.9044C87.3909 92.5326 87.0157 91.1939 86.3636 89.985C82.9675 83.2505 75.4544 80.9576 68.0421 79.1695C59.26 77.0785 51.1916 77.064 44.0534 79.1262C38.5158 80.7269 25.53 85.8606 24.6432 98.832C23.9942 108.27 18.0601 118.221 8.3262 118.221H8.10989C7.25311 118.213 6.40057 118.099 5.57185 117.882C6.4344 118.906 7.4118 119.828 8.48483 120.629Z" fill="#5B5957"/>
    <path d="M65.9151 94.1597C48.841 95.3782 43.4982 111.767 30.3249 119.569C26.9006 121.688 22.9886 122.89 18.9653 123.059C14.942 123.228 10.9429 122.359 7.35281 120.535C7.59796 120.737 7.84311 120.932 8.10989 121.126C14.0584 125.453 21.2615 129.411 28.8756 128.813C35.5308 128.286 42.4599 123.996 46.44 118.718C49.7279 114.392 50.9032 108.71 55.0924 105.018C59.3911 101.33 64.8874 99.3353 70.5514 99.4088H70.7821C74.2358 99.4088 77.6968 99.3367 81.1505 99.4088C83.4434 99.4521 86.0608 100.851 87.3082 98.1614C87.6145 97.4962 87.8303 96.793 87.9499 96.0704C80.9919 93.8064 73.2552 93.4675 65.9151 94.1597Z" fill="#7BC9CB"/>
    <path d="M27.2822 129.512C21.312 129.512 15.0246 126.981 7.74217 121.638C7.48259 121.451 7.23023 121.249 6.95624 121.018C6.81855 120.923 6.72449 120.776 6.69474 120.611C6.66499 120.446 6.702 120.276 6.79761 120.139C6.89323 120.001 7.03962 119.907 7.20459 119.877C7.36956 119.847 7.53959 119.884 7.67727 119.98C11.1708 121.753 15.0616 122.598 18.9758 122.434C22.8901 122.27 26.6965 121.102 30.0293 119.043C34.9684 116.115 38.8475 111.912 42.5969 107.845C48.7329 101.19 55.0708 94.3111 65.9079 93.5324C74.3079 92.7393 81.8139 93.3882 88.2599 95.472C88.4072 95.5187 88.532 95.6181 88.6105 95.7511C88.689 95.8842 88.7156 96.0415 88.6853 96.193C88.5465 96.9717 88.304 97.7283 87.9643 98.4426C86.8323 100.88 84.6548 100.534 82.9171 100.252C82.3622 100.149 81.8009 100.084 81.2371 100.058C78.8865 100.014 76.4927 100.058 74.1781 100.058H70.883H70.6523C65.1368 99.9707 59.7815 101.913 55.6043 105.516C53.1961 107.621 51.8261 110.376 50.3768 113.281C49.4354 115.329 48.3057 117.284 47.0024 119.122C42.7195 124.789 35.4659 128.942 28.9766 129.454C28.395 129.493 27.8301 129.512 27.2822 129.512ZM11.8881 122.958C18.1467 126.931 23.6049 128.603 28.8324 128.2C34.99 127.717 41.8614 123.765 45.9497 118.365C47.2046 116.587 48.2932 114.697 49.2016 112.719C50.6436 109.835 52.129 106.843 54.7247 104.571C59.1269 100.77 64.7717 98.7175 70.5874 98.8032H70.8181H74.106C76.4278 98.8032 78.836 98.8032 81.201 98.8032C81.8252 98.8291 82.4469 98.899 83.0613 99.0123C84.9648 99.3223 86.0824 99.4232 86.7746 97.9163C86.9815 97.4671 87.1433 96.9986 87.2577 96.5175C81.1217 94.6284 73.9618 94.0515 65.9728 94.8086C55.626 95.5297 49.7279 101.947 43.4838 108.717C39.6767 112.849 35.7327 117.125 30.6566 120.131C27.8774 121.837 24.7837 122.965 21.5595 123.451C18.3352 123.937 15.0462 123.769 11.8881 122.958Z" fill="#5B5957"/>
    <path d="M45.5964 88.1463C32.4303 93.3233 28.407 109.72 16.5676 118.221C12.2414 121.018 8.94629 121.025 6.21358 119.511C6.57409 119.872 6.93461 120.232 7.37444 120.571C10.9646 122.395 14.9637 123.264 18.987 123.095C23.0102 122.926 26.9222 121.724 30.3466 119.605C43.5198 111.796 48.8627 95.4143 65.9367 94.1957C73.2769 93.4747 81.0135 93.8352 88.0076 96.1065C88.2014 94.8796 88.1622 93.6272 87.8922 92.4148C79.7373 78.8882 57.5655 83.1784 45.5964 88.1463Z" fill="#DB5E8E"/>
    <path d="M17.9087 123.708C14.1445 123.727 10.4323 122.828 7.09324 121.09L6.98508 121.018C6.58851 120.687 6.19194 120.297 5.78096 119.915C5.70146 119.809 5.65779 119.68 5.65623 119.547C5.65467 119.414 5.6953 119.284 5.77227 119.176C5.84923 119.068 5.95857 118.987 6.08452 118.945C6.21048 118.903 6.34655 118.901 6.47315 118.942C9.30681 120.513 12.3856 120.11 16.1783 117.673C21.2976 114.017 24.9965 108.753 28.5728 103.663C33.3172 96.914 37.7948 90.5401 45.3296 87.5767C52.6337 84.5483 61.1923 82.7385 68.1431 82.7313H68.1792C77.7112 82.7313 84.698 85.9616 88.3681 92.1048C88.4054 92.1647 88.4322 92.2305 88.4474 92.2994C88.734 93.5902 88.7731 94.9237 88.5628 96.2291C88.5476 96.3181 88.5134 96.4027 88.4625 96.4773C88.4116 96.5518 88.3452 96.6145 88.2678 96.6611C88.1905 96.7076 88.104 96.7369 88.0143 96.747C87.9246 96.7571 87.8337 96.7476 87.748 96.7194C81.4966 94.6933 74.1565 94.0588 65.9295 94.8375C55.5683 95.5585 49.6702 101.976 43.4261 108.746C39.619 112.878 35.675 117.153 30.5989 120.16C26.7851 122.509 22.3877 123.738 17.9087 123.708ZM10.1648 121.105C13.4131 122.269 16.8817 122.689 20.3139 122.332C23.7461 121.975 27.0542 120.851 29.9932 119.043C34.9323 116.115 38.8115 111.912 42.5608 107.845C48.6968 101.19 55.0419 94.3111 65.8791 93.5324C73.9546 92.7681 81.2154 93.3449 87.4668 95.2412C87.5321 94.3602 87.4738 93.4744 87.2937 92.6095C79.1605 79.3136 56.6426 84.2455 45.8415 88.7231C38.6312 91.5496 34.305 97.7793 29.6471 104.37C26.042 109.547 22.2421 114.904 16.9281 118.696C14.4766 120.261 12.2414 121.061 10.1648 121.105Z" fill="#5B5957"/>
    <path d="M16.5676 118.221C28.4286 109.748 32.4303 93.3594 45.618 88.1752C57.5872 83.2145 79.7589 78.9243 87.8994 92.4076C87.6995 91.4646 87.3796 90.5511 86.9476 89.6893C83.3425 82.5727 75.4111 80.3159 68.2008 78.571C60.2694 76.6819 51.7973 76.2493 43.8948 78.571C34.132 81.3974 24.7874 87.8651 24.0303 98.8392C23.4463 107.326 17.9808 117.817 8.12431 117.665C6.1631 117.665 4.0721 117.103 2.79588 115.61C4.00721 117.053 4.95897 118.329 6.19915 119.54C8.92466 120.989 12.1837 120.989 16.5676 118.221Z" fill="#F0CC16"/>
    <path d="M9.98458 121.105C8.54894 121.104 7.13799 120.731 5.88911 120.023C5.83903 119.996 5.79293 119.962 5.75212 119.922C4.88688 119.057 4.14421 118.156 3.35829 117.204C3.02661 116.8 2.68052 116.382 2.31279 115.957C2.25411 115.895 2.2086 115.822 2.17904 115.742C2.14948 115.662 2.13648 115.577 2.14084 115.492C2.14519 115.407 2.16682 115.324 2.20439 115.247C2.24196 115.171 2.29469 115.103 2.35937 115.048C2.42405 114.992 2.49933 114.951 2.58061 114.925C2.6619 114.9 2.74749 114.891 2.83218 114.9C2.91687 114.909 2.99887 114.935 3.07321 114.977C3.14754 115.018 3.21265 115.074 3.26455 115.142C4.59126 116.692 6.86972 116.952 8.11711 116.973H8.319C13.597 116.973 17.0507 113.765 19.0263 111.054C21.5528 107.408 23.0475 103.148 23.3525 98.7239C24.2971 84.9594 37.8741 79.5732 43.664 77.9004C51.0114 75.7734 59.296 75.7806 68.2945 77.9004C75.9951 79.7319 83.8111 82.1329 87.4452 89.3504C87.9019 90.2647 88.2388 91.2341 88.4474 92.2346C88.4803 92.3807 88.4599 92.5337 88.3898 92.6661C88.3197 92.7984 88.2046 92.9013 88.0653 92.9562C87.9259 93.0111 87.7715 93.0143 87.63 92.9652C87.4885 92.9162 87.3692 92.8181 87.2937 92.6888C79.2542 79.2848 56.657 84.2383 45.8343 88.7231C38.624 91.5568 34.2978 97.7793 29.6255 104.37C26.0204 109.547 22.2205 114.904 16.9065 118.696C14.4045 120.312 12.1116 121.105 9.98458 121.105ZM6.5741 118.942C9.37891 120.463 12.4433 120.045 16.1927 117.637C21.3264 113.967 25.0253 108.703 28.6017 103.62C33.3461 96.8708 37.8309 90.4969 45.3657 87.5334C52.6625 84.5051 61.2284 82.6953 68.1719 82.6881H68.208C75.6274 82.6881 81.5038 84.6421 85.5128 88.3915C81.8139 82.8179 74.8992 80.7485 68.071 79.1262C59.2888 77.0352 51.2205 77.0208 44.0822 79.0829C38.5447 80.6836 25.5589 85.8174 24.672 98.7888C23.9943 108.27 18.0602 118.221 8.32621 118.221H8.1099C7.25555 118.212 6.40551 118.098 5.57907 117.882C5.89633 118.264 6.228 118.624 6.5741 118.942Z" fill="#5B5957"/>
    <path d="M125.754 62.5784C125.386 63.1913 123.951 64.0926 125.263 64.3882C126.709 64.7535 128.182 64.9948 129.669 65.1092C130.39 65.1092 131.068 65.1092 131.767 65.1092L134.471 65.0299C135.264 65.0299 135.488 64.9362 135.271 64.3089C135.134 63.9123 134.997 63.5157 134.86 63.1192L133.469 59.0958L129.64 48.0712L126.655 39.4765L126.302 38.467C120.959 40.9186 115.775 43.8532 112.487 48.648C111.37 50.1018 110.728 51.864 110.648 53.6953C110.694 54.8511 111.004 55.981 111.556 56.9976C112.86 59.278 114.891 61.0552 117.325 62.0448C119.257 62.9245 122.855 64.792 124.665 62.9822C124.985 62.6735 125.232 62.2964 125.386 61.879C125.46 61.6713 125.511 61.4561 125.537 61.2373C125.537 61.0931 125.465 60.7325 125.631 60.6749C125.67 60.664 125.711 60.6623 125.751 60.6697C125.791 60.6772 125.829 60.6938 125.862 60.7181C126.41 61.0931 126.006 62.1602 125.754 62.5784Z" fill="#F5E2EF"/>
    <path d="M231.486 157.697C233.151 157.387 236.252 159.002 237.204 160.315C239.266 163.148 231.154 164.475 229.489 164.713C227.823 164.951 227.102 163.768 227.326 162.218C227.679 160.206 229.402 158.087 231.486 157.697Z" fill="#5B5957"/>
    <path d="M229.049 165.585C228.708 165.598 228.369 165.54 228.051 165.416C227.733 165.292 227.445 165.104 227.203 164.864C226.876 164.488 226.644 164.039 226.525 163.555C226.406 163.071 226.403 162.566 226.518 162.081C226.871 159.918 228.76 157.344 231.32 156.868C233.281 156.507 236.728 158.252 237.867 159.817C238.114 160.113 238.275 160.471 238.334 160.852C238.392 161.234 238.345 161.623 238.199 161.98C237.29 164.143 232.43 165.131 229.597 165.535C229.416 165.565 229.232 165.581 229.049 165.585ZM231.933 158.497C231.83 158.488 231.726 158.488 231.623 158.497C230.741 158.742 229.948 159.233 229.335 159.912C228.722 160.591 228.315 161.431 228.162 162.333C228.1 162.56 228.088 162.797 228.126 163.028C228.165 163.26 228.253 163.48 228.385 163.674C228.522 163.776 228.68 163.846 228.847 163.879C229.014 163.913 229.186 163.91 229.352 163.869C233.195 163.314 236.259 162.247 236.656 161.317C236.656 161.252 236.742 161.108 236.512 160.79C235.301 159.521 233.688 158.711 231.947 158.497H231.933Z" fill="#5B5957"/>
    <g style="mix-blend-mode:multiply">
        <path d="M114.455 53.6232C115.001 52.7279 115.778 51.9957 116.705 51.5034C117.7 51.0203 118.803 51.4313 119.791 51.0131C119.839 50.9845 119.88 50.9452 119.911 50.8983C119.942 50.8514 119.961 50.798 119.968 50.7424C119.975 50.6867 119.969 50.6302 119.951 50.5771C119.933 50.524 119.903 50.4759 119.863 50.4363C118.421 49.0879 116.005 50.4363 115.01 51.6332C114.629 52.2102 114.382 52.8657 114.289 53.5511C114.29 53.5699 114.296 53.588 114.307 53.6035C114.318 53.6189 114.333 53.6311 114.35 53.6386C114.367 53.6461 114.386 53.6486 114.405 53.6459C114.423 53.6432 114.441 53.6353 114.455 53.6232Z" fill="#FF909F"/>
    </g>
    <defs>
        <linearGradient id="paint0_linear_1112_12495" x1="160.067" y1="26.0552" x2="147.202" y2="34.0765" gradientUnits="userSpaceOnUse">
            <stop stop-color="#F3B0BB"/>
            <stop offset="0.66" stop-color="#E596A6"/>
            <stop offset="1" stop-color="#E0778E"/>
        </linearGradient>
        <linearGradient id="paint1_linear_1112_12495" x1="143.992" y1="16.7652" x2="137.208" y2="20.9956" gradientUnits="userSpaceOnUse">
            <stop stop-color="#EAC2D9"/>
            <stop offset="1" stop-color="#9A78D1"/>
        </linearGradient>
        <linearGradient id="paint2_linear_1112_12495" x1="161.019" y1="11.942" x2="165.524" y2="24.5048" gradientUnits="userSpaceOnUse">
            <stop stop-color="#F3B0BB"/>
            <stop offset="0.66" stop-color="#E596A6"/>
            <stop offset="1" stop-color="#E0778E"/>
        </linearGradient>
    </defs>
</svg>
