<svg width="100" height="130" viewBox="0 0 100 130" fill="none" xmlns="http://www.w3.org/2000/svg">
    <path d="M58.7631 129C78.9726 129 95.3556 126.138 95.3556 122.608C95.3556 119.078 78.9726 116.216 58.7631 116.216C38.5537 116.216 22.1707 119.078 22.1707 122.608C22.1707 126.138 38.5537 129 58.7631 129Z" fill="#D5E1E8"/>
    <path d="M20.4951 106.027C19.9683 107.51 19.8572 109.11 20.1738 110.652C20.4904 112.194 21.2227 113.621 22.2914 114.777C23.3908 115.903 24.7728 116.714 26.2928 117.123C27.8128 117.533 29.4149 117.526 30.9314 117.104C31.805 116.855 32.6281 116.455 33.3631 115.922C34.7759 114.775 35.8792 113.292 36.5723 111.61C36.9719 110.814 37.2549 109.965 37.4126 109.089C37.754 106.772 36.6143 104.414 34.8758 102.844C33.7965 101.875 32.5066 101.171 31.1082 100.787C29.7098 100.404 28.2413 100.351 26.8188 100.633C25.4017 100.94 24.0827 101.594 22.9793 102.535C21.876 103.476 21.0226 104.676 20.4951 106.027Z" fill="#BC732D"/>
    <path d="M9.57052 78.2527C9.1766 78.2527 10.2271 100.443 13.7723 103.989C19.2872 109.504 29.3978 106.352 29.3978 106.352L32.8118 99.6557L28.0847 84.0302L25.4586 79.3032L9.57052 78.2527Z" fill="#008395"/>
    <path d="M23.3576 60.395C23.3576 60.395 15.7418 58.5568 10.8835 64.7282C6.02515 70.8996 6.71319 78.4943 7.73213 79.9597C13.7722 88.6259 23.095 83.2424 26.115 80.7475C29.1351 78.2527 28.2159 62.4959 23.3576 60.395Z" fill="#00B0C7"/>
    <path d="M64.4565 31.4183C64.4565 29.9477 67.7602 27.9414 68.8369 27.5159C71.5576 26.434 75.1396 27.0222 76.8466 29.5801C79.1524 33.0781 76.6785 38.136 73.4799 40.1686C71.9725 41.1298 64.4565 32.9257 64.4565 31.4183Z" fill="#DD8F42"/>
    <path d="M66.694 32.5581C66.694 31.6704 68.6898 30.4572 69.3201 30.1998C70.9641 29.5485 73.1385 29.9004 74.1574 31.4446C75.5493 33.5455 74.0576 36.6076 72.1248 37.8366C71.2372 38.4143 66.694 33.4667 66.694 32.5581Z" fill="#FDC877"/>
    <path d="M35.0702 34.8323C35.0702 33.3617 31.7665 31.3553 30.6898 30.9299C27.9691 29.8479 24.3871 30.4362 22.6801 32.994C20.3743 36.492 22.8482 41.5499 26.0468 43.5826C27.5489 44.5437 35.0702 36.3397 35.0702 34.8323Z" fill="#DD8F42"/>
    <path d="M32.8275 35.9721C32.8275 35.0844 30.8316 33.8712 30.2013 33.6138C28.5311 32.9625 26.3672 33.3039 25.3535 34.8796C23.9617 36.9805 25.4533 40.0426 27.3861 41.2716C28.2895 41.8283 32.8275 36.8807 32.8275 35.9721Z" fill="#FDC877"/>
    <path d="M51.4572 27.6997C25.4796 28.6819 18.8932 54.8802 22.5698 68.93C26.2464 82.9797 24.9648 97.644 25.5899 106.615C26.3777 117.907 44.498 127.981 54.0728 125.633C63.6477 123.286 63.2748 118.28 86.2849 125.633L87.0412 112.65L87.4352 107.397C87.4352 107.397 80.4759 102.802 78.9002 100.176C77.3246 97.5495 81.3951 70.3691 77.8498 52.9053C74.3045 35.4416 65.3757 27.1745 51.4572 27.6997Z" fill="#DD8F42"/>
    <path d="M22.3072 72.3439C22.3072 72.3439 37.0136 72.4752 43.4476 84.0302C47.6861 91.646 44.1041 96.5043 36.357 98.6052C28.61 100.706 25.5899 100.181 24.8021 101.363C24.0142 102.544 23.8829 104.908 25.9838 105.696C28.0847 106.484 45.9424 102.676 48.5685 92.5651C51.1947 82.4545 35.9158 66.7608 22.1759 68.0108C20.7316 68.1421 20.3377 72.0813 22.3072 72.3439Z" fill="#008395"/>
    <path d="M55.9268 48.8558C51.725 49.2498 47.7596 57.8529 51.4256 61.8762C55.0917 65.8994 62.6707 64.1241 64.0941 60.8257C65.5175 57.5273 62.2033 48.2676 55.9268 48.8558Z" fill="#FDC877"/>
    <path d="M54.6243 49.213C55.1495 47.7634 58.5319 48.2676 59.1255 48.8558C59.719 49.4441 58.7683 51.9336 57.1138 51.9336C55.4594 51.9336 54.1516 50.5155 54.6243 49.213Z" fill="#8E5D26"/>
    <path d="M43.9045 110.024C41.2784 112.86 45.4802 127.923 54.0729 125.633C62.6655 123.343 60.9481 111.883 58.511 108.448C56.074 105.013 53.5004 108.448 53.5004 108.448C53.5004 108.448 50.7797 106.158 48.059 109.162C47.3649 108.845 46.5879 108.758 45.8408 108.913C45.0936 109.068 44.4154 109.457 43.9045 110.024Z" fill="#FAB064"/>
    <path d="M80.7174 107.886C77.4138 109.903 77.3928 125.549 86.2848 125.665C95.1769 125.78 96.6213 114.288 95.2137 110.323C93.8061 106.358 90.3868 108.968 90.3868 108.968C90.3868 108.968 88.3857 106.027 84.956 108.185C84.3736 107.69 83.6483 107.394 82.8858 107.341C82.1234 107.287 81.3637 107.478 80.7174 107.886Z" fill="#FAB064"/>
    <path d="M47.2291 112.051C47.1139 111.677 46.8552 111.363 46.5095 111.179L46.4045 111.1C46.313 111.01 46.2127 110.929 46.1051 110.859C45.9774 110.77 45.824 110.727 45.6689 110.736C45.5139 110.744 45.3661 110.804 45.249 110.906C45.1186 111.077 45.0278 111.276 44.9833 111.486C44.9388 111.697 44.9416 111.915 44.9916 112.124C44.9952 112.354 45.0562 112.579 45.169 112.779C45.2819 112.979 45.443 113.148 45.6376 113.269C45.843 113.397 46.0842 113.454 46.3249 113.432C46.5655 113.41 46.7926 113.311 46.9717 113.149C47.1035 113.002 47.1962 112.825 47.2412 112.633C47.2861 112.441 47.282 112.241 47.2291 112.051Z" fill="#BC732D"/>
    <path d="M51.909 111.158C51.8408 110.935 51.7283 110.728 51.5781 110.549C51.368 110.234 51.2524 109.856 50.9058 109.661C50.7942 109.596 50.6673 109.562 50.5381 109.562C50.4089 109.562 50.2821 109.596 50.1705 109.661C49.973 109.817 49.8184 110.019 49.721 110.251C49.6236 110.483 49.5867 110.735 49.6137 110.985C49.6137 111.72 49.8501 112.408 50.6116 112.65C50.833 112.709 51.0679 112.695 51.2803 112.609C51.4927 112.522 51.6711 112.369 51.7881 112.172C51.9398 111.857 51.9823 111.5 51.909 111.158Z" fill="#BC732D"/>
    <path d="M57.3134 110.118C57.2439 109.989 57.1667 109.865 57.0823 109.745C56.8925 109.437 56.6509 109.163 56.368 108.936C56.2838 108.888 56.1897 108.859 56.0927 108.853C55.9958 108.846 55.8986 108.862 55.8086 108.898C55.7185 108.934 55.6379 108.991 55.5729 109.063C55.5078 109.135 55.46 109.221 55.4331 109.315C55.3734 109.603 55.347 109.897 55.3544 110.192C55.3544 110.339 55.3544 110.486 55.3544 110.628C55.3627 110.821 55.4196 111.008 55.5196 111.174C55.6197 111.339 55.7597 111.476 55.9269 111.573C56.04 111.639 56.165 111.683 56.2949 111.7C56.4247 111.718 56.5568 111.71 56.6836 111.677C56.8104 111.644 56.9295 111.586 57.0339 111.507C57.1384 111.428 57.2262 111.329 57.2924 111.216C57.3876 111.049 57.4394 110.861 57.4431 110.67C57.4468 110.478 57.4022 110.288 57.3134 110.118Z" fill="#BC732D"/>
    <path d="M83.4067 110.255C83.3804 109.687 83.0758 109.02 82.4035 109.141C82.0366 109.264 81.7328 109.526 81.5579 109.871C81.2359 110.247 81.0622 110.727 81.0694 111.221C81.0738 111.47 81.1577 111.712 81.3089 111.91C81.46 112.109 81.6705 112.254 81.9098 112.324C82.1529 112.392 82.4117 112.377 82.6455 112.282C82.8794 112.187 83.075 112.017 83.2018 111.799C83.4077 111.312 83.4784 110.778 83.4067 110.255Z" fill="#BC732D"/>
    <path d="M88.3385 110.89C88.3586 110.526 88.2806 110.163 88.1127 109.84C88.0263 109.695 87.8863 109.59 87.7231 109.548C87.5599 109.506 87.3866 109.529 87.2408 109.614C86.9375 109.845 86.7047 110.156 86.5685 110.512C86.3054 110.96 86.214 111.488 86.3112 111.998C86.374 112.214 86.5044 112.404 86.683 112.54C86.8617 112.676 87.0793 112.751 87.3038 112.755C87.5284 112.751 87.746 112.676 87.9247 112.54C88.1033 112.404 88.2337 112.214 88.2965 111.998C88.3816 111.635 88.3958 111.259 88.3385 110.89Z" fill="#BC732D"/>
    <path d="M93.6591 110.98C93.5436 110.675 93.5015 110.36 93.3702 110.06C93.3246 109.98 93.2635 109.91 93.1905 109.854C93.1175 109.798 93.0341 109.757 92.9451 109.734C92.8561 109.711 92.7634 109.705 92.6723 109.718C92.5811 109.731 92.4934 109.761 92.4143 109.808C92.0851 110.086 91.8396 110.45 91.7053 110.859C91.5844 111.104 91.5215 111.373 91.5215 111.647C91.5215 111.92 91.5844 112.189 91.7053 112.434C91.8046 112.598 91.9452 112.733 92.113 112.825C92.2808 112.917 92.4698 112.964 92.6612 112.96C92.8992 112.95 93.1283 112.867 93.3166 112.721C93.5049 112.575 93.643 112.374 93.7116 112.146C93.8373 111.764 93.8186 111.349 93.6591 110.98Z" fill="#BC732D"/>
    <path d="M55.7903 105.47C53.0014 105.102 50.7902 103.474 48.1063 102.844C48.0464 102.834 47.985 102.847 47.934 102.88C47.8829 102.913 47.8457 102.963 47.8294 103.021C47.8132 103.08 47.8191 103.142 47.8459 103.197C47.8728 103.251 47.9187 103.294 47.975 103.316C50.3858 104.167 53.1432 106.562 55.8534 105.943C56.116 105.853 56.0214 105.501 55.7903 105.47Z" fill="#BC732D"/>
    <path d="M79.4255 107.303C77.7766 106.155 76.0171 105.175 74.1732 104.377C74.1051 104.352 74.0303 104.352 73.9619 104.376C73.8935 104.401 73.8359 104.448 73.799 104.511C73.7621 104.573 73.7483 104.647 73.7601 104.718C73.7718 104.79 73.8084 104.855 73.8633 104.903C75.5125 106.048 77.4769 106.62 79.1156 107.755C79.4465 107.965 79.6933 107.508 79.4255 107.303Z" fill="#BC732D"/>
    <path d="M50.8847 48.2623C50.8796 48.0084 50.7939 47.7627 50.6401 47.5606C50.4862 47.3586 50.272 47.2107 50.0286 47.1384C49.7305 47.0576 49.4126 47.0979 49.1441 47.2503C48.8756 47.4028 48.6781 47.6551 48.5947 47.9525C48.4214 48.7771 48.1798 49.8643 48.8521 50.5366C49.5244 51.2089 50.7586 51.1301 50.7691 50.0113C50.8622 49.4332 50.9008 48.8477 50.8847 48.2623Z" fill="#8E5D26"/>
    <path d="M65.1971 48.2623C65.192 48.0084 65.1063 47.7627 64.9524 47.5606C64.7985 47.3586 64.5844 47.2107 64.3409 47.1384C64.0429 47.0576 63.725 47.0979 63.4565 47.2503C63.188 47.4028 62.9905 47.6551 62.9071 47.9525C62.7338 48.7771 62.4922 49.8643 63.1644 50.5366C63.8367 51.2089 65.071 51.1301 65.0815 50.0113C65.1745 49.4332 65.2132 48.8477 65.1971 48.2623Z" fill="#8E5D26"/>
    <path d="M58.4689 56.8865C58.054 56.9916 57.7704 57.3645 57.3712 57.5221C57.1364 57.6203 56.8765 57.6412 56.629 57.5817C56.3816 57.5222 56.1595 57.3854 55.9951 57.1912C55.7903 56.9601 55.4699 57.2542 55.5907 57.5011C55.7393 57.8064 55.9756 58.0604 56.2694 58.2307C56.5632 58.4009 56.9011 58.4797 57.2399 58.457C57.9227 58.457 58.9364 58.0368 58.9364 57.2384C58.935 57.1822 58.921 57.1269 58.8953 57.0768C58.8695 57.0268 58.8328 56.9832 58.7878 56.9493C58.7429 56.9155 58.6908 56.8922 58.6356 56.8813C58.5803 56.8705 58.5234 56.8723 58.4689 56.8865Z" fill="#8E5D26"/>
    <path d="M8.60932 72.6118C8.51478 72.4017 8.19439 72.4752 8.14187 72.6748C8.06833 72.9584 8.07359 73.2631 8.01581 73.5519C7.90961 73.8491 7.90961 74.1739 8.01581 74.4711C8.03979 74.5114 8.07262 74.5458 8.11182 74.5716C8.15102 74.5974 8.19557 74.6139 8.2421 74.62C8.28863 74.6261 8.33594 74.6215 8.38044 74.6066C8.42495 74.5917 8.46549 74.5669 8.49902 74.5341C8.60469 74.4151 8.68335 74.2746 8.72959 74.1223C8.77583 73.9699 8.78855 73.8094 8.76688 73.6517C8.78952 73.2978 8.73578 72.9431 8.60932 72.6118Z" fill="#008395"/>
    <path d="M8.71436 76.8976C8.62657 76.6213 8.59618 76.33 8.62507 76.0415C8.66184 75.4795 7.73219 75.3482 7.63765 75.9102C7.5221 76.6298 7.5221 77.8693 8.41498 78.1056C8.47301 78.1208 8.53375 78.1226 8.59256 78.1107C8.65137 78.0989 8.70669 78.0738 8.75432 78.0373C8.80194 78.0008 8.84061 77.9539 8.86736 77.9003C8.89411 77.8466 8.90825 77.7875 8.90869 77.7275C8.91062 77.4394 8.84401 77.1549 8.71436 76.8976Z" fill="#008395"/>
    <path d="M10.5369 80.7003C10.4677 80.5785 10.3886 80.4625 10.3005 80.3536C10.1633 80.2315 10.0137 80.1241 9.85409 80.0332C9.60184 79.8677 9.37381 79.668 9.17655 79.4397C8.88242 79.1141 8.40972 79.529 8.5988 79.8862C8.76246 80.197 8.96163 80.4878 9.1923 80.7528C9.32083 80.8859 9.46552 81.0023 9.62299 81.0994C9.81114 81.2059 10.0276 81.2518 10.2428 81.2307C10.3028 81.2264 10.3608 81.2071 10.4115 81.1747C10.4622 81.1422 10.5041 81.0977 10.5333 81.045C10.5624 80.9924 10.5781 80.9333 10.5787 80.8731C10.5793 80.8129 10.565 80.7535 10.5369 80.7003Z" fill="#008395"/>
    <path d="M14.1084 81.84C13.4886 81.4041 12.5012 81.6667 11.8027 81.7245C11.6773 81.7245 11.5571 81.7743 11.4684 81.8629C11.3798 81.9516 11.33 82.0718 11.33 82.1972C11.33 82.3225 11.3798 82.4428 11.4684 82.5314C11.5571 82.6201 11.6773 82.6699 11.8027 82.6699C12.5012 82.7276 13.4939 82.985 14.1084 82.5543C14.1705 82.5176 14.2219 82.4654 14.2576 82.4027C14.2933 82.3401 14.3121 82.2693 14.3121 82.1972C14.3121 82.1251 14.2933 82.0542 14.2576 81.9916C14.2219 81.9289 14.1705 81.8767 14.1084 81.84Z" fill="#008395"/>
    <path d="M17.3176 82.0764C16.8343 82.0396 16.3564 82.1341 15.8732 82.1026C15.7106 82.104 15.5551 82.1692 15.4402 82.2841C15.3252 82.3991 15.26 82.5546 15.2587 82.7171C15.2627 82.8788 15.3287 83.0328 15.4431 83.1472C15.5575 83.2616 15.7115 83.3276 15.8732 83.3316C16.1629 83.3951 16.4624 83.4009 16.7543 83.3486C17.0463 83.2963 17.3252 83.187 17.5749 83.027C17.6622 82.9647 17.7284 82.8772 17.7645 82.7763C17.8006 82.6753 17.8049 82.5657 17.7769 82.4622C17.7489 82.3587 17.6898 82.2662 17.6077 82.1972C17.5256 82.1283 17.4243 82.0861 17.3176 82.0764Z" fill="#008395"/>
    <path d="M21.1779 81.6247C20.6527 81.152 19.9121 81.5879 19.5024 82.0186C19.0927 82.4493 19.6075 82.9955 20.0276 82.7119C20.4478 82.4283 20.847 82.5386 21.1674 82.2497C21.2092 82.2094 21.2427 82.1612 21.2658 82.108C21.289 82.0547 21.3014 81.9974 21.3024 81.9393C21.3034 81.8813 21.2929 81.8236 21.2715 81.7696C21.2502 81.7156 21.2183 81.6663 21.1779 81.6247Z" fill="#008395"/>
    <path d="M23.5099 80.2591C23.0372 79.9912 22.617 80.2591 22.2599 80.5637C21.7346 81.0417 22.4174 81.903 23.0162 81.5459C23.2841 81.3883 23.5414 81.3305 23.7147 81.0206C23.7847 80.8916 23.8025 80.7407 23.7644 80.599C23.7263 80.4572 23.6352 80.3356 23.5099 80.2591Z" fill="#008395"/>
    <path d="M9.49157 69.2451C9.2505 69.4719 9.06995 69.7553 8.96635 70.0697C8.81547 70.3693 8.72618 70.6961 8.70374 71.0308C8.70374 71.2409 8.92433 71.4668 9.16068 71.3775C9.46501 71.2181 9.71809 70.9759 9.89075 70.6789C10.1032 70.3947 10.2487 70.0661 10.3162 69.7178C10.3473 69.6124 10.342 69.4995 10.3011 69.3975C10.2602 69.2955 10.186 69.2102 10.0907 69.1556C9.99531 69.1009 9.88429 69.08 9.77557 69.0962C9.66686 69.1125 9.5668 69.1649 9.49157 69.2451Z" fill="#008395"/>
    <path d="M11.4244 65.6368C10.6051 65.8469 10.2742 66.7713 10.0484 67.4961C10.0206 67.6013 10.0318 67.7131 10.0799 67.8107C10.128 67.9084 10.2098 67.9854 10.3101 68.0276C10.4104 68.0697 10.5226 68.0743 10.6261 68.0403C10.7295 68.0064 10.8171 67.9362 10.873 67.8427C11.0085 67.572 11.1648 67.3121 11.3404 67.0654C11.5511 66.8121 11.7375 66.5395 11.8971 66.2513C11.9357 66.1791 11.9526 66.0974 11.9458 66.0158C11.9391 65.9343 11.909 65.8564 11.8591 65.7915C11.8092 65.7267 11.7416 65.6776 11.6646 65.6501C11.5875 65.6227 11.5041 65.6181 11.4244 65.6368Z" fill="#008395"/>
    <path d="M14.2974 62.9056C13.6199 62.8583 13.0947 63.4781 12.7533 63.9928C12.4907 64.3867 13.0999 64.8647 13.4151 64.5181C13.568 64.3345 13.7446 64.172 13.9403 64.0348C14.1629 63.9059 14.3692 63.7507 14.5548 63.5726C14.612 63.5206 14.6521 63.4525 14.6699 63.3773C14.6877 63.302 14.6823 63.2231 14.6545 63.151C14.6267 63.0789 14.5777 63.0168 14.514 62.973C14.4502 62.9292 14.3748 62.9057 14.2974 62.9056Z" fill="#008395"/>
    <path d="M17.7114 61.5505C17.2256 61.573 16.7467 61.6741 16.2933 61.8499C16.211 61.8756 16.1391 61.9269 16.088 61.9964C16.0369 62.0658 16.0094 62.1498 16.0094 62.236C16.0094 62.3222 16.0369 62.4061 16.088 62.4755C16.1391 62.545 16.211 62.5963 16.2933 62.622C16.589 62.7086 16.9014 62.7218 17.2034 62.6605C17.5055 62.5992 17.788 62.4652 18.0265 62.2701C18.0846 62.2094 18.1235 62.1329 18.1381 62.0501C18.1528 61.9674 18.1426 61.8822 18.1089 61.8052C18.0752 61.7283 18.0195 61.663 17.9487 61.6177C17.878 61.5724 17.7954 61.549 17.7114 61.5505Z" fill="#008395"/>
    <path d="M20.7367 61.1776C20.4321 60.7942 19.8123 61.0358 19.4447 61.1776C19.3423 61.2055 19.2552 61.2729 19.2025 61.365C19.1498 61.4571 19.1358 61.5663 19.1637 61.6687C19.1916 61.7711 19.2589 61.8582 19.351 61.9109C19.4431 61.9636 19.5524 61.9776 19.6548 61.9497C20.0014 61.8919 20.4899 62.0127 20.7367 61.7029C20.8013 61.6306 20.8371 61.5371 20.8371 61.4403C20.8371 61.3434 20.8013 61.2499 20.7367 61.1776Z" fill="#008395"/>
    <path d="M23.489 95.2805C19.9174 95.3961 15.9677 97.1503 12.5853 95.1072C12.3122 94.9391 12.06 95.3541 12.3384 95.5326C13.9404 96.6409 15.9677 96.7984 17.8638 96.8562C19.6706 96.914 22.0656 96.9245 23.7095 96.0841C23.7882 96.0341 23.8488 95.9602 23.8823 95.8732C23.9159 95.7862 23.9207 95.6908 23.896 95.6009C23.8713 95.511 23.8185 95.4313 23.7452 95.3737C23.672 95.316 23.5821 95.2834 23.489 95.2805Z" fill="#00B0C7"/>
    <path d="M36.1469 34.0445C35.6584 34.2598 34.8233 34.6852 34.8601 35.3155C34.8611 35.3829 34.8775 35.4492 34.9078 35.5094C34.9382 35.5696 34.9818 35.6222 35.0354 35.6631C35.0889 35.704 35.1511 35.7323 35.2172 35.7458C35.2832 35.7593 35.3515 35.7576 35.4168 35.7409C35.6558 35.6673 35.8606 35.5109 35.9945 35.2998C36.1597 35.1024 36.3485 34.926 36.5565 34.7745C36.6534 34.7202 36.7246 34.6296 36.7547 34.5228C36.7847 34.4159 36.7711 34.3015 36.7167 34.2047C36.6624 34.1078 36.5718 34.0366 36.465 34.0065C36.3581 33.9765 36.2437 33.9901 36.1469 34.0445Z" fill="#EA9F52"/>
    <path d="M35.359 37.3534C35.2367 37.5786 35.0789 37.7826 34.8916 37.9574C34.6395 38.1938 34.3663 38.3566 34.3663 38.7295C34.3663 38.8236 34.3971 38.9151 34.454 38.99C34.5109 39.0649 34.5908 39.1192 34.6815 39.1444C35.4588 39.3703 35.9473 38.2305 36.0891 37.6528C36.1288 37.556 36.1284 37.4473 36.088 37.3508C36.0476 37.2543 35.9705 37.1778 35.8737 37.1381C35.7769 37.0984 35.6683 37.0987 35.5718 37.1391C35.4752 37.1795 35.3987 37.2566 35.359 37.3534Z" fill="#EA9F52"/>
    <path d="M31.5353 37.7211C31.3266 37.9157 31.1334 38.1265 30.9576 38.3513C30.8524 38.4713 30.7752 38.6132 30.7316 38.7668C30.688 38.9203 30.6791 39.0816 30.7055 39.239C30.7423 39.5278 31.0942 39.5804 31.3095 39.4858C31.7454 39.2915 31.9398 38.782 32.2444 38.4354C32.2985 38.3361 32.3191 38.222 32.3031 38.1101C32.2872 37.9982 32.2356 37.8944 32.1559 37.8141C32.0763 37.7339 31.9729 37.6815 31.8611 37.6647C31.7493 37.648 31.635 37.6677 31.5353 37.7211Z" fill="#EA9F52"/>
    <path d="M33.7834 41.1823C33.7454 41.0572 33.6683 40.9477 33.5633 40.8698C33.4583 40.792 33.3311 40.75 33.2004 40.75C33.0697 40.75 32.9425 40.792 32.8375 40.8698C32.7325 40.9477 32.6553 41.0572 32.6174 41.1823C32.6083 41.2355 32.596 41.2881 32.5806 41.3399C32.5653 41.3675 32.5477 41.3938 32.5281 41.4186C32.3649 41.5761 32.2424 41.7707 32.1709 41.9859C32.1401 42.0976 32.147 42.2164 32.1907 42.3237C32.2344 42.4311 32.3124 42.521 32.4125 42.5794C32.5966 42.6935 32.817 42.7337 33.0295 42.6918C33.2419 42.6499 33.4306 42.529 33.5575 42.3535C33.6803 42.1876 33.7643 41.9962 33.8034 41.7935C33.8425 41.5909 33.8356 41.382 33.7834 41.1823Z" fill="#EA9F52"/>
    <path d="M28.6257 43.0311C28.3736 43.5563 27.8904 44.1708 28.1897 44.7538C28.2432 44.8409 28.3226 44.909 28.4169 44.9486C28.5111 44.9882 28.6154 44.9972 28.715 44.9744C29.3295 44.8378 29.4923 43.9922 29.6761 43.4828C29.6983 43.3527 29.676 43.219 29.613 43.1031C29.55 42.9872 29.4498 42.8958 29.3286 42.8437C29.2074 42.7916 29.0722 42.7817 28.9447 42.8157C28.8172 42.8497 28.7049 42.9255 28.6257 43.0311Z" fill="#EA9F52"/>
    <path d="M29.7811 45.7675C29.6498 46.3505 29.3084 47.0333 29.7811 47.548C29.8534 47.6218 29.9442 47.6749 30.0439 47.7016C30.1437 47.7284 30.2488 47.728 30.3484 47.7003C31.0679 47.4903 31.0837 46.5711 31.1414 45.9566C31.2097 45.174 29.9492 45.0217 29.7811 45.7675Z" fill="#EA9F52"/>
    <path d="M75.4075 56.6449C75.3315 56.4051 75.277 56.1591 75.2446 55.9096C75.1553 55.2741 74.1207 55.4369 74.1364 56.0619C74.1364 56.5872 74.1364 57.4433 74.6984 57.6954C74.8184 57.7643 74.9607 57.7831 75.0944 57.7477C75.2282 57.7123 75.3425 57.6255 75.4127 57.5063C75.4728 57.3705 75.5033 57.2235 75.5024 57.0751C75.5015 56.9266 75.4692 56.78 75.4075 56.6449Z" fill="#EA9F52"/>
    <path d="M77.3771 59.2606C77.3089 58.8876 76.7416 58.9874 76.7311 59.3498C76.7311 59.5652 76.7311 59.7805 76.7311 59.9959C76.723 60.1062 76.7433 60.2169 76.7903 60.3171C76.8372 60.4174 76.909 60.5039 76.999 60.5684C77.0385 60.5919 77.0824 60.6072 77.1279 60.6136C77.1735 60.62 77.2199 60.6172 77.2644 60.6055C77.3089 60.5938 77.3506 60.5733 77.3871 60.5453C77.4235 60.5173 77.4541 60.4823 77.4769 60.4423C77.687 60.0904 77.4402 59.623 77.3771 59.2606Z" fill="#EA9F52"/>
    <path d="M76.8098 62.6483C76.7819 62.5629 76.7278 62.4886 76.6552 62.4359C76.5826 62.3832 76.4951 62.3549 76.4054 62.3549C76.3156 62.3549 76.2282 62.3832 76.1556 62.4359C76.0829 62.4886 76.0288 62.5629 76.001 62.6483C75.8854 63.1052 75.6701 63.7827 76.064 64.1504C76.1552 64.2396 76.2778 64.2895 76.4054 64.2895C76.533 64.2895 76.6555 64.2396 76.7468 64.1504C77.1407 63.767 76.9253 63.1052 76.8098 62.6483Z" fill="#EA9F52"/>
    <path d="M78.3644 64.5601C78.2482 64.4982 78.113 64.4822 77.9856 64.5153C77.8582 64.5484 77.7478 64.6281 77.6764 64.7387C77.4663 65.2061 77.3823 65.8784 77.9915 66.0727C78.0857 66.0968 78.1851 66.0899 78.2749 66.053C78.3648 66.0161 78.4404 65.9512 78.4905 65.8679C78.6691 65.6263 78.5483 65.3847 78.5955 65.1221C78.62 65.016 78.6109 64.9049 78.5695 64.8043C78.5281 64.7036 78.4565 64.6183 78.3644 64.5601Z" fill="#EA9F52"/>
    <path d="M29.3557 111.867C29.1917 111.707 29.055 111.52 28.9513 111.316C28.8462 111.106 28.8357 110.874 28.7307 110.67C28.7073 110.631 28.6753 110.598 28.6372 110.573C28.5992 110.548 28.556 110.533 28.511 110.527C28.466 110.522 28.4203 110.526 28.3773 110.541C28.3344 110.556 28.2954 110.58 28.2632 110.612C28.1431 110.795 28.0731 111.006 28.0602 111.224C28.0473 111.443 28.0919 111.661 28.1897 111.857C28.3473 112.245 28.7149 112.944 29.1929 112.944C29.2997 112.946 29.404 112.912 29.4889 112.847C29.5738 112.782 29.6342 112.69 29.6603 112.587C29.7496 112.314 29.5343 112.04 29.3557 111.867Z" fill="#EA9F52"/>
    <path d="M31.0942 112.718C30.9685 112.536 30.8335 112.361 30.6898 112.193C30.6401 112.112 30.566 112.049 30.4782 112.013C30.3903 111.977 30.2934 111.97 30.2013 111.993C30.0924 112.024 30 112.096 29.944 112.194C29.8879 112.293 29.8728 112.409 29.9019 112.518C30.0542 112.975 30.175 113.438 30.653 113.653C30.7107 113.686 30.776 113.703 30.8424 113.703C30.9088 113.703 30.974 113.685 31.0317 113.653C31.0894 113.62 31.1376 113.573 31.1716 113.516C31.2056 113.459 31.2241 113.394 31.2255 113.327C31.2486 113.115 31.2026 112.902 31.0942 112.718Z" fill="#EA9F52"/>
    <path d="M32.1657 114.945C31.9188 114.824 31.6404 114.756 31.4093 114.651C31.3262 114.628 31.2394 114.621 31.1537 114.632C31.0681 114.642 30.9853 114.669 30.9102 114.712C30.8351 114.754 30.7691 114.811 30.7159 114.879C30.6628 114.947 30.6236 115.025 30.6005 115.108C30.5566 115.276 30.5797 115.454 30.665 115.605C30.7503 115.756 30.8911 115.868 31.0574 115.917C31.3709 116.043 31.7209 116.043 32.0344 115.917C32.1234 115.889 32.2044 115.84 32.2703 115.774C32.3362 115.709 32.385 115.628 32.4125 115.538C32.4429 115.426 32.4352 115.307 32.3905 115.2C32.3458 115.092 32.2667 115.003 32.1657 114.945Z" fill="#EA9F52"/>
    <path d="M33.9094 114.751C33.1846 114.462 32.6699 115.696 33.3842 116.006C33.8516 116.211 34.2823 116.531 34.797 116.284C34.8823 116.238 34.953 116.168 35.0012 116.084C35.0494 116 35.0733 115.903 35.0701 115.806C35.0334 115.171 34.4189 114.95 33.9094 114.751Z" fill="#EA9F52"/>
    <path d="M73.8213 71.3828C73.8213 71.3828 77.3245 64.1189 79.1628 63.8563C81.0011 63.5937 79.5988 67.6221 78.7269 68.9352C77.855 70.2483 73.8213 71.3828 73.8213 71.3828Z" fill="#008395"/>
    <path d="M50.9319 71.2935C50.9319 71.2935 54.0832 68.536 56.0528 67.7482C58.0224 66.9604 66.0321 72.4752 69.1835 72.4752C72.3348 72.4752 76.4053 68.4047 78.3749 67.6169C80.3445 66.829 83.8898 68.6673 84.1524 69.5865C84.415 70.5056 74.6983 78.9092 74.6983 78.9092L65.6382 80.091L58.9416 77.0709L50.9319 71.2935Z" fill="#FFF7A9"/>
    <path d="M66.5627 74.6024C62.76 72.7799 58.6843 71.4038 54.7713 69.8754C54.6295 69.8176 54.5297 70.0592 54.6663 70.117C58.5057 71.8239 62.3293 73.8618 66.3473 75.1276C66.6467 75.2011 66.8725 74.7389 66.5627 74.6024Z" fill="#FFCC80"/>
    <path d="M62.0615 71.3775C60.7484 70.7577 59.4984 69.9909 58.0488 69.7388C58.0234 69.7389 57.9988 69.7473 57.9787 69.7628C57.9587 69.7783 57.9442 69.7999 57.9377 69.8244C57.9311 69.8489 57.9328 69.8749 57.9424 69.8983C57.952 69.9217 57.9691 69.9414 57.991 69.9541C59.3566 70.4373 60.5174 71.325 61.9039 71.7504C62.1456 71.8239 62.2769 71.4825 62.0615 71.3775Z" fill="#FFCC80"/>
    <path d="M67.4661 73.053C65.9692 72.1758 64.1414 71.7557 62.5553 71.0414C62.3872 70.9678 62.2454 71.2042 62.4082 71.2882C63.962 72.1667 65.5894 72.9083 67.2718 73.5047C67.3304 73.5239 67.394 73.5204 67.4502 73.4951C67.5064 73.4697 67.551 73.4243 67.5754 73.3676C67.5997 73.311 67.602 73.2473 67.5818 73.1891C67.5616 73.1309 67.5203 73.0823 67.4661 73.053Z" fill="#FFCC80"/>
    <path d="M75.1763 70.3481C74.6178 70.5148 74.1114 70.8223 73.7057 71.241C73.1533 71.7377 72.5431 72.1662 71.8884 72.5173C71.7834 72.5645 71.8569 72.7484 71.9672 72.7063C72.5453 72.4598 73.0905 72.1422 73.5902 71.7609C74.1522 71.3565 74.8087 71.0519 75.3392 70.6212C75.481 70.5056 75.3182 70.3271 75.1763 70.3481Z" fill="#FFCC80"/>
    <path d="M80.0032 67.8953C77.4244 68.8669 75.376 71.1727 73.1753 72.7746C73.0598 72.8587 73.1753 73.0425 73.2909 72.9689C75.6911 71.6139 77.8551 69.8176 80.1923 68.368C80.4444 68.2157 80.2921 67.7902 80.0032 67.8953Z" fill="#FFCC80"/>
    <path d="M77.8025 71.2672C75.7699 71.8345 74.336 73.6045 72.5503 74.6549C72.482 74.6969 72.5503 74.7967 72.6133 74.76C74.4778 73.8618 76.064 72.4962 77.9181 71.5666C78.0966 71.4826 77.9811 71.2199 77.8025 71.2672Z" fill="#FFCC80"/>
    <path d="M76.2059 89.5451C76.3424 91.5987 78.1124 94.603 78.7007 95.1912C79.289 95.7795 79.5568 98.5422 78.9003 99.1304C78.2438 99.7187 74.1733 94.8656 74.0419 91.0525C73.9106 87.2393 76.1429 88.5629 76.2059 89.5451Z" fill="#008395"/>
    <path d="M49.8815 70.3743C48.9099 70.7998 44.7606 86.3937 44.6293 87.3128C44.498 88.232 62.093 97.6861 65.3757 97.4234C68.6583 97.1608 79.4255 87.1815 80.6072 86.2624C81.789 85.3433 85.8595 69.4552 85.3342 68.6673C84.809 67.8795 73.648 76.2831 69.9714 76.677C66.2948 77.0709 51.9824 69.4552 49.8815 70.3743Z" fill="#00AEA2"/>
    <path d="M40.9528 86.1311C40.9528 86.1311 46.8615 78.778 54.2147 78.2527C54.2147 78.2527 55.3965 76.4144 56.4469 76.5457C57.4974 76.6771 57.8913 78.1214 57.8913 78.1214C57.8913 78.1214 59.3357 76.6771 60.6487 77.2023C61.9618 77.7275 61.9618 79.6971 61.9618 79.6971C61.9618 79.6971 63.2748 78.778 64.4566 79.6971C65.6384 80.6162 64.0627 82.1919 63.9314 83.3737C63.8001 84.5554 57.1034 105.171 41.3467 94.9286" fill="#DD8F42"/>
    <path d="M73.3854 84.5554C73.3854 84.5554 76.2741 94.666 81.9203 93.3529C87.5664 92.0399 87.5664 85.6059 80.8698 80.6162C80.8698 80.6162 79.9507 77.5962 78.9002 77.7275C77.8498 77.8588 77.5872 79.8284 77.5872 79.8284C77.5872 79.8284 75.6176 78.1214 74.6984 78.9092C73.7793 79.6971 74.4358 81.2728 74.4358 81.2728C74.4358 81.2728 72.5975 80.2223 72.2036 81.5354C71.8097 82.8484 73.3854 84.5554 73.3854 84.5554Z" fill="#DD8F42"/>
    <path d="M69.5511 76.6875H69.4461L69.0522 76.6508H68.9524L68.4639 76.5667H68.4062L67.7916 76.3724C67.0826 79.4082 64.073 91.0262 62.8073 96.8562C63.6252 97.1875 64.4939 97.3758 65.3756 97.4129C66.2055 97.3447 67.508 96.6619 69.0102 95.6639C69.6142 90.6218 70.8012 80.4639 71.1111 76.3882C70.922 76.4512 70.7434 76.509 70.5858 76.551H70.486C70.3252 76.5909 70.1621 76.6207 69.9976 76.6403C69.8501 76.6669 69.7009 76.6827 69.5511 76.6875Z" fill="#00827A"/>
    <path d="M41.3046 94.3088C40.974 94.0723 40.6224 93.8666 40.2541 93.6943C39.8954 93.4534 39.5237 93.2325 39.1407 93.0325C38.9726 92.9643 38.8413 93.1849 38.9201 93.3214C39.1588 93.6624 39.4622 93.9533 39.8129 94.1775C40.1541 94.4715 40.548 94.6978 40.9737 94.8446C41.2836 94.9234 41.5619 94.5189 41.3046 94.3088Z" fill="#BC732D"/>
    <path d="M42.0872 84.3874C41.8401 84.4913 41.5998 84.6105 41.3677 84.7445C41.129 84.8692 40.9237 85.0493 40.7689 85.2697C40.5483 85.5954 40.9632 85.9 41.2626 85.7634C41.6681 85.5175 42.0608 85.2511 42.4391 84.9651C42.8383 84.776 42.4916 84.214 42.0872 84.3874Z" fill="#BC732D"/>
    <path d="M78.8477 91.6039C77.897 91.3308 77.167 90.5535 76.2215 90.2804C75.9432 90.2069 75.6701 90.5955 75.9222 90.8056C76.7415 91.4464 77.6922 92.1659 78.7636 92.1975C78.8423 92.2086 78.9222 92.188 78.9858 92.1402C79.0493 92.0925 79.0913 92.0214 79.1024 91.9427C79.1136 91.864 79.093 91.7841 79.0452 91.7206C78.9974 91.657 78.9264 91.6151 78.8477 91.6039Z" fill="#BC732D"/>
    <path d="M47.0926 82.8694C46.5674 82.7959 46.0421 83.1583 45.5905 83.3947C45.4997 83.4471 45.4312 83.5309 45.3977 83.6302C45.3643 83.7296 45.3683 83.8377 45.4088 83.9343C45.4494 84.031 45.5239 84.1095 45.6182 84.1552C45.7126 84.2009 45.8204 84.2106 45.9213 84.1825C46.394 84.0354 47.0558 83.8936 47.3237 83.4367C47.352 83.3853 47.3685 83.3282 47.372 83.2695C47.3754 83.2109 47.3657 83.1523 47.3435 83.0979C47.3214 83.0435 47.2873 82.9948 47.2439 82.9553C47.2005 82.9157 47.1488 82.8864 47.0926 82.8694Z" fill="#EA9F52"/>
    <path d="M48.9834 83.5207C48.9607 83.4501 48.9206 83.3864 48.8668 83.3354C48.813 83.2844 48.7472 83.2477 48.6755 83.2289C48.6037 83.2101 48.5284 83.2096 48.4565 83.2275C48.3846 83.2455 48.3183 83.2813 48.2638 83.3316C48.2674 83.3224 48.274 83.3147 48.2827 83.3099C48.2913 83.3051 48.3014 83.3035 48.3111 83.3054C48.2073 83.3401 48.1136 83.3996 48.038 83.4787C48.1273 83.4787 47.9277 83.4787 47.9277 83.4787C47.2974 83.4104 47.1556 84.4766 47.7754 84.5869C48.0849 84.6635 48.412 84.6184 48.6893 84.4609C48.8451 84.3675 48.9611 84.2201 49.0153 84.0468C49.0696 83.8735 49.0582 83.6862 48.9834 83.5207Z" fill="#EA9F52"/>
    <path d="M49.871 80.8211C49.4298 80.6898 49.0727 81.0049 48.6893 81.1677C48.6174 81.1807 48.5491 81.2085 48.4887 81.2493C48.4282 81.2902 48.3769 81.3432 48.338 81.405C48.2992 81.4668 48.2737 81.536 48.263 81.6082C48.2524 81.6804 48.257 81.754 48.2764 81.8243C48.2958 81.8947 48.3297 81.9602 48.3758 82.0167C48.422 82.0733 48.4794 82.1195 48.5444 82.1526C48.6095 82.1858 48.6807 82.2049 48.7536 82.209C48.8264 82.213 48.8993 82.2018 48.9676 82.1761C49.4456 82.0711 50.0496 81.9345 50.2019 81.4041C50.2343 81.2829 50.2177 81.1539 50.1558 81.0448C50.0939 80.9358 49.9916 80.8554 49.871 80.8211Z" fill="#EA9F52"/>
    <path d="M52.4814 81.5354C52.1304 81.5406 51.7833 81.61 51.4572 81.7402C50.932 81.8453 51.0633 82.6594 51.5833 82.6646C52.1033 82.6699 52.6075 82.5491 52.7651 82.0396C52.7941 81.9351 52.7806 81.8234 52.7274 81.7289C52.6743 81.6343 52.5858 81.5648 52.4814 81.5354Z" fill="#EA9F52"/>
    <path d="M80.9066 82.0343C80.5599 81.8085 80.2711 82.2864 80.4969 82.5596C80.7227 82.8327 80.833 83.1636 81.1744 83.2844C81.2552 83.3055 81.341 83.2942 81.4136 83.253C81.4862 83.2118 81.5398 83.1439 81.5631 83.0638C81.6682 82.5963 81.2585 82.2654 80.9066 82.0343Z" fill="#EA9F52"/>
    <path d="M82.0148 84.4294C81.9718 84.3814 81.9262 84.3358 81.8782 84.2928C81.7049 83.7676 80.8278 83.8359 80.8908 84.4241C80.8865 84.5409 80.9072 84.6572 80.9516 84.7653C80.9959 84.8733 81.0629 84.9707 81.1479 85.0508C81.233 85.1309 81.3342 85.1918 81.4448 85.2296C81.5553 85.2674 81.6727 85.281 81.7889 85.2697C81.8856 85.2651 81.9783 85.2299 82.0537 85.1692C82.129 85.1084 82.1832 85.0254 82.2083 84.9319C82.2334 84.8384 82.2282 84.7394 82.1934 84.6491C82.1587 84.5588 82.0961 84.4818 82.0148 84.4294Z" fill="#EA9F52"/>
    <path d="M84.0001 85.1069C83.9051 84.8678 83.7404 84.6629 83.5274 84.5187C83.4475 84.4462 83.3427 84.4073 83.2349 84.41C83.1271 84.4126 83.0244 84.4567 82.9481 84.5329C82.8719 84.6092 82.8279 84.7119 82.8252 84.8197C82.8225 84.9275 82.8615 85.0322 82.9339 85.1122C83.0781 85.3252 83.283 85.4899 83.5221 85.5849C83.5882 85.6014 83.6574 85.6006 83.723 85.5825C83.7886 85.5643 83.8484 85.5295 83.8966 85.4813C83.9447 85.4332 83.9795 85.3734 83.9977 85.3078C84.0158 85.2422 84.0167 85.1729 84.0001 85.1069Z" fill="#EA9F52"/>
</svg>
