<svg width="100" height="130" viewBox="0 0 100 130" fill="none" xmlns="http://www.w3.org/2000/svg">
    <path d="M53.4787 130C67.0836 130 78.1125 128.169 78.1125 125.911C78.1125 123.653 67.0836 121.822 53.4787 121.822C39.8738 121.822 28.8448 123.653 28.8448 125.911C28.8448 128.169 39.8738 130 53.4787 130Z" fill="#D5E1E8"/>
    <path d="M33.1525 109.329C33.1525 109.329 31.6613 119.854 33.3182 122.007C34.975 124.161 43.4978 123.976 43.4978 123.976L44.4919 112.378L41.9271 106.996L33.1525 109.329Z" fill="#2E6EA5"/>
    <path d="M38.9515 98.8913C37.0483 99.3566 35.3214 100.365 33.981 101.794C32.0789 104.034 32.3241 108.342 32.4898 109.667C32.6555 110.993 38.2092 111.576 40.277 111.158C42.3447 110.741 43.4978 103.431 43.4978 103.431L38.9515 98.8913Z" fill="#245784"/>
    <path d="M38.7858 104.412C38.7858 104.412 37.1289 115.566 37.3477 119.105L39.6672 125.182L40.4426 126.063C40.4426 126.063 48.9455 124.738 54.6914 123.962C60.4373 123.187 66.7333 125.732 66.7333 125.732L70.7097 123.525L71.0543 118.667C71.0543 118.667 68.5028 111.377 68.6155 105.3C68.7281 99.2226 64.195 88.0688 64.195 88.0688L42.6562 89.9443L41.218 100.217L38.7858 104.412Z" fill="#F9C5C7"/>
    <path d="M40.6084 55.3165C40.6084 55.3165 34.3124 45.5411 34.8094 29.3041C35.3065 13.0671 28.1821 3.95454 20.0636 9.75346C11.9451 15.5524 11.6137 53.3283 33.981 59.4586L40.6084 55.3165Z" fill="#F9C5C7"/>
    <path d="M37.9575 54.8194C37.9575 54.8194 31.9929 47.5293 31.6615 32.9492C31.3301 18.369 27.188 14.2269 23.046 17.2092C18.9039 20.1915 17.247 44.7127 35.4722 57.4704L37.9575 54.8194Z" fill="#F16F7A"/>
    <path d="M59.2179 53.3349C59.2179 53.3349 65.6265 44.6531 66.1236 29.5891C66.6206 14.5252 73.7583 6.50607 80.9357 12.358C88.1131 18.21 86.1846 53.209 65.1096 57.5631L59.2179 53.3349Z" fill="#F9C5C7"/>
    <path d="M61.7032 53.0632C61.7032 53.0632 67.6679 46.6678 68.8276 33.1811C69.9874 19.6945 74.0765 16.0826 77.7348 19.0848C81.3931 22.087 81.4792 44.8983 63.8174 55.6279L61.7032 53.0632Z" fill="#F16F7A"/>
    <path d="M40.4427 126.063C36.2409 129.377 32.6025 124.519 32.2712 122.75C32.1654 122.282 32.2443 121.791 32.4912 121.38C32.7381 120.969 33.134 120.669 33.5966 120.543C33.607 120.293 33.6734 120.048 33.791 119.827C33.9087 119.606 34.0745 119.414 34.2762 119.266C34.4779 119.118 34.7104 119.017 34.9564 118.971C35.2024 118.924 35.4557 118.934 35.6975 118.999C35.6975 118.999 35.9162 117.786 37.467 118.117C39.0178 118.449 42.9809 124.075 40.4427 126.063Z" fill="#F59C9C"/>
    <path d="M66.3025 125.732C70.5043 129.046 74.1427 124.188 74.4741 122.418C74.5798 121.951 74.501 121.46 74.2541 121.049C74.0072 120.638 73.6112 120.338 73.1486 120.211C73.1373 119.962 73.0701 119.718 72.9521 119.498C72.8341 119.278 72.6681 119.087 72.4666 118.939C72.265 118.792 72.0328 118.691 71.7873 118.645C71.5417 118.599 71.289 118.609 71.0477 118.674C71.0477 118.674 70.829 117.461 69.2782 117.792C67.7274 118.124 63.7576 123.744 66.3025 125.732Z" fill="#F59C9C"/>
    <path d="M61.5375 90.9384C61.5375 90.9384 47.9581 108.832 37.7917 111.371C35.1408 112.033 36.0222 115.566 37.4604 115.678C38.8985 115.791 62.5316 102.106 65.0765 90.6071L63.9697 89.0629L61.5375 90.9384Z" fill="#2E6EA5"/>
    <path d="M50.9338 96.5717L39.1172 114.293C38.9908 114.484 38.9049 114.699 38.8648 114.925C38.8247 115.15 38.8312 115.382 38.884 115.605C38.9368 115.828 39.0347 116.037 39.1717 116.221C39.3087 116.405 39.4819 116.558 39.6806 116.672L53.7438 124.705C54.1188 124.918 54.5616 124.978 54.98 124.873C55.3985 124.768 55.7603 124.506 55.9905 124.141L67.1443 106.413C67.2624 106.225 67.3418 106.014 67.3777 105.794C67.4137 105.575 67.4055 105.35 67.3537 105.133C67.3018 104.917 67.2074 104.713 67.0759 104.533C66.9443 104.354 66.7784 104.202 66.5876 104.087L53.1871 96.0614C52.8177 95.8413 52.3779 95.7715 51.9585 95.8665C51.5392 95.9615 51.1723 96.2139 50.9338 96.5717Z" fill="#5DC4BD"/>
    <path d="M46.3078 98.6328C46.3078 98.6328 42.3314 103.007 45.4065 107.447C45.4065 107.447 47.0302 106.99 46.997 107.898C47.0111 108.133 46.9436 108.365 46.8059 108.556C46.6682 108.747 46.4689 108.884 46.2415 108.945C46.2415 108.945 47.4079 109.276 47.335 109.946C47.2621 110.615 46.215 110.661 46.215 110.661C46.215 110.661 46.6259 111.702 46.4138 111.987C45.6848 112.928 38.461 111.788 38.0435 102.258C37.626 92.7278 43.0935 88.5327 43.0935 88.5327" fill="#F9C5C7"/>
    <path d="M61.12 98.4141C61.12 98.4141 65.8254 102.019 63.5522 106.937C63.5522 106.937 61.8755 106.771 62.0611 107.666C62.0878 107.9 62.1948 108.118 62.364 108.282C62.5331 108.447 62.7539 108.547 62.9889 108.567C62.9889 108.567 61.8954 109.097 62.0876 109.747C62.2798 110.396 63.3203 110.251 63.3203 110.251C63.3203 110.251 63.0949 111.351 63.3534 111.576C64.2348 112.378 71.1737 109.979 69.888 100.528C68.6023 91.0776 62.5051 87.9362 62.5051 87.9362" fill="#F9C5C7"/>
    <path d="M63.9698 89.0562L61.5376 90.9318C61.5376 90.9318 59.9934 92.9664 57.5612 95.7499C57.9844 96.8118 58.6282 97.7718 59.4499 98.5665C59.6559 98.7551 59.8777 98.9258 60.1127 99.0768C62.5781 96.2734 64.4271 93.3706 65.0434 90.5938L63.9698 89.0562Z" fill="#2E6EA5"/>
    <path d="M49.5553 46.5352C49.5553 46.5352 29.839 53.991 28.6792 70.725C27.5194 87.4591 40.6084 94.4178 55.52 93.258C70.4315 92.0982 75.402 78.5122 75.0706 70.0623C74.7393 61.6124 66.9521 51.5057 55.8513 50.1803C55.8513 50.1803 58.0052 49.1862 58.3366 47.8607C58.3366 47.8607 53.3661 47.695 50.2181 50.0146C50.0842 48.8399 49.8627 47.6769 49.5553 46.5352Z" fill="#F9C5C7"/>
    <path d="M69.7421 118.899C69.2716 118.555 68.7745 118.985 68.6088 119.423C68.5679 119.574 68.5881 119.735 68.665 119.871C68.7419 120.008 68.8693 120.108 69.0197 120.152C69.1484 120.185 69.2847 120.173 69.4054 120.117C69.5262 120.062 69.6241 119.966 69.6825 119.847L69.7554 119.787C69.8142 119.723 69.8674 119.655 69.9144 119.582C69.9805 119.468 69.9995 119.333 69.9673 119.205C69.9351 119.078 69.8543 118.968 69.7421 118.899Z" fill="#F9C5C7"/>
    <path d="M71.6575 119.999C71.6344 119.922 71.5895 119.853 71.5282 119.801C71.4669 119.749 71.3918 119.715 71.3119 119.705C71.232 119.694 71.1508 119.707 71.0781 119.742C71.0054 119.776 70.9442 119.831 70.9019 119.9C70.8601 120.01 70.7918 120.108 70.7031 120.185C70.6415 120.246 70.5948 120.32 70.5666 120.402C70.5385 120.484 70.5296 120.571 70.5406 120.657C70.5517 120.743 70.5825 120.826 70.6305 120.898C70.6786 120.97 70.7426 121.03 70.8176 121.073C70.8927 121.116 70.9767 121.142 71.0632 121.147C71.1497 121.153 71.2362 121.139 71.3162 121.105C71.3962 121.072 71.4674 121.021 71.5243 120.955C71.5812 120.89 71.6222 120.812 71.6442 120.728C71.7036 120.489 71.7081 120.24 71.6575 119.999Z" fill="#F9C5C7"/>
    <path d="M73.3872 121.875C73.3711 121.811 73.338 121.752 73.2913 121.706C73.2446 121.659 73.1861 121.626 73.1221 121.61C72.9888 121.587 72.8518 121.6 72.7258 121.649C72.5998 121.698 72.4896 121.781 72.407 121.888C72.3245 121.995 72.2728 122.123 72.2575 122.257C72.2421 122.391 72.2638 122.527 72.3201 122.65C72.3364 122.707 72.3655 122.76 72.4051 122.804C72.4447 122.848 72.4938 122.883 72.5487 122.905C72.6036 122.927 72.6629 122.937 72.722 122.933C72.7812 122.929 72.8386 122.912 72.8901 122.882C73.2281 122.604 73.4998 122.332 73.3872 121.875Z" fill="#F9C5C7"/>
    <path d="M33.2785 121.742C33.18 121.718 33.0765 121.726 32.9826 121.764C32.8886 121.802 32.809 121.869 32.755 121.954C32.703 122.043 32.6819 122.147 32.6951 122.249C32.7083 122.35 32.755 122.445 32.8279 122.518C33.0466 122.703 33.0996 123.002 33.3647 123.141C33.4189 123.174 33.4792 123.196 33.5421 123.206C33.605 123.216 33.6692 123.213 33.731 123.198C33.7927 123.182 33.8508 123.154 33.9017 123.116C33.9526 123.078 33.9953 123.03 34.0274 122.975C34.3522 122.471 33.7955 121.815 33.2785 121.742Z" fill="#F9C5C7"/>
    <path d="M35.8036 120.404C35.7412 120.283 35.6458 120.182 35.5286 120.113C35.4113 120.043 35.2769 120.009 35.1408 120.013C35.0683 120.014 34.9973 120.033 34.9348 120.07C34.8723 120.107 34.8205 120.159 34.7844 120.222C34.7483 120.285 34.7291 120.356 34.7289 120.429C34.7286 120.501 34.7473 120.572 34.7829 120.636C34.815 120.688 34.8333 120.747 34.836 120.808C34.8665 120.92 34.9329 121.019 35.0251 121.09C35.1173 121.16 35.2301 121.199 35.3463 121.199C35.3922 121.209 35.4396 121.209 35.4854 121.199C35.5655 121.177 35.6394 121.137 35.7014 121.082C35.7633 121.026 35.8116 120.958 35.8424 120.88C35.8732 120.803 35.8858 120.72 35.879 120.637C35.8723 120.555 35.8465 120.475 35.8036 120.404Z" fill="#F9C5C7"/>
    <path d="M37.3477 118.952C37.2425 118.951 37.1399 118.985 37.056 119.049C36.9721 119.112 36.9116 119.202 36.8838 119.303C36.8527 119.426 36.8698 119.555 36.9315 119.665C36.9932 119.774 37.0948 119.856 37.2152 119.893C37.1423 119.893 37.2881 119.979 37.2947 119.986C37.3451 120.068 37.4206 120.131 37.5099 120.166C37.5992 120.201 37.6974 120.206 37.79 120.181C37.8825 120.156 37.9643 120.101 38.0232 120.025C38.082 119.949 38.1148 119.857 38.1165 119.761C38.1249 119.656 38.1111 119.55 38.076 119.451C38.0409 119.352 37.9853 119.261 37.9127 119.185C37.8402 119.108 37.7524 119.048 37.655 119.008C37.5577 118.968 37.453 118.949 37.3477 118.952Z" fill="#F9C5C7"/>
    <path d="M45.0619 106.453C44.3992 104.664 43.3653 103.219 43.5177 101.204C43.5124 101.185 43.5007 101.167 43.4845 101.155C43.4684 101.143 43.4486 101.136 43.4283 101.136C43.4079 101.136 43.3882 101.143 43.372 101.155C43.3559 101.167 43.3442 101.185 43.3388 101.204C43.1719 102.151 43.2035 103.123 43.4317 104.057C43.6598 104.992 44.0796 105.868 44.6643 106.632C44.8233 106.784 45.1547 106.692 45.0619 106.453Z" fill="#F16F7A"/>
    <path d="M42.3447 110.794C41.3175 109.707 40.277 108.667 39.3558 107.48C39.2299 107.321 38.9515 107.533 39.0708 107.699C39.8889 108.991 40.917 110.138 42.1128 111.092C42.2983 111.231 42.4905 110.946 42.3447 110.794Z" fill="#F16F7A"/>
    <path d="M63.6051 100.164C63.5124 99.9384 63.1611 100.018 63.234 100.27C63.7891 102.113 63.9915 104.044 63.8305 105.963C63.8305 106.122 64.0823 106.161 64.1088 106.002C64.5019 104.048 64.3271 102.022 63.6051 100.164Z" fill="#F16F7A"/>
    <path d="M67.807 108.156C67.282 108.615 66.8226 109.143 66.4417 109.727C65.9701 110.333 65.3734 110.83 64.6921 111.185C64.6775 111.196 64.6666 111.212 64.6607 111.229C64.6549 111.247 64.6545 111.266 64.6594 111.283C64.6644 111.301 64.6746 111.317 64.6887 111.329C64.7028 111.341 64.7201 111.349 64.7385 111.351C65.4683 111.285 66.1558 110.98 66.6936 110.482C67.3817 109.962 67.9136 109.263 68.2311 108.461C68.251 108.406 68.2523 108.345 68.2347 108.289C68.2172 108.232 68.1818 108.183 68.1339 108.149C68.086 108.114 68.0282 108.097 67.9692 108.098C67.9102 108.099 67.8533 108.12 67.807 108.156Z" fill="#F16F7A"/>
    <path d="M58.0249 105.34C57.7201 104.677 56.8652 104.418 56.2223 104.147C55.6126 103.791 54.9356 103.565 54.2341 103.484C54.1523 103.485 54.0721 103.507 54.0014 103.548C53.9308 103.59 53.8722 103.649 53.8314 103.72C53.7906 103.791 53.769 103.871 53.7687 103.953C53.7684 104.035 53.7895 104.115 53.8298 104.186C54.2903 104.703 54.8239 105.15 55.4138 105.512C55.9837 105.956 56.5537 106.579 57.3291 106.539C57.4695 106.539 57.6074 106.502 57.729 106.432C57.8507 106.362 57.9518 106.261 58.0222 106.14C58.0927 106.018 58.13 105.88 58.1305 105.74C58.131 105.6 58.0946 105.462 58.0249 105.34Z" fill="#ABDDE5"/>
    <path d="M58.1576 109.787C57.3756 108.733 56.1694 108.355 55.0494 107.798C53.9293 107.242 52.5906 106.519 51.3447 105.916C50.788 105.644 50.1054 106.38 50.6355 106.831C51.6296 107.666 52.6237 108.514 53.6377 109.303C54.6517 110.091 55.8778 111.238 57.3424 111.231C57.9985 111.205 58.6016 110.383 58.1576 109.787Z" fill="#ABDDE5"/>
    <path d="M62.3129 91.5614C59.5162 91.853 56.8255 92.7278 53.989 93.0128C50.1319 93.3972 46.4736 92.4627 42.7225 91.8795C42.5502 91.8795 42.4044 92.1049 42.5899 92.1844C48.654 94.7823 56.567 95.2065 62.472 92.0386C62.6642 91.9259 62.5714 91.5018 62.3129 91.5614Z" fill="#F16F7A"/>
    <path d="M45.9766 69.7508C45.9843 69.5822 45.9495 69.4143 45.8754 69.2626C45.8013 69.1109 45.6902 68.9802 45.5524 68.8826C45.3597 68.7226 45.117 68.6349 44.8665 68.6349C44.616 68.6349 44.3733 68.7226 44.1806 68.8826C44.0416 68.9795 43.9292 69.1098 43.8539 69.2615C43.7786 69.4133 43.7428 69.5816 43.7498 69.7508C43.7183 70.2872 43.7183 70.8249 43.7498 71.3613C43.7498 71.6504 43.8647 71.9277 44.0691 72.1322C44.2736 72.3366 44.5509 72.4515 44.84 72.4515C45.1291 72.4515 45.4064 72.3366 45.6109 72.1322C45.8153 71.9277 45.9302 71.6504 45.9302 71.3613C45.9772 70.8258 45.9927 70.2881 45.9766 69.7508Z" fill="#B9555E"/>
    <path d="M60.994 69.7508C61.0018 69.5822 60.967 69.4143 60.8929 69.2626C60.8187 69.1109 60.7077 68.9802 60.5699 68.8826C60.3772 68.7226 60.1345 68.6349 59.884 68.6349C59.6334 68.6349 59.3908 68.7226 59.198 68.8826C59.0541 68.9764 58.9366 69.1053 58.8565 69.2573C58.7765 69.4092 58.7366 69.5791 58.7407 69.7508C58.7093 70.2872 58.7093 70.8249 58.7407 71.3613C58.7407 71.6504 58.8556 71.9277 59.0601 72.1322C59.2645 72.3366 59.5418 72.4515 59.8309 72.4515C60.1201 72.4515 60.3974 72.3366 60.6018 72.1322C60.8063 71.9277 60.9211 71.6504 60.9211 71.3613C60.9769 70.8263 61.0013 70.2886 60.994 69.7508Z" fill="#B9555E"/>
    <path d="M46.7188 76.0468C43.6371 73.2965 39.2498 72.9452 35.3662 73.9923C34.9553 74.105 35.0282 74.8075 35.4722 74.7545C39.4486 74.3104 42.9545 73.9791 46.3742 76.4908C46.6393 76.683 46.9574 76.2589 46.7188 76.0468Z" fill="#FBE6EF"/>
    <path d="M46.1024 78.2471C43.5575 76.7294 40.6216 77.1005 38.1496 78.6315C37.8381 78.8236 38.0435 79.3936 38.408 79.2478C40.9927 78.2139 43.1731 77.8759 45.8704 78.7441C45.9364 78.7749 46.0118 78.7782 46.0801 78.7533C46.1485 78.7285 46.2042 78.6775 46.2349 78.6116C46.2657 78.5457 46.269 78.4702 46.2442 78.4019C46.2193 78.3335 46.1683 78.2778 46.1024 78.2471Z" fill="#FBE6EF"/>
    <path d="M46.0561 80.4606C44.4523 79.0821 41.132 80.9775 40.0915 82.3494C39.8198 82.7205 40.3765 83.0453 40.6813 82.8067C41.3993 82.2061 42.187 81.6943 43.0274 81.2824C43.953 80.9088 44.9389 80.7067 45.9368 80.6859C46.0694 80.6727 46.1489 80.5401 46.0561 80.4606Z" fill="#FBE6EF"/>
    <path d="M57.3822 76.0468C60.4639 73.2965 64.8512 72.9452 68.7348 73.9923C69.1457 74.105 69.0728 74.8075 68.6288 74.7545C64.6524 74.3104 61.1465 73.9791 57.7268 76.4908C57.4617 76.683 57.1436 76.2589 57.3822 76.0468Z" fill="#FBE6EF"/>
    <path d="M57.9985 78.2471C60.5434 76.7294 63.4793 77.1005 65.9513 78.6315C66.2628 78.8236 66.0573 79.3936 65.6928 79.2478C63.1082 78.2139 60.9278 77.8759 58.2304 78.7441C58.1645 78.7749 58.0891 78.7782 58.0207 78.7533C57.9524 78.7285 57.8967 78.6775 57.8659 78.6116C57.8352 78.5457 57.8319 78.4702 57.8567 78.4019C57.8816 78.3335 57.9326 78.2778 57.9985 78.2471Z" fill="#FBE6EF"/>
    <path d="M58.045 80.4606C59.6488 79.0821 62.9691 80.9775 64.0096 82.3494C64.2813 82.7205 63.7246 83.0453 63.4197 82.8067C62.7018 82.2061 61.9141 81.6943 61.0737 81.2824C60.148 80.9088 59.1622 80.7067 58.1643 80.6859C58.0317 80.6727 57.9522 80.5401 58.045 80.4606Z" fill="#FBE6EF"/>
    <path d="M53.7901 77.4253C53.3604 77.8517 52.8796 78.2235 52.3586 78.532H52.2659C52.2195 78.3597 52.1466 78.1874 52.1068 78.0151C52.0925 77.6743 52.0138 77.3392 51.8748 77.0276C51.8661 77.0178 51.8554 77.0098 51.8434 77.0044C51.8314 76.999 51.8184 76.9962 51.8053 76.9962C51.7921 76.9962 51.7791 76.999 51.7671 77.0044C51.7551 77.0098 51.7444 77.0178 51.7357 77.0276C51.5545 77.3133 51.4772 77.6527 51.517 77.9886C51.5012 78.1982 51.5012 78.4086 51.517 78.6182C51.1013 78.515 50.7394 78.2596 50.503 77.9024C50.3439 77.6837 49.9132 77.8097 50.0324 78.1013C50.1755 78.5284 50.4646 78.8915 50.8488 79.1266C51.233 79.3617 51.6878 79.4539 52.1333 79.387C52.975 79.2876 54.0486 78.6778 54.2342 77.7898C54.3137 77.5446 54.0354 77.2463 53.7901 77.4253Z" fill="#B9555E"/>
    <path d="M49.0582 74.0387C49.4691 72.8126 54.3601 73.2103 54.8571 74.0387C55.3542 74.8671 53.2003 77.1867 51.8748 77.1867C50.5494 77.1867 48.7268 75.0328 49.0582 74.0387Z" fill="#F16F7A"/>
    <path d="M36.7646 58.0734C36.735 57.955 36.6681 57.8493 36.5738 57.7717C36.4796 57.6942 36.3629 57.649 36.241 57.6427C35.7374 57.6758 35.5783 58.1463 35.3066 58.5109C35.0349 58.8754 35.068 59.558 35.5849 59.6309C36.1019 59.7038 36.4465 59.1802 36.6453 58.6964C36.7544 58.5082 36.7965 58.2886 36.7646 58.0734Z" fill="#FAD6DB"/>
    <path d="M33.1592 60.5918C32.9604 60.963 32.5428 61.3407 32.5428 61.7781C32.5439 61.8374 32.5584 61.8956 32.5853 61.9484C32.6121 62.0012 32.6506 62.0472 32.6978 62.0829C32.7451 62.1187 32.7998 62.1432 32.8579 62.1547C32.916 62.1662 32.976 62.1643 33.0333 62.1493C33.5303 61.9637 33.696 61.3474 33.8418 60.8834C33.8607 60.7975 33.849 60.7077 33.8087 60.6295C33.7685 60.5512 33.7022 60.4895 33.6213 60.455C33.5403 60.4204 33.4499 60.4152 33.3656 60.4401C33.2812 60.4651 33.2082 60.5188 33.1592 60.5918Z" fill="#FAD6DB"/>
    <path d="M36.0355 61.6787C35.9494 61.1353 35.1475 61.3076 35.1209 61.8046C35.1209 62.1691 34.7896 62.4342 34.8161 62.7987C34.8161 63.0174 35.0017 63.2626 35.2535 63.2361C36.0156 63.1301 36.1349 62.2685 36.0355 61.6787Z" fill="#FAD6DB"/>
    <path d="M32.2314 64.0778C31.9663 64.4821 31.5686 64.8267 31.7078 65.3503C31.7413 65.474 31.8146 65.5832 31.9165 65.6611C32.0183 65.739 32.1429 65.7811 32.2711 65.781C32.8543 65.781 33.1327 65.2045 33.4177 64.7737C33.9015 64.0314 32.7085 63.3422 32.2314 64.0778Z" fill="#FAD6DB"/>
    <path d="M72.2803 75.2648C72.2238 75.1702 72.1322 75.1017 72.0254 75.0744C71.9186 75.0471 71.8054 75.0631 71.7104 75.119C71.5189 75.2594 71.3729 75.453 71.2905 75.6756C71.208 75.8983 71.1927 76.1403 71.2465 76.3715C71.2679 76.4362 71.3029 76.4954 71.3492 76.5454C71.3954 76.5954 71.4518 76.6349 71.5146 76.6613C71.5774 76.6876 71.6451 76.7003 71.7131 76.6983C71.7812 76.6963 71.8481 76.6798 71.9092 76.6499C72.1357 76.5095 72.3001 76.2882 72.3691 76.0308C72.438 75.7735 72.4063 75.4995 72.2803 75.2648Z" fill="#FAD6DB"/>
    <path d="M72.5522 77.4849C72.4461 77.1668 71.9292 77.1999 71.9425 77.5644C71.9557 77.9289 71.7569 77.982 71.6972 78.2272C71.6811 78.2868 71.681 78.3497 71.6969 78.4094C71.7128 78.4691 71.7442 78.5236 71.7879 78.5673C71.8316 78.611 71.8861 78.6424 71.9458 78.6583C72.0055 78.6742 72.0684 78.6741 72.128 78.658C72.6582 78.5387 72.698 77.9223 72.5522 77.4849Z" fill="#FAD6DB"/>
    <path d="M70.1266 79.2412C70.0296 79.3588 69.9603 79.4966 69.9236 79.6446C69.8869 79.7925 69.8838 79.9468 69.9145 80.0961C69.9322 80.1563 69.9652 80.2108 70.0101 80.2545C70.0551 80.2982 70.1106 80.3296 70.1712 80.3456C70.2319 80.3616 70.2956 80.3617 70.3563 80.3458C70.417 80.33 70.4725 80.2988 70.5176 80.2552C70.6427 80.066 70.7513 79.8664 70.8423 79.6587C70.8824 79.5651 70.8868 79.4601 70.8549 79.3635C70.8229 79.2668 70.7567 79.1852 70.6688 79.1339C70.5809 79.0826 70.4773 79.0652 70.3774 79.085C70.2776 79.1047 70.1884 79.1603 70.1266 79.2412Z" fill="#FAD6DB"/>
    <path d="M70.8224 80.898C70.6501 81.1432 70.3585 81.3023 70.3916 81.6403C70.3929 81.7074 70.4154 81.7724 70.4559 81.826C70.4964 81.8795 70.5527 81.9189 70.617 81.9385C71.114 82.0711 71.3526 81.5674 71.505 81.1896C71.6575 80.8119 71.0544 80.5865 70.8224 80.898Z" fill="#FAD6DB"/>
    <path d="M81.8901 15.3867C81.8901 15.2628 81.8409 15.1439 81.7533 15.0563C81.6657 14.9687 81.5468 14.9195 81.4229 14.9195C81.299 14.9195 81.1801 14.9687 81.0925 15.0563C81.0049 15.1439 80.9557 15.2628 80.9557 15.3867C80.8865 15.6891 80.8826 16.0028 80.9443 16.3068C81.0061 16.6108 81.1319 16.8981 81.3135 17.1496C81.3796 17.2126 81.4627 17.2551 81.5525 17.2718C81.6423 17.2885 81.735 17.2786 81.8194 17.2435C81.9037 17.2084 81.976 17.1494 82.0274 17.0739C82.0788 16.9984 82.1071 16.9095 82.1088 16.8182C82.0756 16.3358 82.0025 15.857 81.8901 15.3867Z" fill="#FAD6DB"/>
    <path d="M81.0086 18.9324C80.8771 18.6621 80.8113 18.3647 80.8164 18.0642C80.8367 17.9967 80.8433 17.9259 80.8358 17.8559C80.8284 17.7859 80.8071 17.7181 80.7732 17.6564C80.7392 17.5947 80.6933 17.5404 80.6382 17.4966C80.583 17.4528 80.5197 17.4205 80.4519 17.4014C80.3845 17.3793 80.3133 17.3712 80.2427 17.3778C80.172 17.3843 80.1035 17.4053 80.0413 17.4395C79.9791 17.4737 79.9247 17.5204 79.8813 17.5765C79.8379 17.6327 79.8066 17.6971 79.7892 17.7659C79.699 18.063 79.716 18.3823 79.8371 18.6681C79.9582 18.9539 80.1758 19.1882 80.4519 19.33C80.7237 19.4692 81.1412 19.2637 81.0086 18.9324Z" fill="#FAD6DB"/>
    <path d="M82.6589 19.3101C82.6382 19.2343 82.6027 19.1633 82.5545 19.1012C82.5062 19.0391 82.4462 18.9872 82.3779 18.9484C82.3095 18.9096 82.2341 18.8847 82.1561 18.8751C82.0781 18.8655 81.9989 18.8715 81.9232 18.8926C81.772 18.9374 81.644 19.0391 81.5662 19.1762C81.4883 19.3134 81.4666 19.4754 81.5057 19.6282C81.5786 20.0126 81.5521 20.4566 81.9431 20.6687C82.0378 20.7214 82.1471 20.7421 82.2545 20.7278C82.362 20.7135 82.4619 20.6649 82.5396 20.5892C82.9041 20.2711 82.7185 19.7276 82.6589 19.3101Z" fill="#FAD6DB"/>
    <path d="M81.7046 22.4515C81.7046 22.3179 81.6515 22.1898 81.557 22.0953C81.4626 22.0009 81.3345 21.9478 81.2009 21.9478C81.0673 21.9478 80.9392 22.0009 80.8447 22.0953C80.7503 22.1898 80.6972 22.3179 80.6972 22.4515C80.6972 22.8624 80.5713 23.3329 80.8894 23.6444C80.9724 23.7261 81.0843 23.772 81.2009 23.772C81.3174 23.772 81.4293 23.7261 81.5124 23.6444C81.8305 23.3329 81.7178 22.8624 81.7046 22.4515Z" fill="#FAD6DB"/>
    <path d="M82.7981 24.5656C82.7817 24.5052 82.7459 24.4518 82.6962 24.4138C82.6465 24.3758 82.5856 24.3552 82.523 24.3552C82.4605 24.3552 82.3996 24.3758 82.3499 24.4138C82.3002 24.4518 82.2644 24.5052 82.248 24.5656C82.1884 24.9433 82.0823 25.2747 82.3408 25.5994C82.3892 25.6476 82.4547 25.6746 82.523 25.6746C82.5913 25.6746 82.6569 25.6476 82.7053 25.5994C82.9704 25.2946 82.8577 24.9698 82.7981 24.5656Z" fill="#FAD6DB"/>
    <path d="M19.9178 11.3109C19.7136 11.5461 19.5276 11.7965 19.3611 12.0598C19.2434 12.1947 19.1645 12.3591 19.133 12.5354C19.1015 12.7116 19.1185 12.8932 19.1822 13.0605C19.2416 13.161 19.3382 13.234 19.4511 13.2638C19.564 13.2935 19.684 13.2776 19.7853 13.2196C20.0636 13.0539 20.0901 12.8286 20.2028 12.5568C20.3136 12.3089 20.4467 12.0715 20.6004 11.8477C20.8854 11.4368 20.2425 10.9398 19.9178 11.3109Z" fill="#FAD6DB"/>
    <path d="M21.1968 13.6106C21.1305 13.1202 20.3684 13.2593 20.3551 13.7232C20.352 13.9276 20.3045 14.1289 20.2159 14.3131C20.0966 14.5649 19.9243 14.7571 20.037 15.0487C20.0708 15.1551 20.1434 15.2449 20.2404 15.3002C20.3375 15.3555 20.4518 15.3722 20.5606 15.3469C21.2365 15.2873 21.2631 14.1143 21.1968 13.6106Z" fill="#FAD6DB"/>
    <path d="M17.3861 16.3543C17.1873 16.8182 16.9156 17.4544 17.2867 17.8852C17.3647 17.9613 17.4693 18.0039 17.5783 18.0039C17.6873 18.0039 17.7919 17.9613 17.8699 17.8852C17.9408 17.8197 17.9964 17.7395 18.0331 17.6502C18.0697 17.5609 18.0864 17.4647 18.082 17.3683C18.1067 17.1394 18.1671 16.9158 18.2609 16.7056C18.4597 16.2218 17.5982 15.8639 17.3861 16.3543Z" fill="#FAD6DB"/>
    <path d="M18.4995 18.5546C18.3802 18.9058 18.0754 19.3366 18.2278 19.7011C18.2633 19.8178 18.3421 19.9166 18.4481 19.977C18.5541 20.0374 18.6793 20.0549 18.7978 20.0259C19.2948 19.8602 19.3942 19.2902 19.5201 18.8329C19.5465 18.7012 19.5219 18.5644 19.4513 18.4501C19.3807 18.3358 19.2694 18.2526 19.1398 18.2173C19.0102 18.1819 18.872 18.1971 18.7532 18.2597C18.6343 18.3223 18.5437 18.4277 18.4995 18.5546Z" fill="#FAD6DB"/>
    <path d="M16.18 21.5369C16.0474 21.8948 15.7956 22.3388 16.054 22.69C16.1214 22.7983 16.2277 22.8765 16.351 22.9085C16.4743 22.9406 16.6053 22.9241 16.7168 22.8624C17.1078 22.69 17.1144 22.1996 17.2072 21.8152C17.2441 21.679 17.2254 21.5337 17.1552 21.4113C17.085 21.2889 16.969 21.1994 16.8328 21.1624C16.6965 21.1255 16.5512 21.1442 16.4288 21.2145C16.3064 21.2847 16.2169 21.4007 16.18 21.5369Z" fill="#FAD6DB"/>
    <path d="M39.6275 103.119C39.6107 103.056 39.5733 103 39.5211 102.96C39.469 102.919 39.405 102.898 39.3392 102.898C39.2734 102.898 39.2095 102.919 39.1573 102.96C39.1052 103 39.0678 103.056 39.0509 103.119C38.9847 103.564 38.7726 104.193 39.0509 104.597C39.0834 104.651 39.1292 104.695 39.1837 104.726C39.2383 104.756 39.2998 104.773 39.3624 104.773C39.425 104.773 39.4865 104.756 39.5411 104.726C39.5957 104.695 39.6414 104.651 39.6739 104.597C39.8992 104.193 39.6938 103.557 39.6275 103.119Z" fill="#FAD6DB"/>
    <path d="M40.6946 104.525C40.6827 104.437 40.6396 104.357 40.5731 104.299C40.5067 104.241 40.4215 104.209 40.3334 104.209C40.2452 104.209 40.16 104.241 40.0936 104.299C40.0272 104.357 39.984 104.437 39.9722 104.525C39.9163 104.877 39.9412 105.237 40.0451 105.578C40.0749 105.629 40.1175 105.671 40.1686 105.701C40.2198 105.73 40.2777 105.745 40.3367 105.745C40.3956 105.745 40.4536 105.73 40.5047 105.701C40.5559 105.671 40.5985 105.629 40.6283 105.578C40.7302 105.237 40.7528 104.876 40.6946 104.525Z" fill="#FAD6DB"/>
    <path d="M41.0657 107.281C40.9788 106.976 40.8118 106.699 40.5819 106.48C40.1644 105.983 39.4221 106.712 39.8662 107.195C40.0298 107.411 40.2294 107.597 40.456 107.745C40.527 107.785 40.6081 107.803 40.6893 107.798C40.7705 107.792 40.8483 107.763 40.9131 107.714C40.9779 107.664 41.0269 107.597 41.054 107.52C41.0811 107.444 41.0852 107.361 41.0657 107.281Z" fill="#FAD6DB"/>
    <path d="M68.2709 102.695C68.2578 102.643 68.2259 102.597 68.1812 102.567C68.1365 102.537 68.0822 102.524 68.0287 102.532C67.9753 102.539 67.9265 102.566 67.8917 102.607C67.8569 102.648 67.8385 102.701 67.8401 102.755C67.8401 103.106 67.6281 103.418 67.6281 103.749C67.6284 103.813 67.6474 103.875 67.6827 103.928C67.718 103.98 67.768 104.022 67.8266 104.046C67.8852 104.071 67.9497 104.078 68.0122 104.066C68.0747 104.055 68.1324 104.025 68.1781 103.981C68.3093 103.796 68.3873 103.578 68.4037 103.351C68.4201 103.125 68.3741 102.898 68.2709 102.695Z" fill="#FAD6DB"/>
    <path d="M68.8741 104.67C68.8211 104.365 68.3306 104.438 68.3373 104.743C68.3439 105.048 68.2511 105.406 68.2644 105.737C68.2644 105.923 68.5228 106.069 68.662 105.903C68.7906 105.728 68.8767 105.526 68.9135 105.312C68.9504 105.098 68.9368 104.878 68.8741 104.67Z" fill="#FAD6DB"/>
    <path d="M66.6008 107.175C66.5669 107.375 66.5182 107.573 66.455 107.765C66.4393 107.82 66.4404 107.878 66.458 107.932C66.4756 107.986 66.5091 108.034 66.554 108.069C66.5989 108.104 66.6532 108.124 66.71 108.128C66.7668 108.132 66.8234 108.119 66.8725 108.09C67.0233 107.996 67.1436 107.86 67.2189 107.699C67.2941 107.538 67.3212 107.358 67.2967 107.182C67.2859 107.098 67.245 107.02 67.1816 106.964C67.1182 106.908 67.0365 106.876 66.9516 106.876C66.8668 106.875 66.7846 106.905 66.7201 106.96C66.6556 107.015 66.6132 107.091 66.6008 107.175Z" fill="#FAD6DB"/>
</svg>
