<svg width="115" height="200" viewBox="0 0 115 200" fill="none" xmlns="http://www.w3.org/2000/svg">
    <path d="M63.0799 200C85.383 200 103.463 196.999 103.463 193.297C103.463 189.594 85.383 186.593 63.0799 186.593C40.7768 186.593 22.6965 189.594 22.6965 193.297C22.6965 196.999 40.7768 200 63.0799 200Z" fill="#D5E1E8"/>
    <path d="M29.7583 166.114C29.7583 166.114 27.3138 183.366 30.0299 186.897C32.746 190.428 46.7178 190.124 46.7178 190.124L48.3474 171.111L44.1429 162.289L29.7583 166.114Z" fill="#2E6EA5"/>
    <path d="M39.2648 149.002C36.1448 149.765 33.3139 151.418 31.1164 153.761C27.9983 157.433 28.4003 164.495 28.6719 166.668C28.9435 168.841 38.048 169.797 41.4377 169.112C44.8274 168.428 46.7179 156.444 46.7179 156.444L39.2648 149.002Z" fill="#245784"/>
    <path d="M38.9931 158.052C38.9931 158.052 36.277 176.337 36.6355 182.139L40.4381 192.102L41.7092 193.546C41.7092 193.546 55.6484 191.374 65.0679 190.102C74.4874 188.831 84.8087 193.003 84.8087 193.003L91.3274 189.385L91.8924 181.422C91.8924 181.422 87.7095 169.471 87.8942 159.508C88.0789 149.545 80.6476 131.26 80.6476 131.26L45.338 134.335L42.9804 151.175L38.9931 158.052Z" fill="#F9C5C7"/>
    <path d="M41.9809 77.568C41.9809 77.568 31.6597 61.5428 32.4745 34.9248C33.2893 8.30678 21.61 -6.6319 8.30098 2.87453C-5.00803 12.381 -5.55125 74.3086 31.1164 84.3583L41.9809 77.568Z" fill="#F9C5C7"/>
    <path d="M37.6351 76.7531C37.6351 76.7531 27.8571 64.8022 27.3139 40.9003C26.7706 16.9984 19.9803 10.2081 13.19 15.0971C6.39971 19.9861 3.68358 60.1848 33.561 81.0989L37.6351 76.7531Z" fill="#F16F7A"/>
    <path d="M72.4884 74.3195C72.4884 74.3195 82.9944 60.087 83.8092 35.392C84.624 10.697 96.3251 -2.44906 108.091 7.14429C119.858 16.7376 116.696 74.1131 82.1469 81.251L72.4884 74.3195Z" fill="#F9C5C7"/>
    <path d="M76.5626 73.874C76.5626 73.874 86.3407 63.3898 88.242 41.2805C90.1432 19.1713 96.8466 13.2501 102.844 18.1718C108.841 23.0934 108.982 60.489 80.0284 78.0786L76.5626 73.874Z" fill="#F16F7A"/>
    <path d="M41.7093 193.547C34.8212 198.979 28.8566 191.015 28.3134 188.114C28.1401 187.347 28.2693 186.543 28.674 185.869C29.0788 185.195 29.728 184.704 30.4863 184.496C30.5032 184.086 30.6122 183.685 30.805 183.323C30.9978 182.961 31.2696 182.647 31.6003 182.403C31.931 182.16 32.3121 181.995 32.7154 181.919C33.1187 181.843 33.5339 181.859 33.9303 181.965C33.9303 181.965 34.2889 179.977 36.8312 180.52C39.3735 181.063 45.8704 190.287 41.7093 193.547Z" fill="#F59C9C"/>
    <path d="M84.1026 193.003C90.9907 198.436 96.9553 190.472 97.4985 187.571C97.6718 186.804 97.5426 186 97.1378 185.326C96.7331 184.652 96.0839 184.16 95.3256 183.953C95.307 183.544 95.197 183.144 95.0035 182.783C94.81 182.422 94.538 182.11 94.2075 181.868C93.877 181.626 93.4965 181.461 93.0939 181.386C92.6914 181.311 92.2771 181.327 91.8815 181.433C91.8815 181.433 91.523 179.444 88.9807 179.988C86.4384 180.531 79.9306 189.744 84.1026 193.003Z" fill="#F59C9C"/>
    <path d="M76.291 135.965C76.291 135.965 54.0296 165.299 37.3635 169.46C33.0177 170.546 34.4627 176.337 36.8202 176.522C39.1778 176.707 77.9206 154.271 82.0926 135.421L80.2782 132.89L76.291 135.965Z" fill="#2E6EA5"/>
    <path d="M58.9078 145.2L39.5364 174.251C39.3292 174.564 39.1883 174.917 39.1225 175.287C39.0568 175.656 39.0675 176.036 39.154 176.401C39.2406 176.767 39.4011 177.111 39.6257 177.412C39.8503 177.713 40.1342 177.964 40.4599 178.152L63.5144 191.319C64.1292 191.669 64.855 191.768 65.541 191.596C66.2269 191.424 66.8202 190.994 67.1974 190.396L85.4824 161.333C85.676 161.024 85.8061 160.679 85.8651 160.319C85.924 159.959 85.9106 159.59 85.8257 159.235C85.7407 158.88 85.5859 158.546 85.3703 158.251C85.1546 157.957 84.8825 157.708 84.5698 157.52L62.6018 144.363C61.9962 144.002 61.2752 143.888 60.5877 144.043C59.9002 144.199 59.2989 144.613 58.9078 145.2Z" fill="#5DC4BD"/>
    <path d="M51.3243 148.578C51.3243 148.578 44.8056 155.749 49.8468 163.028C49.8468 163.028 52.5086 162.278 52.4542 163.767C52.4773 164.152 52.3666 164.533 52.1409 164.846C51.9152 165.159 51.5884 165.384 51.2157 165.484C51.2157 165.484 53.1278 166.027 53.0083 167.124C52.8888 168.221 51.1722 168.297 51.1722 168.297C51.1722 168.297 51.8458 170.003 51.4982 170.47C50.3031 172.013 38.4608 170.144 37.7763 154.521C37.0918 138.898 46.0551 132.021 46.0551 132.021" fill="#F9C5C7"/>
    <path d="M75.6066 148.22C75.6066 148.22 83.3204 154.13 79.5938 162.192C79.5938 162.192 76.8451 161.92 77.1493 163.387C77.1931 163.771 77.3686 164.128 77.6459 164.397C77.9232 164.667 78.2852 164.832 78.6704 164.864C78.6704 164.864 76.8777 165.733 77.1928 166.798C77.5079 167.863 79.2136 167.624 79.2136 167.624C79.2136 167.624 78.8442 169.427 79.2679 169.797C80.7129 171.111 92.088 167.178 89.9803 151.686C87.8726 136.193 77.8773 131.043 77.8773 131.043" fill="#F9C5C7"/>
    <path d="M80.2783 132.879L76.291 135.954C76.291 135.954 73.7596 139.289 69.7723 143.852C70.4662 145.593 71.5215 147.167 72.8687 148.47C73.2064 148.779 73.5699 149.059 73.9552 149.306C77.9968 144.711 81.028 139.952 82.0384 135.4L80.2783 132.879Z" fill="#2E6EA5"/>
    <path d="M56.648 63.1725C56.648 63.1725 24.3261 75.3951 22.4249 102.828C20.5236 130.261 41.981 141.669 66.4261 139.767C90.8712 137.866 99.0196 115.594 98.4764 101.741C97.9331 87.8893 85.1673 71.3209 66.9693 69.148C66.9693 69.148 70.5003 67.5183 71.0435 65.3454C71.0435 65.3454 62.8951 65.0738 57.7345 68.8764C57.515 66.9507 57.1519 65.0441 56.648 63.1725Z" fill="#F9C5C7"/>
    <path d="M89.7413 181.802C88.9699 181.237 88.155 181.943 87.8834 182.66C87.8164 182.908 87.8495 183.172 87.9755 183.396C88.1015 183.619 88.3104 183.784 88.557 183.855C88.768 183.91 88.9914 183.89 89.1893 183.799C89.3873 183.708 89.5478 183.551 89.6435 183.356L89.763 183.258C89.8594 183.153 89.9466 183.041 90.0237 182.921C90.1321 182.735 90.1633 182.513 90.1105 182.304C90.0577 182.095 89.9252 181.915 89.7413 181.802Z" fill="#F9C5C7"/>
    <path d="M92.8812 183.605C92.8434 183.479 92.7698 183.366 92.6692 183.28C92.5687 183.195 92.4456 183.14 92.3147 183.123C92.1838 183.106 92.0507 183.127 91.9314 183.183C91.8122 183.24 91.7119 183.33 91.6426 183.443C91.574 183.623 91.4621 183.783 91.3167 183.91C91.2157 184.01 91.1391 184.131 91.0929 184.266C91.0467 184.4 91.0321 184.543 91.0503 184.684C91.0685 184.825 91.1189 184.96 91.1976 185.078C91.2764 185.196 91.3814 185.295 91.5044 185.366C91.6274 185.437 91.7652 185.479 91.9069 185.488C92.0487 185.497 92.1907 185.473 92.3218 185.418C92.4529 185.364 92.5696 185.28 92.6628 185.172C92.7561 185.065 92.8234 184.938 92.8594 184.801C92.9568 184.409 92.9642 184 92.8812 183.605Z" fill="#F9C5C7"/>
    <path d="M95.7167 186.68C95.6904 186.575 95.6361 186.479 95.5596 186.403C95.483 186.326 95.3871 186.272 95.2821 186.246C95.0637 186.208 94.8391 186.23 94.6326 186.31C94.426 186.391 94.2453 186.526 94.11 186.702C93.9746 186.877 93.8899 187.086 93.8648 187.307C93.8397 187.527 93.8752 187.75 93.9675 187.951C93.9943 188.045 94.0419 188.131 94.1068 188.203C94.1717 188.275 94.2522 188.332 94.3422 188.369C94.4322 188.405 94.5294 188.421 94.6263 188.415C94.7233 188.408 94.8175 188.38 94.9019 188.332C95.456 187.875 95.9014 187.43 95.7167 186.68Z" fill="#F9C5C7"/>
    <path d="M29.9648 186.463C29.8033 186.424 29.6336 186.436 29.4796 186.498C29.3256 186.561 29.1951 186.67 29.1065 186.81C29.0212 186.956 28.9867 187.125 29.0084 187.293C29.03 187.46 29.1065 187.615 29.226 187.734C29.5845 188.038 29.6714 188.527 30.106 188.755C30.1948 188.81 30.2937 188.846 30.3968 188.862C30.4999 188.878 30.6052 188.874 30.7065 188.848C30.8077 188.823 30.9029 188.778 30.9863 188.715C31.0698 188.652 31.1399 188.574 31.1925 188.484C31.7248 187.658 30.8122 186.582 29.9648 186.463Z" fill="#F9C5C7"/>
    <path d="M34.1042 184.268C34.0019 184.07 33.8456 183.904 33.6534 183.791C33.4612 183.678 33.2408 183.621 33.0177 183.627C32.8989 183.629 32.7825 183.661 32.68 183.722C32.5776 183.782 32.4926 183.868 32.4334 183.971C32.3742 184.074 32.3428 184.19 32.3424 184.309C32.342 184.428 32.3725 184.545 32.431 184.648C32.4836 184.734 32.5136 184.831 32.518 184.931C32.5679 185.115 32.6769 185.277 32.828 185.393C32.9791 185.509 33.1641 185.572 33.3545 185.572C33.4297 185.588 33.5074 185.588 33.5827 185.572C33.7139 185.536 33.8351 185.47 33.9366 185.38C34.0382 185.289 34.1173 185.176 34.1679 185.05C34.2184 184.924 34.239 184.787 34.2279 184.652C34.2169 184.516 34.1745 184.385 34.1042 184.268Z" fill="#F9C5C7"/>
    <path d="M36.6356 181.889C36.4631 181.888 36.295 181.943 36.1574 182.047C36.0199 182.152 35.9206 182.298 35.8751 182.465C35.8241 182.665 35.8521 182.877 35.9533 183.057C36.0544 183.237 36.2209 183.371 36.4183 183.432C36.2988 183.432 36.5378 183.573 36.5487 183.584C36.6313 183.718 36.7551 183.821 36.9014 183.879C37.0478 183.936 37.2089 183.945 37.3606 183.903C37.5122 183.862 37.6464 183.772 37.7429 183.648C37.8394 183.524 37.8931 183.372 37.8959 183.214C37.9097 183.042 37.8871 182.869 37.8295 182.707C37.772 182.544 37.6808 182.395 37.5618 182.27C37.4429 182.145 37.299 182.046 37.1394 181.981C36.9798 181.915 36.8081 181.884 36.6356 181.889Z" fill="#F9C5C7"/>
    <path d="M49.2819 161.398C48.1954 158.465 46.5005 156.097 46.7504 152.794C46.7416 152.762 46.7225 152.733 46.696 152.713C46.6695 152.693 46.6371 152.682 46.6038 152.682C46.5704 152.682 46.538 152.693 46.5115 152.713C46.485 152.733 46.4659 152.762 46.4571 152.794C46.1834 154.347 46.2353 155.939 46.6093 157.471C46.9834 159.003 47.6715 160.44 48.63 161.692C48.8907 161.942 49.434 161.79 49.2819 161.398Z" fill="#F16F7A"/>
    <path d="M44.8274 168.515C43.1434 166.733 41.4377 165.027 39.9275 163.082C39.7211 162.822 39.2648 163.169 39.4604 163.441C40.8015 165.56 42.487 167.44 44.4472 169.004C44.7514 169.232 45.0664 168.765 44.8274 168.515Z" fill="#F16F7A"/>
    <path d="M79.6806 151.088C79.5285 150.719 78.9527 150.849 79.0722 151.262C79.9823 154.284 80.314 157.45 80.05 160.594C80.05 160.855 80.4629 160.92 80.5063 160.66C81.1508 157.456 80.8643 154.134 79.6806 151.088Z" fill="#F16F7A"/>
    <path d="M86.5688 164.191C85.7082 164.942 84.9551 165.809 84.3308 166.765C83.5576 167.759 82.5793 168.574 81.4625 169.156C81.4385 169.174 81.4206 169.199 81.4111 169.228C81.4015 169.257 81.4008 169.288 81.409 169.317C81.4171 169.346 81.4338 169.372 81.4569 169.392C81.48 169.412 81.5085 169.424 81.5386 169.427C82.7349 169.32 83.862 168.82 84.7436 168.004C85.8716 167.151 86.7436 166.005 87.2642 164.69C87.2968 164.599 87.2988 164.5 87.2701 164.408C87.2413 164.315 87.1833 164.235 87.1048 164.179C87.0262 164.122 86.9315 164.093 86.8348 164.095C86.7381 164.097 86.6448 164.131 86.5688 164.191Z" fill="#F16F7A"/>
    <path d="M70.5328 159.573C70.033 158.487 68.6315 158.063 67.5776 157.618C66.5781 157.034 65.4682 156.664 64.3183 156.531C64.1841 156.533 64.0527 156.569 63.9369 156.637C63.8211 156.705 63.725 156.801 63.6581 156.918C63.5912 157.034 63.5557 157.166 63.5553 157.3C63.5549 157.434 63.5894 157.566 63.6556 157.683C64.4104 158.53 65.2852 159.262 66.2522 159.856C67.1865 160.584 68.1209 161.605 69.392 161.54C69.6222 161.54 69.8483 161.479 70.0477 161.364C70.2471 161.249 70.4128 161.084 70.5283 160.885C70.6438 160.686 70.705 160.46 70.7058 160.23C70.7066 159.999 70.6469 159.773 70.5328 159.573Z" fill="#ABDDE5"/>
    <path d="M70.7501 166.863C69.4681 165.136 67.4908 164.517 65.6547 163.604C63.8186 162.691 61.6239 161.507 59.5814 160.518C58.6688 160.073 57.5498 161.279 58.4189 162.018C60.0486 163.387 61.6783 164.777 63.3405 166.07C65.0028 167.363 67.0127 169.243 69.4138 169.232C70.4894 169.188 71.4781 167.841 70.7501 166.863Z" fill="#ABDDE5"/>
    <path d="M77.5622 136.986C72.9773 137.464 68.5664 138.898 63.9164 139.365C57.5932 139.995 51.596 138.463 45.4467 137.507C45.1642 137.507 44.9252 137.877 45.2294 138.007C55.1704 142.266 68.1426 142.961 77.8229 137.768C78.138 137.583 77.9859 136.888 77.5622 136.986Z" fill="#F16F7A"/>
    <path d="M50.7812 101.231C50.7939 100.954 50.7368 100.679 50.6153 100.43C50.4938 100.182 50.3118 99.9676 50.0859 99.8076C49.7699 99.5452 49.3721 99.4016 48.9614 99.4016C48.5507 99.4016 48.1529 99.5452 47.8369 99.8076C47.609 99.9663 47.4249 100.18 47.3014 100.429C47.178 100.677 47.1193 100.953 47.1307 101.231C47.0791 102.11 47.0791 102.992 47.1307 103.871C47.1307 104.345 47.319 104.8 47.6542 105.135C47.9894 105.47 48.444 105.658 48.918 105.658C49.3919 105.658 49.8465 105.47 50.1817 105.135C50.5169 104.8 50.7052 104.345 50.7052 103.871C50.7822 102.993 50.8076 102.112 50.7812 101.231Z" fill="#B9555E"/>
    <path d="M75.4001 101.231C75.4127 100.954 75.3557 100.679 75.2342 100.43C75.1127 100.182 74.9306 99.9676 74.7047 99.8076C74.3888 99.5452 73.991 99.4016 73.5803 99.4016C73.1695 99.4016 72.7718 99.5452 72.4558 99.8076C72.2199 99.9613 72.0272 100.173 71.896 100.422C71.7648 100.671 71.6994 100.949 71.7061 101.231C71.6546 102.11 71.6546 102.992 71.7061 103.871C71.7061 104.345 71.8944 104.8 72.2296 105.135C72.5648 105.47 73.0194 105.658 73.4933 105.658C73.9673 105.658 74.4219 105.47 74.7571 105.135C75.0923 104.8 75.2806 104.345 75.2806 103.871C75.372 102.994 75.4119 102.112 75.4001 101.231Z" fill="#B9555E"/>
    <path d="M51.998 111.552C46.946 107.043 39.7537 106.468 33.3871 108.184C32.7135 108.369 32.833 109.52 33.561 109.434C40.0797 108.706 45.827 108.162 51.4331 112.28C51.8676 112.595 52.3891 111.9 51.998 111.552Z" fill="#FBE6EF"/>
    <path d="M50.9876 115.159C46.8156 112.671 42.0027 113.28 37.9502 115.789C37.4396 116.104 37.7764 117.039 38.3739 116.8C42.6111 115.105 46.1855 114.551 50.6074 115.974C50.7154 116.024 50.8391 116.03 50.9511 115.989C51.0632 115.948 51.1545 115.865 51.2049 115.757C51.2553 115.649 51.2608 115.525 51.22 115.413C51.1793 115.301 51.0957 115.21 50.9876 115.159Z" fill="#FBE6EF"/>
    <path d="M50.9116 118.788C48.2824 116.528 42.8393 119.635 41.1335 121.884C40.6881 122.493 41.6007 123.025 42.1005 122.634C43.2774 121.649 44.5687 120.81 45.9465 120.135C47.4639 119.523 49.08 119.191 50.716 119.157C50.9333 119.136 51.0637 118.918 50.9116 118.788Z" fill="#FBE6EF"/>
    <path d="M69.479 111.552C74.531 107.043 81.7233 106.468 88.0899 108.184C88.7635 108.369 88.644 109.52 87.9161 109.434C81.3974 108.706 75.6501 108.162 70.044 112.28C69.6094 112.595 69.0879 111.9 69.479 111.552Z" fill="#FBE6EF"/>
    <path d="M70.4893 115.159C74.6613 112.671 79.4743 113.28 83.5267 115.789C84.0374 116.104 83.7006 117.039 83.103 116.8C78.8659 115.105 75.2914 114.551 70.8696 115.974C70.7615 116.024 70.6379 116.03 70.5258 115.989C70.4138 115.948 70.3225 115.865 70.272 115.757C70.2216 115.649 70.2162 115.525 70.2569 115.413C70.2977 115.301 70.3813 115.21 70.4893 115.159Z" fill="#FBE6EF"/>
    <path d="M70.5654 118.788C73.1946 116.528 78.6377 119.635 80.3435 121.884C80.7889 122.493 79.8763 123.025 79.3765 122.634C78.1996 121.649 76.9083 120.81 75.5305 120.135C74.0131 119.523 72.397 119.191 70.761 119.157C70.5437 119.136 70.4133 118.918 70.5654 118.788Z" fill="#FBE6EF"/>
    <path d="M63.5904 113.812C62.8859 114.511 62.0977 115.12 61.2437 115.626H61.0916C61.0155 115.344 60.896 115.061 60.8309 114.779C60.8074 114.22 60.6783 113.671 60.4506 113.16C60.4363 113.144 60.4188 113.131 60.3991 113.122C60.3794 113.113 60.3581 113.109 60.3365 113.109C60.3149 113.109 60.2936 113.113 60.2739 113.122C60.2543 113.131 60.2367 113.144 60.2224 113.16C59.9254 113.628 59.7988 114.185 59.8639 114.735C59.8381 115.079 59.8381 115.424 59.8639 115.768C59.1824 115.598 58.5892 115.18 58.2016 114.594C57.9409 114.236 57.2347 114.442 57.4303 114.92C57.6648 115.62 58.1387 116.216 58.7685 116.601C59.3984 116.986 60.144 117.138 60.8743 117.028C62.2541 116.865 64.0141 115.865 64.3184 114.409C64.4487 114.007 63.9924 113.519 63.5904 113.812Z" fill="#B9555E"/>
    <path d="M55.8331 108.26C56.5067 106.25 64.5247 106.902 65.3396 108.26C66.1544 109.618 62.6234 113.421 60.4505 113.421C58.2776 113.421 55.2899 109.89 55.8331 108.26Z" fill="#F16F7A"/>
    <path d="M35.6796 82.0876C35.631 81.8935 35.5214 81.7201 35.3669 81.593C35.2124 81.4659 35.0211 81.3917 34.8213 81.3814C33.9956 81.4357 33.7349 82.2071 33.2894 82.8047C32.844 83.4022 32.8983 84.5212 33.7457 84.6408C34.5932 84.7603 35.1581 83.902 35.4841 83.1089C35.6629 82.8004 35.7319 82.4403 35.6796 82.0876Z" fill="#FAD6DB"/>
    <path d="M29.7692 86.2161C29.4433 86.8245 28.7588 87.4438 28.7588 88.1609C28.7605 88.258 28.7843 88.3534 28.8283 88.4399C28.8723 88.5265 28.9355 88.6019 29.0129 88.6605C29.0903 88.7191 29.18 88.7593 29.2753 88.7782C29.3706 88.797 29.4689 88.794 29.5628 88.7693C30.3776 88.4651 30.6492 87.4547 30.8882 86.6942C30.9192 86.5533 30.9 86.406 30.834 86.2778C30.768 86.1496 30.6593 86.0484 30.5267 85.9917C30.394 85.9351 30.2458 85.9265 30.1075 85.9675C29.9692 86.0084 29.8496 86.0964 29.7692 86.2161Z" fill="#FAD6DB"/>
    <path d="M34.4845 87.9979C34.3432 87.107 33.0286 87.3895 32.9852 88.2043C32.9852 88.8019 32.4419 89.2364 32.4854 89.834C32.4854 90.1925 32.7896 90.5945 33.2024 90.551C34.4519 90.3772 34.6474 88.9648 34.4845 87.9979Z" fill="#FAD6DB"/>
    <path d="M28.2482 91.9308C27.8136 92.5936 27.1617 93.1585 27.3899 94.0168C27.4448 94.2196 27.565 94.3987 27.7319 94.5264C27.8989 94.654 28.1032 94.7231 28.3134 94.723C29.2694 94.723 29.7257 93.7778 30.1929 93.0716C30.986 91.8548 29.0304 90.7249 28.2482 91.9308Z" fill="#FAD6DB"/>
    <path d="M93.9023 110.27C93.8096 110.115 93.6594 110.003 93.4844 109.958C93.3093 109.913 93.1237 109.94 92.9679 110.031C92.6541 110.261 92.4147 110.579 92.2795 110.944C92.1443 111.309 92.1193 111.705 92.2074 112.084C92.2426 112.19 92.3 112.288 92.3758 112.37C92.4516 112.451 92.5441 112.516 92.647 112.559C92.7499 112.603 92.8609 112.623 92.9724 112.62C93.084 112.617 93.1936 112.59 93.2939 112.541C93.6651 112.311 93.9347 111.948 94.0477 111.526C94.1608 111.104 94.1088 110.655 93.9023 110.27Z" fill="#FAD6DB"/>
    <path d="M94.3479 113.91C94.174 113.388 93.3266 113.443 93.3483 114.04C93.3701 114.638 93.0441 114.725 92.9464 115.127C92.9199 115.224 92.9197 115.327 92.9458 115.425C92.9719 115.523 93.0234 115.612 93.095 115.684C93.1667 115.756 93.2559 115.807 93.3538 115.833C93.4517 115.859 93.5548 115.859 93.6526 115.833C94.5217 115.637 94.5869 114.627 94.3479 113.91Z" fill="#FAD6DB"/>
    <path d="M90.3714 116.789C90.2125 116.982 90.0988 117.208 90.0386 117.45C89.9784 117.693 89.9734 117.946 90.0237 118.19C90.0528 118.289 90.1068 118.378 90.1805 118.45C90.2542 118.522 90.3452 118.573 90.4446 118.599C90.544 118.626 90.6485 118.626 90.748 118.6C90.8474 118.574 90.9385 118.523 91.0124 118.451C91.2174 118.141 91.3955 117.814 91.5448 117.473C91.6104 117.32 91.6177 117.148 91.5653 116.989C91.5129 116.831 91.4044 116.697 91.2603 116.613C91.1162 116.529 90.9463 116.5 90.7826 116.533C90.6189 116.565 90.4727 116.656 90.3714 116.789Z" fill="#FAD6DB"/>
    <path d="M91.5122 119.505C91.2297 119.907 90.7517 120.168 90.806 120.722C90.8081 120.832 90.845 120.938 90.9113 121.026C90.9777 121.114 91.0701 121.179 91.1754 121.211C91.9902 121.428 92.3814 120.602 92.6313 119.983C92.8811 119.364 91.8925 118.994 91.5122 119.505Z" fill="#FAD6DB"/>
    <path d="M109.656 12.1094C109.656 11.9062 109.575 11.7114 109.432 11.5678C109.288 11.4241 109.093 11.3434 108.89 11.3434C108.687 11.3434 108.492 11.4241 108.348 11.5678C108.205 11.7114 108.124 11.9062 108.124 12.1094C108.011 12.6051 108.004 13.1193 108.105 13.6177C108.207 14.116 108.413 14.5871 108.711 14.9993C108.819 15.1027 108.955 15.1723 109.102 15.1996C109.25 15.227 109.402 15.2109 109.54 15.1533C109.678 15.0957 109.797 14.9991 109.881 14.8753C109.965 14.7515 110.012 14.6058 110.014 14.4561C109.96 13.6653 109.84 12.8804 109.656 12.1094Z" fill="#FAD6DB"/>
    <path d="M108.211 17.9219C107.995 17.4789 107.887 16.9912 107.896 16.4986C107.929 16.3881 107.94 16.272 107.928 16.1572C107.915 16.0425 107.881 15.9313 107.825 15.8301C107.769 15.729 107.694 15.6399 107.604 15.5682C107.513 15.4964 107.409 15.4434 107.298 15.4122C107.188 15.3758 107.071 15.3626 106.955 15.3734C106.839 15.3841 106.727 15.4186 106.625 15.4747C106.523 15.5307 106.434 15.6071 106.363 15.6992C106.292 15.7913 106.24 15.897 106.212 16.0097C106.064 16.4967 106.092 17.0201 106.29 17.4887C106.489 17.9572 106.846 18.3412 107.298 18.5738C107.744 18.8019 108.428 18.4651 108.211 17.9219Z" fill="#FAD6DB"/>
    <path d="M110.916 18.5411C110.882 18.4168 110.824 18.3004 110.745 18.1987C110.666 18.0969 110.568 18.0118 110.456 17.9482C110.343 17.8846 110.22 17.8437 110.092 17.828C109.964 17.8123 109.834 17.8221 109.71 17.8567C109.462 17.9301 109.253 18.0968 109.125 18.3217C108.997 18.5465 108.962 18.8121 109.026 19.0626C109.145 19.6928 109.102 20.4207 109.743 20.7684C109.898 20.8548 110.077 20.8887 110.253 20.8652C110.43 20.8418 110.593 20.7621 110.721 20.638C111.318 20.1165 111.014 19.2256 110.916 18.5411Z" fill="#FAD6DB"/>
    <path d="M109.352 23.6909C109.352 23.4719 109.265 23.2619 109.11 23.107C108.955 22.9522 108.745 22.8652 108.526 22.8652C108.307 22.8652 108.097 22.9522 107.942 23.107C107.787 23.2619 107.7 23.4719 107.7 23.6909C107.7 24.3645 107.494 25.1359 108.015 25.6465C108.152 25.7805 108.335 25.8557 108.526 25.8557C108.717 25.8557 108.901 25.7805 109.037 25.6465C109.558 25.1359 109.373 24.3645 109.352 23.6909Z" fill="#FAD6DB"/>
    <path d="M111.144 27.1567C111.117 27.0577 111.059 26.9703 110.977 26.9079C110.896 26.8456 110.796 26.8118 110.693 26.8118C110.591 26.8118 110.491 26.8456 110.41 26.9079C110.328 26.9703 110.269 27.0577 110.243 27.1567C110.145 27.776 109.971 28.3192 110.395 28.8515C110.474 28.9305 110.581 28.9748 110.693 28.9748C110.805 28.9748 110.913 28.9305 110.992 28.8515C111.427 28.3518 111.242 27.8194 111.144 27.1567Z" fill="#FAD6DB"/>
    <path d="M8.06202 5.42769C7.72732 5.81335 7.42225 6.22375 7.1494 6.65538C6.95635 6.87654 6.82707 7.14602 6.7754 7.435C6.72373 7.72398 6.75161 8.02157 6.85606 8.29592C6.9535 8.46061 7.11187 8.58031 7.2969 8.6291C7.48193 8.6779 7.67874 8.65188 7.84473 8.55667C8.30104 8.28506 8.34449 7.91566 8.52919 7.47022C8.7108 7.06376 8.92899 6.67466 9.18106 6.30772C9.64823 5.63412 8.59438 4.81928 8.06202 5.42769Z" fill="#FAD6DB"/>
    <path d="M10.1587 9.19768C10.0501 8.3937 8.80066 8.62186 8.77893 9.38237C8.77378 9.7174 8.69593 10.0473 8.55077 10.3493C8.35521 10.7622 8.07273 11.0772 8.25743 11.5553C8.31281 11.7298 8.4319 11.877 8.59096 11.9676C8.75003 12.0582 8.9374 12.0855 9.11573 12.0442C10.2239 11.9464 10.2674 10.0234 10.1587 9.19768Z" fill="#FAD6DB"/>
    <path d="M3.91172 13.6956C3.58578 14.4561 3.14034 15.4991 3.74875 16.2053C3.8766 16.33 4.04815 16.3998 4.22679 16.3998C4.40542 16.3998 4.57698 16.33 4.70482 16.2053C4.82098 16.0978 4.91228 15.9663 4.97233 15.82C5.03238 15.6736 5.05974 15.5159 5.05249 15.3578C5.093 14.9826 5.19198 14.616 5.34583 14.2714C5.67177 13.4783 4.25938 12.8916 3.91172 13.6956Z" fill="#FAD6DB"/>
    <path d="M5.73695 17.3026C5.54139 17.8784 5.04163 18.5846 5.29151 19.1821C5.34967 19.3735 5.47892 19.5353 5.6527 19.6343C5.82648 19.7334 6.03158 19.762 6.22586 19.7145C7.04069 19.4429 7.20366 18.5086 7.41009 17.7589C7.45335 17.543 7.41303 17.3187 7.29729 17.1313C7.18155 16.944 6.99901 16.8076 6.78655 16.7496C6.5741 16.6917 6.34757 16.7165 6.15274 16.8192C5.95791 16.9218 5.80931 17.0946 5.73695 17.3026Z" fill="#FAD6DB"/>
    <path d="M1.93438 22.1916C1.71709 22.7783 1.30424 23.5062 1.72796 24.082C1.83832 24.2594 2.01259 24.3876 2.21478 24.4402C2.41697 24.4928 2.63163 24.4657 2.81441 24.3645C3.45541 24.082 3.46628 23.2781 3.61838 22.6479C3.67889 22.4246 3.64821 22.1864 3.5331 21.9857C3.41798 21.785 3.22785 21.6383 3.00454 21.5778C2.78123 21.5172 2.54302 21.5479 2.34233 21.663C2.14164 21.7782 1.99489 21.9683 1.93438 22.1916Z" fill="#FAD6DB"/>
    <path d="M40.373 155.934C40.3454 155.829 40.284 155.737 40.1986 155.671C40.1131 155.606 40.0082 155.57 39.9004 155.57C39.7925 155.57 39.6877 155.606 39.6022 155.671C39.5167 155.737 39.4554 155.829 39.4278 155.934C39.3191 156.662 38.9715 157.694 39.4278 158.356C39.4811 158.444 39.556 158.517 39.6455 158.567C39.7349 158.617 39.8358 158.644 39.9384 158.644C40.041 158.644 40.1419 158.617 40.2313 158.567C40.3208 158.517 40.3957 158.444 40.449 158.356C40.8184 157.694 40.4816 156.651 40.373 155.934Z" fill="#FAD6DB"/>
    <path d="M42.1221 158.237C42.1027 158.094 42.032 157.962 41.9231 157.867C41.8142 157.772 41.6746 157.72 41.53 157.72C41.3855 157.72 41.2458 157.772 41.1369 157.867C41.0281 157.962 40.9573 158.094 40.9379 158.237C40.8463 158.814 40.8872 159.405 41.0574 159.964C41.1063 160.048 41.1761 160.117 41.26 160.165C41.3438 160.213 41.4388 160.238 41.5354 160.238C41.6321 160.238 41.7271 160.213 41.8109 160.165C41.8948 160.117 41.9646 160.048 42.0135 159.964C42.1805 159.404 42.2176 158.813 42.1221 158.237Z" fill="#FAD6DB"/>
    <path d="M42.7306 162.756C42.5881 162.255 42.3143 161.802 41.9375 161.442C41.253 160.627 40.0362 161.822 40.7641 162.615C41.0325 162.969 41.3595 163.274 41.7311 163.517C41.8475 163.582 41.9804 163.612 42.1136 163.603C42.2467 163.594 42.3742 163.546 42.4804 163.465C42.5867 163.384 42.6669 163.274 42.7114 163.148C42.7558 163.022 42.7625 162.886 42.7306 162.756Z" fill="#FAD6DB"/>
    <path d="M87.3294 155.238C87.3079 155.152 87.2555 155.078 87.1822 155.028C87.109 154.979 87.02 154.958 86.9324 154.97C86.8448 154.982 86.7647 155.026 86.7077 155.094C86.6506 155.161 86.6205 155.248 86.6232 155.336C86.6232 155.912 86.2755 156.422 86.2755 156.966C86.2761 157.07 86.3073 157.172 86.3651 157.258C86.423 157.345 86.505 157.413 86.601 157.453C86.697 157.494 86.8028 157.505 86.9052 157.486C87.0076 157.467 87.1022 157.418 87.1773 157.346C87.3924 157.042 87.5203 156.685 87.5471 156.313C87.5739 155.942 87.4986 155.57 87.3294 155.238Z" fill="#FAD6DB"/>
    <path d="M88.3181 158.476C88.2312 157.976 87.4272 158.096 87.438 158.595C87.4489 159.095 87.2968 159.682 87.3185 160.225C87.3185 160.529 87.7422 160.768 87.9704 160.497C88.1812 160.21 88.3224 159.878 88.3828 159.527C88.4431 159.177 88.421 158.817 88.3181 158.476Z" fill="#FAD6DB"/>
    <path d="M84.5915 162.583C84.5359 162.91 84.456 163.234 84.3525 163.55C84.3267 163.639 84.3284 163.735 84.3574 163.823C84.3863 163.912 84.4411 163.99 84.5147 164.047C84.5883 164.104 84.6774 164.138 84.7705 164.145C84.8636 164.151 84.9564 164.129 85.0369 164.082C85.2841 163.927 85.4813 163.705 85.6047 163.441C85.7281 163.176 85.7724 162.882 85.7323 162.594C85.7146 162.456 85.6475 162.329 85.5435 162.236C85.4396 162.144 85.3057 162.092 85.1666 162.091C85.0275 162.09 84.8927 162.139 84.787 162.229C84.6812 162.319 84.6118 162.445 84.5915 162.583Z" fill="#FAD6DB"/>
</svg>
