<svg width="100" height="130" viewBox="0 0 100 130" fill="none" xmlns="http://www.w3.org/2000/svg">
    <path d="M73.6572 116C73.7044 115.998 73.7508 115.986 73.7935 115.966C73.8363 115.946 73.8747 115.917 73.9065 115.882C73.9383 115.847 73.9629 115.806 73.9789 115.762C73.9948 115.717 74.0019 115.67 73.9996 115.622C73.5202 100.709 64.7555 86.3283 64.6699 86.1739C64.6453 86.1331 64.6129 86.0977 64.5746 86.0696C64.5363 86.0415 64.4928 86.0212 64.4466 86.0101C64.4005 85.9989 64.3526 85.997 64.3057 86.0045C64.2588 86.012 64.2138 86.0287 64.1734 86.0537C64.1328 86.0784 64.0974 86.1108 64.0694 86.1492C64.0414 86.1877 64.0212 86.2313 64.01 86.2775C63.9989 86.3238 63.997 86.3718 64.0045 86.4188C64.012 86.4658 64.0287 86.5109 64.0536 86.5514C64.1392 86.6887 72.8013 100.915 73.2806 115.64C73.285 115.732 73.3248 115.82 73.3917 115.883C73.4587 115.947 73.5476 115.983 73.6401 115.983L73.6572 116Z" fill="#0A0A0A"/>
    <path d="M78.4691 120.179C78.4691 120.179 79.351 116.274 77.5872 116.169C75.8234 116.064 71 115.559 71 117.023C71 118.488 71.126 123.109 71.126 125.062C71.126 127.014 72.3858 128.113 78.2171 127.991C84.0484 127.869 87.846 126.404 86.8381 123.475C85.8302 120.546 84.1744 121.278 81.7627 121.522C79.351 121.766 78.3431 122.359 78.4691 120.179Z" fill="#E270AD"/>
    <path d="M77.411 128H78.2365C82.5398 127.908 85.4906 126.99 86.5444 125.448C86.7828 125.094 86.9333 124.684 86.9824 124.255C87.0315 123.825 86.9775 123.39 86.8255 122.987C86.2634 121.151 85.473 120.527 84.103 120.527C83.6086 120.541 83.1156 120.59 82.6276 120.674L81.6791 120.802L80.555 120.949C80.1893 121.017 79.8196 121.06 79.4484 121.078C79.3449 121.091 79.24 121.081 79.1403 121.049C79.0405 121.018 78.9481 120.965 78.8688 120.894C78.6932 120.692 78.6229 120.288 78.658 119.59C78.658 119.59 79.2552 116.744 78.4473 115.624C78.3527 115.485 78.2294 115.37 78.0865 115.287C77.9436 115.205 77.7848 115.157 77.6218 115.147H77.1651C76.3922 115.147 75.3208 115 74.3021 115C72.089 115 71 115.422 71 116.285C71 117.148 71 118.452 71 119.958C71 121.794 71 123.63 71 124.75C71.1229 127.082 72.8794 128 77.411 128ZM84.103 120.912C85.1042 120.912 85.8594 121.28 86.4742 123.116C86.6063 123.46 86.6546 123.833 86.6148 124.202C86.5749 124.57 86.4481 124.923 86.2458 125.227C85.2622 126.66 82.4168 127.523 78.2365 127.614C72.6159 127.743 71.5094 126.605 71.5094 124.732C71.5094 123.63 71.5094 121.757 71.5094 119.939C71.5094 118.415 71.5094 116.983 71.5094 116.267C71.5094 115.551 72.5105 115.386 74.425 115.386C75.4438 115.386 76.4976 115.386 77.2705 115.532H77.7447C77.855 115.536 77.9631 115.566 78.0605 115.62C78.158 115.674 78.2422 115.751 78.3068 115.845C79.0093 116.818 78.4473 119.517 78.4473 119.517C78.4473 120.38 78.4473 120.857 78.7459 121.133C78.8605 121.238 78.9941 121.318 79.1389 121.369C79.2838 121.419 79.4368 121.439 79.589 121.427C79.9777 121.411 80.365 121.368 80.7482 121.298L81.8548 121.151L82.8208 121.023C83.2457 120.959 83.6739 120.922 84.103 120.912Z" fill="#0A0A0A"/>
    <path d="M79 118C77.9228 118.209 76.8124 118.263 75.7143 118.161C73.9204 118 75.7143 120.802 78.7734 119.772C78.8915 119.186 78.9671 118.594 79 118Z" fill="#FFFC0D"/>
    <path d="M77.426 119.996C77.8474 119.991 78.2644 119.927 78.6563 119.804C78.6875 119.797 78.7154 119.783 78.7369 119.763C78.7583 119.744 78.7725 119.72 78.7776 119.695C78.89 119.175 78.9595 118.65 78.9855 118.123C78.9951 118.105 79 118.087 79 118.068C79 118.049 78.9951 118.03 78.9855 118.013C78.961 118.004 78.9344 118 78.9076 118C78.8807 118 78.8541 118.004 78.8296 118.013C78.1647 118.134 77.4844 118.194 76.8022 118.191C76.4905 118.205 76.1781 118.205 75.8665 118.191C75.7492 118.172 75.6282 118.173 75.5115 118.194C75.3949 118.215 75.2854 118.256 75.1907 118.314C75.1298 118.357 75.0813 118.41 75.0484 118.469C75.0155 118.528 74.9991 118.591 75 118.656C75.1493 119.064 75.4715 119.42 75.913 119.664C76.3544 119.908 76.8884 120.025 77.426 119.996ZM78.4137 119.572C78.0964 119.661 77.7626 119.707 77.426 119.709C76.9614 119.745 76.4949 119.655 76.104 119.454C75.7131 119.252 75.4214 118.951 75.2773 118.601C75.2648 118.58 75.2584 118.556 75.2584 118.533C75.2584 118.509 75.2648 118.486 75.2773 118.464C75.3994 118.425 75.5364 118.425 75.6585 118.464C76.6074 118.541 77.5655 118.504 78.5003 118.355C78.587 118.519 78.535 118.888 78.4137 119.572Z" fill="#0A0A0A"/>
    <path d="M74 130C72.8954 130 72 129.105 72 128C72 126.895 72.8954 126 74 126C75.1046 126 76 126.895 76 128C76 129.105 75.1046 130 74 130Z" fill="#3C1C24"/>
    <path d="M74.0174 130C74.4122 129.997 74.7972 129.876 75.1238 129.655C75.4504 129.433 75.704 129.119 75.8527 128.753C76.0014 128.388 76.0385 127.986 75.9594 127.599C75.8803 127.212 75.6885 126.858 75.4081 126.58C75.1277 126.302 74.7713 126.113 74.3838 126.037C73.9963 125.961 73.5951 126.002 73.2307 126.154C72.8662 126.306 72.5549 126.562 72.3359 126.891C72.1169 127.219 72 127.605 72 128C72.0046 128.532 72.2192 129.041 72.597 129.415C72.9748 129.79 73.4853 130 74.0174 130ZM74.0174 126.348C74.3355 126.368 74.6407 126.481 74.8955 126.673C75.1502 126.864 75.3434 127.126 75.4513 127.426C75.5592 127.726 75.5771 128.051 75.5027 128.361C75.4283 128.671 75.265 128.952 75.0327 129.17C74.8005 129.389 74.5095 129.534 74.1955 129.589C73.8816 129.645 73.5584 129.607 73.2657 129.48C72.973 129.354 72.7236 129.145 72.5482 128.879C72.3727 128.613 72.2789 128.301 72.2783 127.983C72.2803 127.76 72.3275 127.539 72.4169 127.335C72.5064 127.131 72.6363 126.947 72.7988 126.794C72.9613 126.641 73.153 126.523 73.3625 126.446C73.5719 126.369 73.7947 126.336 74.0174 126.348Z" fill="#0A0A0A"/>
    <path d="M83 129C81.8954 129 81 128.105 81 127C81 125.895 81.8954 125 83 125C84.1046 125 85 125.895 85 127C85 128.105 84.1046 129 83 129Z" fill="#3C1C24"/>
    <path d="M83.0174 129C83.4122 128.997 83.7972 128.876 84.1238 128.655C84.4504 128.433 84.704 128.119 84.8527 127.753C85.0014 127.388 85.0385 126.986 84.9594 126.599C84.8803 126.212 84.6885 125.858 84.4081 125.58C84.1277 125.302 83.7713 125.113 83.3838 125.037C82.9963 124.961 82.5951 125.002 82.2307 125.154C81.8662 125.306 81.5549 125.562 81.3359 125.891C81.1169 126.219 81 126.605 81 127C81.0046 127.532 81.2192 128.041 81.597 128.415C81.9748 128.79 82.4853 129 83.0174 129ZM83.0174 125.348C83.34 125.351 83.6543 125.45 83.9208 125.632C84.1874 125.813 84.3942 126.07 84.5153 126.369C84.6363 126.668 84.6662 126.996 84.6012 127.312C84.5362 127.628 84.3791 127.918 84.1498 128.145C83.9205 128.371 83.6292 128.525 83.3126 128.587C82.996 128.649 82.6681 128.615 82.3704 128.491C82.0727 128.367 81.8184 128.157 81.6396 127.889C81.4607 127.621 81.3652 127.305 81.3652 126.983C81.3698 126.547 81.5459 126.132 81.8552 125.826C82.1646 125.519 82.5822 125.348 83.0174 125.348Z" fill="#0A0A0A"/>
    <path d="M83 128C82.4477 128 82 127.552 82 127C82 126.448 82.4477 126 83 126C83.5523 126 84 126.448 84 127C84 127.552 83.5523 128 83 128Z" fill="#FFFC0D"/>
    <path d="M83 129C83.1978 129 83.3911 128.912 83.5556 128.747C83.72 128.582 83.8482 128.348 83.9239 128.074C83.9996 127.8 84.0194 127.498 83.9808 127.207C83.9422 126.916 83.847 126.649 83.7071 126.439C83.5673 126.23 83.3891 126.087 83.1951 126.029C83.0011 125.971 82.8 126.001 82.6173 126.114C82.4346 126.228 82.2784 126.42 82.1685 126.667C82.0586 126.913 82 127.203 82 127.5C82 127.697 82.0259 127.892 82.0761 128.074C82.1264 128.256 82.2 128.421 82.2929 128.561C82.3858 128.7 82.496 128.81 82.6173 128.886C82.7386 128.961 82.8687 129 83 129ZM83 126.463C83.1367 126.463 83.2703 126.524 83.384 126.638C83.4977 126.752 83.5863 126.914 83.6386 127.103C83.6909 127.293 83.7046 127.501 83.6779 127.702C83.6512 127.903 83.5854 128.088 83.4887 128.233C83.3921 128.378 83.2689 128.477 83.1348 128.517C83.0008 128.557 82.8618 128.536 82.7355 128.458C82.6092 128.379 82.5013 128.247 82.4253 128.076C82.3494 127.906 82.3088 127.705 82.3088 127.5C82.3088 127.225 82.3816 126.961 82.5113 126.767C82.6409 126.572 82.8167 126.463 83 126.463Z" fill="#0A0A0A"/>
    <path d="M74 129C73.4477 129 73 128.552 73 128C73 127.448 73.4477 127 74 127C74.5523 127 75 127.448 75 128C75 128.552 74.5523 129 74 129Z" fill="#FFFC0D"/>
    <path d="M74.0147 129C74.2118 128.997 74.4037 128.936 74.5662 128.824C74.7287 128.713 74.8546 128.555 74.928 128.372C75.0015 128.19 75.0192 127.989 74.979 127.796C74.9387 127.603 74.8423 127.426 74.7019 127.288C74.5615 127.149 74.3833 127.056 74.1897 127.018C73.9962 126.981 73.7959 127.001 73.614 127.078C73.4321 127.154 73.2768 127.282 73.1676 127.446C73.0583 127.61 73 127.803 73 128C73 128.132 73.0263 128.264 73.0775 128.386C73.1287 128.508 73.2037 128.619 73.2981 128.712C73.3925 128.805 73.5045 128.879 73.6275 128.928C73.7505 128.977 73.8822 129.002 74.0147 129ZM74.0147 127.309C74.1507 127.312 74.2829 127.355 74.3946 127.432C74.5063 127.51 74.5926 127.619 74.6427 127.745C74.6928 127.872 74.7044 128.01 74.6761 128.144C74.6477 128.277 74.5808 128.398 74.4836 128.494C74.3863 128.589 74.2632 128.653 74.1295 128.679C73.9959 128.704 73.8577 128.69 73.7322 128.637C73.6068 128.584 73.4997 128.496 73.4244 128.382C73.349 128.269 73.3089 128.136 73.3088 128C73.3088 127.908 73.3272 127.817 73.3628 127.732C73.3985 127.647 73.4507 127.57 73.5164 127.506C73.5822 127.442 73.6601 127.391 73.7457 127.357C73.8312 127.323 73.9227 127.307 74.0147 127.309Z" fill="#0A0A0A"/>
    <path d="M36.5089 89.9669C41.6363 89.9669 45.8012 79.8822 45.9762 79.4689C46.0105 79.3833 46.0076 79.2885 45.9683 79.2049C45.929 79.1213 45.8564 79.0558 45.7662 79.0225C45.6756 78.9901 45.5752 78.9928 45.4868 79.0299C45.3983 79.0671 45.3289 79.1357 45.2937 79.2209C45.2937 79.3201 41.1463 89.2726 36.5439 89.2726C31.9415 89.2726 24.6967 81.5024 24.6267 81.4197C24.5924 81.3867 24.5516 81.3605 24.5065 81.3426C24.4614 81.3247 24.413 81.3155 24.3642 81.3155C24.3153 81.3155 24.2669 81.3247 24.2218 81.3426C24.1767 81.3605 24.1359 81.3867 24.1017 81.4197C24.0364 81.4843 24 81.5701 24 81.6594C24 81.7487 24.0364 81.8346 24.1017 81.8991C24.3992 82.2298 31.539 90 36.5789 90L36.5089 89.9669Z" fill="#0A0A0A"/>
    <path d="M21.2342 85.3462C21.2342 85.3462 24.0837 87.9321 25.0819 86.6392C26.0801 85.3462 28.9296 81.9436 27.6954 81.2631C26.4612 80.5826 22.4865 78.3709 20.8349 77.4182C19.1834 76.4654 17.6225 76.8908 14.7731 81.3481C13.5934 83.2026 11.1432 86.452 12.3048 88.6977C13.4663 90.9434 15.6261 89.8886 17.0417 88.4936C17.9492 87.5919 19.6008 83.781 21.2342 85.3462Z" fill="#E270AD"/>
    <path d="M14.2526 90C15.4187 89.856 16.4828 89.261 17.2188 88.3414C17.5221 87.9717 17.7954 87.5781 18.0358 87.1643C18.6752 86.1299 19.5632 84.721 20.3803 84.721C20.51 84.7277 20.6369 84.7613 20.753 84.8196C20.8692 84.8779 20.9721 84.9597 21.0552 85.0599C21.0552 85.0599 22.8313 86.8433 24.1989 86.8433C24.3749 86.8499 24.5497 86.8126 24.7077 86.7348C24.8658 86.657 25.0022 86.5411 25.1048 86.3975L25.3712 86.0408C26.7388 84.2573 28.1775 82.1172 27.9821 81.0115C27.9642 80.8974 27.9216 80.7888 27.8571 80.6932C27.7926 80.5976 27.7079 80.5175 27.6091 80.4586L24.6785 78.6752L20.9309 76.4637C20.5046 76.1757 20.0058 76.0149 19.4922 76C18.1068 76 16.6681 77.3911 14.7322 80.6548L14.3769 81.2433C13.1337 83.2764 11.2687 86.344 12.2989 88.5197C12.4401 88.9341 12.7017 89.2966 13.0499 89.5604C13.3981 89.8242 13.817 89.9773 14.2526 90ZM20.3803 84.3465C19.3501 84.3465 18.4443 85.7911 17.7161 86.9682C17.4911 87.3622 17.2358 87.7378 16.9523 88.0917C16.2906 88.9364 15.33 89.4921 14.2704 89.6433C13.9006 89.6295 13.5443 89.5 13.2514 89.273C12.9584 89.046 12.7434 88.7328 12.6363 88.3771C11.695 86.3796 13.4889 83.4191 14.6966 81.4573L15.0519 80.851C16.828 77.7478 18.2667 76.3745 19.4922 76.3745C19.9372 76.389 20.3687 76.5314 20.7355 76.7847L24.4831 79.0497L27.4137 80.8331C27.4663 80.8663 27.5111 80.9106 27.5448 80.963C27.5786 81.0154 27.6005 81.0745 27.6091 81.1363C27.8045 82.1529 25.9573 84.7032 25.0692 85.8624L24.8028 86.2369C24.7335 86.3364 24.64 86.4165 24.5312 86.4696C24.4224 86.5226 24.3019 86.5469 24.1812 86.5401C23.0622 86.5401 21.3216 84.8815 21.3038 84.8637C21.1947 84.7172 21.0561 84.5954 20.897 84.5063C20.7378 84.4171 20.5618 84.3627 20.3803 84.3465Z" fill="#0A0A0A"/>
    <path d="M22.4721 86C22.7822 85.1908 23.2391 84.4337 23.8243 83.7598C24.7829 82.6629 21.5306 82.5084 21 84.9649C21.466 85.3376 21.9577 85.6834 22.4721 86Z" fill="#FFFC0D"/>
    <path d="M22.5469 87C22.5696 86.9888 22.5898 86.9711 22.6058 86.9484C22.6217 86.9256 22.633 86.8986 22.6386 86.8694C22.9091 85.9192 23.3068 85.0303 23.8155 84.2388C23.9031 84.1345 23.9631 84.0005 23.9876 83.8541C24.0121 83.7078 24.0001 83.5558 23.9531 83.4179C23.8743 83.2727 23.7639 83.1574 23.6342 83.0848C23.5046 83.0123 23.3609 82.9855 23.2194 83.0075C22.6709 83.0532 22.1521 83.3289 21.751 83.7879C21.3499 84.2468 21.0911 84.8609 21.0184 85.5261C21.0063 85.555 21 85.587 21 85.6194C21 85.6518 21.0063 85.6838 21.0184 85.7127C21.4375 86.1719 21.8818 86.5958 22.3482 86.9813L22.5469 87ZM23.2805 83.3806C23.5098 83.3806 23.678 83.3806 23.7238 83.5672C23.7697 83.7537 23.7238 83.8657 23.6168 83.9589C23.1287 84.723 22.7372 85.572 22.4552 86.4776C22.2717 86.3097 21.9355 86.0112 21.4005 85.4701C21.4758 84.9113 21.7043 84.4002 22.0487 84.0206C22.393 83.641 22.8327 83.4153 23.2958 83.3806H23.2805Z" fill="#0A0A0A"/>
    <path d="M18.0623 76.2291C17.8387 76.1241 17.5896 76.0532 17.3295 76.0206C17.0693 75.988 16.8031 75.9942 16.5462 76.0389C16.2892 76.0836 16.0465 76.1659 15.8321 76.2812C15.6176 76.3964 15.4356 76.5423 15.2964 76.7104C15.0201 77.048 14.9325 77.4538 15.0525 77.8396C15.1726 78.2254 15.4907 78.5601 15.9377 78.7709C16.1613 78.8759 16.4104 78.9468 16.6705 78.9794C16.9307 79.012 17.1969 79.0058 17.4538 78.9611C17.7108 78.9164 17.9535 78.8341 18.1679 78.7188C18.3824 78.6036 18.5644 78.4577 18.7036 78.2896C18.9799 77.952 19.0675 77.5462 18.9475 77.1604C18.8274 76.7746 18.5093 76.4399 18.0623 76.2291Z" fill="#3C1C24"/>
    <path d="M17.0376 78.9987C17.4643 78.9828 17.8752 78.834 18.2124 78.5735C18.5495 78.313 18.7959 77.9538 18.9167 77.5467C19.0375 77.1396 19.0267 76.705 18.8858 76.3043C18.7449 75.9035 18.481 75.5569 18.1313 75.3133C17.8086 75.1129 17.4366 75.0045 17.0561 75C16.7075 74.9983 16.3643 75.0856 16.0593 75.2533C15.7542 75.4211 15.4975 75.6638 15.3137 75.9582C15.1697 76.1829 15.0725 76.4341 15.0279 76.6968C14.9833 76.9595 14.9923 77.2285 15.0542 77.4877C15.1149 77.7458 15.2264 77.9894 15.3823 78.2045C15.5382 78.4195 15.7354 78.6018 15.9625 78.7407C16.2905 78.9227 16.6623 79.0119 17.0376 78.9987ZM17.0376 75.3133C17.3445 75.3129 17.6458 75.3957 17.9088 75.5528C18.2812 75.7798 18.5478 76.1443 18.6503 76.5663C18.7003 76.7753 18.708 76.992 18.673 77.204C18.6379 77.4159 18.5609 77.6188 18.4464 77.801C18.2976 78.0388 18.09 78.2348 17.8434 78.3703C17.5968 78.5058 17.3194 78.5762 17.0376 78.5749C16.7307 78.5753 16.4295 78.4925 16.1664 78.3353C15.7954 78.1069 15.5292 77.7431 15.4249 77.3219C15.375 77.1129 15.3673 76.8961 15.4023 76.6842C15.4373 76.4723 15.5143 76.2693 15.6288 76.0872C15.7815 75.8501 15.993 75.656 16.243 75.5237C16.493 75.3914 16.773 75.3253 17.0561 75.3317L17.0376 75.3133Z" fill="#0A0A0A"/>
    <path d="M14.0623 84.2291C13.8387 84.1241 13.5896 84.0532 13.3295 84.0206C13.0693 83.988 12.8031 83.9942 12.5462 84.0389C12.2892 84.0836 12.0465 84.1659 11.8321 84.2812C11.6176 84.3964 11.4356 84.5423 11.2964 84.7104C11.0201 85.048 10.9325 85.4538 11.0525 85.8396C11.1726 86.2254 11.4907 86.5601 11.9377 86.7709C12.1613 86.8759 12.4104 86.9468 12.6705 86.9794C12.9307 87.012 13.1969 87.0058 13.4538 86.9611C13.7108 86.9164 13.9535 86.8341 14.1679 86.7188C14.3824 86.6036 14.5644 86.4577 14.7036 86.2896C14.9799 85.952 15.0675 85.5462 14.9475 85.1604C14.8274 84.7746 14.5093 84.4399 14.0623 84.2291Z" fill="#3C1C24"/>
    <path d="M13.0432 86.9454C13.4687 86.9297 13.8784 86.7829 14.2146 86.5258C14.5508 86.2688 14.7964 85.9143 14.9169 85.5126C15.0374 85.1108 15.0266 84.682 14.8861 84.2866C14.7456 83.8911 14.4824 83.5491 14.1337 83.3087C13.6729 83.0242 13.1161 82.9315 12.5857 83.0508C12.0554 83.1702 11.5949 83.4919 11.3056 83.9451C11.1141 84.2487 11.0087 84.5973 11.0005 84.9545C10.9923 85.3118 11.0815 85.6646 11.2589 85.9765C11.4362 86.2883 11.6953 86.5477 12.0091 86.7277C12.3228 86.9077 12.6799 87.0017 13.0432 87V86.9454ZM13.0432 83.3087C13.4152 83.3108 13.7758 83.4355 14.0674 83.663C14.3589 83.8904 14.5645 84.2074 14.6513 84.5634C14.7011 84.7696 14.7088 84.9834 14.6739 85.1926C14.639 85.4017 14.5622 85.602 14.448 85.7817C14.2968 86.0207 14.0849 86.2169 13.8332 86.3507C13.5815 86.4846 13.2986 86.5515 13.0125 86.5449C12.7264 86.5383 12.447 86.4585 12.2019 86.3132C11.9568 86.1679 11.7545 85.9622 11.6149 85.7165C11.4753 85.4707 11.4033 85.1934 11.4059 84.9119C11.4086 84.6304 11.4859 84.3545 11.6301 84.1114C11.7743 83.8682 11.9805 83.6663 12.2283 83.5255C12.4761 83.3848 12.757 83.31 13.0432 83.3087Z" fill="#0A0A0A"/>
    <path d="M12.2863 86.1347C11.8368 85.8503 11.7003 85.2511 11.9814 84.7964C12.2625 84.3416 12.8548 84.2035 13.3043 84.4879C13.7538 84.7723 13.8903 85.3715 13.6092 85.8262C13.3281 86.281 12.7358 86.4191 12.2863 86.1347Z" fill="#FFFC0D"/>
    <path d="M13.0161 86C13.1894 85.9967 13.3589 85.9487 13.508 85.8607C13.6572 85.7726 13.7809 85.6475 13.8671 85.4976C13.9533 85.3476 13.9991 85.178 14 85.0052C14.0009 84.8323 13.9568 84.6622 13.8721 84.5114C13.7874 84.3606 13.665 84.2343 13.5168 84.1448C13.3685 84.0552 13.1996 84.0055 13.0263 84.0004C12.8531 83.9954 12.6815 84.0352 12.5282 84.116C12.375 84.1968 12.2454 84.3158 12.152 84.4614C12.0813 84.5722 12.0339 84.6961 12.0127 84.8257C11.9915 84.9553 11.9969 85.0879 12.0286 85.2153C12.0567 85.3451 12.1108 85.4679 12.1877 85.5763C12.2646 85.6847 12.3627 85.7765 12.4761 85.8461C12.6384 85.9461 12.8253 85.9994 13.0161 86ZM13.0161 84.3075C13.1421 84.3099 13.265 84.3472 13.371 84.4152C13.4474 84.4624 13.5136 84.5241 13.5659 84.597C13.6182 84.6698 13.6555 84.7522 13.6756 84.8395C13.6956 84.9268 13.6982 85.0172 13.683 85.1055C13.6678 85.1938 13.6352 85.2782 13.587 85.3538C13.4863 85.5015 13.3334 85.6058 13.1588 85.6457C12.9843 85.6857 12.801 85.6583 12.6458 85.5692C12.568 85.5217 12.5005 85.4591 12.4475 85.3851C12.3945 85.3111 12.357 85.2272 12.3372 85.1384C12.3177 85.0519 12.3159 84.9624 12.3318 84.8751C12.3477 84.7879 12.381 84.7048 12.4298 84.6306C12.4911 84.5308 12.5774 84.4486 12.6802 84.392C12.783 84.3353 12.8987 84.3062 13.0161 84.3075Z" fill="#0A0A0A"/>
    <path d="M16.4796 78.1663C16.0301 77.882 15.8934 77.2828 16.1745 76.828C16.4555 76.3732 17.0477 76.235 17.4973 76.5193C17.9468 76.8036 18.0835 77.4028 17.8024 77.8576C17.5214 78.3124 16.9292 78.4506 16.4796 78.1663Z" fill="#FFFC0D"/>
    <path d="M17 79C17.1697 79.0002 17.3367 78.9349 17.4851 78.8104C17.6336 78.6859 17.7587 78.5063 17.8487 78.2884C17.9181 78.1214 17.9649 77.9352 17.9864 77.7406C18.008 77.546 18.0038 77.3469 17.9742 77.1547C17.9446 76.9626 17.8902 76.7812 17.814 76.6212C17.7378 76.4611 17.6414 76.3256 17.5304 76.2223C17.3044 76.015 17.0338 75.9494 16.7763 76.0394C16.5188 76.1294 16.2945 76.368 16.1513 76.7044C16.0819 76.8714 16.0351 77.0576 16.0136 77.2522C15.992 77.4467 15.9962 77.6459 16.0258 77.838C16.0554 78.0302 16.1098 78.2115 16.186 78.3715C16.2622 78.5316 16.3586 78.6672 16.4695 78.7704C16.629 78.9196 16.8126 78.9991 17 79ZM17 76.4748C17.1288 76.4753 17.2549 76.531 17.3637 76.6355C17.4388 76.7058 17.5038 76.798 17.5552 76.9066C17.6065 77.0153 17.6431 77.1383 17.6629 77.2686C17.6826 77.3988 17.6851 77.5337 17.6702 77.6654C17.6552 77.7971 17.6232 77.923 17.5759 78.0358C17.4767 78.2623 17.3236 78.422 17.1486 78.4819C16.9736 78.5417 16.7901 78.4971 16.6363 78.3572C16.5612 78.2869 16.4962 78.1948 16.4448 78.0861C16.3935 77.9774 16.3569 77.8544 16.3371 77.7242C16.3174 77.5939 16.3149 77.459 16.3298 77.3273C16.3448 77.1956 16.3768 77.0697 16.4241 76.9569C16.4872 76.8137 16.573 76.6968 16.6736 76.6166C16.7741 76.5364 16.8864 76.4956 17 76.4978V76.4748Z" fill="#0A0A0A"/>
    <path d="M86.4792 67C87.6279 66.995 88.7609 66.7297 89.7945 66.2237C89.8372 66.2033 89.8754 66.1746 89.9071 66.1393C89.9387 66.104 89.9632 66.0628 89.9791 66.0179C89.9949 65.9731 90.0019 65.9255 89.9996 65.8779C89.9972 65.8304 89.9856 65.7837 89.9654 65.7407C89.9452 65.6976 89.9168 65.659 89.8818 65.6271C89.8469 65.5951 89.806 65.5704 89.7616 65.5544C89.7171 65.5384 89.67 65.5313 89.6229 65.5337C89.5758 65.5361 89.5296 65.5478 89.4869 65.5682C81.5916 69.3461 74.7558 56.3389 74.6875 56.2009C74.6659 56.157 74.6357 56.1181 74.5987 56.0864C74.5618 56.0546 74.5189 56.0308 74.4726 56.0163C74.4262 56.0018 74.3775 55.9969 74.3292 56.0019C74.281 56.007 74.2343 56.0218 74.1919 56.0456C74.1087 56.0897 74.046 56.1651 74.0172 56.2554C73.9885 56.3457 73.9959 56.4438 74.0381 56.5286C74.2944 57.0117 79.5409 67 86.4792 67Z" fill="#0A0A0A"/>
    <path d="M89.1327 65.6739C89.1327 65.6739 88.2068 59 91.2467 59C94.2866 59 95.9987 63.4866 94.3739 66.3655C94.1108 66.9137 93.6967 67.3622 93.1877 67.6504C92.6787 67.9387 92.0992 68.0528 91.5277 67.9774C90.9561 67.9019 90.4199 67.6406 89.9916 67.2286C89.5633 66.8167 89.2635 66.274 89.1327 65.6739Z" fill="#F9D8B7"/>
    <path d="M91.9077 67.9972C92.3929 67.9841 92.8682 67.8421 93.2934 67.5832C93.7185 67.3244 94.081 66.9563 94.3503 66.51C94.776 65.6915 95 64.7641 95 63.8201C95 62.8762 94.776 61.9487 94.3503 61.1303C94.0708 60.5036 93.641 59.9736 93.1077 59.5981C92.5745 59.2226 91.9583 59.0159 91.3261 59.0005C91.0545 58.9938 90.7851 59.0547 90.5378 59.1787C90.2904 59.3026 90.0714 59.4864 89.8971 59.7166C88.5677 61.4057 89.0995 65.5919 89.1327 65.7755C89.3008 66.4373 89.6663 67.0169 90.1701 67.4202C90.6738 67.8235 91.2862 68.0269 91.9077 67.9972ZM91.459 59.3861C92.0293 59.4019 92.5847 59.5899 93.0651 59.9297C93.5455 60.2696 93.9325 60.7483 94.1841 61.3139C94.5792 62.0737 94.7871 62.9347 94.7871 63.811C94.7871 64.6872 94.5792 65.5482 94.1841 66.308C93.9448 66.7367 93.6097 67.0903 93.211 67.3346C92.8124 67.579 92.3635 67.706 91.9077 67.7034C91.3768 67.6955 90.8634 67.4928 90.4483 67.1272C90.0332 66.7615 89.7399 66.2537 89.6146 65.6837C89.6146 65.6837 89.0829 61.5342 90.3125 59.9736C90.4509 59.7861 90.6259 59.6358 90.8246 59.5341C91.0232 59.4323 91.2401 59.3817 91.459 59.3861Z" fill="#0A0A0A"/>
    <path d="M91.7851 64.9641H92.1245C92.3841 64.9641 93.2625 64.5686 92.9231 63.0768C92.885 62.7009 92.7585 62.3366 92.552 62.0081C92.3454 61.6796 92.0636 61.3945 91.7252 61.1716C91.564 61.0868 91.3855 61.032 91.2004 61.0104C91.0152 60.9888 90.8271 61.0008 90.6472 61.0458C90.6078 61.0705 90.5786 61.1061 90.5638 61.1471C90.5491 61.1882 90.5497 61.2325 90.5655 61.2733C90.5814 61.314 90.6116 61.349 90.6516 61.3728C90.6915 61.3966 90.7391 61.408 90.7869 61.4053C90.9105 61.375 91.0395 61.3674 91.1664 61.3829C91.2932 61.3983 91.4154 61.4365 91.5256 61.4951C91.8085 61.6949 92.0429 61.9446 92.2146 62.229C92.3863 62.5134 92.4915 62.8264 92.5238 63.1487C92.7035 63.9575 92.5238 64.4788 92.0247 64.6046C91.6818 64.643 91.3346 64.5748 91.0405 64.4114C90.7465 64.248 90.5232 63.9991 90.4076 63.7059C90.3855 63.6589 90.344 63.6215 90.2919 63.6014C90.2399 63.5813 90.1812 63.5801 90.1281 63.598C90.0805 63.6177 90.0422 63.6521 90.0202 63.6949C89.9982 63.7378 89.994 63.7863 90.0083 63.8317C90.1461 64.1645 90.3903 64.453 90.7101 64.6609C91.0299 64.8689 91.4109 64.9869 91.8051 65L91.7851 64.9641Z" fill="#0A0A0A"/>
    <path d="M70.4167 55.9985C68.3667 55.9985 68.0167 51.7119 68 49C71.3333 49.8573 72.5667 50.1373 73 50.2247C72.9667 52.3943 72.5667 56.086 70.4167 55.9985Z" fill="#F9D8B7"/>
    <path d="M70.4595 56C72.5609 56 72.9529 52.4508 73 50.3445C73.0007 50.3014 72.9868 50.2594 72.961 50.226C72.9352 50.1926 72.899 50.1699 72.8588 50.1621C72.3884 50.0792 71.1652 49.8138 68.1542 49.0177C68.1323 49.0061 68.1082 49 68.0837 49C68.0592 49 68.035 49.0061 68.0131 49.0177C68.0045 49.0387 68 49.0613 68 49.0841C68 49.1069 68.0045 49.1295 68.0131 49.1504C68.0131 52.2186 68.4522 55.8839 70.4438 55.9668L70.4595 56ZM72.6707 50.4938C72.6707 52.484 72.2472 55.6683 70.4595 55.6683C68.7031 55.6683 68.3738 51.8206 68.3424 49.4158C70.8986 50.0958 72.1218 50.3777 72.655 50.4772L72.6707 50.4938Z" fill="#0A0A0A"/>
    <path d="M39.6519 63.296C41.2753 59.5942 57.0333 64.2832 65.4858 49L67.7798 49.5817C67.7798 52.3316 68.1504 56.6328 70.3385 56.6328C72.5267 56.6328 73.0384 53.0015 73.0913 50.798H73.3207C73.3207 50.798 79.2851 67.4385 68.7327 82.0871L70.9385 85.2249C70.9385 85.2249 65.4682 90.0372 54.5452 86.9876C43.6223 83.938 36.7932 72.7797 39.6519 63.296Z" fill="#BEDC40"/>
    <path d="M61.3239 87.9777C64.7704 88.167 68.1761 87.1443 70.9717 85.0804C71.0002 85.0452 71.0158 85.0009 71.0158 84.9552C71.0158 84.9095 71.0002 84.8653 70.9717 84.83L68.8317 81.8075C79.1636 67.0527 73.41 50.1696 73.3398 49.9907C73.3253 49.9564 73.3005 49.9275 73.2691 49.9083C73.2376 49.889 73.201 49.8803 73.1644 49.8834H72.9539C72.9088 49.8655 72.8587 49.8655 72.8136 49.8834C72.7975 49.9297 72.7975 49.9802 72.8136 50.0265C72.8136 52.1726 72.3751 55.7496 70.3402 55.7496C68.3054 55.7496 67.9897 51.35 67.9721 48.7746C67.9729 48.7327 67.9594 48.6919 67.9337 48.6592C67.9081 48.6265 67.872 48.6041 67.8318 48.5957L65.5689 48.0055C65.5291 47.9957 65.4872 47.9991 65.4493 48.0151C65.4115 48.0312 65.3796 48.0592 65.3584 48.0949C59.7977 58.3786 51.062 59.6663 45.2733 60.5248C42.3439 60.954 40.2389 61.2759 39.66 62.6173C39.0175 64.9374 38.8417 67.366 39.1431 69.7571C39.4446 72.1482 40.2171 74.4525 41.4142 76.5316C42.8136 79.0738 44.694 81.3076 46.9463 83.1035C49.1986 84.8995 51.7781 86.2219 54.5353 86.9941C56.746 87.6241 59.0285 87.9548 61.3239 87.9777ZM70.6034 84.9016C67.8717 86.7874 64.6203 87.7337 61.3239 87.6022C59.0525 87.5821 56.7937 87.2574 54.6054 86.6364C51.8961 85.8769 49.3615 84.5768 47.1483 82.8116C44.9352 81.0464 43.0875 78.851 41.7124 76.3527C40.533 74.3227 39.7695 72.0701 39.468 69.7308C39.1665 67.3915 39.3333 65.0142 39.9582 62.7425C40.4494 61.6157 42.4667 61.3117 45.2207 60.954C51.0445 60.0956 59.8504 58.79 65.4988 48.4347L67.4985 48.9534C67.4985 52.2263 68.0247 56.1073 70.2174 56.1073C72.4101 56.1073 72.9539 52.7807 73.0416 50.4736C73.9187 53.1026 77.9533 68.2867 68.4808 81.7181C68.4581 81.7491 68.4457 81.7867 68.4457 81.8254C68.4457 81.8641 68.4581 81.9018 68.4808 81.9327L70.6034 84.9016Z" fill="#0A0A0A"/>
    <path d="M67.1465 83.9895C67.1643 83.9964 67.1835 84 67.2029 84C67.2224 84 67.2416 83.9964 67.2594 83.9895L68.9522 82.2261C68.9672 82.2143 68.9793 82.1998 68.9875 82.1835C68.9957 82.1672 69 82.1495 69 82.1317C69 82.1138 68.9957 82.0961 68.9875 82.0798C68.9793 82.0636 68.9672 82.049 68.9522 82.0372C68.9235 82.0133 68.8857 82 68.8464 82C68.8072 82 68.7694 82.0133 68.7406 82.0372L67.0478 83.8006C67.0327 83.8124 67.0207 83.8269 67.0125 83.8432C67.0043 83.8595 67 83.8771 67 83.895C67 83.9129 67.0043 83.9306 67.0125 83.9468C67.0207 83.9631 67.0327 83.9777 67.0478 83.9895H67.1465Z" fill="#0A0A0A"/>
    <path d="M73 63C72.4477 63 72 62.1046 72 61C72 59.8954 72.4477 59 73 59C73.5523 59 74 59.8954 74 61C74 62.1046 73.5523 63 73 63Z" fill="#FFFC0D"/>
    <path d="M67 68C66.4477 68 66 67.3284 66 66.5C66 65.6716 66.4477 65 67 65C67.5523 65 68 65.6716 68 66.5C68 67.3284 67.5523 68 67 68Z" fill="#FFFC0D"/>
    <path d="M64 59C63.4477 59 63 58.1046 63 57C63 55.8954 63.4477 55 64 55C64.5523 55 65 55.8954 65 57C65 58.1046 64.5523 59 64 59Z" fill="#FFFC0D"/>
    <path d="M59 75C58.4477 75 58 74.1046 58 73C58 71.8954 58.4477 71 59 71C59.5523 71 60 71.8954 60 73C60 74.1046 59.5523 75 59 75Z" fill="#FFFC0D"/>
    <path d="M69 77C68.4477 77 68 76.1046 68 75C68 73.8954 68.4477 73 69 73C69.5523 73 70 73.8954 70 75C70 76.1046 69.5523 77 69 77Z" fill="#FFFC0D"/>
    <path d="M43 73C42.4477 73 42 72.1046 42 71C42 69.8954 42.4477 69 43 69C43.5523 69 44 69.8954 44 71C44 72.1046 43.5523 73 43 73Z" fill="#FFFC0D"/>
    <path d="M57 64C56.4477 64 56 63.1046 56 62C56 60.8954 56.4477 60 57 60C57.5523 60 58 60.8954 58 62C58 63.1046 57.5523 64 57 64Z" fill="#FFFC0D"/>
    <path d="M51 73C50.4477 73 50 72.3284 50 71.5C50 70.6716 50.4477 70 51 70C51.5523 70 52 70.6716 52 71.5C52 72.3284 51.5523 73 51 73Z" fill="#FFFC0D"/>
    <path d="M53 83C52.4477 83 52 82.1046 52 81C52 79.8954 52.4477 79 53 79C53.5523 79 54 79.8954 54 81C54 82.1046 53.5523 83 53 83Z" fill="#FFFC0D"/>
    <path d="M62 85C61.4477 85 61 84.1046 61 83C61 81.8954 61.4477 81 62 81C62.5523 81 63 81.8954 63 83C63 84.1046 62.5523 85 62 85Z" fill="#FFFC0D"/>
    <path d="M49 66C48.4477 66 48 65.1046 48 64C48 62.8954 48.4477 62 49 62C49.5523 62 50 62.8954 50 64C50 65.1046 49.5523 66 49 66Z" fill="#FFFC0D"/>
    <g style="mix-blend-mode:multiply" opacity="0.45">
        <path d="M40.0782 62.8998C41.6839 59.1916 57.2698 63.8886 65.6301 48.5792L66.5376 48.8087C65.2494 52.4007 63.001 55.5605 60.0427 57.9361C57.0844 60.3118 53.5325 61.81 49.7823 62.2641C36.029 64.2594 45.4015 92.7064 69.2429 85.9963C66.8518 87.1971 62.0346 88.698 54.8089 86.7203C44.0052 83.7538 37.2507 72.3997 40.0782 62.8998Z" fill="#BEDC40"/>
    </g>
    <path d="M65.6576 50C65.7376 49.9968 65.8141 49.9687 65.8749 49.9202C65.9358 49.8717 65.9773 49.8056 65.9931 49.7325C66.0088 49.6594 65.9977 49.5835 65.9616 49.517C65.9254 49.4505 65.8664 49.3971 65.7939 49.3655C65.6746 49.3655 53.3047 44.6069 42.2638 48.5883C42.2155 48.6005 42.1705 48.6221 42.1317 48.6515C42.0929 48.6809 42.0612 48.7176 42.0386 48.7592C42.016 48.8007 42.003 48.8462 42.0005 48.8927C41.9979 48.9393 42.0059 48.9858 42.0238 49.0292C42.0418 49.0727 42.0694 49.1122 42.1047 49.1452C42.1401 49.1781 42.1825 49.2038 42.2292 49.2205C42.2759 49.2373 42.3258 49.2447 42.3758 49.2423C42.4258 49.24 42.4747 49.2279 42.5193 49.2069C53.2876 45.3048 65.385 49.9366 65.5042 49.9841H65.6405L65.6576 50Z" fill="#0A0A0A"/>
    <path d="M40.3011 50.9522C40.3011 50.9522 38.6412 54.821 37.5789 53.8409C36.5166 52.8608 38.8902 50.4019 38.8902 50.4019C38.8902 50.4019 36.0851 52.0182 36.0021 50.763C35.9191 49.5078 38.3591 49.2498 38.3591 49.2498C38.3591 49.2498 35.5539 48.1666 36.6992 47.3584C37.8445 46.5502 39.2388 48.8028 39.2388 48.8028C39.2388 48.8028 37.9275 46 39.3218 46C40.716 46 41.6124 48.648 41.6124 48.648C42.2099 49.525 41.1476 50.7802 41.8613 52.087C42.5751 53.3938 40.3011 53.3938 40.3011 50.9522Z" fill="#F9D8B7"/>
    <path d="M38.0664 55C38.8699 55 39.7364 53.2412 40.1776 52.2415C40.2332 52.6113 40.3628 52.9603 40.5557 53.2597C40.6544 53.4255 40.7834 53.5631 40.9334 53.6625C41.0834 53.7618 41.2504 53.8203 41.4222 53.8337C41.5224 53.8383 41.6219 53.8116 41.7104 53.7563C41.799 53.701 41.8735 53.6191 41.9263 53.5189C41.9859 53.374 42.0101 53.2124 41.9962 53.0523C41.9823 52.8921 41.9308 52.7396 41.8476 52.6118C41.5957 52 41.5506 51.2987 41.7215 50.6494C41.8006 50.3711 41.8315 50.0772 41.8126 49.7847C41.7936 49.4922 41.7252 49.2071 41.6112 48.9461C41.5167 48.6314 40.666 46.0025 39.2796 46.0025C39.1536 45.991 39.0273 46.0192 38.9137 46.0843C38.8001 46.1494 38.7034 46.249 38.6336 46.3728C38.44 46.937 38.44 47.5674 38.6336 48.1315C38.2842 47.6551 37.7948 47.351 37.263 47.2799C37.0487 47.2797 36.8396 47.3573 36.6643 47.5021C36.556 47.5676 36.4668 47.6695 36.4078 47.7947C36.3489 47.92 36.323 48.063 36.3334 48.2056C36.3334 48.798 37.1842 49.3164 37.7514 49.6311C37.0424 49.8163 35.9396 50.2976 36.0026 51.3714C36.0026 51.6306 36.1286 52.0749 36.7273 52.0749C37.2738 52.0342 37.8086 51.8708 38.3028 51.5935C37.7698 52.2499 37.423 53.0843 37.3102 53.9818C37.3108 54.136 37.3392 54.2883 37.3935 54.4287C37.4478 54.5691 37.5268 54.6944 37.6253 54.7964C37.7467 54.9244 37.9033 54.9967 38.0664 55ZM40.2879 51.2973C40.2576 51.2979 40.2282 51.3087 40.2031 51.3284C40.1779 51.3481 40.1581 51.3759 40.1461 51.4084C39.6734 52.6303 38.7124 54.5742 38.0822 54.5742C37.9869 54.5716 37.8964 54.5251 37.8301 54.4446C37.7658 54.377 37.7144 54.2943 37.6791 54.2018C37.6438 54.1093 37.6255 54.0091 37.6253 53.9077C37.6253 52.7784 39.059 51.0567 39.0747 51.0381C39.1103 51.0062 39.1335 50.959 39.1394 50.907C39.1454 50.8549 39.1334 50.8022 39.1063 50.7604C39.0791 50.7187 39.0389 50.6914 38.9946 50.6844C38.9503 50.6775 38.9054 50.6915 38.8699 50.7234C38.2171 51.1656 37.5021 51.4665 36.7588 51.6121C36.428 51.6121 36.3807 51.4454 36.3649 51.2788C36.3649 50.131 38.3658 49.8348 38.3815 49.8348C38.417 49.8277 38.4496 49.8079 38.475 49.778C38.5004 49.7482 38.5173 49.7098 38.5233 49.6682C38.5258 49.6248 38.5165 49.5817 38.4966 49.5451C38.4768 49.5084 38.4475 49.4802 38.4131 49.4645C37.7198 49.1683 36.7273 48.5388 36.68 48.0945C36.68 48.0945 36.68 47.9279 36.8691 47.7613C36.9889 47.6623 37.1323 47.6105 37.2787 47.6132C37.9877 47.6132 38.8542 48.8165 39.0432 49.2609C39.0743 49.291 39.1133 49.3074 39.1535 49.3074C39.1938 49.3074 39.2328 49.291 39.2638 49.2609C39.2927 49.2263 39.3088 49.1797 39.3088 49.1313C39.3088 49.0828 39.2927 49.0363 39.2638 49.0017C38.9645 48.2797 38.5863 46.9467 38.8384 46.4653C38.8784 46.3982 38.9334 46.3454 38.9974 46.3127C39.0613 46.2801 39.1317 46.2688 39.2008 46.2802C40.3981 46.2802 41.2174 48.9646 41.2174 48.9832C41.2975 49.209 41.3388 49.4512 41.3388 49.6959C41.3388 49.9406 41.2975 50.1829 41.2174 50.4087C41.0324 51.1402 41.0887 51.9268 41.3749 52.6118C41.4852 52.8339 41.5167 53.0191 41.4537 53.1487C41.4277 53.1873 41.3939 53.2176 41.3554 53.237C41.3169 53.2564 41.2749 53.2642 41.2331 53.2597C41.1128 53.2451 40.9967 53.1994 40.8932 53.1257C40.7896 53.0521 40.7013 52.9525 40.6345 52.8339C40.3743 52.3958 40.2467 51.8678 40.2721 51.3344C40.2728 51.291 40.2606 51.2488 40.2376 51.215C40.2146 51.1811 40.1822 51.1579 40.1461 51.1492L40.2879 51.2973Z" fill="#0A0A0A"/>
    <path d="M48 34C47.2809 32.3731 46.8811 30.6155 46.8237 28.8284C46.7385 25.8907 44.403 31.5197 48 34Z" fill="#64313D"/>
    <path d="M47.8704 34.9806H47.9698C47.9894 34.944 48 34.8999 48 34.8546C48 34.8092 47.9894 34.7651 47.9698 34.7285C47.3836 32.9644 47.0556 31.0607 47.0045 29.1247C47.0045 28.8532 47.0045 28 46.6354 28C46.2663 28 46.2521 28.446 46.1669 28.8338C45.9248 29.9576 45.9465 31.1568 46.2292 32.2629C46.5118 33.3689 47.0411 34.3261 47.7427 35L47.8704 34.9806ZM46.6638 28.4072C46.7185 28.632 46.7425 28.8686 46.7348 29.1053C46.7799 30.8247 47.0342 32.5219 47.4872 34.1274C47.0857 33.5928 46.7757 32.9436 46.5794 32.2262C46.3831 31.5088 46.3052 30.7411 46.3515 29.9778C46.3507 29.4255 46.4586 28.8831 46.6638 28.4072Z" fill="#0A0A0A"/>
    <path d="M47 33.6779C47 33.6779 43.8077 30.6075 43.0793 31.0421C42.351 31.4768 46.876 35.0799 47 33.6779Z" fill="#64313D"/>
    <path d="M46.5136 34.9989C46.5733 35.0035 46.6332 34.9938 46.6897 34.9702C46.7461 34.9467 46.7981 34.9098 46.8423 34.8618C46.8866 34.8138 46.9223 34.7556 46.9473 34.6908C46.9724 34.626 46.9862 34.5558 46.988 34.4845C46.9959 34.4629 47 34.4395 47 34.4159C47 34.3923 46.9959 34.369 46.988 34.3473C46.7149 34.0044 44.3428 31.0211 43.394 31.0211C43.3142 30.993 43.2294 30.993 43.1496 31.0211C43.0813 31.0796 43.0324 31.1649 43.0114 31.262C42.9904 31.3591 42.9986 31.4619 43.0346 31.5526C43.8078 33.1641 45.0434 34.3881 46.5136 34.9989ZM46.7292 34.5188C46.7292 34.6045 46.7292 34.6388 46.5567 34.6388C45.2252 34.0485 44.0935 32.9519 43.3365 31.5183C43.3365 31.5183 43.3365 31.3983 43.3365 31.3983H43.4227C43.969 31.364 45.6654 33.2329 46.7292 34.5188Z" fill="#0A0A0A"/>
    <path d="M47 34C45.7192 34.7501 44.2391 34.9643 42.8285 34.6035C40.3882 34.1161 43.8088 38.3871 47 34Z" fill="#64313D"/>
    <path d="M43.8856 36C44.4999 35.9721 45.0983 35.8036 45.6306 35.5085C46.1629 35.2135 46.6136 34.8006 46.945 34.3044C46.9803 34.2699 47 34.2236 47 34.1754C47 34.1271 46.9803 34.0808 46.945 34.0463C46.9071 34.0164 46.8595 34 46.8103 34C46.7612 34 46.7135 34.0164 46.6756 34.0463C45.9183 34.4313 45.0698 34.6218 44.2127 34.5993C43.8259 34.6002 43.4396 34.5694 43.0583 34.5071C42.2501 34.3781 42 34.673 42 34.9495C42 35.2259 42.8274 36 43.8856 36ZM46.0022 34.7099C45.4452 35.2618 44.6865 35.5855 43.8856 35.613C42.9813 35.613 42.4041 35.1153 42.4041 34.9126C42.4041 34.7099 42.558 34.9126 42.6927 34.9126H42.9813C43.3819 34.9764 43.7874 35.0072 44.1935 35.0047C44.8094 34.9881 45.4192 34.8825 46.0022 34.6914V34.7099Z" fill="#0A0A0A"/>
    <path d="M47.8757 35.62C47.2661 35.2089 47.0017 34.527 47.2851 34.0969C47.5685 33.6669 48.2924 33.6515 48.9019 34.0627C49.5115 34.4738 49.7759 35.1557 49.4925 35.5858C49.2091 36.0158 48.4852 36.0312 47.8757 35.62Z" fill="#64313D"/>
    <path d="M48.9074 35.9991C49.0869 36.0054 49.2657 35.9789 49.4284 35.9219C49.5911 35.865 49.7327 35.7793 49.841 35.6723C49.9132 35.5891 49.9623 35.4959 49.9852 35.3982C50.0081 35.3006 50.0044 35.2005 49.9744 35.1039C49.8524 34.7499 49.5521 34.4446 49.136 34.2514C48.8459 34.0772 48.4802 33.9882 48.1081 34.0013C47.7359 34.0144 47.3831 34.1286 47.1163 34.3225C46.97 34.5818 46.9614 34.8729 47.0924 35.1368C47.2233 35.4006 47.4839 35.6175 47.8213 35.7433C48.1434 35.9038 48.5201 35.9925 48.9074 35.9991ZM48.0499 34.3225C48.3634 34.3295 48.6676 34.4035 48.9264 34.5356C49.2567 34.6851 49.4958 34.9246 49.5933 35.2034C49.6526 35.3128 49.6526 35.4351 49.5933 35.5444C49.3646 35.8002 48.6596 35.8002 48.1071 35.5444C47.5545 35.2887 47.2687 34.8056 47.5164 34.5356C47.5775 34.472 47.6574 34.4197 47.7499 34.3828C47.8424 34.3458 47.945 34.3252 48.0499 34.3225Z" fill="#0A0A0A"/>
    <path d="M49.9043 36.9181C49.1984 36.4423 48.8557 35.7079 49.1389 35.2777C49.4221 34.8476 50.224 34.8846 50.93 35.3604C51.636 35.8362 51.9786 36.5706 51.6954 37.0007C51.4122 37.4309 50.6103 37.3939 49.9043 36.9181Z" fill="#64313D"/>
    <path d="M51.0826 37.9968C51.2338 38.0106 51.3855 37.9794 51.524 37.9062C51.6625 37.833 51.7833 37.7201 51.8755 37.5776C51.9334 37.4688 51.9722 37.3474 51.9896 37.2205C52.0069 37.0936 52.0026 36.9639 51.9767 36.839C51.8417 36.2545 51.5215 35.754 51.0826 35.4417C50.3404 34.8628 49.3957 34.8428 49.1089 35.4417C48.8221 36.0406 49.1089 36.9588 49.8849 37.5776C50.243 37.8477 50.658 37.993 51.0826 37.9968ZM49.9018 35.3818C50.2533 35.4024 50.5927 35.5409 50.8802 35.781C51.2352 36.0333 51.4994 36.4311 51.6225 36.8989C51.6461 36.9653 51.6583 37.0365 51.6583 37.1085C51.6583 37.1805 51.6461 37.2518 51.6225 37.3181C51.5623 37.4004 51.4867 37.4648 51.4018 37.5064C51.3169 37.548 51.2249 37.5656 51.1332 37.5577C50.7815 37.5382 50.4419 37.3996 50.1548 37.1584C49.5644 36.6993 49.2607 35.9807 49.4632 35.6014C49.5138 35.5188 49.5795 35.4508 49.6555 35.4024C49.7314 35.354 49.8156 35.3265 49.9018 35.3219V35.3818Z" fill="#0A0A0A"/>
    <path d="M52.6717 38.2785C51.8588 38.0332 51.3361 37.3722 51.5042 36.8021C51.6723 36.2321 52.4675 35.9688 53.2804 36.2141C54.0932 36.4595 54.6159 37.1205 54.4479 37.6905C54.2798 38.2606 53.4846 38.5238 52.6717 38.2785Z" fill="#64313D"/>
    <path d="M53.3508 38.9916C53.6848 39.0259 54.0214 38.9549 54.3107 38.7891C54.6 38.6232 54.8268 38.3713 54.9576 38.0706C55.012 37.869 55.0141 37.6573 54.9638 37.4547C54.9134 37.2521 54.8122 37.0647 54.6692 36.9094C54.3493 36.532 53.9178 36.2594 53.4332 36.1286C53.1799 36.0507 52.916 36.0102 52.6504 36.0084C52.3163 35.9741 51.9798 36.0451 51.6904 36.2109C51.4011 36.3768 51.1743 36.6287 51.0436 36.9294C50.817 37.6902 51.4968 38.5511 52.568 38.9315C52.8246 38.9874 53.0882 39.0076 53.3508 38.9916ZM52.6504 36.4289C52.8622 36.3998 53.0771 36.3998 53.289 36.4289C53.6811 36.5343 54.0323 36.7503 54.2984 37.0495C54.3956 37.1535 54.4653 37.279 54.5012 37.4151C54.5371 37.5512 54.5382 37.6937 54.5044 37.8303C54.4016 38.0414 54.2325 38.2153 54.0215 38.3269C53.8104 38.4384 53.5683 38.4819 53.3302 38.451C53.1183 38.4793 52.9034 38.4793 52.6916 38.451C51.847 38.2107 51.2908 37.5701 51.4556 37.0295C51.5651 36.8205 51.7392 36.6502 51.9536 36.5424C52.1679 36.4347 52.4116 36.395 52.6504 36.4289Z" fill="#0A0A0A"/>
    <path d="M55.5 39C54.6716 39 54 38.5523 54 38C54 37.4477 54.6716 37 55.5 37C56.3284 37 57 37.4477 57 38C57 38.5523 56.3284 39 55.5 39Z" fill="#64313D"/>
    <path d="M56 38.9939C56.2418 39.0117 56.4856 38.9905 56.7172 38.9313C56.9489 38.8722 57.1639 38.7763 57.3498 38.6493C57.5357 38.5222 57.6889 38.3665 57.8005 38.1911C57.9121 38.0156 57.9799 37.824 58 37.6271C58 37.1956 57.7893 36.7817 57.4142 36.4766C57.0391 36.1714 56.5304 36 56 36C55.4696 36 54.9609 36.1714 54.5858 36.4766C54.2107 36.7817 54 37.1956 54 37.6271C54.0201 37.824 54.0879 38.0156 54.1995 38.1911C54.3111 38.3665 54.4643 38.5222 54.6502 38.6493C54.8361 38.7763 55.0511 38.8722 55.2828 38.9313C55.5144 38.9905 55.7582 39.0117 56 38.9939ZM56 36.602C56.3706 36.5747 56.7396 36.6667 57.0276 36.8584C57.3156 37.0501 57.4996 37.3262 57.54 37.6271C57.469 37.9191 57.2757 38.182 56.9931 38.371C56.7104 38.5599 56.3559 38.6632 55.99 38.6632C55.6241 38.6632 55.2696 38.5599 54.9869 38.371C54.7043 38.182 54.511 37.9191 54.44 37.6271C54.4852 37.326 54.6741 37.0514 54.966 36.8627C55.2578 36.6739 55.6292 36.5862 56 36.6183V36.602Z" fill="#0A0A0A"/>
    <path d="M82 56C82.681 57.0004 83.5622 57.8612 84.5926 58.5323C86.3003 59.575 82.0931 58.9345 82 56Z" fill="#64313D"/>
    <path d="M84.6661 59C84.9098 59 84.9671 58.8903 84.9958 58.8217C85.0244 58.7532 84.9098 58.4926 84.5658 58.2732C83.6575 57.6715 82.8788 56.908 82.2725 56.0244C82.2469 56.0085 82.217 56 82.1865 56C82.1559 56 82.1261 56.0085 82.1005 56.0244C82.0703 56.0335 82.0441 56.0518 82.0259 56.0766C82.0078 56.1014 81.9987 56.1313 82.0001 56.1615C82.0522 56.8506 82.3425 57.5035 82.8252 58.0174C83.3078 58.5313 83.9555 58.877 84.6661 59ZM82.2725 56.6689C82.8594 57.3865 83.5608 58.0112 84.3508 58.5201C84.4434 58.5754 84.5299 58.6397 84.6088 58.712C84.0601 58.6112 83.5513 58.3669 83.1389 58.0062C82.7265 57.6456 82.4266 57.1827 82.2725 56.6689Z" fill="#0A0A0A"/>
    <path d="M81.5241 56.0472C81.5241 56.0472 82.4158 60.6618 81.758 60.987C81.1002 61.3123 80.5594 55.417 81.5241 56.0472Z" fill="#64313D"/>
    <path d="M81.8531 61C81.8921 61 81.9294 60.9794 81.957 60.9428C81.9845 60.9062 82 60.8566 82 60.8048C82 60.7531 81.9845 60.7034 81.957 60.6668C81.9294 60.6302 81.8921 60.6097 81.8531 60.6097C81.4487 59.6395 81.255 58.5391 81.2937 57.4312C81.2937 56.6691 81.4056 56.3903 81.4895 56.3903C81.5285 56.3903 81.5658 56.3698 81.5934 56.3332C81.6209 56.2966 81.6364 56.2469 81.6364 56.1952C81.6364 56.1434 81.6209 56.0938 81.5934 56.0572C81.5658 56.0206 81.5285 56 81.4895 56C81.1678 56 81 56.4833 81 57.4312C81.0068 58.1901 81.082 58.9451 81.2238 59.6803C81.5035 61 81.7832 61 81.8531 61Z" fill="#0A0A0A"/>
    <path d="M81 57C80.3214 57.3721 79.8014 57.9641 79.5322 58.6709C79.0184 59.9169 78.1671 57.2407 81 57Z" fill="#64313D"/>
    <path d="M79.5192 59C79.6725 59 79.9216 58.9074 80.1131 58.4447C80.4409 57.5753 81.0706 56.8426 81.8949 56.3715C81.9357 56.3516 81.9677 56.3183 81.9853 56.2776C82.0028 56.2368 82.0048 56.1914 81.9907 56.1494C81.9814 56.1036 81.9545 56.0629 81.9154 56.0354C81.8763 56.0079 81.8279 55.9958 81.78 56.0013C79.4809 56.2234 78.9636 57.6117 79.0019 58.2966C79.0403 58.9815 79.251 59 79.5192 59ZM80.9561 56.5196C80.4288 57.0089 80.0171 57.6024 79.7491 58.2596C79.7096 58.381 79.6368 58.4897 79.5384 58.5743C79.495 58.4811 79.4726 58.3802 79.4726 58.2781C79.4726 58.176 79.495 58.075 79.5384 57.9819C79.6045 57.6324 79.7734 57.3087 80.0248 57.0494C80.2762 56.7901 80.5995 56.6062 80.9561 56.5196Z" fill="#0A0A0A"/>
    <path d="M81.0503 55.2014C81.0332 54.6263 81.3395 54.1503 81.7345 54.1382C82.1296 54.1261 82.4637 54.5826 82.4809 55.1577C82.498 55.7328 82.1917 56.2088 81.7967 56.2209C81.4017 56.233 81.0675 55.7765 81.0503 55.2014Z" fill="#64313D"/>
    <path d="M82.021 56C82.13 55.9965 82.237 55.9766 82.3358 55.9412C82.4347 55.9059 82.5234 55.8559 82.5969 55.7941C82.856 55.5773 82.9999 55.294 83 55C83 54.4412 82.5201 54 81.9826 54C81.8674 54.0012 81.7538 54.0201 81.6483 54.0554C81.5428 54.0908 81.4476 54.1419 81.3683 54.2059C81.1073 54.4376 80.9763 54.7388 81.0035 55.0441C81.0419 55.5588 81.4835 56 82.021 56ZM82.021 54.2647C82.3473 54.2647 82.6161 54.5882 82.6353 54.9706C82.6541 55.1885 82.565 55.4038 82.3857 55.5735C82.3474 55.6079 82.3004 55.636 82.2477 55.6562C82.1949 55.6764 82.1374 55.6883 82.0786 55.6912C81.7714 55.6912 81.4835 55.3676 81.4835 54.9853C81.4576 54.7623 81.5472 54.5405 81.733 54.3676C81.8118 54.2996 81.9218 54.2574 82.0402 54.25L82.021 54.2647Z" fill="#0A0A0A"/>
    <path d="M81.0326 53.2231C81.013 52.5602 81.3173 52.0132 81.7123 52.0012C82.1074 51.9892 82.4435 52.5168 82.4632 53.1797C82.4828 53.8425 82.1785 54.3896 81.7835 54.4016C81.3885 54.4136 81.0523 53.886 81.0326 53.2231Z" fill="#64313D"/>
    <path d="M82.0487 55C82.6102 55 83.0363 54.3121 82.9976 53.4713C82.9588 52.6306 82.5134 52 81.9712 52C81.8641 52.0049 81.7592 52.0311 81.6627 52.0771C81.5661 52.1231 81.4801 52.1878 81.4096 52.2675C81.1217 52.6317 80.9772 53.0865 81.0029 53.5478C81.0417 54.3503 81.5064 55 82.0487 55ZM82.0487 52.4013C82.3391 52.4013 82.649 52.8408 82.6683 53.4904C82.6877 54.1401 82.3972 54.5987 82.1067 54.6178C81.8163 54.6178 81.5064 54.1783 81.4871 53.5287C81.4552 53.1733 81.5588 52.819 81.7775 52.535C81.8113 52.4959 81.8527 52.4639 81.8993 52.4409C81.9459 52.4179 81.9967 52.4044 82.0487 52.4013Z" fill="#0A0A0A"/>
    <path d="M81.6354 52.0671C81.1912 51.9407 80.9746 51.3221 81.1516 50.6855C81.3286 50.0489 81.8321 49.6352 82.2763 49.7616C82.7205 49.888 82.9371 50.5066 82.7601 51.1432C82.5831 51.7798 82.0796 52.1934 81.6354 52.0671Z" fill="#64313D"/>
    <path d="M81.8582 52C82.1223 51.9736 82.3691 51.8817 82.5631 51.7374C82.7571 51.5931 82.8884 51.4039 82.9381 51.1969C83.0466 50.9083 83.0115 50.5978 82.84 50.329C82.7888 50.2537 82.719 50.1874 82.6346 50.1339C82.5503 50.0805 82.4532 50.0411 82.3491 50.0182C81.8419 49.9145 81.2692 50.2643 81.0892 50.8083C80.9734 51.0268 80.9702 51.2724 81.0803 51.4927C81.1904 51.713 81.405 51.8904 81.6783 51.987L81.8582 52ZM82.1528 50.2643H82.2673C82.3267 50.2781 82.382 50.3012 82.4298 50.3324C82.4776 50.3636 82.517 50.4021 82.5454 50.4456C82.652 50.6577 82.652 50.8941 82.5454 51.1062C82.4145 51.4948 82.0219 51.7668 81.6946 51.7021C81.3674 51.6373 81.2201 51.2358 81.351 50.8472C81.4819 50.4586 81.8582 50.2643 82.1528 50.2643Z" fill="#0A0A0A"/>
    <path d="M82.3024 50.2443C81.8272 49.9445 81.7236 49.2445 82.071 48.6809C82.4184 48.1172 83.0852 47.9033 83.5604 48.203C84.0357 48.5028 84.1393 49.2028 83.7919 49.7665C83.4445 50.3302 82.7776 50.5441 82.3024 50.2443Z" fill="#64313D"/>
    <path d="M82.8727 50C83.0652 49.9922 83.2526 49.9391 83.4181 49.8454C83.5835 49.7516 83.7217 49.6202 83.8202 49.4631C83.9693 49.254 84.0289 48.9988 83.9869 48.7495C83.9448 48.5002 83.8043 48.2754 83.5939 48.1209C83.4537 48.0392 83.2918 47.9973 83.1273 48.0001C82.9348 48.0079 82.7474 48.061 82.5819 48.1547C82.4165 48.2485 82.2783 48.3799 82.1798 48.537C82.0307 48.7461 81.9711 49.0013 82.0131 49.2506C82.0552 49.4999 82.1957 49.7247 82.4061 49.8792C82.5469 49.9595 82.7084 50.0013 82.8727 50ZM83.1414 48.2417C83.2464 48.2419 83.3492 48.2698 83.4384 48.3223C83.5931 48.4385 83.6933 48.6081 83.7171 48.794C83.7409 48.98 83.6865 49.1674 83.5657 49.3155C83.4939 49.4314 83.3931 49.5288 83.2723 49.5991C83.1514 49.6693 83.0142 49.7102 82.8727 49.7181C82.7658 49.7287 82.6578 49.71 82.5616 49.6644C82.4755 49.6118 82.4017 49.5431 82.3446 49.4623C82.2876 49.3816 82.2486 49.2906 82.2301 49.1951C82.2115 49.0995 82.2138 49.0013 82.2368 48.9066C82.2597 48.8119 82.3029 48.7226 82.3636 48.6444C82.4428 48.5168 82.5569 48.4119 82.6939 48.341C82.8309 48.2701 82.9855 48.2358 83.1414 48.2417Z" fill="#0A0A0A"/>
    <path d="M70.0421 11.9115C73.1028 11.1598 76.2577 10.8705 79.4032 11.053C80.4799 11.1427 81.5472 11.3244 82.5932 11.5961C88.8165 13.1904 94.7957 17.9206 95.8242 24.4027C96.1791 27.11 95.9954 29.8612 95.2838 32.4965C95.2838 32.4965 95.371 21.8274 87.3696 17.6052C87.3696 17.6052 85.5218 31.8308 72.5524 37.2618C64.4639 40.643 59.3737 38.418 56.6891 36.2632C53.9697 26.2597 59.4783 14.4518 70.0421 11.9115Z" fill="#64313D"/>
    <path d="M64.8982 39.998C67.5855 39.9373 70.2348 39.3303 72.6951 38.2115C84.5027 33.12 87.0786 20.2929 87.3725 18.2027C94.9273 22.5797 94.9273 33.0485 94.9273 33.1557C94.9394 33.1957 94.9635 33.2307 94.9962 33.2555C95.0288 33.2803 95.0683 33.2937 95.1088 33.2937C95.1493 33.2937 95.1888 33.2803 95.2215 33.2555C95.2541 33.2307 95.2783 33.1957 95.2903 33.1557C95.9952 30.4621 96.1773 27.651 95.8263 24.8842C94.7544 17.899 88.4098 13.2184 82.5837 11.682C81.5369 11.3795 80.4669 11.1703 79.3855 11.0568C76.2317 10.8649 73.0678 11.16 69.9981 11.9321C67.6786 12.529 65.4998 13.6042 63.5925 15.0932C61.6853 16.5822 60.0889 18.4541 58.8993 20.5967C57.4967 23.0421 56.5787 25.7515 56.1988 28.567C55.8189 31.3825 55.9847 34.248 56.6865 36.9967C56.6758 37.0316 56.6758 37.069 56.6865 37.1039C59.0139 39.0276 61.9183 40.0512 64.8982 39.998ZM87.2688 17.8097C87.2408 17.822 87.2166 17.8417 87.1984 17.8668C87.1802 17.8919 87.1687 17.9215 87.165 17.9526C87.0613 18.1134 85.1251 32.4947 72.5049 37.8542C70.1062 38.9563 67.5222 39.5632 64.8982 39.6407C62.0645 39.6846 59.3014 38.7265 57.0668 36.9252C56.3908 34.2278 56.2367 31.4189 56.6135 28.6598C56.9903 25.9007 57.8904 23.2456 59.2624 20.8468C60.4247 18.7576 61.9818 16.9313 63.841 15.4766C65.7001 14.0219 67.8234 12.9684 70.0846 12.3788C73.1145 11.615 76.2372 11.32 79.3509 11.5034C80.4126 11.5889 81.4652 11.7682 82.4973 12.0393C88.2023 13.5579 94.4259 18.2027 95.4632 24.9378C95.7674 27.2397 95.6856 29.5785 95.2212 31.8516C94.9446 28.7967 93.648 21.2398 87.3725 17.8276L87.2688 17.8097Z" fill="#0A0A0A"/>
    <path d="M72.0287 37.9996C85.1334 32.4739 87.0005 18 87.0005 18C95.0853 22.2958 94.9972 33.1334 94.9972 33.1334C95.1205 42.4915 91.1574 51.2079 76.8901 51.9565C62.6228 52.7052 58.1665 43.6144 56.2994 37.9996C56.1938 37.6609 56.0881 37.3222 56 36.9836C58.7125 39.176 63.8558 41.3863 72.0287 37.9996Z" fill="#F9D8B7"/>
    <path d="M75.21 52H76.8371C92.0407 51.1536 95.1024 41.3144 94.9974 33.1503C94.9974 33.0445 94.9974 22.2708 86.9495 18.0212C86.9224 18.0073 86.8924 18 86.862 18C86.8316 18 86.8016 18.0073 86.7746 18.0212C86.7463 18.0334 86.7217 18.0528 86.7033 18.0776C86.6849 18.1023 86.6733 18.1315 86.6696 18.1623C86.6521 18.3033 84.6926 32.4979 71.9209 37.7878C69.4934 38.8756 66.8784 39.4746 64.2229 39.5511C61.333 39.5965 58.5158 38.6376 56.2449 36.8356C56.2137 36.8151 56.1772 36.8042 56.14 36.8042C56.1027 36.8042 56.0662 36.8151 56.035 36.8356C56.0123 36.8661 56 36.9033 56 36.9414C56 36.9796 56.0123 37.0167 56.035 37.0472C56.1225 37.3822 56.2274 37.7349 56.3499 38.0699C59.3416 47.4154 65.5525 52 75.21 52ZM86.967 18.3915C94.6125 22.6939 94.6125 33.0445 94.6125 33.1503C94.7175 41.1204 91.7258 50.7833 76.8021 51.5768H75.1925C65.71 51.5768 59.6216 47.098 56.5424 37.8583L56.4024 37.3999C58.6721 39.0647 61.416 39.9433 64.2229 39.9038C66.9424 39.8438 69.6236 39.2447 72.1133 38.1405C84.0628 33.115 86.6696 20.4546 86.967 18.3915Z" fill="#0A0A0A"/>
    <path d="M70.0421 11.9115C73.1028 11.1598 76.2577 10.8705 79.4032 11.053C80.4799 11.1427 81.5472 11.3244 82.5932 11.5961C88.8165 13.1904 94.7957 17.9206 95.8242 24.4027C96.1791 27.11 95.9954 29.8612 95.2838 32.4965C95.2838 32.4965 95.371 21.8274 87.3696 17.6052C87.3696 17.6052 85.5218 31.8308 72.5524 37.2618C64.4639 40.643 59.3737 38.418 56.6891 36.2632C53.9697 26.2597 59.4783 14.4518 70.0421 11.9115Z" fill="#64313D"/>
    <path d="M64.8982 39.998C67.5855 39.9373 70.2348 39.3303 72.6951 38.2115C84.5027 33.12 87.0786 20.2929 87.3725 18.2027C94.9273 22.5797 94.9273 33.0485 94.9273 33.1557C94.9394 33.1957 94.9635 33.2307 94.9962 33.2555C95.0288 33.2803 95.0683 33.2937 95.1088 33.2937C95.1493 33.2937 95.1888 33.2803 95.2215 33.2555C95.2541 33.2307 95.2783 33.1957 95.2903 33.1557C95.9952 30.4621 96.1773 27.651 95.8263 24.8842C94.7544 17.899 88.4098 13.2184 82.5837 11.682C81.5369 11.3795 80.4669 11.1703 79.3855 11.0568C76.2317 10.8649 73.0678 11.16 69.9981 11.9321C67.6786 12.529 65.4998 13.6042 63.5925 15.0932C61.6853 16.5822 60.0889 18.4541 58.8993 20.5967C57.4967 23.0421 56.5787 25.7515 56.1988 28.567C55.8189 31.3825 55.9847 34.248 56.6865 36.9967C56.6758 37.0316 56.6758 37.069 56.6865 37.1039C59.0139 39.0276 61.9183 40.0512 64.8982 39.998ZM87.2688 17.8097C87.2408 17.822 87.2166 17.8417 87.1984 17.8668C87.1802 17.8919 87.1687 17.9215 87.165 17.9526C87.0613 18.1134 85.1251 32.4947 72.5049 37.8542C70.1062 38.9563 67.5222 39.5632 64.8982 39.6407C62.0645 39.6846 59.3014 38.7265 57.0668 36.9252C56.3908 34.2278 56.2367 31.4189 56.6135 28.6598C56.9903 25.9007 57.8904 23.2456 59.2624 20.8468C60.4247 18.7576 61.9818 16.9313 63.841 15.4766C65.7001 14.0219 67.8234 12.9684 70.0846 12.3788C73.1145 11.615 76.2372 11.32 79.3509 11.5034C80.4126 11.5889 81.4652 11.7682 82.4973 12.0393C88.2023 13.5579 94.4259 18.2027 95.4632 24.9378C95.7674 27.2397 95.6856 29.5785 95.2212 31.8516C94.9446 28.7967 93.648 21.2398 87.3725 17.8276L87.2688 17.8097Z" fill="#0A0A0A"/>
    <path d="M86.1481 33.8596C86.1683 33.8707 86.1902 33.8765 86.2123 33.8765C86.2344 33.8765 86.2563 33.8707 86.2765 33.8596C91.6531 24.7657 87.4174 18.0594 87.3746 18.0594C87.3612 18.0408 87.3448 18.0258 87.3263 18.0155C87.3079 18.0053 87.2879 18 87.2676 18C87.2474 18 87.2274 18.0053 87.209 18.0155C87.1905 18.0258 87.1741 18.0408 87.1607 18.0594C87.1455 18.0759 87.1334 18.0962 87.125 18.1189C87.1167 18.1416 87.1124 18.1662 87.1124 18.1911C87.1124 18.216 87.1167 18.2406 87.125 18.2633C87.1334 18.286 87.1455 18.3063 87.1607 18.3228C87.1607 18.3228 91.2823 24.8886 86.0483 33.7367C86.0331 33.7531 86.021 33.7734 86.0126 33.7961C86.0043 33.8188 86 33.8434 86 33.8683C86 33.8932 86.0043 33.9179 86.0126 33.9406C86.021 33.9633 86.0331 33.9835 86.0483 34H86.1339L86.1481 33.8596Z" fill="#0A0A0A"/>
    <path d="M89.9676 32.9994C90.0127 33.0023 90.0578 32.9942 90.0966 32.9762C90.1354 32.9582 90.1659 32.9313 90.1839 32.8992C91.6338 30.7003 92.2353 28.2261 91.917 25.7708C91.5987 23.3156 90.3739 20.9826 88.3884 19.0493C88.3443 19.0176 88.2863 19 88.2261 19C88.1659 19 88.1079 19.0176 88.0639 19.0493C88.0228 19.0834 88 19.1281 88 19.1746C88 19.2211 88.0228 19.2659 88.0639 19.2999C89.9876 21.1827 91.1711 23.4524 91.4741 25.8393C91.777 28.2262 91.1866 30.6301 89.7729 32.7655C89.7585 32.7862 89.7498 32.8089 89.7475 32.8322C89.7452 32.8556 89.7493 32.879 89.7595 32.9011C89.7697 32.9231 89.7858 32.9433 89.8067 32.9602C89.8277 32.9772 89.853 32.9905 89.881 32.9994H89.9676Z" fill="#0A0A0A"/>
    <path d="M83.688 37.4124C83.1724 37.3401 82.8467 36.608 82.9605 35.7773C83.0743 34.9465 83.5845 34.3317 84.1001 34.404C84.6157 34.4762 84.9414 35.2083 84.8276 36.0391C84.7139 36.8698 84.2036 37.4847 83.688 37.4124Z" fill="black"/>
    <path d="M91.3009 39.0422C90.7757 38.9689 90.4417 38.236 90.555 37.4052C90.6682 36.5744 91.1857 35.9602 91.7109 36.0335C92.2361 36.1068 92.5701 36.8397 92.4569 37.6705C92.3436 38.5013 91.8261 39.1155 91.3009 39.0422Z" fill="black"/>
    <path d="M80 51.7885C79.117 51.8767 78.1929 51.9648 77.2278 52H75.9546C75.5206 51.4114 75.2264 50.755 75.089 50.0686C74.9515 49.3821 74.9735 48.6791 75.1537 48C76.3434 48.0639 77.4721 48.4741 78.3533 49.163C79.2344 49.8518 79.8153 50.778 80 51.7885Z" fill="#E6663F"/>
    <path d="M76.0962 51.9999H77.2707C78.0853 51.9999 78.8999 51.876 79.8471 51.7314C79.8899 51.7488 79.937 51.7488 79.9797 51.7314C79.9931 51.7025 80 51.6707 80 51.6384C80 51.6061 79.9931 51.5743 79.9797 51.5455C79.792 50.3235 79.2282 49.2076 78.3811 48.3817C77.534 47.5557 76.4542 47.0689 75.3195 47.0015C75.272 46.9953 75.2242 47.0089 75.1855 47.0395C75.1469 47.0701 75.1203 47.1156 75.1111 47.1667C74.8182 48.7989 75.1096 50.4914 75.9257 51.8966C75.9428 51.9291 75.9678 51.9558 75.9978 51.974C76.0278 51.9922 76.0618 52.0011 76.0962 51.9999ZM79.5819 51.2976C78.7294 51.4009 77.9906 51.4835 77.2518 51.5248H76.2098C75.5149 50.252 75.2722 48.7455 75.5279 47.2906C76.5055 47.3988 77.4254 47.8467 78.1519 48.5681C78.8784 49.2895 79.3731 50.2464 79.563 51.2976H79.5819Z" fill="#0A0A0A"/>
    <path d="M89 47.2734C86.1227 49.3979 82.7144 50.6875 79.1508 51C78.9818 50.0016 78.4795 49.0898 77.7258 48.4131C76.9721 47.7364 76.0113 47.3347 75 47.2734C75.4646 45.2514 76.5244 43.4147 78.0427 42C80.2588 49.5938 86.5377 48.1523 89 47.2734Z" fill="#D92231"/>
    <path d="M79.1921 51.9979C82.7066 51.651 86.0674 50.2503 88.9089 47.9483C88.95 47.9232 88.9803 47.8812 88.9932 47.8315C89.0061 47.7818 89.0005 47.7285 88.9777 47.6834C88.9549 47.6382 88.9167 47.6049 88.8716 47.5907C88.8264 47.5765 88.778 47.5826 88.7369 47.6077C87.5742 48.0834 86.3482 48.3455 85.1082 48.3835C81.6686 48.3835 79.45 46.2831 78.3322 42.1578C78.3213 42.1247 78.3029 42.0952 78.2789 42.0721C78.2548 42.0489 78.2258 42.0328 78.1946 42.0254C78.1684 42.0087 78.1388 42 78.1086 42C78.0784 42 78.0487 42.0087 78.0226 42.0254C76.5399 43.5561 75.4941 45.5287 75.013 47.7023C74.9957 47.751 74.9957 47.805 75.013 47.8537C75.0572 47.8727 75.1063 47.8727 75.1505 47.8537C76.0893 47.9167 76.982 48.3235 77.6864 49.0094C78.3907 49.6952 78.8663 50.6207 79.0373 51.6383C79.0075 51.6684 78.9872 51.7081 78.9794 51.7518C78.9716 51.7955 78.9768 51.8407 78.9941 51.881C79.0114 51.9212 79.0399 51.9542 79.0756 51.9753C79.1112 51.9963 79.152 52.0042 79.1921 51.9979ZM87.8255 48.3835C85.2549 50.1786 82.3408 51.2928 79.3124 51.6383C79.1261 50.5925 78.6395 49.64 77.9243 48.9213C77.2092 48.2025 76.3032 47.7553 75.3397 47.6455C75.8047 45.7363 76.725 43.9984 78.0054 42.612C79.5016 47.7212 82.6489 48.7998 85.0394 48.7998C85.9805 48.7937 86.9169 48.6538 87.8255 48.3835Z" fill="#0A0A0A"/>
    <path d="M78.2659 41.9996C78.8906 42.0101 79.495 41.7967 79.95 41.4049C79.9657 41.3922 79.9783 41.3766 79.9869 41.3591C79.9955 41.3416 80 41.3227 80 41.3035C80 41.2843 79.9955 41.2654 79.9869 41.2479C79.9783 41.2304 79.9657 41.2148 79.95 41.2021C79.9199 41.1765 79.8803 41.1622 79.8392 41.1622C79.7981 41.1622 79.7585 41.1765 79.7284 41.2021C79.7284 41.2021 78.458 42.4322 76.2716 41.0399C76.2415 41.0143 76.2019 41 76.1608 41C76.1197 41 76.0801 41.0143 76.05 41.0399C76.0343 41.0526 76.0217 41.0682 76.0131 41.0857C76.0045 41.1032 76 41.1221 76 41.1413C76 41.1605 76.0045 41.1794 76.0131 41.1969C76.0217 41.2144 76.0343 41.23 76.05 41.2427C76.6801 41.683 77.4441 41.9333 78.2364 41.9591L78.2659 41.9996Z" fill="#0A0A0A"/>
    <g style="mix-blend-mode:multiply" opacity="0.42">
        <path d="M72.3499 37.7196C85.3353 32.2456 87.1854 17.9073 87.1854 17.9073C88.6226 18.6738 89.9021 19.7106 90.9553 20.9622C90.2815 20.5317 89.5153 20.2713 88.7213 20.2029C89.3321 23.0458 84.1834 38.832 66.7299 40.9333C61.075 41.5513 65.4383 53.082 79.5408 51.3338C78.7903 51.4221 78.0048 51.5104 77.1671 51.5457C63.0472 52.2874 58.614 43.2818 56.764 37.7196C56.6593 37.3841 56.5545 37.0486 56.4673 36.7131C59.1551 38.885 64.2515 41.0746 72.3499 37.7196Z" fill="#D76B2A"/>
    </g>
</svg>
