<svg width="16" height="32" viewBox="0 0 16 32" fill="none" xmlns="http://www.w3.org/2000/svg">
    <path d="M4.69997 9V3.74788C4.69997 2.38244 4.33902 1.44193 3.61711 0.926346C2.8952 0.410765 1.68949 0.101983 0 0V5.25212C1.68572 5.34278 2.89142 5.65156 3.61711 6.17847C4.3428 6.70538 4.70375 7.64589 4.69997 9Z" fill="#F7931E"/>
    <path d="M4.69997 14V8.64966C4.69997 7.33103 4.33902 6.41517 3.61711 5.90207C2.8952 5.38897 1.68949 5.08828 0 5V10.3503C1.68572 10.4386 2.89142 10.7393 3.61711 11.2524C4.3428 11.7655 4.70375 12.6814 4.69997 14Z" fill="#F15A24"/>
    <path d="M4.69997 20V14.0091C4.69997 12.5606 4.33902 11.5545 3.61711 10.9909C2.8952 10.4273 1.68949 10.097 0 10V15.9909C1.68572 16.0879 2.89142 16.4182 3.61711 16.9818C4.3428 17.5455 4.70375 18.5515 4.69997 20Z" fill="#ED1C24"/>
    <path d="M15.2926 27.2977C15.0196 27.0448 14.6908 26.8492 14.3285 26.7241C13.9663 26.5991 13.5791 26.5476 13.1933 26.5732H4.71857V19.578C4.71857 18.2587 4.43298 17.3424 3.86182 16.829C3.29065 16.3157 1.33671 16.0148 0 15.9265V28.3537C0 30.3492 1.25447 32 3.76342 32H15.9923C16.0481 31.2598 15.7981 27.8746 15.2926 27.2977Z" fill="#1A1A1A"/>
</svg>
