<svg width="250" height="200" viewBox="0 0 250 200" fill="none" xmlns="http://www.w3.org/2000/svg">
    <g opacity="0.34">
        <path d="M113.479 197.638C113.946 198.052 114.453 198.418 114.993 198.731C115.262 198.891 115.54 199.034 115.825 199.162C116.859 199.633 117.97 199.912 119.104 199.984C120.05 200.039 121 199.951 121.921 199.724C122.617 199.544 123.289 199.285 123.926 198.952C124.196 198.814 124.457 198.66 124.708 198.491C124.918 198.36 125.159 198.19 125.42 197.989C125.68 197.789 125.801 197.679 125.981 197.518L246.752 87.7557C246.957 87.5663 247.151 87.3654 247.333 87.1542C247.668 86.7878 247.973 86.3956 248.246 85.9812L248.446 85.6704C248.597 85.4344 248.734 85.1901 248.857 84.9385C249.042 84.5639 249.196 84.1749 249.318 83.7755C249.442 83.4215 249.543 83.0598 249.619 82.6927C249.712 82.24 249.769 81.7808 249.79 81.3192C249.824 80.8754 249.824 80.4296 249.79 79.9858C249.755 79.6012 249.695 79.2193 249.609 78.8428C249.532 78.4268 249.422 78.0177 249.278 77.6197C249.183 77.3562 249.072 77.0985 248.948 76.8477C248.777 76.4767 248.607 76.206 248.526 76.0657C248.446 75.9253 248.276 75.6346 248.075 75.3538C247.924 75.1311 247.76 74.9168 247.584 74.7122L198.658 17.495C197.938 16.6617 197.076 15.9625 196.112 15.4297C195.881 15.2993 195.64 15.179 195.38 15.0587C194.451 14.6322 193.459 14.3612 192.442 14.2567H192.242L74.5389 5.12317H74.0075H73.6666C73.1453 5.13005 72.6255 5.18035 72.1126 5.27356L71.6314 5.37381L71.3306 5.45402C70.8175 5.59794 70.3177 5.78579 69.8368 6.01546C69.5861 6.12575 69.3555 6.24606 69.1249 6.38642C68.4268 6.7674 67.7799 7.23569 67.2 7.78L10.053 64.0949C9.86548 64.279 9.6881 64.4731 9.5216 64.6764C9.31106 64.927 9.16067 65.1376 9.03034 65.318C8.9 65.4985 8.73959 65.7291 8.55913 66.0198C8.37866 66.3106 8.31851 66.4309 8.21825 66.6414C8.02778 67.0355 7.87017 67.4446 7.74704 67.8646C7.6154 68.2442 7.51152 68.6329 7.43624 69.0276C7.35391 69.4743 7.30698 69.9269 7.29588 70.381C7.25965 70.8315 7.25965 71.2841 7.29588 71.7345C7.33647 72.1369 7.40685 72.5357 7.50642 72.9276C7.61309 73.3604 7.75734 73.7831 7.93753 74.1909C8.01773 74.3914 8.10797 74.5919 8.1982 74.7924C8.33415 75.0709 8.48475 75.3419 8.64936 75.6045C8.76967 75.805 8.91003 76.0456 9.10052 76.3163C9.2407 76.5211 9.39128 76.7185 9.55168 76.9078L112.567 196.736C112.844 197.063 113.149 197.365 113.479 197.638Z" fill="#444341"/>
    </g>
    <path d="M106.19 192.495C106.657 192.909 107.164 193.275 107.704 193.588C107.973 193.747 108.251 193.891 108.536 194.019C109.57 194.49 110.681 194.769 111.815 194.841C112.762 194.895 113.711 194.808 114.632 194.581C115.328 194.401 116.001 194.142 116.637 193.809C116.907 193.671 117.168 193.517 117.419 193.347C117.63 193.217 117.87 193.047 118.131 192.846C118.392 192.646 118.512 192.545 118.692 192.375L239.463 82.6526C239.668 82.4631 239.862 82.2623 240.045 82.0511C240.379 81.6847 240.684 81.2925 240.957 80.8781L241.157 80.5673C241.308 80.3313 241.446 80.087 241.569 79.8354C241.75 79.4605 241.901 79.0715 242.02 78.6724C242.143 78.3184 242.244 77.9567 242.32 77.5896C242.413 77.1369 242.47 76.6776 242.491 76.2161C242.525 75.7722 242.525 75.3265 242.491 74.8827C242.457 74.498 242.396 74.1162 242.31 73.7397C242.234 73.3237 242.123 72.9146 241.98 72.5166C241.884 72.2531 241.774 71.9954 241.649 71.7446C241.478 71.3736 241.308 71.1029 241.228 70.9626C241.147 70.8222 240.977 70.5315 240.777 70.2507C240.625 70.028 240.461 69.8138 240.285 69.6091L191.369 12.3919C190.649 11.5586 189.787 10.8594 188.823 10.3266C188.592 10.1962 188.352 10.0759 188.091 9.95561C187.162 9.52909 186.17 9.25812 185.153 9.15355H184.953L67.2 0H66.6686H66.3277C65.8065 0.00687687 65.2867 0.0571799 64.7737 0.150387L64.2925 0.250645L63.9917 0.330851C63.4823 0.472125 62.9859 0.6566 62.5079 0.88227C62.2573 0.992554 62.0267 1.11286 61.7961 1.25322C61.1143 1.64391 60.4844 2.11885 59.9213 2.66686L2.77424 58.9817C2.58678 59.1659 2.4094 59.36 2.24287 59.5632C2.03233 59.8139 1.88194 60.0244 1.75161 60.2049C1.62127 60.3854 1.46086 60.6159 1.28039 60.9067C1.09993 61.1974 1.03977 61.3178 0.939517 61.5283C0.758765 61.9265 0.611218 62.339 0.498382 62.7615C0.36674 63.1411 0.262866 63.5298 0.187582 63.9245C0.0990037 64.3674 0.0453677 64.8166 0.0271696 65.2679C-0.00905654 65.7183 -0.00905654 66.171 0.0271696 66.6214C0.0678397 67.0237 0.138212 67.4225 0.237711 67.8145C0.323316 68.2349 0.444049 68.6474 0.59864 69.0476C0.678846 69.2482 0.769078 69.4487 0.85931 69.6492C0.995265 69.9277 1.14586 70.1987 1.31047 70.4613C1.43078 70.6618 1.57114 70.9024 1.76163 71.1731C1.90184 71.3778 2.05242 71.5753 2.21279 71.7646L105.298 191.633C105.571 191.945 105.869 192.233 106.19 192.495Z" fill="white"/>
    <path d="M9.05038 63.2828L66.1874 6.97791L183.9 16.0913L232.816 73.3286L9.05038 63.2828Z" fill="#DB5E8E"/>
    <path d="M112.045 183.141L9.05038 63.2828L232.816 73.3287L112.045 183.141Z" fill="#7BCACA"/>
    <path d="M66.1874 6.97791L72.7543 66.1401L9.05038 63.2828L66.1874 6.97791Z" fill="#9382D0"/>
    <path d="M232.816 73.3287L183.9 16.0914L165.633 70.3109L232.816 73.3287Z" fill="#A496EB"/>
    <path d="M121.77 11.2791L72.7543 66.1402L165.633 70.3109L121.77 11.2791Z" fill="#FCD0E7"/>
    <path d="M112.045 183.141L72.7543 66.1401L165.633 70.3109L112.045 183.141Z" fill="#F0CC16"/>
    <path d="M234.962 73.4389C234.958 73.1521 234.924 72.8665 234.861 72.5867V72.5165C234.766 72.3259 234.659 72.1417 234.54 71.9651V71.9049L185.504 14.6877C185.336 14.5003 185.136 14.3442 184.913 14.2265L184.752 14.1463C184.525 14.0377 184.281 13.9698 184.031 13.9458L66.3478 4.82235H66.1974C66.0574 4.80873 65.9163 4.80873 65.7763 4.82235H65.5958C65.4752 4.85529 65.3578 4.8989 65.2449 4.95268L65.0845 5.03289C64.9245 5.12072 64.7763 5.22852 64.6434 5.35371L7.49638 61.6586C7.42681 61.7409 7.36316 61.828 7.30589 61.9192C7.24334 61.9987 7.18639 62.0825 7.13545 62.1699C7.10769 62.2453 7.08426 62.3223 7.06527 62.4005C7.02414 62.5014 6.99063 62.6053 6.96501 62.7113C6.95801 62.8114 6.95801 62.9119 6.96501 63.012C6.93794 63.2252 6.962 63.4417 7.03519 63.6437C7.04696 63.7248 7.0637 63.8052 7.08532 63.8843C7.12895 63.978 7.17921 64.0684 7.23571 64.155C7.28567 64.2494 7.34264 64.3398 7.40614 64.4257L110.401 184.545C110.401 184.545 110.481 184.595 110.511 184.625C110.648 184.766 110.803 184.887 110.973 184.986L111.163 185.086C111.399 185.198 111.654 185.266 111.915 185.287C112.134 185.299 112.354 185.279 112.567 185.226C112.73 185.185 112.888 185.124 113.038 185.046L113.178 184.956C113.277 184.9 113.371 184.836 113.459 184.765L234.28 74.9227L234.35 74.8425C234.451 74.7416 234.542 74.6307 234.621 74.5116L234.721 74.3612L234.771 74.281C234.798 74.2122 234.822 74.1419 234.841 74.0705C234.882 73.9696 234.916 73.8657 234.941 73.7597C234.956 73.6534 234.963 73.5462 234.962 73.4389ZM75.8121 68.426L162.285 72.306L112.386 177.366L75.8121 68.426ZM68.6337 9.2738L117.259 13.0335L74.3684 61.0871L68.6337 9.2738ZM121.289 66.1702L77.4062 64.165L121.62 14.6877L161.182 67.9347L121.289 66.1702ZM168.611 68.2956L184.742 20.4125L227.943 70.9625L208.173 70.0702L168.611 68.2956ZM164.911 65.719L126.352 13.8055L180.963 18.0464L164.911 65.719ZM64.5231 11.6499L70.318 63.8642L14.0633 61.3377L64.5231 11.6499ZM71.2103 68.2355L106.501 173.326L13.953 65.6689L71.2103 68.2355ZM118.743 174.158L166.977 72.5366L227.492 75.2535L118.743 174.158Z" fill="#5B5957"/>
</svg>
